<?xml version="1.0" standalone="no"?>
<!DOCTYPE svg PUBLIC "-//W3C//DTD SVG 20010904//EN"
 "http://www.w3.org/TR/2001/REC-SVG-20010904/DTD/svg10.dtd">
<svg version="1.0" xmlns="http://www.w3.org/2000/svg"
 width="900.000000pt" height="1200.000000pt" viewBox="0 0 900.000000 1200.000000"
 preserveAspectRatio="xMidYMid meet">
<metadata>
Created by potrace 1.16, written by Peter Selinger 2001-2019
</metadata>
<g transform="translate(0.000000,1200.000000) scale(0.100000,-0.100000)"
fill="#000000" stroke="none">
<path d="M3485 10791 c-173 -85 -385 -253 -540 -429 l-82 -93 -157 -73 c-177
-84 -271 -137 -434 -243 l-113 -73 -62 56 c-195 177 -399 266 -577 251 -123
-10 -275 -76 -404 -175 -382 -291 -655 -815 -719 -1380 -6 -53 8 -47 17 8 3
23 10 49 15 58 5 9 25 71 46 137 48 154 99 254 215 425 48 71 223 264 282 313
l46 37 87 -52 c52 -31 102 -70 124 -96 20 -25 55 -67 78 -93 55 -64 112 -151
143 -219 14 -30 28 -58 33 -61 4 -3 -11 -45 -33 -94 -23 -48 -52 -121 -65
-162 -20 -59 -79 -161 -126 -216 -4 -5 -7 45 -8 110 -2 180 -28 358 -61 424
-23 43 -118 132 -171 159 -30 16 -58 20 -136 20 -90 -1 -101 -3 -138 -28 -34
-24 -41 -35 -48 -77 -5 -28 -17 -93 -28 -145 -21 -103 -37 -390 -25 -454 6
-34 13 -40 63 -63 33 -15 87 -29 137 -34 44 -5 116 -16 160 -24 98 -19 179
-20 174 -3 -3 7 -43 17 -99 25 -52 6 -116 17 -144 23 -27 6 -81 14 -120 19
-86 10 -132 32 -141 68 -14 55 5 325 31 442 14 63 25 127 25 142 0 22 9 35 40
55 38 25 45 26 128 22 71 -4 96 -10 128 -30 51 -33 142 -130 149 -159 26 -112
38 -207 42 -344 3 -88 9 -164 13 -169 5 -4 -16 -54 -45 -110 -154 -290 -244
-592 -297 -996 -20 -151 -17 -792 5 -1010 20 -189 58 -484 82 -620 21 -117 21
-486 0 -593 -17 -87 -26 -110 -63 -149 -33 -36 -22 -46 28 -23 86 39 171 161
213 305 50 171 69 246 74 293 l6 48 57 -108 c31 -60 86 -158 122 -219 l67
-109 -11 -85 c-16 -122 -16 -722 0 -835 81 -570 257 -1050 460 -1253 52 -51
180 -143 214 -153 l31 -8 -40 37 c-46 42 -131 207 -189 367 -42 118 -88 320
-104 460 -6 55 -12 110 -14 123 -2 12 -2 22 0 22 1 0 26 -42 55 -93 188 -334
423 -612 622 -732 45 -27 104 -65 130 -83 26 -18 61 -39 78 -46 l30 -13 -43
-28 c-60 -40 -970 -951 -1112 -1115 -197 -226 -333 -416 -342 -477 -12 -78 -5
-192 16 -254 42 -126 194 -390 297 -517 39 -48 93 -153 93 -180 0 -10 -11 -25
-25 -32 -36 -19 -33 -60 14 -183 34 -90 38 -109 31 -143 -17 -73 -14 -84 24
-84 30 0 34 4 40 31 10 54 7 90 -13 117 -20 29 -92 194 -87 199 6 6 152 -58
244 -108 52 -27 134 -77 183 -109 92 -62 119 -72 119 -42 0 11 -23 29 -63 51
-187 100 -313 162 -400 196 -94 36 -110 52 -61 59 14 2 20 13 22 39 6 69 -22
131 -112 245 -188 239 -286 412 -307 546 -24 147 11 209 350 611 176 209 535
587 547 576 4 -3 4 -1 1 5 -6 10 21 43 30 37 1 -2 2 -1 1 2 -4 7 254 265 409
410 98 92 143 127 174 136 36 11 43 11 53 -3 8 -11 17 -106 25 -255 8 -131 20
-262 27 -291 9 -35 11 -58 4 -70 -5 -9 -21 -53 -36 -97 -15 -44 -61 -154 -104
-245 -43 -91 -130 -289 -194 -440 -65 -151 -154 -345 -200 -430 -101 -188
-132 -264 -147 -361 -25 -160 21 -324 188 -672 66 -136 67 -137 100 -137 l34
0 -31 55 c-17 30 -28 60 -24 66 4 7 3 9 -3 6 -15 -9 -85 126 -77 150 4 13 3
14 -4 5 -12 -17 -101 179 -137 303 -21 71 -25 102 -20 147 6 54 56 231 72 254
12 16 233 186 335 257 277 192 729 423 870 443 63 9 85 7 211 -25 147 -37 268
-85 443 -176 283 -147 404 -227 879 -583 219 -163 294 -224 302 -247 6 -16 18
-49 27 -72 14 -37 14 -47 0 -100 -18 -73 -128 -296 -198 -402 l-54 -81 57 0
c53 0 57 2 78 34 48 74 125 220 163 310 62 146 70 204 35 287 -5 14 4 18 52
24 62 7 217 39 246 50 12 5 17 2 17 -11 0 -32 58 -203 80 -240 58 -93 158 -63
176 52 3 25 4 91 2 145 l-5 99 26 6 c14 4 40 15 57 25 31 19 31 18 41 -4 6
-12 13 -29 16 -38 6 -20 256 -352 387 -514 75 -93 112 -130 157 -157 39 -23
57 -40 55 -51 -2 -15 8 -17 73 -17 62 0 87 5 138 29 34 15 73 37 87 49 l25 20
-28 11 c-27 10 -27 12 -13 40 9 16 18 47 22 70 4 23 10 41 13 41 13 0 51 -77
51 -102 0 -14 -11 -52 -25 -86 -14 -34 -25 -64 -25 -67 0 -3 15 -5 34 -5 33 0
35 3 52 52 24 74 21 129 -10 182 -14 25 -36 53 -49 63 -19 16 -21 24 -15 63 3
25 7 64 7 88 1 23 3 42 6 42 7 0 193 -78 234 -98 26 -13 35 -14 38 -4 7 20 42
15 37 -6 -9 -32 22 -82 146 -232 l123 -150 54 0 c50 0 63 7 46 24 -9 8 -10 14
-12 50 -1 18 -10 27 -39 38 -26 9 -62 39 -112 93 -40 44 -95 98 -122 119 -27
23 -48 48 -48 59 0 18 5 19 63 14 136 -13 494 -19 501 -9 9 16 -134 24 -420
26 -243 1 -254 2 -254 20 0 11 -3 17 -6 13 -4 -3 -20 1 -37 9 -16 9 -62 26
-101 39 -41 13 -70 27 -68 34 1 7 -2 10 -7 6 -6 -3 -34 6 -62 21 -29 14 -74
33 -100 40 -27 8 -54 21 -62 29 -8 8 -17 11 -21 8 -3 -4 -6 -1 -6 6 0 7 -4 9
-10 6 -5 -3 -10 -1 -10 5 0 6 -4 8 -10 5 -5 -3 -10 -1 -10 5 0 6 -5 8 -10 5
-6 -3 -10 -1 -10 5 0 6 -4 8 -10 5 -5 -3 -10 -1 -10 5 0 6 -4 9 -9 6 -14 -9
-102 25 -95 36 4 6 1 9 -7 6 -8 -3 -30 6 -49 19 -19 12 -41 23 -48 23 -7 0
-11 4 -8 9 6 10 -24 25 -32 16 -3 -3 1 -5 8 -5 7 0 11 -2 8 -5 -8 -8 -39 6
-33 15 3 4 -2 11 -11 14 -10 4 -13 2 -7 -7 4 -6 -11 3 -34 21 -50 39 -106 120
-99 145 2 10 0 14 -7 10 -7 -4 -8 0 -4 11 4 10 7 21 7 26 0 13 168 2 227 -15
29 -9 80 -16 113 -16 33 -1 60 -5 60 -9 0 -4 12 -7 28 -7 15 0 38 -3 52 -6 41
-10 109 -17 215 -24 55 -3 105 -9 110 -13 16 -12 171 -15 554 -12 275 2 361 6
385 17 69 31 161 92 161 107 0 9 32 38 70 64 39 26 107 76 153 111 45 34 86
63 91 63 5 0 30 20 57 45 26 25 51 45 55 45 4 0 23 -43 44 -95 20 -52 41 -95
46 -95 18 0 8 -22 -78 -176 -59 -105 -90 -152 -95 -143 -95 164 -158 242 -158
194 0 -27 57 -162 114 -270 29 -55 81 -163 115 -240 34 -77 108 -230 165 -340
91 -175 107 -200 130 -203 25 -3 26 -1 26 46 0 45 -18 84 -169 381 l-170 331
59 122 c32 68 72 158 89 202 l32 78 -41 117 c-23 64 -40 123 -39 131 10 71
-15 762 -41 1175 -34 523 -45 610 -111 865 -57 223 -98 336 -125 349 -45 20
-144 33 -228 30 l-86 -4 -11 30 c-37 93 -368 746 -423 833 -73 116 -83 120
101 -37 134 -114 218 -169 276 -180 47 -8 49 -8 93 32 25 23 72 79 103 126 32
47 93 138 136 201 174 259 313 623 332 869 7 93 -3 107 -115 183 -300 202
-1008 388 -1482 388 l-135 0 52 24 c78 37 167 100 249 178 105 100 122 163 88
339 -26 136 -112 349 -185 456 l-29 42 61 93 c101 154 209 393 209 463 0 60
-126 329 -226 483 -31 47 -87 117 -125 155 l-68 68 18 47 c30 77 51 186 71
371 l19 176 -25 38 c-56 86 -226 225 -392 321 -94 55 -215 96 -282 96 l-55 0
-1 118 c-1 207 -56 412 -133 488 -53 54 -210 86 -411 85 -112 0 -157 -6 -275
-37 -16 -4 -26 6 -50 52 -35 69 -171 215 -263 282 -37 28 -107 71 -156 97
l-88 48 -102 -6 c-198 -12 -424 -88 -590 -200 -38 -26 -70 -47 -72 -47 -2 0
-4 6 -4 14 0 38 -181 174 -314 237 -77 36 -291 89 -357 89 -13 0 -69 -22 -124
-49z m279 4 c143 -37 273 -111 400 -227 l68 -63 -151 3 c-95 2 -200 -2 -279
-12 -70 -8 -154 -18 -187 -21 -120 -13 -399 -82 -579 -145 -33 -11 -64 -20
-70 -20 -15 0 141 156 239 239 96 82 244 181 340 227 79 39 127 43 219 19z
m1378 -132 c167 -96 337 -271 416 -428 56 -113 57 -111 -65 -54 -244 114 -400
171 -648 233 -182 45 -282 64 -394 72 -72 5 -89 10 -80 20 19 23 245 132 320
154 135 40 274 70 311 66 22 -2 80 -28 140 -63z m-556 -212 c161 -27 422 -94
564 -144 138 -48 434 -181 545 -244 204 -116 484 -325 630 -469 233 -229 360
-392 500 -639 226 -397 297 -684 296 -1195 0 -210 -9 -387 -27 -520 -11 -84
-96 -405 -146 -550 -118 -343 -281 -709 -410 -920 -93 -153 -231 -339 -345
-465 -55 -60 -106 -115 -114 -122 -13 -11 -17 13 -27 185 l-12 196 40 61 c51
79 160 306 200 420 45 126 53 262 20 330 -21 44 -23 60 -25 298 -1 226 -4 268
-29 407 -186 1046 -715 1844 -1521 2295 -247 138 -431 206 -835 311 -140 36
-315 81 -389 100 -201 52 -267 59 -360 39 -81 -19 -153 -48 -172 -71 -22 -27
0 -27 61 0 85 38 195 45 320 18 94 -20 445 -103 695 -163 336 -82 572 -185
855 -374 528 -354 874 -813 1109 -1472 101 -286 175 -612 201 -888 11 -123 13
-489 2 -548 l-7 -38 -29 68 c-120 281 -257 502 -408 658 l-99 103 -39 154
c-21 84 -55 200 -75 258 -41 117 -122 296 -131 288 -3 -3 14 -50 37 -104 112
-263 181 -536 224 -884 15 -116 34 -681 22 -670 -2 3 -38 50 -80 105 -87 117
-193 232 -516 560 -130 132 -265 271 -299 310 -45 50 -62 64 -62 50 0 -11 16
-40 35 -65 19 -25 43 -56 52 -70 23 -34 80 -98 172 -195 42 -44 100 -105 129
-137 l53 -56 -103 37 c-57 21 -137 53 -178 70 -41 18 -95 41 -120 51 -79 32
-360 190 -490 274 -194 127 -461 336 -552 433 -18 19 -48 84 -87 193 -127 353
-214 561 -228 547 -3 -3 22 -75 55 -159 222 -562 306 -861 412 -1483 48 -282
79 -447 89 -480 5 -16 12 -66 15 -110 l7 -80 -45 50 c-25 28 -46 55 -46 62 0
7 -6 16 -14 20 -13 7 -119 168 -129 196 -2 7 -8 9 -12 5 -12 -12 21 -88 82
-190 66 -110 179 -239 281 -320 84 -66 83 -66 -68 -44 -156 24 -338 91 -644
235 -71 34 -132 61 -136 61 -25 0 114 -316 176 -402 41 -57 39 -56 -76 31
-127 97 -324 299 -432 444 -211 283 -415 711 -504 1055 -82 321 -109 553 -101
875 7 295 37 470 107 622 33 73 60 99 95 93 27 -6 32 1 13 20 -24 24 -65 14
-98 -25 -69 -78 -117 -233 -145 -469 -17 -137 -17 -171 -3 -709 0 -16 -11
-105 -26 -196 -118 -742 -70 -1620 110 -2027 13 -30 23 -57 21 -58 -2 -2 -25
12 -53 30 -120 82 -430 457 -490 592 -14 33 -29 67 -35 76 -5 10 -9 153 -9
325 0 368 18 633 58 873 5 25 11 51 15 57 9 15 -12 28 -24 16 -21 -21 -59
-336 -84 -683 -41 -584 6 -1418 94 -1665 9 -26 4 -22 -40 25 -79 86 -211 247
-273 334 -45 63 -56 87 -56 117 0 42 -6 48 -24 24 -9 -13 -26 8 -93 117 -45
73 -106 180 -137 238 -57 110 -186 411 -186 436 0 8 -4 14 -10 14 -5 0 -10 -9
-10 -19 0 -26 51 -169 106 -298 l45 -104 -17 -97 c-23 -139 -49 -234 -87 -321
-29 -67 -97 -184 -104 -178 -1 1 3 23 9 47 19 85 14 402 -12 641 -6 57 -17
163 -25 234 -107 958 -76 1536 110 2042 50 135 164 368 228 466 133 203 324
413 453 497 44 29 68 48 54 45 -80 -23 -158 -81 -288 -213 l-112 -115 45 104
c56 127 140 286 212 399 58 93 161 203 291 313 79 66 84 69 110 58 39 -18 136
-85 215 -148 37 -30 67 -50 67 -45 0 15 -132 137 -195 179 -310 208 -686 250
-970 107 -115 -58 -255 -165 -359 -275 -121 -127 -176 -201 -244 -326 -74
-137 -55 -78 33 102 89 180 164 298 272 425 193 227 374 355 574 406 110 28
241 5 375 -65 102 -53 179 -111 280 -211 133 -130 229 -269 259 -374 19 -66
30 -74 20 -14 -18 103 -69 201 -167 319 l-38 47 107 69 c329 212 594 338 932
444 158 49 275 75 481 104 151 22 190 24 455 21 235 -3 313 -8 411 -25z m1399
-172 c120 -15 275 -56 291 -77 20 -26 53 -116 81 -222 22 -81 26 -118 27 -256
l1 -161 -85 79 c-140 131 -427 338 -589 426 l-75 41 -17 61 c-9 33 -14 62 -10
64 3 2 40 13 81 24 122 34 165 37 295 21z m-4226 -460 c65 -12 221 -60 221
-69 0 -3 -41 -41 -90 -84 -50 -43 -105 -97 -124 -119 -38 -47 -121 -181 -206
-334 l-56 -102 -28 61 c-37 79 -73 136 -129 201 -25 28 -63 75 -84 102 -36 45
-177 145 -205 145 -5 0 -6 5 -3 10 11 18 156 111 209 135 50 22 183 60 241 69
40 6 184 -3 254 -15z m4836 -281 c153 -50 304 -140 460 -274 89 -76 90 -78 87
-118 -8 -97 -75 -470 -98 -546 -3 -8 -25 32 -49 88 -48 111 -164 317 -255 452
-72 106 -141 191 -253 313 -101 109 -106 132 -28 121 25 -3 87 -19 136 -36z
m568 -1106 c102 -126 196 -281 268 -442 40 -90 41 -96 30 -138 -25 -95 -230
-479 -291 -545 -15 -16 -15 -12 -9 55 11 106 10 494 -1 633 -15 188 -39 332
-71 430 -16 50 -29 93 -29 98 0 17 53 -29 103 -91z m-3189 -1185 c49 -43 123
-103 165 -134 42 -31 80 -60 85 -64 5 -4 -58 -78 -139 -164 -82 -85 -151 -152
-155 -148 -4 4 -21 80 -40 168 -29 141 -117 490 -135 538 -4 9 24 -13 61 -51
38 -37 109 -103 158 -145z m-1594 -42 c57 -273 176 -593 315 -848 123 -226
240 -381 407 -542 148 -144 355 -279 457 -299 l33 -6 -36 41 c-20 22 -53 66
-73 97 -38 59 -168 321 -161 326 1 2 55 -25 118 -60 137 -76 323 -154 452
-190 77 -21 121 -26 251 -30 86 -2 157 -1 157 3 -1 5 -24 26 -53 48 -28 22
-87 71 -129 109 l-78 70 -1 70 c0 39 -4 98 -8 130 l-7 60 70 79 c39 44 86 99
104 124 19 25 37 41 44 37 6 -4 8 -3 5 3 -7 11 75 93 92 93 5 0 30 20 54 44
58 56 216 155 286 178 56 19 112 16 129 -6 5 -6 15 -29 22 -51 7 -22 20 -56
30 -75 27 -55 123 -474 136 -595 2 -22 6 -59 9 -81 10 -69 -1 -89 -73 -137
-75 -50 -187 -108 -247 -127 l-39 -13 -45 49 c-64 71 -129 174 -189 297 -29
60 -52 110 -52 112 0 3 -11 29 -25 59 -14 30 -25 59 -25 65 0 26 -63 101 -76
89 -1 -2 25 -70 57 -153 113 -284 218 -479 292 -541 27 -23 38 -26 77 -21 108
13 264 100 354 196 l49 53 -6 87 c-11 153 -102 542 -162 688 -14 35 -25 65
-25 67 0 2 35 -6 78 -19 95 -30 227 -57 252 -53 22 4 209 -192 387 -404 64
-76 121 -138 129 -138 8 0 13 11 13 28 0 15 4 83 11 152 14 152 1 379 -35 627
-13 92 -23 168 -21 170 8 9 109 -133 117 -165 13 -55 104 -601 133 -797 64
-432 89 -826 82 -1266 -4 -246 -25 -562 -39 -576 -2 -2 -7 77 -10 174 -3 98
-14 256 -23 351 -13 138 -14 186 -4 239 6 36 9 68 6 71 -8 7 -10 2 -85 -308
-100 -412 -182 -663 -276 -850 -19 -39 -31 -70 -25 -70 6 0 13 7 16 15 4 8 13
15 21 15 8 0 11 -5 7 -12 -4 -7 -3 -8 5 -4 6 4 9 11 6 16 -6 10 119 110 139
110 8 0 27 16 42 36 21 27 25 38 15 44 -10 6 -10 9 -1 15 18 11 25 0 85 -135
31 -69 72 -154 92 -189 42 -76 41 -116 -5 -183 -34 -50 -248 -313 -327 -403
-30 -33 -89 -103 -132 -155 -43 -52 -105 -123 -138 -158 -56 -60 -60 -63 -66
-41 -3 13 -9 152 -13 309 l-7 285 -43 42 c-26 25 -61 46 -87 54 -24 7 -45 14
-47 15 -2 1 10 27 25 59 26 54 33 60 113 100 47 24 114 59 148 79 35 20 66 36
68 36 2 0 4 -8 4 -17 0 -30 18 0 26 42 7 39 6 39 -12 24 -25 -22 -274 -153
-279 -147 -3 2 10 40 29 84 81 192 196 568 196 642 0 21 2 24 10 12 7 -11 10
0 10 37 0 28 -4 55 -10 58 -5 3 -11 32 -11 63 -2 55 -2 55 -11 -23 -29 -263
-165 -670 -352 -1055 -59 -121 -69 -131 -36 -34 33 95 116 425 154 609 40 196
80 471 98 665 17 195 14 676 -6 900 -40 446 -128 906 -182 950 -19 17 -19 -4
1 -59 32 -93 92 -453 121 -731 22 -201 30 -814 15 -1022 -22 -286 -91 -711
-172 -1049 l-30 -125 -72 -23 c-40 -13 -76 -26 -82 -30 -5 -4 -53 -4 -105 0
-52 4 -134 8 -181 8 l-86 1 -6 39 c-8 59 -50 144 -97 195 l-41 45 129 84 c215
142 361 267 541 460 116 126 187 214 178 224 -4 3 -59 -43 -122 -103 -363
-341 -442 -405 -772 -625 -221 -148 -260 -170 -287 -166 -49 7 -427 114 -581
164 -444 144 -657 250 -756 376 -51 64 -109 178 -109 213 0 116 -112 346 -237
485 -27 30 -57 67 -67 82 -9 16 -61 79 -115 142 -99 115 -193 245 -250 346
-49 88 -71 165 -77 269 l-6 95 25 -50 c13 -28 49 -90 81 -138 l56 -88 0 -99
c0 -54 4 -101 8 -104 5 -3 23 15 41 41 18 25 36 42 40 37 5 -5 36 -41 69 -80
89 -105 162 -163 238 -190 65 -24 95 -24 75 -1 -18 23 -114 440 -103 451 11
12 114 6 147 -8 18 -8 42 -12 53 -9 11 2 55 -4 98 -16 44 -11 110 -27 148 -36
93 -22 111 -32 140 -74 30 -43 89 -208 80 -223 -4 -6 -1 -13 5 -17 29 -18 14
-277 -20 -347 -13 -25 -119 -80 -119 -61 0 6 -27 56 -60 110 -33 55 -60 105
-60 113 0 8 -7 17 -15 20 -8 4 -12 10 -9 15 3 5 -2 12 -10 15 -9 3 -13 10 -10
15 3 5 1 9 -4 9 -10 0 -84 115 -82 126 1 4 -3 10 -8 13 -8 5 -85 124 -127 196
-40 70 -59 97 -62 88 -5 -15 83 -188 192 -378 50 -88 109 -191 130 -230 52
-95 94 -153 117 -161 22 -7 85 13 95 30 5 7 21 19 38 27 30 14 35 26 76 184
24 91 -19 311 -83 424 l-30 55 27 -18 c15 -10 30 -15 33 -11 4 3 2 9 -4 13 -6
4 -13 14 -16 23 -10 26 -252 193 -361 249 -54 27 -92 50 -85 50 59 0 272 -86
312 -125 9 -10 24 -14 32 -11 50 19 -93 106 -241 147 -62 17 -112 22 -220 24
l-140 3 -6 43 c-4 24 -6 45 -4 46 1 2 51 -3 111 -11 162 -21 286 -24 314 -6
30 19 -8 28 -195 49 -269 31 -241 19 -249 104 -20 217 -25 456 -16 667 10 205
31 452 47 555 l7 40 7 -30 c4 -16 22 -97 39 -180z m4922 -158 c50 -149 78
-294 78 -401 l0 -83 -72 -58 c-153 -121 -250 -178 -402 -234 -40 -15 -57 -17
-53 -9 129 296 239 636 276 852 15 82 23 107 45 130 14 16 26 34 26 40 1 22
63 -122 102 -237z m-2924 -101 l84 -54 -64 -43 c-93 -62 -230 -174 -334 -272
l-91 -86 -15 75 -15 74 85 93 c115 123 255 267 262 267 3 0 43 -25 88 -54z
m1552 -204 c28 -45 50 -84 50 -86 0 -2 -15 -6 -32 -8 -18 -3 -40 -8 -48 -12
-13 -5 -19 12 -33 93 -10 54 -21 109 -23 122 l-6 24 21 -25 c12 -14 44 -62 71
-108z m-1743 -114 c-51 -62 -120 -162 -159 -233 -28 -51 -31 -50 -42 14 -6 32
-1 39 113 152 66 66 123 119 126 119 4 0 -13 -24 -38 -52z m1829 -40 c10 -18
57 -125 105 -237 49 -112 93 -209 98 -214 20 -20 28 3 19 50 -7 37 -5 66 10
128 l19 80 11 -40 c33 -111 -15 -280 -160 -570 -71 -143 -88 -171 -88 -145 -1
84 -62 534 -105 769 -33 177 -33 176 13 194 53 22 59 21 78 -15z m930 -367
c207 23 612 -20 899 -96 178 -46 487 -153 450 -155 -5 0 12 -13 40 -30 27 -16
53 -27 57 -24 8 5 119 -62 130 -80 5 -6 8 -7 8 -1 0 6 5 3 10 -5 5 -8 13 -15
17 -15 18 -1 77 -38 114 -72 35 -31 39 -40 39 -82 0 -125 -100 -402 -263 -726
-57 -115 -75 -142 -185 -283 l-81 -103 -31 58 c-53 100 -134 222 -159 239 -13
9 -40 43 -60 74 -20 32 -82 109 -138 171 -94 106 -141 153 -343 338 -41 38
-92 85 -113 105 -22 20 -42 34 -46 32 -4 -3 -34 16 -67 42 -32 26 -96 72 -142
103 -62 42 -79 59 -65 62 15 4 14 5 -4 6 -12 0 -25 6 -28 11 -4 6 -10 8 -15 5
-9 -5 -93 39 -86 46 2 2 -5 5 -17 5 -12 1 -42 9 -66 18 -59 22 -88 16 -41 -8
19 -11 38 -24 42 -30 4 -6 8 -8 8 -3 0 10 60 -21 60 -32 0 -4 6 -8 13 -8 16 0
97 -53 97 -64 0 -5 5 -9 11 -9 6 0 49 -30 96 -67 399 -315 775 -690 950 -948
44 -65 87 -145 78 -145 -3 0 -38 18 -77 41 -70 39 -201 143 -283 224 -22 22
-43 40 -47 40 -20 0 -502 469 -730 710 -36 39 -104 106 -149 150 -82 79 -82
80 -34 20 160 -196 361 -421 545 -610 103 -106 200 -231 200 -259 0 -3 14 -25
30 -50 17 -24 44 -75 62 -113 79 -172 152 -322 156 -319 2 2 -9 27 -23 56 -14
29 -24 54 -21 57 2 3 21 -28 42 -68 64 -130 206 -392 240 -446 38 -60 87 -154
82 -158 -17 -14 -48 -13 -58 2 -9 14 -10 15 -6 2 5 -19 -16 -23 -314 -59 -96
-12 -218 -27 -270 -34 -52 -7 -96 -12 -98 -11 -2 2 -23 67 -47 146 -24 79 -62
196 -85 259 -23 63 -49 134 -57 158 -23 64 -25 45 -3 -27 10 -34 16 -70 13
-79 -5 -11 -3 -13 7 -7 10 6 12 4 6 -10 -4 -10 -3 -21 2 -24 9 -5 87 -237 126
-368 l15 -53 -27 -6 c-15 -3 -33 -7 -39 -10 -8 -2 -13 6 -13 20 0 13 -7 43
-15 66 -8 23 -15 55 -15 71 0 15 -7 35 -16 43 -8 9 -12 16 -8 16 3 0 2 6 -4
13 -5 6 -24 55 -41 107 -18 52 -36 103 -42 113 -20 35 -471 1344 -472 1370 -1
9 -5 17 -9 17 -4 0 -6 8 -6 18 0 18 -32 203 -37 212 -2 3 17 34 41 70 47 68
134 234 174 333 13 31 27 52 30 47 4 -7 38 -7 106 1z m-311 -841 c287 -945
432 -1377 543 -1622 l30 -67 -86 -19 c-128 -30 -189 -40 -376 -62 -131 -15
-173 -17 -190 -8 -12 7 -100 15 -210 19 -103 4 -190 9 -192 11 -2 2 4 26 12
53 36 120 70 384 99 770 9 116 27 343 40 505 14 162 27 330 29 372 3 78 4 78
63 155 33 43 77 104 98 136 21 32 42 54 46 50 4 -4 46 -136 94 -293z m-4699
30 c55 -99 137 -206 239 -310 82 -84 192 -235 238 -327 21 -41 26 -73 36 -223
10 -155 27 -313 46 -420 8 -43 -78 142 -101 218 -8 28 -18 52 -21 52 -10 0 9
-94 37 -179 31 -93 167 -401 204 -460 13 -20 49 -81 81 -136 82 -140 161 -257
244 -358 40 -49 65 -87 57 -87 -35 0 -268 52 -340 76 -136 44 -271 119 -348
192 -79 75 -37 9 122 -189 32 -40 29 -38 -39 21 -185 163 -445 539 -616 892
-90 185 -140 329 -156 444 -9 64 -15 81 -22 69 -27 -49 40 -300 134 -506 36
-78 49 -118 49 -152 0 -67 28 -275 56 -417 30 -153 91 -337 144 -438 l39 -75
-41 39 c-183 176 -400 769 -473 1294 -23 165 -29 419 -16 605 6 88 14 175 17
192 l6 33 61 -88 c75 -106 404 -439 419 -424 7 7 3 19 -10 39 -48 67 -85 293
-116 703 l-6 75 18 -40 c9 -23 36 -74 58 -115z m4348 -87 c-7 -39 -48 -403
-84 -733 -28 -269 -85 -690 -97 -720 -5 -15 -12 -57 -13 -92 -1 -10 -6 -20
-11 -23 -5 -4 -6 -17 -3 -30 6 -26 -12 -43 -29 -26 -9 9 -9 14 1 20 11 7 10
11 -2 24 -9 8 -17 24 -19 35 -1 11 -11 27 -20 36 -16 16 -21 30 -18 49 0 4 -4
7 -10 7 -5 0 -7 5 -4 10 3 6 1 10 -5 10 -6 0 -8 5 -5 10 3 6 1 10 -5 10 -13 0
-11 16 35 235 56 265 61 329 64 742 l2 241 39 36 c22 20 45 36 50 36 6 0 9 3
8 8 -2 6 120 142 128 142 2 0 1 -12 -2 -27z m-366 -930 c-2 -249 -6 -335 -15
-345 -10 -9 -13 -7 -15 13 0 13 -1 30 -1 36 1 7 -3 10 -8 8 -4 -3 -13 4 -19
16 -9 17 -18 20 -41 15 -20 -4 -29 -1 -29 7 0 7 -8 29 -19 49 -18 37 -18 37
10 140 16 56 47 183 69 283 22 99 43 191 47 205 15 58 23 -109 21 -427z
m-3409 171 c22 -56 50 -121 85 -199 72 -155 241 -278 546 -398 151 -59 446
-154 640 -207 85 -23 167 -49 182 -56 61 -31 125 -10 273 90 l70 47 43 -48
c40 -44 122 -170 122 -186 0 -4 -31 -7 -68 -7 -168 0 -462 -45 -649 -99 -107
-30 -456 -153 -631 -222 -57 -22 -105 -39 -106 -37 -1 2 -25 35 -53 73 -77
106 -212 316 -287 446 -57 100 -71 136 -101 250 -19 74 -45 202 -59 284 -25
152 -43 334 -33 325 3 -3 14 -28 26 -56z m3268 -486 c9 -10 12 -18 6 -18 -6 0
-31 -16 -56 -35 -25 -19 -48 -35 -50 -35 -3 0 9 38 27 84 l31 84 13 -31 c7
-17 20 -39 29 -49z m330 -320 c-3 -8 -6 -5 -6 6 -1 11 2 17 5 13 3 -3 4 -12 1
-19z m2293 11 l68 -12 86 -256 c55 -164 91 -290 100 -351 29 -182 37 -433 36
-1089 l-2 -654 -61 -51 c-34 -28 -68 -56 -74 -63 -26 -24 -233 -163 -243 -163
-6 0 -21 -10 -33 -23 -36 -38 -124 -97 -131 -89 -4 4 -6 1 -4 -7 7 -30 -43
-41 -182 -41 -74 0 -211 -5 -305 -11 -159 -11 -305 -6 -505 16 -25 3 -94 10
-155 16 -60 6 -137 17 -170 25 -33 8 -83 14 -112 14 -28 0 -89 9 -135 20 -46
11 -114 20 -152 20 l-68 0 5 38 c3 20 10 55 17 77 6 22 16 63 20 90 9 45 20
81 80 250 10 28 42 106 72 175 30 69 58 138 62 154 4 16 20 48 35 70 35 51
106 173 121 206 6 14 29 52 50 85 22 33 52 86 66 117 15 33 31 55 37 51 5 -3
7 -1 3 5 -3 6 -1 14 5 18 6 3 32 38 58 78 69 105 122 176 131 176 4 0 13 12
19 28 7 15 32 48 56 75 l44 47 6 -47 c3 -27 14 -85 25 -131 11 -45 20 -104 20
-130 0 -41 30 -201 60 -317 6 -22 19 -100 30 -172 19 -129 46 -243 57 -243 10
0 187 99 211 118 22 17 23 26 26 140 2 67 1 120 -3 118 -3 -2 -5 29 -3 70 2
41 -1 74 -6 74 -5 0 -7 23 -4 51 3 35 1 50 -6 46 -5 -4 -13 0 -16 9 -4 10 -2
13 6 8 7 -5 8 -3 3 7 -5 7 -8 33 -6 57 2 33 -1 42 -10 37 -9 -6 -10 -1 -5 19
5 19 3 25 -4 21 -7 -4 -8 7 -4 36 6 32 4 40 -6 34 -9 -6 -10 -2 -5 15 5 17 4
21 -6 15 -9 -6 -11 -3 -6 8 3 10 3 17 -1 17 -4 0 -6 21 -5 48 l1 47 -7 -40
c-5 -22 -9 -30 -10 -19 0 12 -8 38 -16 58 -9 21 -11 36 -5 36 5 0 10 7 10 16
0 8 -4 12 -10 9 -5 -3 -9 2 -8 12 0 10 0 27 -1 38 -1 17 -3 18 -12 5 -8 -11
-9 -8 -4 15 4 17 12 37 19 45 8 8 15 20 17 27 4 12 69 82 267 286 63 65 113
120 110 122 -2 2 -36 6 -75 8 l-72 4 -66 -50 c-101 -76 -255 -226 -256 -251 0
-11 -3 -15 -6 -8 -2 6 -9 12 -14 12 -4 0 -6 -7 -3 -15 4 -11 2 -13 -9 -9 -12
4 -9 -12 14 -71 83 -213 193 -839 181 -1027 l-4 -57 -78 -40 c-43 -23 -83 -41
-88 -41 -11 0 -19 41 -91 460 -73 422 -105 590 -113 590 -5 0 -8 -10 -8 -22 0
-14 -3 -18 -8 -12 -8 13 -151 -162 -262 -322 -134 -192 -188 -284 -323 -544
-79 -154 -208 -462 -255 -610 -11 -36 -30 -105 -42 -155 -11 -49 -24 -101 -27
-115 -3 -14 -6 -28 -5 -32 1 -5 -2 -8 -6 -8 -5 0 -28 66 -52 147 -24 82 -48
151 -53 155 -6 3 -26 93 -44 200 -120 690 -127 750 -120 1028 3 113 8 219 11
235 3 17 3 21 0 11 -5 -15 -8 -16 -16 -5 -6 10 -7 3 -3 -21 4 -25 3 -31 -4
-20 -17 25 -5 -560 16 -752 10 -93 17 -168 16 -168 -2 0 -22 15 -46 33 -93 71
-290 157 -361 157 -28 0 -34 7 -71 77 -22 43 -68 124 -102 181 l-62 103 1 82
c0 92 -13 152 -47 214 l-23 42 34 57 c19 31 34 60 34 64 0 4 15 19 34 34 19
14 69 67 112 118 79 95 368 479 431 574 33 49 36 51 52 36 10 -10 16 -20 14
-24 -2 -4 4 -5 13 -1 13 5 15 3 9 -7 -6 -10 -4 -12 8 -7 9 3 53 0 99 -8 158
-26 317 -34 487 -25 205 12 284 22 486 65 212 46 308 61 500 80 88 9 241 27
340 40 207 27 289 30 385 14z m-3373 -184 c-7 -16 -77 -22 -77 -7 0 8 71 31
79 25 2 -1 1 -9 -2 -18z m-178 -36 c151 -12 164 -15 158 -38 -2 -10 -12 -60
-23 -112 -10 -52 -19 -96 -21 -98 -1 -2 -18 8 -38 23 -34 26 -37 27 -97 16
-104 -19 -291 -77 -425 -131 -160 -65 -441 -200 -428 -205 12 -5 86 14 307 79
237 70 429 107 623 121 81 6 105 24 81 61 -12 18 -12 24 1 40 8 11 39 63 69
117 l55 96 37 -10 c20 -5 58 -23 83 -39 56 -36 61 -53 54 -188 -3 -53 -10
-193 -15 -311 -6 -118 -13 -242 -16 -276 -6 -56 -8 -61 -28 -57 -15 3 -90 -29
-212 -90 -275 -137 -626 -264 -1174 -423 -248 -72 -497 -24 -726 142 -90 65
-178 109 -200 100 -9 -3 -12 -1 -9 4 3 6 13 10 20 10 9 0 12 6 9 15 -4 8 -9
13 -13 11 -3 -2 -6 15 -7 37 -1 23 -11 141 -23 262 -32 317 -37 437 -20 430
34 -13 234 -22 251 -11 26 16 22 26 -12 33 -17 3 -40 17 -51 32 l-21 26 49 21
c83 36 545 203 636 229 322 94 671 119 1126 84z m3023 -195 c3 -3 -4 -16 -16
-28 -11 -13 -43 -49 -71 -81 -27 -32 -84 -93 -125 -134 -41 -42 -87 -91 -102
-109 -33 -41 -55 -35 -50 13 2 20 -1 42 -8 50 -10 12 -7 20 19 44 17 16 31 33
31 38 0 4 11 15 25 23 13 8 63 50 110 94 78 72 112 91 166 95 9 1 18 -2 21 -5z
m-5358 -103 c47 -29 172 -76 254 -96 66 -16 73 -20 68 -39 -3 -12 -6 -38 -6
-58 0 -37 -1 -38 -39 -38 -22 0 -43 5 -46 10 -3 6 -39 36 -78 67 -79 63 -200
173 -190 173 3 0 20 -9 37 -19z m4986 -246 c0 -5 -5 -3 -10 5 -5 8 -10 20 -10
25 0 6 5 3 10 -5 5 -8 10 -19 10 -25z m17 -87 c-3 -8 -6 -5 -6 6 -1 11 2 17 5
13 3 -3 4 -12 1 -19z m-2141 -253 c19 -50 24 -147 11 -207 -21 -99 -100 12
-114 159 -6 63 -5 66 23 88 37 30 57 20 80 -40z m-83 -242 c28 -52 74 -68 109
-37 17 16 23 6 137 -227 216 -442 397 -855 539 -1234 l30 -80 -50 -23 c-28
-12 -54 -22 -58 -22 -5 0 -20 21 -35 46 -43 73 -113 103 -161 69 -31 -21 -54
-76 -54 -128 l0 -44 -67 -6 c-38 -4 -117 -7 -178 -7 l-109 0 -41 39 c-22 21
-96 81 -165 133 -69 52 -189 142 -266 201 -172 129 -385 274 -517 351 -143 84
-428 220 -533 255 -93 31 -235 57 -260 47 -8 -3 -14 1 -14 10 0 14 57 215 63
221 2 1 48 11 103 22 55 10 154 37 219 59 66 22 197 64 290 92 250 76 494 170
720 277 110 53 211 104 225 114 l25 17 16 -56 c8 -32 23 -71 32 -89z m-2334
-140 c32 -27 86 -72 120 -101 104 -88 245 -147 433 -182 l66 -12 -14 -33 c-7
-19 -23 -62 -35 -98 l-21 -64 -108 -42 c-289 -111 -732 -369 -947 -550 -40
-34 -73 -59 -73 -56 0 3 24 54 54 114 30 59 100 216 155 348 54 132 135 317
179 411 44 94 91 202 103 241 13 39 25 71 27 71 2 0 29 -21 61 -47z m2781
-273 c66 -29 293 -147 336 -174 1 -1 4 -15 7 -33 l6 -32 -52 24 c-47 22 -172
59 -270 81 -35 8 -42 16 -82 92 -24 45 -42 82 -40 82 2 0 45 -18 95 -40z m95
-180 c33 -7 65 -15 70 -20 6 -4 47 -20 93 -35 46 -16 87 -36 92 -44 4 -9 11
-41 15 -71 9 -79 33 -172 49 -190 7 -8 26 -71 41 -140 40 -185 131 -440 178
-500 9 -11 11 -53 7 -153 l-5 -138 -92 99 c-87 94 -92 102 -103 162 -25 140
-169 502 -344 864 -47 98 -86 181 -86 184 0 2 6 2 13 -1 7 -2 39 -10 72 -17z
m61 -957 c28 -28 52 -94 65 -173 16 -108 -2 -240 -34 -240 -38 0 -107 115
-132 221 -21 89 -19 114 11 165 29 49 59 58 90 27z m729 -181 c72 -32 200 -87
285 -122 85 -34 156 -63 157 -64 5 -5 -48 -218 -71 -285 -14 -41 -26 -85 -26
-97 0 -19 -10 -25 -57 -40 -103 -30 -119 -26 -195 58 -36 40 -66 76 -65 80 1
4 -10 18 -24 30 -46 39 -166 182 -174 207 -4 12 -9 20 -12 17 -10 -10 -33 15
-33 36 0 10 3 17 8 15 4 -3 7 9 7 26 1 18 2 78 3 134 l2 102 33 -19 c17 -10
91 -46 162 -78z"/>
<path d="M4607 7372 c-23 -21 -58 -51 -77 -66 -19 -16 -71 -62 -114 -104 -74
-70 -78 -76 -60 -89 17 -12 30 -1 157 124 76 76 143 146 148 156 17 29 -8 20
-54 -21z"/>
<path d="M5005 7041 c-13 -22 181 -261 212 -261 7 0 31 -17 54 -37 39 -36 42
-36 55 -18 16 22 18 45 4 45 -5 0 -21 17 -34 38 -13 21 -39 54 -58 72 -49 50
-150 130 -163 130 -7 0 -20 9 -30 20 -20 22 -31 25 -40 11z"/>
<path d="M4710 7016 c-107 -37 -105 -36 -73 -55 44 -27 350 -161 367 -161 26
0 27 18 4 39 -70 62 -88 82 -132 139 -54 71 -62 73 -166 38z"/>
<path d="M3810 6596 c-8 -14 -36 -52 -62 -85 -51 -66 -59 -91 -29 -91 29 0
144 129 137 155 -3 11 -6 26 -6 33 0 20 -24 13 -40 -12z"/>
<path d="M1986 6102 c-12 -12 -5 -19 32 -30 51 -14 151 -30 157 -24 13 14 3
42 -17 47 -36 8 -166 14 -172 7z"/>
<path d="M2133 5859 c-69 -40 -78 -52 -61 -83 25 -46 101 -156 108 -156 3 0
17 11 29 24 22 24 22 24 6 102 -9 44 -18 92 -20 108 -2 15 -5 30 -7 31 -2 2
-26 -10 -55 -26z"/>
<path d="M4528 6542 c-30 -26 -31 -26 -25 -101 7 -84 18 -122 61 -196 78 -137
111 -191 120 -203 51 -63 86 -69 116 -19 56 91 -13 438 -99 493 -13 10 -51 25
-83 35 l-58 17 -32 -26z"/>
<path d="M2814 5545 c-9 -23 16 -156 37 -200 43 -89 61 -118 87 -140 24 -21
28 -21 39 -6 25 33 5 188 -38 288 -25 59 -110 99 -125 58z"/>
<path d="M5360 5461 c0 -13 7 -77 15 -144 13 -105 54 -490 72 -670 3 -32 7
-56 9 -54 2 2 8 36 14 77 12 81 4 145 -67 585 -33 210 -43 256 -43 206z"/>
<path d="M3138 4779 c-28 -16 -22 -45 12 -59 38 -16 60 -7 60 23 0 41 -34 59
-72 36z"/>
<path d="M5483 4665 c0 -22 2 -30 4 -17 2 12 2 30 0 40 -3 9 -5 -1 -4 -23z"/>
<path d="M5472 4590 c0 -19 2 -27 5 -17 2 9 2 25 0 35 -3 9 -5 1 -5 -18z"/>
<path d="M5493 4575 c0 -22 2 -30 4 -17 2 12 2 30 0 40 -3 9 -5 -1 -4 -23z"/>
<path d="M5471 4494 c0 -11 3 -14 6 -6 3 7 2 16 -1 19 -3 4 -6 -2 -5 -13z"/>
<path d="M5503 4470 c0 -25 2 -35 4 -22 2 12 2 32 0 45 -2 12 -4 2 -4 -23z"/>
<path d="M5464 4210 c0 -129 2 -182 3 -117 2 64 2 170 0 235 -1 64 -3 11 -3
-118z"/>
<path d="M5513 4340 c0 -36 2 -50 4 -32 2 17 2 47 0 65 -2 17 -4 3 -4 -33z"/>
<path d="M3712 4340 c-39 -9 -46 -15 -37 -29 9 -16 157 -14 180 3 18 13 18 14
-3 25 -23 12 -90 13 -140 1z"/>
<path d="M5524 4125 c0 -55 1 -76 3 -47 2 29 2 74 0 100 -2 26 -3 2 -3 -53z"/>
<path d="M5513 3940 c0 -25 2 -35 4 -22 2 12 2 32 0 45 -2 12 -4 2 -4 -23z"/>
<path d="M5452 3890 c0 -19 2 -27 5 -17 2 9 2 25 0 35 -3 9 -5 1 -5 -18z"/>
<path d="M5528 3830 c-9 -17 -13 -30 -8 -30 5 0 16 14 25 30 20 39 5 39 -17 0z"/>
<path d="M5488 3783 c-19 -5 -24 -18 -9 -28 5 -3 17 2 25 11 25 24 22 27 -16
17z"/>
<path d="M5865 3549 c-4 -6 -5 -12 -2 -15 2 -3 7 2 10 11 7 17 1 20 -8 4z"/>
<path d="M7696 5991 c5 -4 72 -30 149 -56 180 -62 318 -116 405 -160 74 -37
98 -44 65 -19 -41 32 -194 103 -315 147 -132 48 -320 102 -304 88z"/>
<path d="M8080 5765 c0 -20 4 -26 18 -23 9 2 17 12 17 23 0 11 -8 21 -17 23
-14 3 -18 -3 -18 -23z"/>
<path d="M7992 5645 c-2 -29 23 -85 38 -85 14 0 13 5 -10 50 -18 35 -16 53 4
33 10 -10 96 -16 96 -6 0 14 -22 33 -38 33 -7 0 -10 -5 -6 -11 4 -7 0 -9 -12
-6 -65 20 -69 19 -72 -8z"/>
<path d="M7714 5537 c28 -26 53 -47 57 -47 4 0 85 -75 180 -167 95 -93 167
-158 161 -146 -24 45 -238 256 -326 322 -117 87 -133 95 -72 38z"/>
<path d="M7821 4305 c0 -5 13 -35 29 -65 16 -30 29 -50 29 -45 0 6 -13 35 -29
65 -16 30 -29 51 -29 45z"/>
<path d="M7274 4196 c-8 -20 -1 -47 11 -49 6 -1 23 -30 39 -64 16 -35 35 -63
42 -63 8 0 10 7 5 23 -9 30 -80 167 -86 167 -3 0 -8 -6 -11 -14z"/>
<path d="M7520 4161 c0 -17 73 -186 86 -200 25 -27 27 -1 4 49 -13 27 -28 46
-33 43 -6 -3 -7 -1 -3 5 4 6 -5 34 -19 62 -24 48 -35 60 -35 41z"/>
<path d="M7640 4104 l0 -26 -20 23 c-25 31 -26 13 0 -28 23 -39 40 -43 40 -10
0 13 5 28 11 34 13 13 4 33 -17 33 -8 0 -14 -10 -14 -26z"/>
<path d="M7911 4115 c0 -5 11 -30 24 -55 13 -25 24 -40 24 -35 0 6 -11 30 -24
55 -13 25 -24 41 -24 35z"/>
<path d="M7677 4093 c-4 -6 0 -16 8 -23 21 -17 28 -8 11 15 -8 11 -15 14 -19
8z"/>
<path d="M7390 4085 c0 -12 50 -104 60 -110 17 -11 11 8 -20 63 -27 47 -40 62
-40 47z"/>
<path d="M7981 3965 c0 -5 8 -26 19 -45 11 -19 19 -30 19 -25 0 6 -8 26 -19
45 -11 19 -19 31 -19 25z"/>
<path d="M8240 3705 c-176 -43 -440 -198 -744 -437 l-110 -86 -33 29 c-19 16
-39 29 -45 29 -6 0 4 -10 23 -23 19 -12 34 -30 34 -38 0 -8 -40 -50 -90 -93
-118 -101 -384 -366 -489 -486 -293 -336 -528 -714 -580 -935 -13 -54 10 -14
58 101 156 371 536 864 952 1233 322 286 591 480 819 591 136 67 192 86 296
104 48 8 67 15 55 19 -26 10 -84 7 -146 -8z"/>
<path d="M6389 3460 c-21 -22 -56 -67 -79 -99 -46 -68 -142 -242 -136 -248 2
-2 22 26 46 61 23 36 45 65 48 64 20 -2 32 3 27 12 -6 10 23 71 52 108 10 13
40 50 66 83 37 44 44 59 31 59 -9 0 -34 -18 -55 -40z"/>
<path d="M6480 3370 c-17 -6 -4 -8 45 -8 52 0 62 2 40 8 -39 10 -54 10 -85 0z"/>
<path d="M6634 3358 c-3 -4 11 -8 30 -8 20 0 36 2 36 4 0 8 -61 12 -66 4z"/>
<path d="M6733 3343 c9 -2 25 -2 35 0 9 3 1 5 -18 5 -19 0 -27 -2 -17 -5z"/>
<path d="M6804 3339 c-3 -5 6 -9 20 -9 31 0 34 6 6 13 -11 3 -23 1 -26 -4z"/>
<path d="M6865 3330 c-4 -6 6 -10 22 -10 22 0 25 2 13 10 -19 12 -27 12 -35 0z"/>
<path d="M6938 3313 c6 -2 18 -2 25 0 6 3 1 5 -13 5 -14 0 -19 -2 -12 -5z"/>
<path d="M6988 3303 c6 -2 18 -2 25 0 6 3 1 5 -13 5 -14 0 -19 -2 -12 -5z"/>
<path d="M7035 3300 c-4 -6 3 -10 14 -10 25 0 27 6 6 13 -8 4 -17 2 -20 -3z"/>
<path d="M7088 3283 c6 -2 18 -2 25 0 6 3 1 5 -13 5 -14 0 -19 -2 -12 -5z"/>
<path d="M7135 3280 c-4 -6 3 -10 14 -10 25 0 27 6 6 13 -8 4 -17 2 -20 -3z"/>
<path d="M7180 3270 c0 -5 7 -10 16 -10 8 0 12 5 9 10 -3 6 -10 10 -16 10 -5
0 -9 -4 -9 -10z"/>
<path d="M7228 3253 c7 -3 16 -2 19 1 4 3 -2 6 -13 5 -11 0 -14 -3 -6 -6z"/>
<path d="M7265 3250 c-3 -5 1 -10 10 -10 9 0 13 5 10 10 -3 6 -8 10 -10 10 -2
0 -7 -4 -10 -10z"/>
<path d="M6271 3204 c6 -7 17 -10 25 -7 20 7 18 10 -11 15 -20 4 -23 2 -14 -8z"/>
<path d="M6338 3213 c7 -3 16 -2 19 1 4 3 -2 6 -13 5 -11 0 -14 -3 -6 -6z"/>
<path d="M6390 3206 c0 -9 39 -13 51 -5 10 6 4 9 -18 9 -18 0 -33 -2 -33 -4z"/>
<path d="M6483 3193 c9 -2 23 -2 30 0 6 3 -1 5 -18 5 -16 0 -22 -2 -12 -5z"/>
<path d="M6540 3186 c0 -9 30 -14 35 -6 4 6 -3 10 -14 10 -12 0 -21 -2 -21 -4z"/>
<path d="M6590 3176 c0 -9 30 -14 35 -6 4 6 -3 10 -14 10 -12 0 -21 -2 -21 -4z"/>
<path d="M6648 3163 c7 -3 16 -2 19 1 4 3 -2 6 -13 5 -11 0 -14 -3 -6 -6z"/>
<path d="M6680 3156 c0 -9 30 -14 35 -6 4 6 -3 10 -14 10 -12 0 -21 -2 -21 -4z"/>
<path d="M6738 3143 c6 -2 18 -2 25 0 6 3 1 5 -13 5 -14 0 -19 -2 -12 -5z"/>
<path d="M6788 3133 c7 -3 16 -2 19 1 4 3 -2 6 -13 5 -11 0 -14 -3 -6 -6z"/>
<path d="M6858 3113 c7 -3 16 -2 19 1 4 3 -2 6 -13 5 -11 0 -14 -3 -6 -6z"/>
<path d="M6898 3103 c7 -3 16 -2 19 1 4 3 -2 6 -13 5 -11 0 -14 -3 -6 -6z"/>
<path d="M6934 3093 c4 -4 19 -8 34 -10 23 -2 24 -1 7 7 -24 11 -51 13 -41 3z"/>
<path d="M7040 3060 c8 -5 20 -10 25 -10 6 0 3 5 -5 10 -8 5 -19 10 -25 10 -5
0 -3 -5 5 -10z"/>
<path d="M7111 3036 c2 -2 15 -9 29 -15 24 -11 24 -11 6 3 -16 13 -49 24 -35
12z"/>
<path d="M7220 2993 c1 -5 7 -19 15 -33 10 -18 14 -20 15 -8 0 23 -11 48 -21
48 -5 0 -9 -3 -9 -7z"/>
<path d="M7244 2919 c-3 -6 -1 -16 5 -22 8 -8 11 -5 11 11 0 24 -5 28 -16 11z"/>
<path d="M7565 2790 c-3 -5 -1 -10 4 -10 6 0 11 5 11 10 0 6 -2 10 -4 10 -3 0
-8 -4 -11 -10z"/>
<path d="M3462 3208 c-129 -101 -191 -270 -146 -401 17 -49 93 -129 139 -147
51 -20 127 -11 237 26 117 40 138 40 187 -2 27 -23 31 -32 31 -78 0 -96 -77
-155 -186 -142 -30 3 -54 4 -54 0 0 -3 12 -20 26 -39 29 -39 68 -55 131 -55
39 0 49 5 92 48 56 56 81 119 81 201 0 69 -23 111 -75 135 -36 17 -43 17 -124
3 -145 -27 -167 -29 -208 -18 -80 22 -125 98 -130 221 -4 102 25 200 69 233
32 24 94 36 133 26 40 -11 43 -4 6 15 -18 10 -55 16 -93 16 -59 0 -67 -3 -116
-42z"/>
<path d="M2952 3028 c-16 -16 -15 -33 4 -48 14 -12 257 -99 278 -100 19 0 -60
72 -125 116 -69 46 -131 58 -157 32z"/>
<path d="M4100 2900 c8 -5 32 -10 52 -10 140 0 399 -101 518 -200 54 -45 82
-50 104 -18 47 66 -8 117 -193 179 -46 16 -120 36 -164 44 -90 17 -342 21
-317 5z"/>
<path d="M3203 2699 c1 -3 -45 -31 -103 -61 -107 -55 -138 -86 -124 -123 13
-33 62 -8 167 86 56 51 106 96 111 100 5 5 -4 7 -21 6 -17 -1 -31 -5 -30 -8z"/>
<path d="M5710 760 l-25 -8 28 -1 c15 -1 27 4 27 9 0 6 -1 10 -2 9 -2 -1 -14
-5 -28 -9z"/>
<path d="M660 9656 c-69 -19 -109 -44 -172 -104 -52 -49 -58 -59 -58 -96 0
-32 -7 -47 -32 -74 -31 -31 -33 -38 -40 -130 -4 -53 -10 -257 -13 -452 -6
-306 -5 -363 9 -414 8 -32 20 -64 26 -71 13 -15 97 -38 110 -30 5 3 44 -3 87
-14 43 -11 138 -31 212 -46 73 -15 153 -35 178 -46 54 -23 53 -23 53 -4 0 35
-58 51 -485 136 -60 12 -116 25 -124 28 -8 4 -21 34 -29 67 -11 47 -12 121 -7
369 3 171 9 364 13 431 7 118 8 122 40 158 24 27 32 46 32 74 0 32 8 45 53 89
61 60 110 86 190 104 35 7 57 17 57 26 0 16 -39 16 -100 -1z"/>
<path d="M382 8013 c-5 -10 -13 -126 -16 -258 -4 -132 -9 -265 -10 -295 -2
-30 -4 -203 -5 -384 -2 -366 -2 -364 66 -393 20 -8 79 -23 132 -33 53 -10 114
-25 136 -33 22 -8 71 -18 109 -22 55 -5 67 -4 64 7 -3 7 -27 17 -54 21 -27 5
-78 17 -114 28 -36 11 -105 27 -153 36 -50 9 -102 25 -120 37 l-32 22 1 349
c1 193 6 474 10 625 l9 275 47 3 c28 2 59 -3 76 -12 17 -9 48 -18 70 -22 23
-3 44 -14 49 -23 4 -9 8 -231 8 -494 0 -546 -10 -493 99 -508 33 -5 70 -10 80
-11 10 -2 21 2 23 9 4 12 -36 26 -122 40 l-50 8 0 476 c0 414 -2 478 -16 499
-19 29 -118 61 -211 67 -57 4 -68 2 -76 -14z"/>
<path d="M655 6193 c-48 -11 -131 -60 -174 -102 -66 -65 -105 -185 -131 -411
-17 -141 -24 -631 -11 -673 23 -69 50 -80 331 -136 140 -28 278 -58 305 -65
28 -8 88 -22 135 -31 47 -9 132 -34 189 -56 57 -22 110 -38 117 -35 17 7 18
25 2 30 -7 2 -58 20 -113 40 -55 20 -145 45 -200 56 -55 11 -122 27 -150 35
-27 8 -156 35 -285 61 -129 25 -246 52 -258 61 -13 8 -31 31 -39 51 -14 33
-15 72 -5 362 6 179 16 343 21 365 5 22 16 74 25 115 8 41 26 100 40 131 59
134 243 210 395 165 67 -20 71 -20 71 -1 0 31 -182 58 -265 38z"/>
<path d="M770 5827 c-28 -14 -80 -87 -112 -157 -17 -37 -22 -71 -26 -185 -2
-88 0 -156 7 -183 22 -80 92 -132 177 -132 16 0 40 -7 52 -16 23 -16 52 -13
52 5 0 16 -61 41 -98 41 -50 0 -114 34 -137 72 -18 29 -20 51 -20 188 l0 155
47 86 c50 90 72 109 131 109 18 0 49 -8 69 -19 57 -28 70 -4 16 29 -38 23
-119 27 -158 7z"/>
<path d="M1148 5263 l-3 -108 -58 -3 c-77 -4 -72 -26 7 -30 83 -4 86 0 86 134
0 94 -3 114 -15 114 -11 0 -15 -21 -17 -107z"/>
<path d="M1405 4210 c-27 -5 -126 -13 -220 -18 -140 -8 -180 -14 -225 -33 -48
-20 -79 -23 -240 -29 -200 -7 -271 -19 -322 -54 -43 -29 -58 -76 -65 -208 -7
-131 1 -155 71 -205 28 -20 81 -65 118 -99 79 -74 154 -124 258 -172 41 -19
90 -47 110 -62 19 -15 145 -92 280 -171 135 -79 274 -166 309 -192 36 -27 97
-65 135 -84 39 -20 89 -44 111 -55 74 -37 240 -131 270 -154 17 -12 57 -35 90
-52 33 -16 70 -44 83 -61 25 -35 42 -40 42 -13 0 24 -54 75 -110 102 -25 12
-58 32 -75 44 -51 37 -164 101 -320 180 -82 43 -179 99 -215 125 -64 48 -122
84 -415 256 -82 49 -164 99 -181 111 -16 13 -55 34 -86 48 -86 38 -196 112
-268 180 -36 33 -87 76 -113 93 -63 43 -70 66 -62 190 13 191 32 204 315 213
180 6 201 8 270 34 65 24 97 29 240 36 231 12 300 23 300 50 0 11 -14 11 -85
0z"/>
<path d="M1390 3863 c-36 -7 -163 -17 -285 -21 -228 -8 -265 -15 -265 -52 0
-44 21 -68 97 -115 43 -26 128 -80 188 -120 222 -146 317 -195 376 -195 50 0
56 23 63 259 7 212 7 214 -15 237 -26 28 -59 29 -159 7z m141 -35 c8 -16 9
-49 3 -117 -5 -53 -9 -143 -9 -200 0 -131 -6 -136 -99 -97 -36 16 -107 55
-158 88 -51 33 -129 84 -173 113 -44 28 -108 69 -143 89 -67 40 -92 70 -73 89
7 7 94 14 234 19 122 4 254 14 292 21 101 20 113 20 126 -5z"/>
<path d="M1867 3844 c-10 -10 -8 -116 2 -133 17 -26 27 -2 26 65 0 62 -10 86
-28 68z"/>
<path d="M2160 2935 c0 -8 22 -26 50 -40 l49 -25 3 -125 c4 -171 22 -164 26
10 l3 134 -53 31 c-59 33 -78 37 -78 15z"/>
<path d="M492 2700 c-36 -22 -66 -80 -97 -185 -9 -32 -29 -82 -43 -110 -26
-48 -27 -57 -27 -200 0 -312 65 -522 206 -668 28 -28 62 -64 76 -79 38 -39
166 -90 241 -96 122 -10 273 31 358 95 65 50 114 132 179 301 85 218 95 237
169 312 39 40 58 51 102 60 29 6 74 8 99 5 37 -6 45 -5 45 8 0 33 -147 34
-209 2 -41 -21 -122 -114 -153 -176 -14 -30 -53 -121 -85 -204 -94 -243 -163
-315 -340 -355 -129 -30 -193 -24 -304 28 -68 31 -89 47 -111 80 -15 23 -42
52 -59 64 -33 25 -85 110 -119 198 -37 95 -72 329 -67 450 4 94 8 114 41 187
20 45 36 89 36 98 0 44 68 165 92 165 15 0 174 -169 193 -205 18 -32 18 -35
-4 -116 -13 -46 -33 -111 -46 -144 -12 -33 -28 -100 -35 -150 -12 -88 -12 -92
14 -169 44 -130 102 -186 190 -186 53 0 93 14 123 42 31 29 129 204 142 253
28 106 132 322 183 380 48 56 153 104 241 111 110 10 260 -25 395 -92 104 -52
139 -60 107 -24 -27 29 -236 128 -295 138 -30 6 -107 9 -170 8 -109 -2 -119
-4 -190 -38 -46 -22 -90 -52 -112 -76 -54 -60 -152 -264 -195 -405 -8 -27 -32
-78 -54 -113 -21 -35 -39 -68 -39 -73 0 -24 -64 -69 -106 -76 -93 -14 -145 29
-187 153 -21 63 -22 77 -14 153 5 46 19 111 32 144 13 33 26 76 30 95 4 19 15
61 26 92 14 43 16 64 9 83 -12 31 -102 141 -139 169 -14 11 -30 27 -35 34 -12
21 -45 52 -53 52 -5 0 -23 -9 -41 -20z"/>
<path d="M2219 2268 c0 -2 -2 -11 -4 -20 -5 -25 11 -23 18 2 3 11 1 20 -4 20
-5 0 -9 -1 -10 -2z"/>
<path d="M2133 2166 l-48 -51 53 50 c54 51 63 53 36 7 -15 -25 -15 -26 1 -7
58 69 23 70 -42 1z"/>
<path d="M2144 2128 c-4 -7 -14 -24 -22 -38 -14 -24 -13 -24 3 -5 20 24 37 55
31 55 -3 0 -8 -6 -12 -12z"/>
<path d="M2045 2068 l-40 -43 43 40 c39 36 47 45 39 45 -2 0 -21 -19 -42 -42z"/>
<path d="M2094 2048 c-4 -7 -14 -24 -22 -38 -14 -24 -13 -24 3 -5 20 24 37 55
31 55 -3 0 -8 -6 -12 -12z"/>
<path d="M1985 2002 c-11 -9 -27 -26 -35 -37 -8 -11 3 -4 23 14 33 31 42 42
35 41 -2 -1 -12 -8 -23 -18z"/>
<path d="M2040 1960 c-6 -11 -8 -20 -6 -20 3 0 10 9 16 20 6 11 8 20 6 20 -3
0 -10 -9 -16 -20z"/>
<path d="M1904 1908 l-29 -33 33 29 c30 28 37 36 29 36 -2 0 -16 -15 -33 -32z"/>
<path d="M2010 1910 c-6 -11 -8 -20 -6 -20 3 0 10 9 16 20 6 11 8 20 6 20 -3
0 -10 -9 -16 -20z"/>
<path d="M1975 1850 c-9 -16 -12 -30 -7 -30 4 0 13 14 19 30 6 17 10 30 7 30
-2 0 -10 -13 -19 -30z"/>
<path d="M1844 1838 l-29 -33 33 29 c17 17 32 31 32 33 0 8 -8 1 -36 -29z"/>
<path d="M1935 1780 c-9 -16 -12 -30 -7 -30 4 0 13 14 19 30 6 17 10 30 7 30
-2 0 -10 -13 -19 -30z"/>
<path d="M1796 1785 c-11 -8 -17 -17 -14 -20 2 -3 13 4 23 15 21 23 18 25 -9
5z"/>
<path d="M1764 1738 c-4 -7 -14 -24 -22 -38 -14 -24 -13 -24 3 -5 20 24 37 55
31 55 -3 0 -8 -6 -12 -12z"/>
<path d="M1885 1690 c-9 -16 -12 -30 -7 -30 4 0 13 14 19 30 6 17 10 30 7 30
-2 0 -10 -13 -19 -30z"/>
<path d="M1710 1656 c0 -7 -7 -19 -15 -26 -8 -7 -15 -18 -15 -24 1 -11 24 15
41 47 6 11 6 17 -1 17 -5 0 -10 -6 -10 -14z"/>
<path d="M1830 1591 c-13 -25 -13 -31 1 -31 5 0 8 4 4 9 -3 5 2 17 11 25 8 9
11 16 5 16 -6 0 -15 -9 -21 -19z"/>
<path d="M1652 1570 c-7 -11 -8 -20 -2 -20 5 0 14 9 20 20 6 11 7 20 3 20 -5
0 -14 -9 -21 -20z"/>
<path d="M3409 1551 c-45 -28 -79 -79 -79 -118 0 -33 29 -63 60 -63 38 0 44
12 20 40 -11 13 -20 27 -20 32 0 20 31 67 64 96 20 17 36 34 36 37 0 14 -41 2
-81 -24z"/>
<path d="M1810 1540 c0 -5 5 -10 10 -10 6 0 10 5 10 10 0 6 -4 10 -10 10 -5 0
-10 -4 -10 -10z"/>
<path d="M1612 1495 c-6 -14 -8 -25 -3 -25 4 0 13 11 19 25 6 14 8 25 3 25 -4
0 -13 -11 -19 -25z"/>
<path d="M1800 1501 c0 -12 5 -21 10 -21 6 0 10 6 10 14 0 8 -4 18 -10 21 -5
3 -10 -3 -10 -14z"/>
<path d="M1595 1452 c-2 -2 -39 -8 -82 -13 -82 -10 -199 -44 -209 -60 -11 -19
5 -22 39 -6 39 19 100 33 185 42 58 7 62 6 62 -13 0 -12 5 -24 10 -27 6 -4 10
5 10 19 0 26 0 26 89 26 l90 0 4 -32 3 -33 8 32 c8 32 9 32 60 27 120 -12 277
-37 350 -55 99 -25 123 -19 34 9 -94 29 -195 49 -323 62 -60 7 -115 16 -122
21 -7 6 -12 6 -15 -1 -2 -7 -32 -8 -96 -2 -51 4 -94 6 -97 4z"/>
<path d="M3490 1430 c13 -24 13 -66 0 -89 -5 -10 -39 -33 -75 -52 -67 -34 -91
-67 -67 -91 8 -8 23 1 53 36 23 26 58 55 79 66 48 25 66 69 45 110 -8 15 -21
30 -30 34 -13 4 -14 2 -5 -14z"/>
<path d="M1600 1345 c0 -8 5 -15 10 -15 6 0 10 7 10 15 0 8 -4 15 -10 15 -5 0
-10 -7 -10 -15z"/>
<path d="M1610 1305 c0 -8 5 -15 10 -15 6 0 10 7 10 15 0 8 -4 15 -10 15 -5 0
-10 -7 -10 -15z"/>
<path d="M3194 1278 c-28 -34 -74 -123 -74 -145 0 -25 16 -12 28 21 7 19 33
57 57 84 25 28 45 55 45 61 0 22 -29 11 -56 -21z"/>
<path d="M1620 1265 c0 -8 5 -15 10 -15 6 0 10 7 10 15 0 8 -4 15 -10 15 -5 0
-10 -7 -10 -15z"/>
<path d="M1630 1225 c0 -8 5 -15 10 -15 6 0 10 7 10 15 0 8 -4 15 -10 15 -5 0
-10 -7 -10 -15z"/>
<path d="M1791 1182 c-1 -40 3 -61 9 -57 12 7 12 72 0 100 -6 14 -9 1 -9 -43z"/>
<path d="M3496 1193 c5 -16 8 -54 7 -85 -2 -64 13 -77 41 -36 24 34 20 82 -10
117 -33 39 -49 41 -38 4z"/>
<path d="M1640 1185 c0 -8 5 -15 10 -15 6 0 10 7 10 15 0 8 -4 15 -10 15 -5 0
-10 -7 -10 -15z"/>
<path d="M3311 1160 c-53 -13 -88 -69 -60 -97 8 -8 7 -41 -5 -121 -30 -208
-15 -554 30 -660 14 -33 16 -35 26 -18 7 13 7 74 -2 210 -12 193 -6 330 21
458 11 50 54 98 89 98 21 0 31 31 23 71 -10 52 -57 75 -122 59z"/>
<path d="M1650 1145 c0 -8 5 -15 10 -15 6 0 10 7 10 15 0 8 -4 15 -10 15 -5 0
-10 -7 -10 -15z"/>
<path d="M1666 1111 c-5 -7 -4 -17 2 -23 6 -6 8 -16 6 -23 -3 -7 -1 -16 5 -19
6 -4 8 -13 5 -20 -3 -8 -1 -17 5 -20 6 -4 8 -13 5 -20 -3 -8 -1 -17 5 -20 6
-4 8 -13 5 -20 -3 -8 -1 -17 5 -21 15 -9 14 8 -12 110 -15 56 -26 85 -31 76z"/>
<path d="M1800 1055 c0 -22 4 -34 10 -30 6 3 10 17 10 30 0 13 -4 27 -10 30
-6 4 -10 -8 -10 -30z"/>
<path d="M1810 980 c0 -18 4 -29 10 -25 6 3 10 15 10 25 0 10 -4 22 -10 25 -6
4 -10 -7 -10 -25z"/>
<path d="M1820 921 c0 -12 5 -21 10 -21 6 0 10 6 10 14 0 8 -4 18 -10 21 -5 3
-10 -3 -10 -14z"/>
<path d="M1710 901 c0 -6 4 -12 10 -16 5 -3 7 -12 3 -20 -3 -8 0 -15 6 -15 12
0 13 6 5 38 -6 21 -24 31 -24 13z"/>
<path d="M1830 859 c0 -11 5 -17 10 -14 6 3 10 13 10 21 0 8 -4 14 -10 14 -5
0 -10 -9 -10 -21z"/>
<path d="M1730 825 c0 -8 5 -15 10 -15 6 0 10 7 10 15 0 8 -4 15 -10 15 -5 0
-10 -7 -10 -15z"/>
<path d="M1840 809 c0 -11 5 -17 10 -14 6 3 10 13 10 21 0 8 -4 14 -10 14 -5
0 -10 -9 -10 -21z"/>
<path d="M1740 791 c0 -6 5 -13 10 -16 6 -3 10 1 10 9 0 9 -4 16 -10 16 -5 0
-10 -4 -10 -9z"/>
<path d="M1850 759 c0 -11 5 -17 10 -14 6 3 10 13 10 21 0 8 -4 14 -10 14 -5
0 -10 -9 -10 -21z"/>
<path d="M1750 750 c0 -5 5 -10 10 -10 6 0 10 5 10 10 0 6 -4 10 -10 10 -5 0
-10 -4 -10 -10z"/>
<path d="M1760 719 c0 -36 101 -57 114 -23 9 23 7 34 -4 34 -5 0 -10 -7 -10
-15 0 -11 -11 -15 -40 -15 -29 0 -40 4 -40 15 0 8 -4 15 -10 15 -5 0 -10 -5
-10 -11z"/>
<path d="M4005 514 c-11 -2 -94 -22 -185 -44 -91 -22 -178 -42 -193 -45 -64
-12 -263 -278 -301 -402 -7 -22 -5 -23 66 -23 l74 0 74 76 c146 148 303 269
484 374 45 25 81 50 81 56 0 10 -66 15 -100 8z"/>
<path d="M4652 488 c-28 -80 -305 -306 -551 -449 l-66 -39 185 0 185 1 65 75
c36 41 81 107 101 147 49 96 101 245 97 277 -3 23 -4 22 -16 -12z"/>
<path d="M2490 408 c0 -2 11 -32 25 -67 29 -76 82 -171 147 -268 l49 -73 99 0
c64 0 100 4 100 11 0 5 5 7 12 3 7 -4 8 -3 4 5 -4 6 -11 9 -16 6 -12 -8 -32
33 -24 48 4 6 4 9 -1 5 -11 -11 -38 29 -29 44 4 6 3 8 -3 5 -6 -4 -26 23 -47
62 -31 60 -40 70 -70 75 -41 8 -144 73 -173 109 -17 22 -73 49 -73 35z"/>
<path d="M1720 376 c0 -3 24 -12 53 -22 28 -9 116 -48 194 -86 182 -87 210
-88 38 -1 -142 72 -285 127 -285 109z"/>
<path d="M2090 273 c80 -35 200 -40 200 -9 0 15 -84 27 -179 25 l-56 -1 35
-15z"/>
<path d="M1863 45 c41 -38 56 -45 89 -45 21 0 37 4 34 9 -7 10 -149 81 -162
81 -5 -1 13 -21 39 -45z"/>
<path d="M3135 70 c-10 -11 -21 -17 -25 -15 -4 3 -7 -3 -6 -13 0 -9 -4 -16
-11 -15 -7 2 -10 -4 -7 -12 4 -10 20 -15 45 -15 37 0 39 1 39 33 0 48 -13 62
-35 37z"/>
<path d="M2534 29 c-11 -19 12 -30 57 -27 l44 4 -37 17 c-44 20 -54 21 -64 6z"/>
</g>
</svg>
