%TF.GenerationSoftware,KiCad,Pcbnew,8.99.0-3407-g6a48e2c35a*%
%TF.CreationDate,2024-12-24T09:15:54+07:00*%
%TF.ProjectId,weather-dashboard,77656174-6865-4722-9d64-617368626f61,rev?*%
%TF.SameCoordinates,Original*%
%TF.FileFunction,Copper,L2,Bot*%
%TF.FilePolarity,Positive*%
%FSLAX46Y46*%
G04 Gerber Fmt 4.6, Leading zero omitted, Abs format (unit mm)*
G04 Created by KiCad (PCBNEW 8.99.0-3407-g6a48e2c35a) date 2024-12-24 09:15:54*
%MOMM*%
%LPD*%
G01*
G04 APERTURE LIST*
%TA.AperFunction,ComponentPad*%
%ADD10R,1.700000X1.700000*%
%TD*%
%TA.AperFunction,ComponentPad*%
%ADD11O,1.700000X1.700000*%
%TD*%
%TA.AperFunction,ComponentPad*%
%ADD12R,2.200000X2.200000*%
%TD*%
%TA.AperFunction,ComponentPad*%
%ADD13C,1.600000*%
%TD*%
%TA.AperFunction,ComponentPad*%
%ADD14O,1.600000X1.600000*%
%TD*%
%TA.AperFunction,ComponentPad*%
%ADD15C,1.700000*%
%TD*%
%TA.AperFunction,ComponentPad*%
%ADD16C,1.397000*%
%TD*%
%TA.AperFunction,ViaPad*%
%ADD17C,0.600000*%
%TD*%
%TA.AperFunction,Conductor*%
%ADD18C,0.500000*%
%TD*%
%TA.AperFunction,Conductor*%
%ADD19C,0.200000*%
%TD*%
%ADD20C,0.300000*%
%ADD21C,0.350000*%
G04 APERTURE END LIST*
D10*
%TO.P,U4,1,3V3*%
%TO.N,+3V3*%
X163964700Y-96599500D03*
D11*
%TO.P,U4,2,GND*%
%TO.N,GND*%
X166504700Y-96599500D03*
%TO.P,U4,3,LCD_CS*%
%TO.N,TFT_CS*%
X169044700Y-96599500D03*
%TO.P,U4,4,EN*%
%TO.N,TFT_EN*%
X171584700Y-96599500D03*
%TO.P,U4,5,D/C*%
%TO.N,TFT_DC*%
X174124700Y-96599500D03*
%TO.P,U4,6,LCD_MOSI*%
%TO.N,MOSI*%
X176664700Y-96599500D03*
%TO.P,U4,7,LCD_SCK*%
%TO.N,SCK*%
X179204700Y-96599500D03*
%TO.P,U4,8,LED*%
%TO.N,Net-(U4-LED)*%
X181744700Y-96599500D03*
D10*
%TO.P,U4,9,SD_CS*%
%TO.N,SD_CS*%
X169044700Y-43599500D03*
D11*
%TO.P,U4,10,SD_MOSI*%
%TO.N,MOSI*%
X171584700Y-43599500D03*
%TO.P,U4,11,SD_MISO*%
%TO.N,MISO*%
X174124700Y-43599500D03*
%TO.P,U4,12,SD_SCK*%
%TO.N,SCK*%
X176664700Y-43599500D03*
%TD*%
D12*
%TO.P,U2,0,BAT+*%
%TO.N,+BATT*%
X175000000Y-89000000D03*
%TO.P,U2,1,BAT-*%
%TO.N,-BATT*%
X175000000Y-81000000D03*
%TO.P,U2,2,OUT+*%
%TO.N,VBUS*%
X175000000Y-92000000D03*
%TO.P,U2,3,OUT-*%
%TO.N,GND*%
X175000000Y-78000000D03*
%TO.P,U2,4,IN+*%
%TO.N,unconnected-(U2-IN+-Pad4)*%
X153000000Y-92000000D03*
%TO.P,U2,5,IN-*%
%TO.N,unconnected-(U2-IN--Pad5)*%
X153000000Y-78000000D03*
%TD*%
D13*
%TO.P,R1,1*%
%TO.N,Net-(U4-LED)*%
X191000000Y-61850000D03*
D14*
%TO.P,R1,2*%
%TO.N,+3V3*%
X191000000Y-49150000D03*
%TD*%
D13*
%TO.P,R2,1*%
%TO.N,Button*%
X191000000Y-79200000D03*
D14*
%TO.P,R2,2*%
%TO.N,+3V3*%
X191000000Y-66500000D03*
%TD*%
D11*
%TO.P,U1,1,EN*%
%TO.N,unconnected-(U1-EN-Pad1)*%
X177560000Y-73040000D03*
%TO.P,U1,2,IO3*%
%TO.N,unconnected-(U1-IO3-Pad2)*%
X175020000Y-73040000D03*
%TO.P,U1,3,IO5*%
%TO.N,unconnected-(U1-IO5-Pad3)*%
X172480000Y-73040000D03*
%TO.P,U1,4,IO7*%
%TO.N,unconnected-(U1-IO7-Pad4)*%
X169940000Y-73040000D03*
%TO.P,U1,5,IO9*%
%TO.N,unconnected-(U1-IO9-Pad5)*%
X167400000Y-73040000D03*
%TO.P,U1,6,IO11/MOSI*%
%TO.N,unconnected-(U1-IO11{slash}MOSI-Pad6)*%
X164860000Y-73040000D03*
%TO.P,U1,7,IO12/SCK*%
%TO.N,unconnected-(U1-IO12{slash}SCK-Pad7)*%
X162320000Y-73040000D03*
%TO.P,U1,8,3V3*%
%TO.N,+5V*%
X159780000Y-73040000D03*
%TO.P,U1,9,IO1*%
%TO.N,unconnected-(U1-IO1-Pad9)*%
X177560000Y-70500000D03*
%TO.P,U1,10,IO2*%
%TO.N,unconnected-(U1-IO2-Pad10)*%
X175020000Y-70500000D03*
%TO.P,U1,11,IO4*%
%TO.N,unconnected-(U1-IO4-Pad11)*%
X172480000Y-70500000D03*
%TO.P,U1,12,IO6*%
%TO.N,unconnected-(U1-IO6-Pad12)*%
X169940000Y-70500000D03*
%TO.P,U1,13,IO8*%
%TO.N,unconnected-(U1-IO8-Pad13)*%
X167400000Y-70500000D03*
%TO.P,U1,14,IO10/CS0*%
%TO.N,SD_CS*%
X164860000Y-70500000D03*
%TO.P,U1,15,IO13/MISO*%
%TO.N,unconnected-(U1-IO13{slash}MISO-Pad15)*%
X162320000Y-70500000D03*
%TO.P,U1,16,IO14*%
%TO.N,unconnected-(U1-IO14-Pad16)*%
X159780000Y-70500000D03*
D15*
%TO.P,U1,17,IO40*%
%TO.N,unconnected-(U1-IO40-Pad17)*%
X177560000Y-52720000D03*
D11*
%TO.P,U1,18,IO38*%
%TO.N,Button*%
X175020000Y-52720000D03*
%TO.P,U1,19,IO36/SCK*%
%TO.N,SCK*%
X172480000Y-52720000D03*
%TO.P,U1,20,IO34/CS0*%
%TO.N,TFT_CS*%
X169940000Y-52720000D03*
%TO.P,U1,21,IO21*%
%TO.N,TFT_DC*%
X167400000Y-52720000D03*
%TO.P,U1,22,IO17*%
%TO.N,unconnected-(U1-IO17-Pad22)*%
X164860000Y-52720000D03*
%TO.P,U1,23,GND*%
%TO.N,GND*%
X162320000Y-52720000D03*
%TO.P,U1,24,IO15*%
%TO.N,unconnected-(U1-IO15-Pad24)*%
X159780000Y-52720000D03*
%TO.P,U1,25,IO39*%
%TO.N,unconnected-(U1-IO39-Pad25)*%
X177560000Y-50180000D03*
%TO.P,U1,26,IO37/MISO*%
%TO.N,MISO*%
X175020000Y-50180000D03*
%TO.P,U1,27,IO35/MOSI*%
%TO.N,MOSI*%
X172480000Y-50180000D03*
%TO.P,U1,28,IO33*%
%TO.N,TFT_EN*%
X169940000Y-50180000D03*
%TO.P,U1,29,IO18*%
%TO.N,unconnected-(U1-IO18-Pad29)*%
X167400000Y-50180000D03*
%TO.P,U1,30,IO16*%
%TO.N,unconnected-(U1-IO16-Pad30)*%
X164860000Y-50180000D03*
%TO.P,U1,31*%
%TO.N,N/C*%
X162320000Y-50180000D03*
%TO.P,U1,32,VBUS*%
%TO.N,VBUS*%
X159780000Y-50180000D03*
%TD*%
D16*
%TO.P,SW2,1,1*%
%TO.N,GND*%
X189500000Y-84420000D03*
X181880000Y-84420000D03*
%TO.P,SW2,2,2*%
%TO.N,Button*%
X189500000Y-89500000D03*
X181880000Y-89500000D03*
%TD*%
D17*
%TO.N,GND*%
X158453300Y-77434400D03*
%TO.N,+3V3*%
X188699900Y-87752300D03*
%TO.N,VBUS*%
X157300900Y-80352700D03*
%TD*%
D18*
%TO.N,GND*%
X175000000Y-78000000D02*
X176551700Y-78000000D01*
X181880000Y-84420000D02*
X176551700Y-79091700D01*
X176551700Y-79091700D02*
X176551700Y-78000000D01*
X175000000Y-78000000D02*
X173448300Y-78000000D01*
X189500000Y-84420000D02*
X181880000Y-84420000D01*
X172882700Y-77434400D02*
X173448300Y-78000000D01*
X158453300Y-77434400D02*
X172882700Y-77434400D01*
D19*
%TO.N,+3V3*%
X174517700Y-95447800D02*
X182213200Y-87752300D01*
X163964700Y-96599500D02*
X165116400Y-96599500D01*
X165116400Y-96311500D02*
X165980100Y-95447800D01*
X165980100Y-95447800D02*
X174517700Y-95447800D01*
X182213200Y-87752300D02*
X188699900Y-87752300D01*
X165116400Y-96599500D02*
X165116400Y-96311500D01*
%TO.N,Button*%
X189500000Y-89500000D02*
X181880000Y-89500000D01*
%TO.N,VBUS*%
X161951000Y-80352700D02*
X157300900Y-80352700D01*
X173598300Y-92000000D02*
X161951000Y-80352700D01*
X175000000Y-92000000D02*
X173598300Y-92000000D01*
%TD*%
D20*
X158453300Y-77434400D03*
X188699900Y-87752300D03*
X157300900Y-80352700D03*
D21*
X158604700Y-96099500D03*
X187104700Y-96099500D03*
X158604700Y-44099500D03*
X187104700Y-44099500D03*
X163964700Y-96599500D03*
X166504700Y-96599500D03*
X169044700Y-96599500D03*
X171584700Y-96599500D03*
X174124700Y-96599500D03*
X176664700Y-96599500D03*
X179204700Y-96599500D03*
X181744700Y-96599500D03*
X169044700Y-43599500D03*
X171584700Y-43599500D03*
X174124700Y-43599500D03*
X176664700Y-43599500D03*
X175000000Y-89000000D03*
X175000000Y-81000000D03*
X175000000Y-92000000D03*
X175000000Y-78000000D03*
X153000000Y-92000000D03*
X153000000Y-78000000D03*
X191000000Y-61850000D03*
X191000000Y-49150000D03*
X191000000Y-79200000D03*
X191000000Y-66500000D03*
X177560000Y-73040000D03*
X175020000Y-73040000D03*
X172480000Y-73040000D03*
X169940000Y-73040000D03*
X167400000Y-73040000D03*
X164860000Y-73040000D03*
X162320000Y-73040000D03*
X159780000Y-73040000D03*
X177560000Y-70500000D03*
X175020000Y-70500000D03*
X172480000Y-70500000D03*
X169940000Y-70500000D03*
X167400000Y-70500000D03*
X164860000Y-70500000D03*
X162320000Y-70500000D03*
X159780000Y-70500000D03*
X177560000Y-52720000D03*
X175020000Y-52720000D03*
X172480000Y-52720000D03*
X169940000Y-52720000D03*
X167400000Y-52720000D03*
X164860000Y-52720000D03*
X162320000Y-52720000D03*
X159780000Y-52720000D03*
X177560000Y-50180000D03*
X175020000Y-50180000D03*
X172480000Y-50180000D03*
X169940000Y-50180000D03*
X167400000Y-50180000D03*
X164860000Y-50180000D03*
X162320000Y-50180000D03*
X159780000Y-50180000D03*
X189500000Y-84420000D03*
X181880000Y-84420000D03*
X189500000Y-89500000D03*
X181880000Y-89500000D03*
M02*
