%TF.GenerationSoftware,KiCad,Pcbnew,8.99.0-3407-g6a48e2c35a*%
%TF.CreationDate,2024-12-24T09:15:54+07:00*%
%TF.ProjectId,weather-dashboard,77656174-6865-4722-9d64-617368626f61,rev?*%
%TF.SameCoordinates,Original*%
%TF.FileFunction,Profile,NP*%
%FSLAX46Y46*%
G04 Gerber Fmt 4.6, Leading zero omitted, Abs format (unit mm)*
G04 Created by KiCad (PCBNEW 8.99.0-3407-g6a48e2c35a) date 2024-12-24 09:15:54*
%MOMM*%
%LPD*%
G01*
G04 APERTURE LIST*
%TA.AperFunction,Profile*%
%ADD10C,0.050000*%
%TD*%
%ADD11C,0.350000*%
G04 APERTURE END LIST*
D10*
X150604678Y-38139509D02*
X194604679Y-38139509D01*
X194604679Y-102139509D01*
X150604678Y-102139509D01*
X150604678Y-38139509D01*
D11*
X158604700Y-96099500D03*
X187104700Y-96099500D03*
X158604700Y-44099500D03*
X187104700Y-44099500D03*
X163964700Y-96599500D03*
X166504700Y-96599500D03*
X169044700Y-96599500D03*
X171584700Y-96599500D03*
X174124700Y-96599500D03*
X176664700Y-96599500D03*
X179204700Y-96599500D03*
X181744700Y-96599500D03*
X169044700Y-43599500D03*
X171584700Y-43599500D03*
X174124700Y-43599500D03*
X176664700Y-43599500D03*
X175000000Y-89000000D03*
X175000000Y-81000000D03*
X175000000Y-92000000D03*
X175000000Y-78000000D03*
X153000000Y-92000000D03*
X153000000Y-78000000D03*
X191000000Y-61850000D03*
X191000000Y-49150000D03*
X191000000Y-79200000D03*
X191000000Y-66500000D03*
X177560000Y-73040000D03*
X175020000Y-73040000D03*
X172480000Y-73040000D03*
X169940000Y-73040000D03*
X167400000Y-73040000D03*
X164860000Y-73040000D03*
X162320000Y-73040000D03*
X159780000Y-73040000D03*
X177560000Y-70500000D03*
X175020000Y-70500000D03*
X172480000Y-70500000D03*
X169940000Y-70500000D03*
X167400000Y-70500000D03*
X164860000Y-70500000D03*
X162320000Y-70500000D03*
X159780000Y-70500000D03*
X177560000Y-52720000D03*
X175020000Y-52720000D03*
X172480000Y-52720000D03*
X169940000Y-52720000D03*
X167400000Y-52720000D03*
X164860000Y-52720000D03*
X162320000Y-52720000D03*
X159780000Y-52720000D03*
X177560000Y-50180000D03*
X175020000Y-50180000D03*
X172480000Y-50180000D03*
X169940000Y-50180000D03*
X167400000Y-50180000D03*
X164860000Y-50180000D03*
X162320000Y-50180000D03*
X159780000Y-50180000D03*
X189500000Y-84420000D03*
X181880000Y-84420000D03*
X189500000Y-89500000D03*
X181880000Y-89500000D03*
M02*
