M48
METRIC,TZ
T1C0.300
T2C0.800
T3C0.813
T4C1.000
T5C1.500
%
G90
G05
T1
X157301Y-80353
X158453Y-77434
X188700Y-87752
T2
X191000Y-49150
X191000Y-61850
X191000Y-66500
X191000Y-79200
T3
X181880Y-84420
X181880Y-89500
X189500Y-84420
X189500Y-89500
T4
X159780Y-50180
X159780Y-52720
X159780Y-70500
X159780Y-73040
X162320Y-50180
X162320Y-52720
X162320Y-70500
X162320Y-73040
X163965Y-96599
X164860Y-50180
X164860Y-52720
X164860Y-70500
X164860Y-73040
X166505Y-96599
X167400Y-50180
X167400Y-52720
X167400Y-70500
X167400Y-73040
X169045Y-43600
X169045Y-96599
X169940Y-50180
X169940Y-52720
X169940Y-70500
X169940Y-73040
X171585Y-43600
X171585Y-96599
X172480Y-50180
X172480Y-52720
X172480Y-70500
X172480Y-73040
X174125Y-43600
X174125Y-96599
X175020Y-50180
X175020Y-52720
X175020Y-70500
X175020Y-73040
X176665Y-43600
X176665Y-96599
X177560Y-50180
X177560Y-52720
X177560Y-70500
X177560Y-73040
X179205Y-96599
X181745Y-96599
T5
X153000Y-78000
X153000Y-92000
X175000Y-78000
X175000Y-81000
X175000Y-89000
X175000Y-92000
M30
