G04 #@! TF.GenerationSoftware,KiCad,Pcbnew,8.99.0-3309-gecdc7ee08f-dirty*
G04 #@! TF.CreationDate,2024-12-18T14:42:24+01:00*
G04 #@! TF.ProjectId,aniweather,616e6977-6561-4746-9865-722e6b696361,v1.12*
G04 #@! TF.SameCoordinates,Original*
G04 #@! TF.FileFunction,Copper,L2,Bot*
G04 #@! TF.FilePolarity,Positive*
%FSLAX46Y46*%
G04 Gerber Fmt 4.6, Leading zero omitted, Abs format (unit mm)*
G04 Created by KiCad (PCBNEW 8.99.0-3309-gecdc7ee08f-dirty) date 2024-12-18 14:42:24*
%MOMM*%
%LPD*%
G01*
G04 APERTURE LIST*
G04 Aperture macros list*
%AMRoundRect*
0 Rectangle with rounded corners*
0 $1 Rounding radius*
0 $2 $3 $4 $5 $6 $7 $8 $9 X,Y pos of 4 corners*
0 Add a 4 corners polygon primitive as box body*
4,1,4,$2,$3,$4,$5,$6,$7,$8,$9,$2,$3,0*
0 Add four circle primitives for the rounded corners*
1,1,$1+$1,$2,$3*
1,1,$1+$1,$4,$5*
1,1,$1+$1,$6,$7*
1,1,$1+$1,$8,$9*
0 Add four rect primitives between the rounded corners*
20,1,$1+$1,$2,$3,$4,$5,0*
20,1,$1+$1,$4,$5,$6,$7,0*
20,1,$1+$1,$6,$7,$8,$9,0*
20,1,$1+$1,$8,$9,$2,$3,0*%
%AMFreePoly0*
4,1,21,-0.125000,1.200000,0.125000,1.200000,0.125000,1.700000,0.375000,1.700000,0.375000,1.200000,0.825000,1.200000,0.825000,-1.200000,0.375000,-1.200000,0.375000,-1.700000,0.125000,-1.700000,0.125000,-1.200000,-0.125000,-1.200000,-0.125000,-1.700000,-0.375000,-1.700000,-0.375000,-1.200000,-0.825000,-1.200000,-0.825000,1.200000,-0.375000,1.200000,-0.375000,1.700000,-0.125000,1.700000,
-0.125000,1.200000,-0.125000,1.200000,$1*%
G04 Aperture macros list end*
G04 #@! TA.AperFunction,ComponentPad*
%ADD10R,1.600000X1.600000*%
G04 #@! TD*
G04 #@! TA.AperFunction,ComponentPad*
%ADD11O,1.600000X1.600000*%
G04 #@! TD*
G04 #@! TA.AperFunction,ComponentPad*
%ADD12C,1.600000*%
G04 #@! TD*
G04 #@! TA.AperFunction,ComponentPad*
%ADD13R,1.700000X1.700000*%
G04 #@! TD*
G04 #@! TA.AperFunction,ComponentPad*
%ADD14O,1.700000X1.700000*%
G04 #@! TD*
G04 #@! TA.AperFunction,ComponentPad*
%ADD15R,2.200000X2.200000*%
G04 #@! TD*
G04 #@! TA.AperFunction,ComponentPad*
%ADD16O,1.600000X2.000000*%
G04 #@! TD*
G04 #@! TA.AperFunction,ComponentPad*
%ADD17C,2.000000*%
G04 #@! TD*
G04 #@! TA.AperFunction,SMDPad,CuDef*
%ADD18RoundRect,0.250000X1.075000X-0.375000X1.075000X0.375000X-1.075000X0.375000X-1.075000X-0.375000X0*%
G04 #@! TD*
G04 #@! TA.AperFunction,ComponentPad*
%ADD19RoundRect,0.650000X0.650000X0.650000X-0.650000X0.650000X-0.650000X-0.650000X0.650000X-0.650000X0*%
G04 #@! TD*
G04 #@! TA.AperFunction,ComponentPad*
%ADD20C,2.600000*%
G04 #@! TD*
G04 #@! TA.AperFunction,SMDPad,CuDef*
%ADD21RoundRect,0.060000X-0.240000X-0.060000X0.240000X-0.060000X0.240000X0.060000X-0.240000X0.060000X0*%
G04 #@! TD*
G04 #@! TA.AperFunction,ComponentPad*
%ADD22C,0.600000*%
G04 #@! TD*
G04 #@! TA.AperFunction,ComponentPad*
%ADD23C,0.700000*%
G04 #@! TD*
G04 #@! TA.AperFunction,SMDPad,CuDef*
%ADD24FreePoly0,0.000000*%
G04 #@! TD*
G04 #@! TA.AperFunction,SMDPad,CuDef*
%ADD25R,1.500000X1.000000*%
G04 #@! TD*
G04 #@! TA.AperFunction,ViaPad*
%ADD26C,1.000000*%
G04 #@! TD*
G04 #@! TA.AperFunction,Conductor*
%ADD27C,0.500000*%
G04 #@! TD*
G04 #@! TA.AperFunction,Conductor*
%ADD28C,1.500000*%
G04 #@! TD*
G04 #@! TA.AperFunction,Conductor*
%ADD29C,1.000000*%
G04 #@! TD*
G04 #@! TA.AperFunction,Conductor*
%ADD30C,0.300000*%
G04 #@! TD*
G04 #@! TA.AperFunction,Conductor*
%ADD31C,0.750000*%
G04 #@! TD*
G04 APERTURE END LIST*
D10*
X117700000Y-98032500D03*
D11*
X117700000Y-105652500D03*
D12*
X136200000Y-83675000D03*
X136200000Y-86175000D03*
X147250000Y-89375000D03*
D11*
X157410000Y-89375000D03*
D12*
X166380000Y-126325000D03*
D11*
X156220000Y-126325000D03*
D13*
X131315000Y-127425000D03*
D14*
X133855000Y-127425000D03*
X136395000Y-127425000D03*
X138935000Y-127425000D03*
X141475000Y-127425000D03*
X144015000Y-127425000D03*
X146555000Y-127425000D03*
X149095000Y-127425000D03*
X136395000Y-74425000D03*
X138935000Y-74425000D03*
X141475000Y-74425000D03*
X144015000Y-74425000D03*
D12*
X146250000Y-86325000D03*
D11*
X156410000Y-86325000D03*
D12*
X138940000Y-131525000D03*
D11*
X149100000Y-131525000D03*
D15*
X136500000Y-80925000D03*
X136500000Y-88925000D03*
X136500000Y-77925000D03*
X136500000Y-91925000D03*
X114500000Y-77925000D03*
X114500000Y-91925000D03*
D10*
X121365000Y-75100000D03*
D11*
X128985000Y-75100000D03*
D16*
X151620000Y-118425000D03*
X149080000Y-118425000D03*
X146540000Y-118425000D03*
X144000000Y-118425000D03*
X154160000Y-118425000D03*
X156700000Y-118425000D03*
X154160000Y-95565000D03*
X151620000Y-95565000D03*
X149080000Y-95565000D03*
X146540000Y-95565000D03*
X141460000Y-118425000D03*
X159240000Y-118425000D03*
X156700000Y-95565000D03*
X159240000Y-95565000D03*
X144000000Y-95565000D03*
X141460000Y-95565000D03*
D12*
X154225000Y-80825000D03*
X154225000Y-83325000D03*
X141450000Y-83275000D03*
D11*
X151610000Y-83275000D03*
D17*
X158400000Y-129675000D03*
X158400000Y-136175000D03*
X153900000Y-129675000D03*
X153900000Y-136175000D03*
D12*
X122850000Y-125925000D03*
X125350000Y-125925000D03*
X139260000Y-136175000D03*
D11*
X129100000Y-136175000D03*
D12*
X131450000Y-123925000D03*
X133950000Y-123925000D03*
D17*
X122000000Y-136175000D03*
X122000000Y-129675000D03*
X126500000Y-136175000D03*
X126500000Y-129675000D03*
D12*
X117625000Y-112050000D03*
X120125000Y-112050000D03*
X158400000Y-120925000D03*
X160900000Y-120925000D03*
X118750000Y-120600000D03*
X116250000Y-120600000D03*
D18*
X116425000Y-117950000D03*
X116425000Y-115150000D03*
D19*
X143530000Y-66175000D03*
D20*
X138450000Y-66175000D03*
D12*
X127785000Y-109050000D03*
D11*
X117625000Y-109050000D03*
D21*
X118725000Y-117650000D03*
X118725000Y-117150000D03*
X118725000Y-116650000D03*
X118725000Y-116150000D03*
X118725000Y-115650000D03*
X121525000Y-115650000D03*
X121525000Y-116150000D03*
X121525000Y-116650000D03*
X121525000Y-117150000D03*
X121525000Y-117650000D03*
D22*
X119550000Y-116650000D03*
D23*
X120125000Y-115700000D03*
D24*
X120125000Y-116650000D03*
D23*
X120125000Y-117600000D03*
D22*
X120700000Y-116650000D03*
D25*
X117700000Y-102375000D03*
X117700000Y-101075000D03*
X121350000Y-71750000D03*
X121350000Y-73050000D03*
X114500000Y-74200000D03*
X114500000Y-72900000D03*
D12*
X126200000Y-113175000D03*
X123700000Y-113175000D03*
X118750000Y-123700000D03*
X116250000Y-123700000D03*
D26*
X144450000Y-99775000D03*
X126000000Y-121200000D03*
X119325000Y-94300000D03*
X130200000Y-102400000D03*
X125900000Y-117500000D03*
X127075000Y-78975000D03*
X120725000Y-113700000D03*
X114000000Y-122000000D03*
X156550000Y-103700000D03*
X166325000Y-86725000D03*
X156150000Y-115925000D03*
X161725000Y-118625000D03*
X162500000Y-112900000D03*
X156150000Y-91425000D03*
X166400000Y-93825000D03*
X133850000Y-91925000D03*
X163050000Y-121175000D03*
X114275000Y-108350000D03*
X139500000Y-90275000D03*
X130225000Y-119400000D03*
X156775000Y-110150000D03*
X113975000Y-102675000D03*
X156725000Y-93200000D03*
X146225000Y-76150000D03*
X133850000Y-125725000D03*
X156700000Y-98000000D03*
X119700000Y-131625000D03*
X141975000Y-129700000D03*
X156600000Y-71100000D03*
X163000000Y-78925000D03*
X123950000Y-90950000D03*
X160775000Y-123025000D03*
X162000000Y-101925000D03*
X115800000Y-126200000D03*
X113775000Y-105325000D03*
X150150000Y-68700000D03*
X131400000Y-133925000D03*
X135800000Y-123675000D03*
X122200000Y-106200000D03*
X136000000Y-129600000D03*
X151600000Y-79025000D03*
X162100000Y-129375000D03*
X134550000Y-129600000D03*
X133750000Y-121950000D03*
X127100000Y-96125000D03*
X139100000Y-81625000D03*
X133250000Y-129375000D03*
X145000000Y-136625000D03*
X145500000Y-131525000D03*
D27*
X144900000Y-99325000D02*
X144450000Y-99775000D01*
D28*
X128400000Y-133125000D02*
X122000000Y-133125000D01*
X121900000Y-123700000D02*
X128225000Y-123700000D01*
D29*
X131450000Y-127290000D02*
X131315000Y-127425000D01*
X131315000Y-127425000D02*
X131315000Y-127365000D01*
X127925000Y-124300000D02*
X128375000Y-123850000D01*
D28*
X120225000Y-120600000D02*
X121125000Y-120600000D01*
X118750000Y-120600000D02*
X118750000Y-119250000D01*
X158400000Y-133825000D02*
X158400000Y-129675000D01*
X138940000Y-131525000D02*
X132725000Y-131525000D01*
X131315000Y-130115000D02*
X131315000Y-127425000D01*
X118750000Y-123700000D02*
X121900000Y-123700000D01*
X118750000Y-123700000D02*
X118750000Y-120600000D01*
X130000000Y-131525000D02*
X128400000Y-133125000D01*
X121500000Y-120225000D02*
X121500000Y-119225000D01*
X122000000Y-129825000D02*
X122000000Y-133125000D01*
X118750000Y-120600000D02*
X118800000Y-120600000D01*
X122000000Y-133125000D02*
X122000000Y-136325000D01*
X118750000Y-119250000D02*
X118800000Y-119200000D01*
X132725000Y-131525000D02*
X131315000Y-130115000D01*
X132725000Y-131525000D02*
X130000000Y-131525000D01*
X158400000Y-133825000D02*
X158400000Y-136175000D01*
X131450000Y-123925000D02*
X131450000Y-127290000D01*
X121350000Y-120375000D02*
X121500000Y-120225000D01*
X128225000Y-123700000D02*
X128375000Y-123850000D01*
X141000000Y-131525000D02*
X143300000Y-133825000D01*
X121125000Y-120600000D02*
X121350000Y-120375000D01*
X131450000Y-123925000D02*
X128450000Y-123925000D01*
X118800000Y-120600000D02*
X121900000Y-123700000D01*
X143300000Y-133825000D02*
X158400000Y-133825000D01*
X118750000Y-120600000D02*
X120225000Y-120600000D01*
X128450000Y-123925000D02*
X128375000Y-123850000D01*
X138940000Y-131525000D02*
X141000000Y-131525000D01*
X117625000Y-109050000D02*
X117625000Y-105727500D01*
X117625000Y-105727500D02*
X117700000Y-105652500D01*
D29*
X118675000Y-113100000D02*
X118675000Y-114725000D01*
D28*
X117700000Y-105652500D02*
X117700000Y-102552000D01*
X117625000Y-112050000D02*
X118675000Y-113100000D01*
X117625000Y-109050000D02*
X117625000Y-112050000D01*
D27*
X144900000Y-99325000D02*
X146540000Y-97685000D01*
X146540000Y-97685000D02*
X146540000Y-95565000D01*
D29*
X141475000Y-83250000D02*
X141450000Y-83275000D01*
X141475000Y-74425000D02*
X141475000Y-83250000D01*
D28*
X114500000Y-77925000D02*
X114500000Y-74475000D01*
D29*
X120125000Y-113175000D02*
X120125000Y-112050000D01*
D28*
X116250000Y-120600000D02*
X116250000Y-123700000D01*
D29*
X121250000Y-113175000D02*
X120125000Y-113175000D01*
X120125000Y-114750000D02*
X120125000Y-114300000D01*
X120125000Y-112050000D02*
X121250000Y-113175000D01*
X120125000Y-114300000D02*
X120125000Y-113175000D01*
D30*
X121525000Y-117150000D02*
X120625000Y-117150000D01*
X118725000Y-116650000D02*
X119550000Y-116650000D01*
D29*
X123700000Y-113175000D02*
X121250000Y-113175000D01*
X120125000Y-116000000D02*
X120125000Y-114750000D01*
D31*
X120150000Y-117625000D02*
X120125000Y-117600000D01*
D29*
X121250000Y-113175000D02*
X120725000Y-113700000D01*
D30*
X120625000Y-117150000D02*
X120125000Y-116650000D01*
D29*
X120125000Y-116650000D02*
X120125000Y-116000000D01*
X120725000Y-113700000D02*
X120125000Y-114300000D01*
D28*
X128985000Y-75100000D02*
X128985000Y-76760000D01*
X128985000Y-76760000D02*
X130150000Y-77925000D01*
X130150000Y-77925000D02*
X136500000Y-77925000D01*
X159161000Y-90061000D02*
X159161000Y-77136000D01*
X152525000Y-70500000D02*
X122925000Y-70500000D01*
X121501000Y-71599000D02*
X121350000Y-71599000D01*
X159240000Y-90140000D02*
X159161000Y-90061000D01*
X121525000Y-71575000D02*
X121501000Y-71599000D01*
X121525000Y-70475000D02*
X121525000Y-71575000D01*
X122925000Y-70500000D02*
X122900000Y-70475000D01*
X159161000Y-77136000D02*
X152525000Y-70500000D01*
X159240000Y-95565000D02*
X159240000Y-90140000D01*
X122900000Y-70475000D02*
X121525000Y-70475000D01*
X115825000Y-70475000D02*
X114500000Y-71800000D01*
X121525000Y-70475000D02*
X115825000Y-70475000D01*
X114500000Y-71800000D02*
X114500000Y-72500000D01*
D30*
X118725000Y-116150000D02*
X118225000Y-116150000D01*
X118225000Y-116150000D02*
X118100000Y-116025000D01*
X118175000Y-117150000D02*
X118100000Y-117225000D01*
X118725000Y-117150000D02*
X118175000Y-117150000D01*
X121525000Y-116650000D02*
X121525000Y-116150000D01*
D29*
X127785000Y-111590000D02*
X126200000Y-113175000D01*
D30*
X121525000Y-115650000D02*
X122325000Y-115650000D01*
X122325000Y-116650000D02*
X121525000Y-116650000D01*
D29*
X124425000Y-116150000D02*
X121656000Y-116150000D01*
D30*
X122325000Y-116150000D02*
X122325000Y-116650000D01*
X121525000Y-116150000D02*
X122325000Y-116150000D01*
X121525000Y-115650000D02*
X121525000Y-116150000D01*
X122325000Y-115650000D02*
X122325000Y-116150000D01*
D29*
X127785000Y-109050000D02*
X127785000Y-111590000D01*
X124425000Y-116150000D02*
X122325000Y-116150000D01*
X126200000Y-113175000D02*
X126200000Y-114375000D01*
X126200000Y-114375000D02*
X124425000Y-116150000D01*
D28*
X121365000Y-75450000D02*
X121365000Y-74125000D01*
X121365000Y-75100000D02*
X121365000Y-74125000D01*
X121365000Y-74125000D02*
X121365000Y-73400000D01*
X121365000Y-76225000D02*
X121365000Y-75100000D01*
X121365000Y-95210000D02*
X121365000Y-76225000D01*
X121365000Y-76225000D02*
X121365000Y-75450000D01*
X117700000Y-98032500D02*
X118542500Y-98032500D01*
X118542500Y-98032500D02*
X121365000Y-95210000D01*
X117700000Y-98032500D02*
X117700000Y-100924000D01*
G04 #@! TA.AperFunction,Conductor*
G36*
X163703032Y-63925648D02*
G01*
X164036929Y-63942052D01*
X164049037Y-63943245D01*
X164152146Y-63958539D01*
X164376699Y-63991849D01*
X164388617Y-63994219D01*
X164709951Y-64074709D01*
X164721588Y-64078240D01*
X164792806Y-64103722D01*
X165033467Y-64189832D01*
X165044688Y-64194479D01*
X165344163Y-64336120D01*
X165354871Y-64341844D01*
X165562670Y-64466394D01*
X165638988Y-64512137D01*
X165649106Y-64518897D01*
X165915170Y-64716224D01*
X165924576Y-64723944D01*
X166170013Y-64946395D01*
X166178604Y-64954986D01*
X166362437Y-65157815D01*
X166401055Y-65200423D01*
X166408775Y-65209829D01*
X166606102Y-65475893D01*
X166612862Y-65486011D01*
X166778149Y-65761777D01*
X166783148Y-65770116D01*
X166788883Y-65780844D01*
X166837229Y-65883064D01*
X166930514Y-66080297D01*
X166935170Y-66091540D01*
X167046759Y-66403411D01*
X167050292Y-66415055D01*
X167130777Y-66736369D01*
X167133151Y-66748305D01*
X167181754Y-67075962D01*
X167182947Y-67088071D01*
X167199351Y-67421966D01*
X167199500Y-67428051D01*
X167199500Y-125081182D01*
X167179815Y-125148221D01*
X167127011Y-125193976D01*
X167057853Y-125203920D01*
X167019205Y-125191667D01*
X166879031Y-125120244D01*
X166684417Y-125057009D01*
X166482317Y-125025000D01*
X166277683Y-125025000D01*
X166075581Y-125057010D01*
X166075578Y-125057010D01*
X165880974Y-125120242D01*
X165880973Y-125120242D01*
X165741354Y-125191379D01*
X166490462Y-125940487D01*
X166432661Y-125925000D01*
X166327339Y-125925000D01*
X166225606Y-125952259D01*
X166134394Y-126004920D01*
X166059920Y-126079394D01*
X166007259Y-126170606D01*
X165980000Y-126272339D01*
X165980000Y-126377661D01*
X166007259Y-126479394D01*
X166059920Y-126570606D01*
X166134394Y-126645080D01*
X166225606Y-126697741D01*
X166327339Y-126725000D01*
X166432661Y-126725000D01*
X166490461Y-126709512D01*
X165741354Y-127458619D01*
X165880965Y-127529753D01*
X165880972Y-127529756D01*
X166075582Y-127592990D01*
X166277683Y-127625000D01*
X166482317Y-127625000D01*
X166684417Y-127592990D01*
X166879031Y-127529755D01*
X167019205Y-127458333D01*
X167087874Y-127445437D01*
X167152615Y-127471713D01*
X167192872Y-127528820D01*
X167199500Y-127568818D01*
X167199500Y-134421948D01*
X167199351Y-134428033D01*
X167182947Y-134761928D01*
X167181754Y-134774037D01*
X167133151Y-135101694D01*
X167130777Y-135113630D01*
X167050292Y-135434944D01*
X167046759Y-135446588D01*
X166935170Y-135758459D01*
X166930514Y-135769702D01*
X166788885Y-136069151D01*
X166783148Y-136079883D01*
X166612862Y-136363988D01*
X166606102Y-136374106D01*
X166408775Y-136640170D01*
X166401055Y-136649576D01*
X166178611Y-136895006D01*
X166170006Y-136903611D01*
X165924576Y-137126055D01*
X165915170Y-137133775D01*
X165649106Y-137331102D01*
X165638988Y-137337862D01*
X165354883Y-137508148D01*
X165344151Y-137513885D01*
X165044702Y-137655514D01*
X165033459Y-137660170D01*
X164721588Y-137771759D01*
X164709944Y-137775292D01*
X164388630Y-137855777D01*
X164376694Y-137858151D01*
X164049037Y-137906754D01*
X164036928Y-137907947D01*
X163721989Y-137923419D01*
X163703031Y-137924351D01*
X163696949Y-137924500D01*
X116703051Y-137924500D01*
X116696968Y-137924351D01*
X116676900Y-137923365D01*
X116363071Y-137907947D01*
X116350962Y-137906754D01*
X116023305Y-137858151D01*
X116011369Y-137855777D01*
X115690055Y-137775292D01*
X115678411Y-137771759D01*
X115366540Y-137660170D01*
X115355301Y-137655515D01*
X115055844Y-137513883D01*
X115045121Y-137508150D01*
X114761011Y-137337862D01*
X114750893Y-137331102D01*
X114484829Y-137133775D01*
X114475423Y-137126055D01*
X114293786Y-136961429D01*
X114229986Y-136903604D01*
X114221395Y-136895013D01*
X113998944Y-136649576D01*
X113991224Y-136640170D01*
X113922674Y-136547741D01*
X113793895Y-136374103D01*
X113787137Y-136363988D01*
X113744644Y-136293092D01*
X113616844Y-136079871D01*
X113611120Y-136069163D01*
X113469479Y-135769688D01*
X113464829Y-135758459D01*
X113435315Y-135675974D01*
X113372515Y-135500458D01*
X113353240Y-135446588D01*
X113349707Y-135434944D01*
X113340958Y-135400015D01*
X113269219Y-135113617D01*
X113266848Y-135101694D01*
X113265882Y-135095185D01*
X113233147Y-134874500D01*
X113218245Y-134774037D01*
X113217052Y-134761927D01*
X113200649Y-134428032D01*
X113200500Y-134421948D01*
X113200500Y-134303711D01*
X114849500Y-134303711D01*
X114849500Y-134546288D01*
X114880851Y-134784433D01*
X114881162Y-134786789D01*
X114910030Y-134894524D01*
X114943946Y-135021100D01*
X115017841Y-135199500D01*
X115036776Y-135245212D01*
X115158064Y-135455289D01*
X115158066Y-135455292D01*
X115158067Y-135455293D01*
X115305733Y-135647736D01*
X115305739Y-135647743D01*
X115477256Y-135819260D01*
X115477263Y-135819266D01*
X115544138Y-135870581D01*
X115669711Y-135966936D01*
X115879788Y-136088224D01*
X116103900Y-136181054D01*
X116338211Y-136243838D01*
X116518586Y-136267584D01*
X116578711Y-136275500D01*
X116578712Y-136275500D01*
X116821289Y-136275500D01*
X116869388Y-136269167D01*
X117061789Y-136243838D01*
X117296100Y-136181054D01*
X117520212Y-136088224D01*
X117730289Y-135966936D01*
X117922738Y-135819265D01*
X118094265Y-135647738D01*
X118241936Y-135455289D01*
X118363224Y-135245212D01*
X118456054Y-135021100D01*
X118518838Y-134786789D01*
X118550500Y-134546288D01*
X118550500Y-134303712D01*
X118518838Y-134063211D01*
X118456054Y-133828900D01*
X118363224Y-133604788D01*
X118241936Y-133394711D01*
X118094265Y-133202262D01*
X118094260Y-133202256D01*
X117922743Y-133030739D01*
X117922736Y-133030733D01*
X117730293Y-132883067D01*
X117730292Y-132883066D01*
X117730289Y-132883064D01*
X117558661Y-132783974D01*
X117520214Y-132761777D01*
X117520205Y-132761773D01*
X117296104Y-132668947D01*
X117061785Y-132606161D01*
X116821289Y-132574500D01*
X116821288Y-132574500D01*
X116578712Y-132574500D01*
X116578711Y-132574500D01*
X116338214Y-132606161D01*
X116103895Y-132668947D01*
X115879794Y-132761773D01*
X115879785Y-132761777D01*
X115669706Y-132883067D01*
X115477263Y-133030733D01*
X115477256Y-133030739D01*
X115305739Y-133202256D01*
X115305733Y-133202263D01*
X115158067Y-133394706D01*
X115036777Y-133604785D01*
X115036773Y-133604794D01*
X114943947Y-133828895D01*
X114881161Y-134063214D01*
X114849500Y-134303711D01*
X113200500Y-134303711D01*
X113200500Y-127058619D01*
X122211354Y-127058619D01*
X122350965Y-127129753D01*
X122350972Y-127129756D01*
X122545582Y-127192990D01*
X122747683Y-127225000D01*
X122952317Y-127225000D01*
X123154417Y-127192990D01*
X123349031Y-127129755D01*
X123488643Y-127058618D01*
X122850001Y-126419974D01*
X122850000Y-126419974D01*
X122211354Y-127058619D01*
X113200500Y-127058619D01*
X113200500Y-124833619D01*
X115611354Y-124833619D01*
X115750965Y-124904753D01*
X115750972Y-124904756D01*
X115945582Y-124967990D01*
X116147683Y-125000000D01*
X116352317Y-125000000D01*
X116554417Y-124967990D01*
X116749031Y-124904755D01*
X116888643Y-124833618D01*
X116250001Y-124194974D01*
X116250000Y-124194974D01*
X115611354Y-124833619D01*
X113200500Y-124833619D01*
X113200500Y-123597682D01*
X114950000Y-123597682D01*
X114950000Y-123802317D01*
X114982010Y-124004418D01*
X114982010Y-124004421D01*
X115045241Y-124199023D01*
X115045241Y-124199024D01*
X115116379Y-124338644D01*
X115116380Y-124338644D01*
X115755025Y-123700000D01*
X115702364Y-123647339D01*
X115850000Y-123647339D01*
X115850000Y-123752661D01*
X115877259Y-123854394D01*
X115929920Y-123945606D01*
X116004394Y-124020080D01*
X116095606Y-124072741D01*
X116197339Y-124100000D01*
X116302661Y-124100000D01*
X116404394Y-124072741D01*
X116495606Y-124020080D01*
X116570080Y-123945606D01*
X116622741Y-123854394D01*
X116650000Y-123752661D01*
X116650000Y-123647339D01*
X116622741Y-123545606D01*
X116570080Y-123454394D01*
X116495606Y-123379920D01*
X116404394Y-123327259D01*
X116302661Y-123300000D01*
X116197339Y-123300000D01*
X116095606Y-123327259D01*
X116004394Y-123379920D01*
X115929920Y-123454394D01*
X115877259Y-123545606D01*
X115850000Y-123647339D01*
X115702364Y-123647339D01*
X115116379Y-123061354D01*
X115045242Y-123200973D01*
X115045242Y-123200974D01*
X114982010Y-123395578D01*
X114982010Y-123395581D01*
X114950000Y-123597682D01*
X113200500Y-123597682D01*
X113200500Y-122566379D01*
X115611354Y-122566379D01*
X116250000Y-123205025D01*
X116250001Y-123205025D01*
X116888644Y-122566380D01*
X116888644Y-122566379D01*
X116749024Y-122495241D01*
X116554419Y-122432010D01*
X116352317Y-122400000D01*
X116147683Y-122400000D01*
X115945581Y-122432010D01*
X115945578Y-122432010D01*
X115750974Y-122495242D01*
X115750973Y-122495242D01*
X115611354Y-122566379D01*
X113200500Y-122566379D01*
X113200500Y-121733619D01*
X115611354Y-121733619D01*
X115750965Y-121804753D01*
X115750972Y-121804756D01*
X115945582Y-121867990D01*
X116147683Y-121900000D01*
X116352317Y-121900000D01*
X116554417Y-121867990D01*
X116749031Y-121804755D01*
X116888643Y-121733618D01*
X116250001Y-121094974D01*
X116250000Y-121094974D01*
X115611354Y-121733619D01*
X113200500Y-121733619D01*
X113200500Y-120497682D01*
X114950000Y-120497682D01*
X114950000Y-120702317D01*
X114982010Y-120904418D01*
X114982010Y-120904421D01*
X115045241Y-121099023D01*
X115045241Y-121099024D01*
X115116379Y-121238644D01*
X115116380Y-121238644D01*
X115755025Y-120600000D01*
X115702364Y-120547339D01*
X115850000Y-120547339D01*
X115850000Y-120652661D01*
X115877259Y-120754394D01*
X115929920Y-120845606D01*
X116004394Y-120920080D01*
X116095606Y-120972741D01*
X116197339Y-121000000D01*
X116302661Y-121000000D01*
X116404394Y-120972741D01*
X116495606Y-120920080D01*
X116570080Y-120845606D01*
X116622741Y-120754394D01*
X116650000Y-120652661D01*
X116650000Y-120547339D01*
X116622741Y-120445606D01*
X116570080Y-120354394D01*
X116495606Y-120279920D01*
X116404394Y-120227259D01*
X116302661Y-120200000D01*
X116197339Y-120200000D01*
X116095606Y-120227259D01*
X116004394Y-120279920D01*
X115929920Y-120354394D01*
X115877259Y-120445606D01*
X115850000Y-120547339D01*
X115702364Y-120547339D01*
X115116379Y-119961354D01*
X115045242Y-120100973D01*
X115045242Y-120100974D01*
X114982010Y-120295578D01*
X114982010Y-120295581D01*
X114950000Y-120497682D01*
X113200500Y-120497682D01*
X113200500Y-93647243D01*
X113220185Y-93580204D01*
X113272989Y-93534449D01*
X113337756Y-93523954D01*
X113352127Y-93525500D01*
X115647872Y-93525499D01*
X115707483Y-93519091D01*
X115842331Y-93468796D01*
X115867796Y-93449733D01*
X115933261Y-93425316D01*
X115942107Y-93425000D01*
X119990500Y-93425000D01*
X120057539Y-93444685D01*
X120103294Y-93497489D01*
X120114500Y-93549000D01*
X120114500Y-94640663D01*
X120094815Y-94707702D01*
X120078181Y-94728344D01*
X118110843Y-96695681D01*
X118049520Y-96729166D01*
X118023162Y-96732000D01*
X116852129Y-96732000D01*
X116852123Y-96732001D01*
X116792516Y-96738408D01*
X116657671Y-96788702D01*
X116657664Y-96788706D01*
X116542455Y-96874952D01*
X116542452Y-96874955D01*
X116456206Y-96990164D01*
X116456202Y-96990171D01*
X116405908Y-97125017D01*
X116399501Y-97184616D01*
X116399500Y-97184635D01*
X116399500Y-98880370D01*
X116399501Y-98880376D01*
X116405908Y-98939983D01*
X116441682Y-99035895D01*
X116449500Y-99079228D01*
X116449500Y-101622870D01*
X116449501Y-101622876D01*
X116455908Y-101682479D01*
X116457692Y-101690026D01*
X116456229Y-101690371D01*
X116460585Y-101751371D01*
X116456173Y-101766396D01*
X116455908Y-101767517D01*
X116449501Y-101827116D01*
X116449501Y-101827123D01*
X116449500Y-101827135D01*
X116449500Y-105272998D01*
X116444554Y-105307669D01*
X116444016Y-105309514D01*
X116431523Y-105347966D01*
X116429976Y-105357724D01*
X116427784Y-105365254D01*
X116427387Y-105365873D01*
X116426661Y-105368900D01*
X116405292Y-105434666D01*
X116405291Y-105434673D01*
X116374500Y-105629077D01*
X116374500Y-108670498D01*
X116368431Y-108708816D01*
X116356523Y-108745464D01*
X116324500Y-108947648D01*
X116324500Y-109152351D01*
X116356522Y-109354530D01*
X116356522Y-109354531D01*
X116368431Y-109391182D01*
X116374500Y-109429500D01*
X116374500Y-111670498D01*
X116368431Y-111708816D01*
X116356523Y-111745464D01*
X116324500Y-111947648D01*
X116324500Y-112152351D01*
X116356522Y-112354534D01*
X116419781Y-112549223D01*
X116512715Y-112731613D01*
X116633028Y-112897213D01*
X116633034Y-112897219D01*
X116777781Y-113041966D01*
X116943390Y-113162287D01*
X116977724Y-113179781D01*
X117009110Y-113202584D01*
X117364345Y-113557819D01*
X117397830Y-113619142D01*
X117392846Y-113688834D01*
X117350974Y-113744767D01*
X117285510Y-113769184D01*
X117276664Y-113769500D01*
X114974000Y-113769500D01*
X114973991Y-113769500D01*
X114973990Y-113769501D01*
X114866549Y-113781052D01*
X114866537Y-113781054D01*
X114815027Y-113792260D01*
X114712502Y-113826383D01*
X114712496Y-113826386D01*
X114591462Y-113904171D01*
X114591451Y-113904179D01*
X114538659Y-113949923D01*
X114444433Y-114058664D01*
X114444430Y-114058668D01*
X114384664Y-114189534D01*
X114364976Y-114256582D01*
X114351325Y-114351528D01*
X114344500Y-114399000D01*
X114344500Y-116420500D01*
X114344501Y-116420509D01*
X114356052Y-116527950D01*
X114356054Y-116527962D01*
X114367259Y-116579466D01*
X114377515Y-116610282D01*
X114380008Y-116680107D01*
X114378837Y-116684375D01*
X114364976Y-116731578D01*
X114356896Y-116787782D01*
X114344500Y-116874000D01*
X114344500Y-118701000D01*
X114344501Y-118701009D01*
X114356052Y-118808450D01*
X114356054Y-118808462D01*
X114367260Y-118859972D01*
X114401383Y-118962497D01*
X114401386Y-118962503D01*
X114479171Y-119083537D01*
X114479179Y-119083548D01*
X114524923Y-119136340D01*
X114524926Y-119136343D01*
X114524930Y-119136347D01*
X114633664Y-119230567D01*
X114764541Y-119290338D01*
X114831580Y-119310023D01*
X114831584Y-119310024D01*
X114974000Y-119330500D01*
X115487691Y-119330500D01*
X115554730Y-119350185D01*
X115600485Y-119402989D01*
X115609305Y-119464330D01*
X116250000Y-120105025D01*
X116250001Y-120105025D01*
X116891127Y-119463896D01*
X116898790Y-119404605D01*
X116943786Y-119351153D01*
X117010537Y-119330513D01*
X117012308Y-119330500D01*
X117375500Y-119330500D01*
X117442539Y-119350185D01*
X117488294Y-119402989D01*
X117499500Y-119454500D01*
X117499500Y-119834523D01*
X117479815Y-119901562D01*
X117427011Y-119947317D01*
X117392727Y-119952246D01*
X116744974Y-120600000D01*
X117392707Y-121247732D01*
X117425394Y-121251956D01*
X117478846Y-121296951D01*
X117499487Y-121363702D01*
X117499500Y-121365475D01*
X117499500Y-122934523D01*
X117479815Y-123001562D01*
X117427011Y-123047317D01*
X117392727Y-123052246D01*
X116744974Y-123700000D01*
X117383618Y-124338643D01*
X117389233Y-124327623D01*
X117437207Y-124276826D01*
X117505028Y-124260030D01*
X117571163Y-124282566D01*
X117610204Y-124327621D01*
X117637715Y-124381613D01*
X117758028Y-124547213D01*
X117902786Y-124691971D01*
X118057749Y-124804556D01*
X118068390Y-124812287D01*
X118184607Y-124871503D01*
X118250776Y-124905218D01*
X118250778Y-124905218D01*
X118250781Y-124905220D01*
X118355137Y-124939127D01*
X118445465Y-124968477D01*
X118546557Y-124984488D01*
X118647648Y-125000500D01*
X118647649Y-125000500D01*
X118852351Y-125000500D01*
X118852352Y-125000500D01*
X119054534Y-124968477D01*
X119082714Y-124959320D01*
X119091184Y-124956569D01*
X119129502Y-124950500D01*
X121707763Y-124950500D01*
X121774802Y-124970185D01*
X121820557Y-125022989D01*
X121830501Y-125092147D01*
X121808081Y-125147386D01*
X121738140Y-125243650D01*
X121645244Y-125425968D01*
X121582009Y-125620582D01*
X121550000Y-125822682D01*
X121550000Y-126027317D01*
X121582010Y-126229418D01*
X121582010Y-126229421D01*
X121645241Y-126424023D01*
X121645241Y-126424024D01*
X121716379Y-126563644D01*
X122465488Y-125814535D01*
X122450000Y-125872339D01*
X122450000Y-125977661D01*
X122477259Y-126079394D01*
X122529920Y-126170606D01*
X122604394Y-126245080D01*
X122695606Y-126297741D01*
X122797339Y-126325000D01*
X122902661Y-126325000D01*
X123004394Y-126297741D01*
X123095606Y-126245080D01*
X123170080Y-126170606D01*
X123222741Y-126079394D01*
X123250000Y-125977661D01*
X123250000Y-125872339D01*
X123234512Y-125814537D01*
X123983618Y-126563643D01*
X123989233Y-126552623D01*
X124037207Y-126501826D01*
X124105028Y-126485030D01*
X124171163Y-126507566D01*
X124210204Y-126552621D01*
X124237715Y-126606613D01*
X124358028Y-126772213D01*
X124502786Y-126916971D01*
X124651342Y-127024901D01*
X124668390Y-127037287D01*
X124850781Y-127130220D01*
X124931310Y-127156385D01*
X124988983Y-127195820D01*
X125016183Y-127260178D01*
X125015875Y-127290915D01*
X125011124Y-127326081D01*
X125011124Y-127326087D01*
X125020629Y-127388417D01*
X125032813Y-127468321D01*
X125053068Y-127535191D01*
X125053069Y-127535194D01*
X125075315Y-127582826D01*
X125113952Y-127665557D01*
X125113953Y-127665558D01*
X125209098Y-127773490D01*
X125209099Y-127773491D01*
X125260571Y-127817328D01*
X125262290Y-127818792D01*
X125262296Y-127818795D01*
X125262307Y-127818804D01*
X125369884Y-127886650D01*
X125383985Y-127895543D01*
X125491216Y-127943414D01*
X125841540Y-128099809D01*
X125894732Y-128145112D01*
X125914987Y-128211982D01*
X125895874Y-128279186D01*
X125847286Y-128323523D01*
X125713566Y-128391657D01*
X125626764Y-128454723D01*
X125522490Y-128530483D01*
X125522488Y-128530485D01*
X125522487Y-128530485D01*
X125355485Y-128697487D01*
X125355485Y-128697488D01*
X125355483Y-128697490D01*
X125298805Y-128775500D01*
X125216657Y-128888566D01*
X125109433Y-129099003D01*
X125036446Y-129323631D01*
X124999500Y-129556902D01*
X124999500Y-129793097D01*
X125036446Y-130026368D01*
X125109433Y-130250996D01*
X125168091Y-130366117D01*
X125216657Y-130461433D01*
X125355483Y-130652510D01*
X125522490Y-130819517D01*
X125713567Y-130958343D01*
X125812991Y-131009002D01*
X125924003Y-131065566D01*
X125924005Y-131065566D01*
X125924008Y-131065568D01*
X126044412Y-131104689D01*
X126148631Y-131138553D01*
X126381903Y-131175500D01*
X126381908Y-131175500D01*
X126618097Y-131175500D01*
X126851368Y-131138553D01*
X127075992Y-131065568D01*
X127286433Y-130958343D01*
X127477510Y-130819517D01*
X127644517Y-130652510D01*
X127783343Y-130461433D01*
X127890568Y-130250992D01*
X127963553Y-130026368D01*
X127965103Y-130016583D01*
X128000500Y-129793097D01*
X128000500Y-129556902D01*
X127963553Y-129323631D01*
X127890566Y-129099003D01*
X127790770Y-128903144D01*
X127777874Y-128834475D01*
X127804150Y-128769734D01*
X127861257Y-128729477D01*
X127909061Y-128723095D01*
X129801353Y-128842512D01*
X129925031Y-128835103D01*
X129925057Y-128835098D01*
X129925473Y-128835048D01*
X129925598Y-128835068D01*
X129928834Y-128834875D01*
X129928878Y-128835611D01*
X129994403Y-128846463D01*
X130046220Y-128893333D01*
X130064500Y-128958134D01*
X130064500Y-130150500D01*
X130044815Y-130217539D01*
X129992011Y-130263294D01*
X129940500Y-130274500D01*
X129901578Y-130274500D01*
X129707173Y-130305290D01*
X129519969Y-130366117D01*
X129344594Y-130455476D01*
X129274178Y-130506637D01*
X129185355Y-130571171D01*
X129185353Y-130571173D01*
X129185352Y-130571173D01*
X127918345Y-131838181D01*
X127857022Y-131871666D01*
X127830664Y-131874500D01*
X123374500Y-131874500D01*
X123307461Y-131854815D01*
X123261706Y-131802011D01*
X123250500Y-131750500D01*
X123250500Y-130546927D01*
X123270185Y-130479888D01*
X123274184Y-130474039D01*
X123283343Y-130461433D01*
X123390568Y-130250992D01*
X123463553Y-130026368D01*
X123465103Y-130016583D01*
X123500500Y-129793097D01*
X123500500Y-129556902D01*
X123463553Y-129323631D01*
X123390566Y-129099003D01*
X123283342Y-128888566D01*
X123144517Y-128697490D01*
X122977510Y-128530483D01*
X122786433Y-128391657D01*
X122768428Y-128382483D01*
X122575996Y-128284433D01*
X122351368Y-128211446D01*
X122118097Y-128174500D01*
X122118092Y-128174500D01*
X121881908Y-128174500D01*
X121881903Y-128174500D01*
X121648631Y-128211446D01*
X121424003Y-128284433D01*
X121213566Y-128391657D01*
X121126764Y-128454723D01*
X121022490Y-128530483D01*
X121022488Y-128530485D01*
X121022487Y-128530485D01*
X120855485Y-128697487D01*
X120855485Y-128697488D01*
X120855483Y-128697490D01*
X120798805Y-128775500D01*
X120716657Y-128888566D01*
X120609433Y-129099003D01*
X120536446Y-129323631D01*
X120499500Y-129556902D01*
X120499500Y-129793097D01*
X120536446Y-130026368D01*
X120609433Y-130250996D01*
X120716658Y-130461435D01*
X120725816Y-130474039D01*
X120749298Y-130539844D01*
X120749500Y-130546927D01*
X120749500Y-135303072D01*
X120729815Y-135370111D01*
X120725820Y-135375954D01*
X120716660Y-135388561D01*
X120716656Y-135388568D01*
X120609433Y-135599003D01*
X120536446Y-135823631D01*
X120499500Y-136056902D01*
X120499500Y-136293097D01*
X120536446Y-136526368D01*
X120609433Y-136750996D01*
X120687195Y-136903611D01*
X120716657Y-136961433D01*
X120855483Y-137152510D01*
X121022490Y-137319517D01*
X121213567Y-137458343D01*
X121247240Y-137475500D01*
X121424003Y-137565566D01*
X121424005Y-137565566D01*
X121424008Y-137565568D01*
X121544412Y-137604689D01*
X121648631Y-137638553D01*
X121881903Y-137675500D01*
X121881908Y-137675500D01*
X122118097Y-137675500D01*
X122351368Y-137638553D01*
X122575992Y-137565568D01*
X122786433Y-137458343D01*
X122977510Y-137319517D01*
X123144517Y-137152510D01*
X123283343Y-136961433D01*
X123390568Y-136750992D01*
X123463553Y-136526368D01*
X123466925Y-136505080D01*
X123500500Y-136293097D01*
X123500500Y-136056902D01*
X124999500Y-136056902D01*
X124999500Y-136293097D01*
X125036446Y-136526368D01*
X125109433Y-136750996D01*
X125187195Y-136903611D01*
X125216657Y-136961433D01*
X125355483Y-137152510D01*
X125522490Y-137319517D01*
X125713567Y-137458343D01*
X125747240Y-137475500D01*
X125924003Y-137565566D01*
X125924005Y-137565566D01*
X125924008Y-137565568D01*
X126044412Y-137604689D01*
X126148631Y-137638553D01*
X126381903Y-137675500D01*
X126381908Y-137675500D01*
X126618097Y-137675500D01*
X126851368Y-137638553D01*
X127075992Y-137565568D01*
X127286433Y-137458343D01*
X127477510Y-137319517D01*
X127644517Y-137152510D01*
X127783343Y-136961433D01*
X127807115Y-136914778D01*
X127855088Y-136863981D01*
X127922909Y-136847185D01*
X127989044Y-136869721D01*
X128017918Y-136898186D01*
X128108028Y-137022212D01*
X128108032Y-137022217D01*
X128252786Y-137166971D01*
X128407749Y-137279556D01*
X128418390Y-137287287D01*
X128504382Y-137331102D01*
X128600776Y-137380218D01*
X128600778Y-137380218D01*
X128600781Y-137380220D01*
X128705137Y-137414127D01*
X128795465Y-137443477D01*
X128889318Y-137458342D01*
X128997648Y-137475500D01*
X128997649Y-137475500D01*
X129202351Y-137475500D01*
X129202352Y-137475500D01*
X129404534Y-137443477D01*
X129599219Y-137380220D01*
X129739744Y-137308619D01*
X138621354Y-137308619D01*
X138760965Y-137379753D01*
X138760972Y-137379756D01*
X138955582Y-137442990D01*
X139157683Y-137475000D01*
X139362317Y-137475000D01*
X139564417Y-137442990D01*
X139759031Y-137379755D01*
X139898643Y-137308618D01*
X139260001Y-136669974D01*
X139260000Y-136669974D01*
X138621354Y-137308619D01*
X129739744Y-137308619D01*
X129781610Y-137287287D01*
X129947219Y-137166966D01*
X130091966Y-137022219D01*
X130091968Y-137022215D01*
X130091971Y-137022213D01*
X130181111Y-136899520D01*
X130212287Y-136856610D01*
X130305220Y-136674219D01*
X130368477Y-136479534D01*
X130400500Y-136277352D01*
X130400500Y-136072682D01*
X137960000Y-136072682D01*
X137960000Y-136277317D01*
X137992010Y-136479418D01*
X137992010Y-136479421D01*
X138055241Y-136674023D01*
X138055241Y-136674024D01*
X138126379Y-136813644D01*
X138126380Y-136813644D01*
X138765025Y-136175000D01*
X138712364Y-136122339D01*
X138860000Y-136122339D01*
X138860000Y-136227661D01*
X138887259Y-136329394D01*
X138939920Y-136420606D01*
X139014394Y-136495080D01*
X139105606Y-136547741D01*
X139207339Y-136575000D01*
X139312661Y-136575000D01*
X139414394Y-136547741D01*
X139505606Y-136495080D01*
X139580080Y-136420606D01*
X139632741Y-136329394D01*
X139660000Y-136227661D01*
X139660000Y-136175000D01*
X139754974Y-136175000D01*
X140393618Y-136813643D01*
X140464755Y-136674031D01*
X140527990Y-136479417D01*
X140560000Y-136277317D01*
X140560000Y-136072682D01*
X140527990Y-135870582D01*
X140464756Y-135675972D01*
X140464753Y-135675965D01*
X140393619Y-135536354D01*
X139754974Y-136175000D01*
X139660000Y-136175000D01*
X139660000Y-136122339D01*
X139632741Y-136020606D01*
X139580080Y-135929394D01*
X139505606Y-135854920D01*
X139414394Y-135802259D01*
X139312661Y-135775000D01*
X139207339Y-135775000D01*
X139105606Y-135802259D01*
X139014394Y-135854920D01*
X138939920Y-135929394D01*
X138887259Y-136020606D01*
X138860000Y-136122339D01*
X138712364Y-136122339D01*
X138126379Y-135536354D01*
X138055242Y-135675973D01*
X138055242Y-135675974D01*
X137992010Y-135870578D01*
X137992010Y-135870581D01*
X137960000Y-136072682D01*
X130400500Y-136072682D01*
X130400500Y-136072648D01*
X130383756Y-135966932D01*
X130368477Y-135870465D01*
X130306599Y-135680025D01*
X130305220Y-135675781D01*
X130305218Y-135675778D01*
X130305218Y-135675776D01*
X130234178Y-135536354D01*
X130212287Y-135493390D01*
X130178284Y-135446588D01*
X130091971Y-135327786D01*
X129947217Y-135183032D01*
X129781609Y-135062712D01*
X129739741Y-135041379D01*
X138621354Y-135041379D01*
X139260000Y-135680025D01*
X139260001Y-135680025D01*
X139898644Y-135041380D01*
X139898644Y-135041379D01*
X139759024Y-134970241D01*
X139564419Y-134907010D01*
X139362317Y-134875000D01*
X139157683Y-134875000D01*
X138955581Y-134907010D01*
X138955578Y-134907010D01*
X138760974Y-134970242D01*
X138760973Y-134970242D01*
X138621354Y-135041379D01*
X129739741Y-135041379D01*
X129599223Y-134969781D01*
X129404534Y-134906522D01*
X129229995Y-134878878D01*
X129202352Y-134874500D01*
X128997648Y-134874500D01*
X128973329Y-134878351D01*
X128795465Y-134906522D01*
X128600776Y-134969781D01*
X128418386Y-135062715D01*
X128252786Y-135183028D01*
X128108032Y-135327782D01*
X128017918Y-135451814D01*
X127962588Y-135494479D01*
X127892975Y-135500458D01*
X127831180Y-135467852D01*
X127807115Y-135435222D01*
X127783344Y-135388568D01*
X127762488Y-135359863D01*
X127644517Y-135197490D01*
X127477510Y-135030483D01*
X127286433Y-134891657D01*
X127253742Y-134875000D01*
X127075996Y-134784433D01*
X126851368Y-134711446D01*
X126618097Y-134674500D01*
X126618092Y-134674500D01*
X126381908Y-134674500D01*
X126381903Y-134674500D01*
X126148631Y-134711446D01*
X125924003Y-134784433D01*
X125713566Y-134891657D01*
X125692435Y-134907010D01*
X125522490Y-135030483D01*
X125522488Y-135030485D01*
X125522487Y-135030485D01*
X125355485Y-135197487D01*
X125355485Y-135197488D01*
X125355483Y-135197490D01*
X125301068Y-135272386D01*
X125216657Y-135388566D01*
X125109433Y-135599003D01*
X125036446Y-135823631D01*
X124999500Y-136056902D01*
X123500500Y-136056902D01*
X123463553Y-135823631D01*
X123415576Y-135675974D01*
X123390568Y-135599008D01*
X123390566Y-135599005D01*
X123390566Y-135599003D01*
X123323741Y-135467852D01*
X123283343Y-135388567D01*
X123283339Y-135388561D01*
X123274180Y-135375954D01*
X123250702Y-135310147D01*
X123250500Y-135303072D01*
X123250500Y-134499500D01*
X123270185Y-134432461D01*
X123322989Y-134386706D01*
X123374500Y-134375500D01*
X128498422Y-134375500D01*
X128692826Y-134344709D01*
X128880026Y-134283884D01*
X129055405Y-134194524D01*
X129214646Y-134078828D01*
X130481655Y-132811819D01*
X130542978Y-132778334D01*
X130569336Y-132775500D01*
X132626583Y-132775500D01*
X132823416Y-132775500D01*
X138560498Y-132775500D01*
X138598816Y-132781569D01*
X138612260Y-132785937D01*
X138635466Y-132793477D01*
X138837648Y-132825500D01*
X138837649Y-132825500D01*
X139042351Y-132825500D01*
X139042352Y-132825500D01*
X139244534Y-132793477D01*
X139272714Y-132784320D01*
X139281184Y-132781569D01*
X139319502Y-132775500D01*
X140430664Y-132775500D01*
X140497703Y-132795185D01*
X140518345Y-132811819D01*
X142485354Y-134778828D01*
X142644595Y-134894524D01*
X142819974Y-134983884D01*
X142934513Y-135021100D01*
X142963391Y-135030483D01*
X143007173Y-135044709D01*
X143201578Y-135075500D01*
X143201583Y-135075500D01*
X152600750Y-135075500D01*
X152667789Y-135095185D01*
X152713544Y-135147989D01*
X152723488Y-135217147D01*
X152701068Y-135272386D01*
X152616657Y-135388566D01*
X152509433Y-135599003D01*
X152436446Y-135823631D01*
X152399500Y-136056902D01*
X152399500Y-136293097D01*
X152436446Y-136526368D01*
X152509433Y-136750996D01*
X152587195Y-136903611D01*
X152616657Y-136961433D01*
X152755483Y-137152510D01*
X152922490Y-137319517D01*
X153113567Y-137458343D01*
X153147240Y-137475500D01*
X153324003Y-137565566D01*
X153324005Y-137565566D01*
X153324008Y-137565568D01*
X153444412Y-137604689D01*
X153548631Y-137638553D01*
X153781903Y-137675500D01*
X153781908Y-137675500D01*
X154018097Y-137675500D01*
X154251368Y-137638553D01*
X154475992Y-137565568D01*
X154686433Y-137458343D01*
X154877510Y-137319517D01*
X155044517Y-137152510D01*
X155183343Y-136961433D01*
X155290568Y-136750992D01*
X155363553Y-136526368D01*
X155366925Y-136505080D01*
X155400500Y-136293097D01*
X155400500Y-136056902D01*
X155363553Y-135823631D01*
X155315576Y-135675974D01*
X155290568Y-135599008D01*
X155290566Y-135599005D01*
X155290566Y-135599003D01*
X155223741Y-135467852D01*
X155183343Y-135388567D01*
X155098931Y-135272385D01*
X155075452Y-135206579D01*
X155091277Y-135138525D01*
X155141383Y-135089830D01*
X155199250Y-135075500D01*
X157025500Y-135075500D01*
X157034185Y-135078050D01*
X157043147Y-135076762D01*
X157067187Y-135087740D01*
X157092539Y-135095185D01*
X157098466Y-135102025D01*
X157106703Y-135105787D01*
X157120992Y-135128021D01*
X157138294Y-135147989D01*
X157140581Y-135158503D01*
X157144477Y-135164565D01*
X157149500Y-135199500D01*
X157149500Y-135303072D01*
X157129815Y-135370111D01*
X157125820Y-135375954D01*
X157116660Y-135388561D01*
X157116656Y-135388568D01*
X157009433Y-135599003D01*
X156936446Y-135823631D01*
X156899500Y-136056902D01*
X156899500Y-136293097D01*
X156936446Y-136526368D01*
X157009433Y-136750996D01*
X157087195Y-136903611D01*
X157116657Y-136961433D01*
X157255483Y-137152510D01*
X157422490Y-137319517D01*
X157613567Y-137458343D01*
X157647240Y-137475500D01*
X157824003Y-137565566D01*
X157824005Y-137565566D01*
X157824008Y-137565568D01*
X157944412Y-137604689D01*
X158048631Y-137638553D01*
X158281903Y-137675500D01*
X158281908Y-137675500D01*
X158518097Y-137675500D01*
X158751368Y-137638553D01*
X158975992Y-137565568D01*
X159186433Y-137458343D01*
X159377510Y-137319517D01*
X159544517Y-137152510D01*
X159683343Y-136961433D01*
X159790568Y-136750992D01*
X159863553Y-136526368D01*
X159866925Y-136505080D01*
X159900500Y-136293097D01*
X159900500Y-136056902D01*
X159863553Y-135823631D01*
X159815576Y-135675974D01*
X159790568Y-135599008D01*
X159790566Y-135599005D01*
X159790566Y-135599003D01*
X159723741Y-135467852D01*
X159683343Y-135388567D01*
X159683339Y-135388561D01*
X159674180Y-135375954D01*
X159650702Y-135310147D01*
X159650500Y-135303072D01*
X159650500Y-134303711D01*
X161849500Y-134303711D01*
X161849500Y-134546288D01*
X161880851Y-134784433D01*
X161881162Y-134786789D01*
X161910030Y-134894524D01*
X161943946Y-135021100D01*
X162017841Y-135199500D01*
X162036776Y-135245212D01*
X162158064Y-135455289D01*
X162158066Y-135455292D01*
X162158067Y-135455293D01*
X162305733Y-135647736D01*
X162305739Y-135647743D01*
X162477256Y-135819260D01*
X162477263Y-135819266D01*
X162544138Y-135870581D01*
X162669711Y-135966936D01*
X162879788Y-136088224D01*
X163103900Y-136181054D01*
X163338211Y-136243838D01*
X163518586Y-136267584D01*
X163578711Y-136275500D01*
X163578712Y-136275500D01*
X163821289Y-136275500D01*
X163869388Y-136269167D01*
X164061789Y-136243838D01*
X164296100Y-136181054D01*
X164520212Y-136088224D01*
X164730289Y-135966936D01*
X164922738Y-135819265D01*
X165094265Y-135647738D01*
X165241936Y-135455289D01*
X165363224Y-135245212D01*
X165456054Y-135021100D01*
X165518838Y-134786789D01*
X165550500Y-134546288D01*
X165550500Y-134303712D01*
X165518838Y-134063211D01*
X165456054Y-133828900D01*
X165363224Y-133604788D01*
X165241936Y-133394711D01*
X165094265Y-133202262D01*
X165094260Y-133202256D01*
X164922743Y-133030739D01*
X164922736Y-133030733D01*
X164730293Y-132883067D01*
X164730292Y-132883066D01*
X164730289Y-132883064D01*
X164558661Y-132783974D01*
X164520214Y-132761777D01*
X164520205Y-132761773D01*
X164296104Y-132668947D01*
X164061785Y-132606161D01*
X163821289Y-132574500D01*
X163821288Y-132574500D01*
X163578712Y-132574500D01*
X163578711Y-132574500D01*
X163338214Y-132606161D01*
X163103895Y-132668947D01*
X162879794Y-132761773D01*
X162879785Y-132761777D01*
X162669706Y-132883067D01*
X162477263Y-133030733D01*
X162477256Y-133030739D01*
X162305739Y-133202256D01*
X162305733Y-133202263D01*
X162158067Y-133394706D01*
X162036777Y-133604785D01*
X162036773Y-133604794D01*
X161943947Y-133828895D01*
X161881161Y-134063214D01*
X161849500Y-134303711D01*
X159650500Y-134303711D01*
X159650500Y-130546927D01*
X159670185Y-130479888D01*
X159674184Y-130474039D01*
X159683343Y-130461433D01*
X159790568Y-130250992D01*
X159863553Y-130026368D01*
X159865103Y-130016583D01*
X159900500Y-129793097D01*
X159900500Y-129556902D01*
X159863553Y-129323631D01*
X159790566Y-129099003D01*
X159683342Y-128888566D01*
X159544517Y-128697490D01*
X159377510Y-128530483D01*
X159186433Y-128391657D01*
X159168428Y-128382483D01*
X158975996Y-128284433D01*
X158751368Y-128211446D01*
X158518097Y-128174500D01*
X158518092Y-128174500D01*
X158281908Y-128174500D01*
X158281903Y-128174500D01*
X158048631Y-128211446D01*
X157824003Y-128284433D01*
X157613566Y-128391657D01*
X157526764Y-128454723D01*
X157422490Y-128530483D01*
X157422488Y-128530485D01*
X157422487Y-128530485D01*
X157255485Y-128697487D01*
X157255485Y-128697488D01*
X157255483Y-128697490D01*
X157198805Y-128775500D01*
X157116657Y-128888566D01*
X157009433Y-129099003D01*
X156936446Y-129323631D01*
X156899500Y-129556902D01*
X156899500Y-129793097D01*
X156936446Y-130026368D01*
X157009433Y-130250996D01*
X157116658Y-130461435D01*
X157125816Y-130474039D01*
X157149298Y-130539844D01*
X157149500Y-130546927D01*
X157149500Y-132450500D01*
X157129815Y-132517539D01*
X157077011Y-132563294D01*
X157025500Y-132574500D01*
X150188179Y-132574500D01*
X150121140Y-132554815D01*
X150075385Y-132502011D01*
X150065441Y-132432853D01*
X150090598Y-132377247D01*
X150089103Y-132376161D01*
X150156991Y-132282718D01*
X150212287Y-132206610D01*
X150305220Y-132024219D01*
X150368477Y-131829534D01*
X150400500Y-131627352D01*
X150400500Y-131422648D01*
X150368477Y-131220466D01*
X150305220Y-131025781D01*
X150305218Y-131025778D01*
X150305218Y-131025776D01*
X150270858Y-130958342D01*
X150212287Y-130843390D01*
X150204556Y-130832749D01*
X150091971Y-130677786D01*
X149947213Y-130533028D01*
X149781613Y-130412715D01*
X149781612Y-130412714D01*
X149781610Y-130412713D01*
X149724653Y-130383691D01*
X149599223Y-130319781D01*
X149404534Y-130256522D01*
X149229995Y-130228878D01*
X149202352Y-130224500D01*
X148997648Y-130224500D01*
X148973329Y-130228351D01*
X148795465Y-130256522D01*
X148600776Y-130319781D01*
X148418386Y-130412715D01*
X148252786Y-130533028D01*
X148108028Y-130677786D01*
X147987715Y-130843386D01*
X147894781Y-131025776D01*
X147831522Y-131220465D01*
X147799500Y-131422648D01*
X147799500Y-131627351D01*
X147831522Y-131829534D01*
X147894781Y-132024223D01*
X147987715Y-132206613D01*
X148110897Y-132376161D01*
X148109378Y-132377264D01*
X148134681Y-132433722D01*
X148124248Y-132502808D01*
X148078121Y-132555287D01*
X148011821Y-132574500D01*
X143869336Y-132574500D01*
X143802297Y-132554815D01*
X143781655Y-132538181D01*
X141814648Y-130571174D01*
X141814647Y-130571173D01*
X141814646Y-130571172D01*
X141655405Y-130455476D01*
X141480030Y-130366117D01*
X141292826Y-130305290D01*
X141098422Y-130274500D01*
X141098417Y-130274500D01*
X139319502Y-130274500D01*
X139281184Y-130268431D01*
X139244535Y-130256523D01*
X139128729Y-130238181D01*
X139042352Y-130224500D01*
X138837648Y-130224500D01*
X138770254Y-130235174D01*
X138635464Y-130256523D01*
X138598816Y-130268431D01*
X138560498Y-130274500D01*
X133294336Y-130274500D01*
X133227297Y-130254815D01*
X133206655Y-130238181D01*
X132601819Y-129633345D01*
X132568334Y-129572022D01*
X132566708Y-129556902D01*
X152399500Y-129556902D01*
X152399500Y-129793097D01*
X152436446Y-130026368D01*
X152509433Y-130250996D01*
X152568091Y-130366117D01*
X152616657Y-130461433D01*
X152755483Y-130652510D01*
X152922490Y-130819517D01*
X153113567Y-130958343D01*
X153212991Y-131009002D01*
X153324003Y-131065566D01*
X153324005Y-131065566D01*
X153324008Y-131065568D01*
X153444412Y-131104689D01*
X153548631Y-131138553D01*
X153781903Y-131175500D01*
X153781908Y-131175500D01*
X154018097Y-131175500D01*
X154251368Y-131138553D01*
X154475992Y-131065568D01*
X154686433Y-130958343D01*
X154877510Y-130819517D01*
X155044517Y-130652510D01*
X155183343Y-130461433D01*
X155290568Y-130250992D01*
X155363553Y-130026368D01*
X155365103Y-130016583D01*
X155400500Y-129793097D01*
X155400500Y-129556902D01*
X155363553Y-129323631D01*
X155290566Y-129099003D01*
X155183342Y-128888566D01*
X155044517Y-128697490D01*
X154877510Y-128530483D01*
X154686433Y-128391657D01*
X154668428Y-128382483D01*
X154475996Y-128284433D01*
X154251368Y-128211446D01*
X154018097Y-128174500D01*
X154018092Y-128174500D01*
X153781908Y-128174500D01*
X153781903Y-128174500D01*
X153548631Y-128211446D01*
X153324003Y-128284433D01*
X153113566Y-128391657D01*
X153026764Y-128454723D01*
X152922490Y-128530483D01*
X152922488Y-128530485D01*
X152922487Y-128530485D01*
X152755485Y-128697487D01*
X152755485Y-128697488D01*
X152755483Y-128697490D01*
X152698805Y-128775500D01*
X152616657Y-128888566D01*
X152509433Y-129099003D01*
X152436446Y-129323631D01*
X152399500Y-129556902D01*
X132566708Y-129556902D01*
X132565500Y-129545664D01*
X132565500Y-128616438D01*
X132585185Y-128549399D01*
X132590234Y-128542126D01*
X132608796Y-128517331D01*
X132608797Y-128517327D01*
X132608798Y-128517327D01*
X132658002Y-128385402D01*
X132699872Y-128329468D01*
X132765337Y-128305050D01*
X132833610Y-128319901D01*
X132861865Y-128341053D01*
X132975535Y-128454723D01*
X132975540Y-128454727D01*
X133147435Y-128579615D01*
X133147449Y-128579624D01*
X133255000Y-128634423D01*
X133255000Y-127359174D01*
X133355000Y-127359174D01*
X133355000Y-127490826D01*
X133389075Y-127617993D01*
X133454901Y-127732007D01*
X133547993Y-127825099D01*
X133662007Y-127890925D01*
X133789174Y-127925000D01*
X133920826Y-127925000D01*
X134047993Y-127890925D01*
X134162007Y-127825099D01*
X134255099Y-127732007D01*
X134320925Y-127617993D01*
X134355000Y-127490826D01*
X134355000Y-127359174D01*
X134320925Y-127232007D01*
X134255099Y-127117993D01*
X134162007Y-127024901D01*
X134047993Y-126959075D01*
X133920826Y-126925000D01*
X133789174Y-126925000D01*
X133662007Y-126959075D01*
X133547993Y-127024901D01*
X133454901Y-127117993D01*
X133389075Y-127232007D01*
X133355000Y-127359174D01*
X133255000Y-127359174D01*
X133255000Y-126215574D01*
X134455000Y-126215574D01*
X134455000Y-128634423D01*
X134562550Y-128579624D01*
X134562564Y-128579615D01*
X134734459Y-128454727D01*
X134734464Y-128454723D01*
X134884723Y-128304464D01*
X134884727Y-128304459D01*
X135009620Y-128132558D01*
X135014232Y-128123507D01*
X135062205Y-128072709D01*
X135130025Y-128055912D01*
X135196161Y-128078447D01*
X135235204Y-128123504D01*
X135239949Y-128132817D01*
X135364890Y-128304786D01*
X135515213Y-128455109D01*
X135687179Y-128580048D01*
X135687181Y-128580049D01*
X135687184Y-128580051D01*
X135876588Y-128676557D01*
X136078757Y-128742246D01*
X136288713Y-128775500D01*
X136288714Y-128775500D01*
X136501286Y-128775500D01*
X136501287Y-128775500D01*
X136711243Y-128742246D01*
X136913412Y-128676557D01*
X137102816Y-128580051D01*
X137171041Y-128530483D01*
X137274786Y-128455109D01*
X137274788Y-128455106D01*
X137274792Y-128455104D01*
X137425104Y-128304792D01*
X137425106Y-128304788D01*
X137425109Y-128304786D01*
X137550048Y-128132820D01*
X137550050Y-128132817D01*
X137550051Y-128132816D01*
X137554514Y-128124054D01*
X137602488Y-128073259D01*
X137670308Y-128056463D01*
X137736444Y-128078999D01*
X137775486Y-128124056D01*
X137779951Y-128132820D01*
X137904890Y-128304786D01*
X138055213Y-128455109D01*
X138227179Y-128580048D01*
X138227181Y-128580049D01*
X138227184Y-128580051D01*
X138416588Y-128676557D01*
X138618757Y-128742246D01*
X138828713Y-128775500D01*
X138828714Y-128775500D01*
X139041286Y-128775500D01*
X139041287Y-128775500D01*
X139251243Y-128742246D01*
X139453412Y-128676557D01*
X139642816Y-128580051D01*
X139711041Y-128530483D01*
X139814786Y-128455109D01*
X139814788Y-128455106D01*
X139814792Y-128455104D01*
X139965104Y-128304792D01*
X139965106Y-128304788D01*
X139965109Y-128304786D01*
X140090048Y-128132820D01*
X140090050Y-128132817D01*
X140090051Y-128132816D01*
X140094514Y-128124054D01*
X140142488Y-128073259D01*
X140210308Y-128056463D01*
X140276444Y-128078999D01*
X140315486Y-128124056D01*
X140319951Y-128132820D01*
X140444890Y-128304786D01*
X140595213Y-128455109D01*
X140767179Y-128580048D01*
X140767181Y-128580049D01*
X140767184Y-128580051D01*
X140956588Y-128676557D01*
X141158757Y-128742246D01*
X141368713Y-128775500D01*
X141368714Y-128775500D01*
X141581286Y-128775500D01*
X141581287Y-128775500D01*
X141791243Y-128742246D01*
X141993412Y-128676557D01*
X142182816Y-128580051D01*
X142251041Y-128530483D01*
X142354786Y-128455109D01*
X142354788Y-128455106D01*
X142354792Y-128455104D01*
X142505104Y-128304792D01*
X142505106Y-128304788D01*
X142505109Y-128304786D01*
X142630048Y-128132820D01*
X142630050Y-128132817D01*
X142630051Y-128132816D01*
X142634514Y-128124054D01*
X142682488Y-128073259D01*
X142750308Y-128056463D01*
X142816444Y-128078999D01*
X142855486Y-128124056D01*
X142859951Y-128132820D01*
X142984890Y-128304786D01*
X143135213Y-128455109D01*
X143307179Y-128580048D01*
X143307181Y-128580049D01*
X143307184Y-128580051D01*
X143496588Y-128676557D01*
X143698757Y-128742246D01*
X143908713Y-128775500D01*
X143908714Y-128775500D01*
X144121286Y-128775500D01*
X144121287Y-128775500D01*
X144331243Y-128742246D01*
X144533412Y-128676557D01*
X144722816Y-128580051D01*
X144791041Y-128530483D01*
X144894786Y-128455109D01*
X144894788Y-128455106D01*
X144894792Y-128455104D01*
X145045104Y-128304792D01*
X145045106Y-128304788D01*
X145045109Y-128304786D01*
X145170048Y-128132820D01*
X145170050Y-128132817D01*
X145170051Y-128132816D01*
X145174514Y-128124054D01*
X145222488Y-128073259D01*
X145290308Y-128056463D01*
X145356444Y-128078999D01*
X145395486Y-128124056D01*
X145399951Y-128132820D01*
X145524890Y-128304786D01*
X145675213Y-128455109D01*
X145847179Y-128580048D01*
X145847181Y-128580049D01*
X145847184Y-128580051D01*
X146036588Y-128676557D01*
X146238757Y-128742246D01*
X146448713Y-128775500D01*
X146448714Y-128775500D01*
X146661286Y-128775500D01*
X146661287Y-128775500D01*
X146871243Y-128742246D01*
X147073412Y-128676557D01*
X147262816Y-128580051D01*
X147331041Y-128530483D01*
X147434786Y-128455109D01*
X147434788Y-128455106D01*
X147434792Y-128455104D01*
X147585104Y-128304792D01*
X147585106Y-128304788D01*
X147585109Y-128304786D01*
X147710048Y-128132820D01*
X147710050Y-128132817D01*
X147710051Y-128132816D01*
X147714514Y-128124054D01*
X147762488Y-128073259D01*
X147830308Y-128056463D01*
X147896444Y-128078999D01*
X147935486Y-128124056D01*
X147939951Y-128132820D01*
X148064890Y-128304786D01*
X148215213Y-128455109D01*
X148387179Y-128580048D01*
X148387181Y-128580049D01*
X148387184Y-128580051D01*
X148576588Y-128676557D01*
X148778757Y-128742246D01*
X148988713Y-128775500D01*
X148988714Y-128775500D01*
X149201286Y-128775500D01*
X149201287Y-128775500D01*
X149411243Y-128742246D01*
X149613412Y-128676557D01*
X149802816Y-128580051D01*
X149871041Y-128530483D01*
X149974786Y-128455109D01*
X149974788Y-128455106D01*
X149974792Y-128455104D01*
X150125104Y-128304792D01*
X150125106Y-128304788D01*
X150125109Y-128304786D01*
X150250048Y-128132820D01*
X150250050Y-128132817D01*
X150250051Y-128132816D01*
X150346557Y-127943412D01*
X150412246Y-127741243D01*
X150445500Y-127531287D01*
X150445500Y-127318713D01*
X150412246Y-127108757D01*
X150346557Y-126906588D01*
X150250051Y-126717184D01*
X150250049Y-126717181D01*
X150250048Y-126717179D01*
X150125109Y-126545213D01*
X149974790Y-126394894D01*
X149974785Y-126394890D01*
X149869107Y-126318110D01*
X149869084Y-126318095D01*
X149802815Y-126269948D01*
X149709983Y-126222648D01*
X154919500Y-126222648D01*
X154919500Y-126427351D01*
X154951522Y-126629534D01*
X155014781Y-126824223D01*
X155107715Y-127006613D01*
X155228028Y-127172213D01*
X155372786Y-127316971D01*
X155527749Y-127429556D01*
X155538390Y-127437287D01*
X155643466Y-127490826D01*
X155720776Y-127530218D01*
X155720778Y-127530218D01*
X155720781Y-127530220D01*
X155825137Y-127564127D01*
X155915465Y-127593477D01*
X156016557Y-127609488D01*
X156117648Y-127625500D01*
X156117649Y-127625500D01*
X156322351Y-127625500D01*
X156322352Y-127625500D01*
X156524534Y-127593477D01*
X156719219Y-127530220D01*
X156901610Y-127437287D01*
X157009124Y-127359174D01*
X157067213Y-127316971D01*
X157067215Y-127316968D01*
X157067219Y-127316966D01*
X157211966Y-127172219D01*
X157211968Y-127172215D01*
X157211971Y-127172213D01*
X157264732Y-127099590D01*
X157332287Y-127006610D01*
X157425220Y-126824219D01*
X157488477Y-126629534D01*
X157520500Y-126427352D01*
X157520500Y-126222682D01*
X165080000Y-126222682D01*
X165080000Y-126427317D01*
X165112010Y-126629418D01*
X165112010Y-126629421D01*
X165175241Y-126824023D01*
X165175241Y-126824024D01*
X165246379Y-126963644D01*
X165246380Y-126963644D01*
X165885025Y-126325000D01*
X165885025Y-126324999D01*
X165246379Y-125686354D01*
X165175242Y-125825973D01*
X165175242Y-125825974D01*
X165112010Y-126020578D01*
X165112010Y-126020581D01*
X165080000Y-126222682D01*
X157520500Y-126222682D01*
X157520500Y-126222648D01*
X157502302Y-126107753D01*
X157488477Y-126020465D01*
X157457458Y-125924999D01*
X157425220Y-125825781D01*
X157425218Y-125825778D01*
X157425218Y-125825776D01*
X157354178Y-125686354D01*
X157332287Y-125643390D01*
X157304337Y-125604920D01*
X157211971Y-125477786D01*
X157067213Y-125333028D01*
X156901613Y-125212715D01*
X156901612Y-125212714D01*
X156901610Y-125212713D01*
X156844653Y-125183691D01*
X156719223Y-125119781D01*
X156524534Y-125056522D01*
X156349995Y-125028878D01*
X156322352Y-125024500D01*
X156117648Y-125024500D01*
X156093329Y-125028351D01*
X155915465Y-125056522D01*
X155720776Y-125119781D01*
X155538386Y-125212715D01*
X155372786Y-125333028D01*
X155228028Y-125477786D01*
X155107715Y-125643386D01*
X155014781Y-125825776D01*
X154951522Y-126020465D01*
X154919500Y-126222648D01*
X149709983Y-126222648D01*
X149613414Y-126173444D01*
X149613413Y-126173443D01*
X149613412Y-126173443D01*
X149411243Y-126107754D01*
X149411241Y-126107753D01*
X149411240Y-126107753D01*
X149232186Y-126079394D01*
X149201287Y-126074500D01*
X148988713Y-126074500D01*
X148957814Y-126079394D01*
X148778760Y-126107753D01*
X148778757Y-126107754D01*
X148597846Y-126166536D01*
X148576585Y-126173444D01*
X148387179Y-126269951D01*
X148215213Y-126394890D01*
X148064890Y-126545213D01*
X147939949Y-126717182D01*
X147935484Y-126725946D01*
X147887509Y-126776742D01*
X147819688Y-126793536D01*
X147753553Y-126770998D01*
X147714516Y-126725946D01*
X147710050Y-126717182D01*
X147585109Y-126545213D01*
X147434786Y-126394890D01*
X147262820Y-126269951D01*
X147073414Y-126173444D01*
X147073413Y-126173443D01*
X147073412Y-126173443D01*
X146871243Y-126107754D01*
X146871241Y-126107753D01*
X146871240Y-126107753D01*
X146692186Y-126079394D01*
X146661287Y-126074500D01*
X146448713Y-126074500D01*
X146417814Y-126079394D01*
X146238760Y-126107753D01*
X146238757Y-126107754D01*
X146057846Y-126166536D01*
X146036585Y-126173444D01*
X145847179Y-126269951D01*
X145675213Y-126394890D01*
X145524890Y-126545213D01*
X145399949Y-126717182D01*
X145395484Y-126725946D01*
X145347509Y-126776742D01*
X145279688Y-126793536D01*
X145213553Y-126770998D01*
X145174516Y-126725946D01*
X145170050Y-126717182D01*
X145045109Y-126545213D01*
X144894786Y-126394890D01*
X144722820Y-126269951D01*
X144533414Y-126173444D01*
X144533413Y-126173443D01*
X144533412Y-126173443D01*
X144331243Y-126107754D01*
X144331241Y-126107753D01*
X144331240Y-126107753D01*
X144152186Y-126079394D01*
X144121287Y-126074500D01*
X143908713Y-126074500D01*
X143877814Y-126079394D01*
X143698760Y-126107753D01*
X143698757Y-126107754D01*
X143517846Y-126166536D01*
X143496585Y-126173444D01*
X143307179Y-126269951D01*
X143135213Y-126394890D01*
X142984890Y-126545213D01*
X142859949Y-126717182D01*
X142855484Y-126725946D01*
X142807509Y-126776742D01*
X142739688Y-126793536D01*
X142673553Y-126770998D01*
X142634516Y-126725946D01*
X142630050Y-126717182D01*
X142505109Y-126545213D01*
X142354786Y-126394890D01*
X142182820Y-126269951D01*
X141993414Y-126173444D01*
X141993413Y-126173443D01*
X141993412Y-126173443D01*
X141791243Y-126107754D01*
X141791241Y-126107753D01*
X141791240Y-126107753D01*
X141612186Y-126079394D01*
X141581287Y-126074500D01*
X141368713Y-126074500D01*
X141337814Y-126079394D01*
X141158760Y-126107753D01*
X141158757Y-126107754D01*
X140977846Y-126166536D01*
X140956585Y-126173444D01*
X140767179Y-126269951D01*
X140595213Y-126394890D01*
X140444890Y-126545213D01*
X140319949Y-126717182D01*
X140315484Y-126725946D01*
X140267509Y-126776742D01*
X140199688Y-126793536D01*
X140133553Y-126770998D01*
X140094516Y-126725946D01*
X140090050Y-126717182D01*
X139965109Y-126545213D01*
X139814786Y-126394890D01*
X139642820Y-126269951D01*
X139453414Y-126173444D01*
X139453413Y-126173443D01*
X139453412Y-126173443D01*
X139251243Y-126107754D01*
X139251241Y-126107753D01*
X139251240Y-126107753D01*
X139072186Y-126079394D01*
X139041287Y-126074500D01*
X138828713Y-126074500D01*
X138797814Y-126079394D01*
X138618760Y-126107753D01*
X138618757Y-126107754D01*
X138437846Y-126166536D01*
X138416585Y-126173444D01*
X138227179Y-126269951D01*
X138055213Y-126394890D01*
X137904890Y-126545213D01*
X137779949Y-126717182D01*
X137775484Y-126725946D01*
X137727509Y-126776742D01*
X137659688Y-126793536D01*
X137593553Y-126770998D01*
X137554516Y-126725946D01*
X137550050Y-126717182D01*
X137425109Y-126545213D01*
X137274786Y-126394890D01*
X137102820Y-126269951D01*
X136913414Y-126173444D01*
X136913413Y-126173443D01*
X136913412Y-126173443D01*
X136711243Y-126107754D01*
X136711241Y-126107753D01*
X136711240Y-126107753D01*
X136532186Y-126079394D01*
X136501287Y-126074500D01*
X136288713Y-126074500D01*
X136257814Y-126079394D01*
X136078760Y-126107753D01*
X136078757Y-126107754D01*
X135897846Y-126166536D01*
X135876585Y-126173444D01*
X135687179Y-126269951D01*
X135515213Y-126394890D01*
X135364890Y-126545213D01*
X135239949Y-126717182D01*
X135235202Y-126726499D01*
X135187227Y-126777293D01*
X135119405Y-126794087D01*
X135053271Y-126771548D01*
X135014234Y-126726495D01*
X135009622Y-126717444D01*
X134884727Y-126545540D01*
X134884723Y-126545535D01*
X134734464Y-126395276D01*
X134734459Y-126395272D01*
X134562553Y-126270376D01*
X134562552Y-126270375D01*
X134455000Y-126215574D01*
X133255000Y-126215574D01*
X133254999Y-126215574D01*
X133147451Y-126270373D01*
X133035933Y-126351395D01*
X132970126Y-126374874D01*
X132902072Y-126359048D01*
X132853378Y-126308942D01*
X132839503Y-126240464D01*
X132850255Y-126199562D01*
X132862183Y-126173444D01*
X132865338Y-126166536D01*
X132885023Y-126099497D01*
X132885024Y-126099493D01*
X132905500Y-125957077D01*
X132905500Y-125085037D01*
X132902277Y-125058619D01*
X133311354Y-125058619D01*
X133450965Y-125129753D01*
X133450972Y-125129756D01*
X133645582Y-125192990D01*
X133847683Y-125225000D01*
X134052317Y-125225000D01*
X134254417Y-125192990D01*
X134449031Y-125129755D01*
X134588643Y-125058618D01*
X133950001Y-124419974D01*
X133950000Y-124419974D01*
X133311354Y-125058619D01*
X132902277Y-125058619D01*
X132890677Y-124963519D01*
X132876346Y-124905652D01*
X132876004Y-124904756D01*
X132848891Y-124833619D01*
X132832750Y-124791270D01*
X132832748Y-124791267D01*
X132832747Y-124791265D01*
X132792324Y-124735628D01*
X132768844Y-124669822D01*
X132784669Y-124601768D01*
X132804961Y-124575062D01*
X133455025Y-123925000D01*
X133402364Y-123872339D01*
X133550000Y-123872339D01*
X133550000Y-123977661D01*
X133577259Y-124079394D01*
X133629920Y-124170606D01*
X133704394Y-124245080D01*
X133795606Y-124297741D01*
X133897339Y-124325000D01*
X134002661Y-124325000D01*
X134104394Y-124297741D01*
X134195606Y-124245080D01*
X134270080Y-124170606D01*
X134322741Y-124079394D01*
X134350000Y-123977661D01*
X134350000Y-123925000D01*
X134444974Y-123925000D01*
X135083618Y-124563643D01*
X135154755Y-124424031D01*
X135217990Y-124229417D01*
X135250000Y-124027317D01*
X135250000Y-123822682D01*
X135217990Y-123620582D01*
X135154756Y-123425972D01*
X135154753Y-123425965D01*
X135083619Y-123286354D01*
X134444974Y-123925000D01*
X134350000Y-123925000D01*
X134350000Y-123872339D01*
X134322741Y-123770606D01*
X134270080Y-123679394D01*
X134195606Y-123604920D01*
X134104394Y-123552259D01*
X134002661Y-123525000D01*
X133897339Y-123525000D01*
X133795606Y-123552259D01*
X133704394Y-123604920D01*
X133629920Y-123679394D01*
X133577259Y-123770606D01*
X133550000Y-123872339D01*
X133402364Y-123872339D01*
X132816379Y-123286354D01*
X132810764Y-123297376D01*
X132762789Y-123348172D01*
X132694968Y-123364967D01*
X132628833Y-123342429D01*
X132589794Y-123297376D01*
X132562284Y-123243385D01*
X132441971Y-123077786D01*
X132297217Y-122933032D01*
X132131609Y-122812712D01*
X132089741Y-122791379D01*
X133311354Y-122791379D01*
X133950000Y-123430025D01*
X133950001Y-123430025D01*
X134588644Y-122791380D01*
X134588644Y-122791379D01*
X134449024Y-122720241D01*
X134254419Y-122657010D01*
X134052317Y-122625000D01*
X133847683Y-122625000D01*
X133645581Y-122657010D01*
X133645578Y-122657010D01*
X133450974Y-122720242D01*
X133450973Y-122720242D01*
X133311354Y-122791379D01*
X132089741Y-122791379D01*
X131949223Y-122719781D01*
X131754534Y-122656522D01*
X131579995Y-122628878D01*
X131552352Y-122624500D01*
X131347648Y-122624500D01*
X131280254Y-122635174D01*
X131145464Y-122656523D01*
X131108816Y-122668431D01*
X131070498Y-122674500D01*
X130750786Y-122674500D01*
X130683747Y-122654815D01*
X130669583Y-122644212D01*
X130612138Y-122594435D01*
X130612130Y-122594430D01*
X130481264Y-122534664D01*
X130481259Y-122534662D01*
X130481258Y-122534662D01*
X130414219Y-122514977D01*
X130414221Y-122514977D01*
X130414216Y-122514976D01*
X130366743Y-122508150D01*
X130271799Y-122494500D01*
X130271797Y-122494500D01*
X128581197Y-122494500D01*
X128542879Y-122488431D01*
X128517826Y-122480290D01*
X128323422Y-122449500D01*
X128323417Y-122449500D01*
X122469336Y-122449500D01*
X122402297Y-122429815D01*
X122381655Y-122413181D01*
X121800585Y-121832111D01*
X121767100Y-121770788D01*
X121772084Y-121701096D01*
X121813956Y-121645163D01*
X121815381Y-121644112D01*
X121939646Y-121553828D01*
X122303828Y-121189646D01*
X122453828Y-121039646D01*
X122569524Y-120880405D01*
X122658884Y-120705026D01*
X122719709Y-120517826D01*
X122750500Y-120323422D01*
X122750500Y-119126577D01*
X122719709Y-118932173D01*
X122658882Y-118744970D01*
X122592665Y-118615014D01*
X122583742Y-118592153D01*
X122460279Y-118151210D01*
X122452282Y-118122648D01*
X140159500Y-118122648D01*
X140159500Y-118727352D01*
X140162291Y-118744975D01*
X140191522Y-118929534D01*
X140254781Y-119124223D01*
X140308967Y-119230567D01*
X140347712Y-119306609D01*
X140347715Y-119306613D01*
X140468028Y-119472213D01*
X140612786Y-119616971D01*
X140754293Y-119719780D01*
X140778390Y-119737287D01*
X140884553Y-119791380D01*
X140960776Y-119830218D01*
X140960778Y-119830218D01*
X140960781Y-119830220D01*
X141065137Y-119864127D01*
X141155465Y-119893477D01*
X141212516Y-119902513D01*
X141357648Y-119925500D01*
X141357649Y-119925500D01*
X141562351Y-119925500D01*
X141562352Y-119925500D01*
X141764534Y-119893477D01*
X141959219Y-119830220D01*
X142141610Y-119737287D01*
X142252773Y-119656523D01*
X142307213Y-119616971D01*
X142307215Y-119616968D01*
X142307219Y-119616966D01*
X142451966Y-119472219D01*
X142451968Y-119472215D01*
X142451971Y-119472213D01*
X142572284Y-119306614D01*
X142572285Y-119306613D01*
X142572287Y-119306610D01*
X142619516Y-119213917D01*
X142667489Y-119163123D01*
X142735310Y-119146328D01*
X142801445Y-119168865D01*
X142840483Y-119213917D01*
X142879422Y-119290338D01*
X142887715Y-119306614D01*
X143008028Y-119472213D01*
X143152786Y-119616971D01*
X143294293Y-119719780D01*
X143318390Y-119737287D01*
X143424553Y-119791380D01*
X143500776Y-119830218D01*
X143500778Y-119830218D01*
X143500781Y-119830220D01*
X143605137Y-119864127D01*
X143695465Y-119893477D01*
X143752516Y-119902513D01*
X143897648Y-119925500D01*
X143897649Y-119925500D01*
X144102351Y-119925500D01*
X144102352Y-119925500D01*
X144304534Y-119893477D01*
X144499219Y-119830220D01*
X144681610Y-119737287D01*
X144792773Y-119656523D01*
X144847213Y-119616971D01*
X144847215Y-119616968D01*
X144847219Y-119616966D01*
X144991966Y-119472219D01*
X144991968Y-119472215D01*
X144991971Y-119472213D01*
X145112284Y-119306614D01*
X145112285Y-119306613D01*
X145112287Y-119306610D01*
X145159516Y-119213917D01*
X145207489Y-119163123D01*
X145275310Y-119146328D01*
X145341445Y-119168865D01*
X145380483Y-119213917D01*
X145419422Y-119290338D01*
X145427715Y-119306614D01*
X145548028Y-119472213D01*
X145692786Y-119616971D01*
X145834293Y-119719780D01*
X145858390Y-119737287D01*
X145964553Y-119791380D01*
X146040776Y-119830218D01*
X146040778Y-119830218D01*
X146040781Y-119830220D01*
X146145137Y-119864127D01*
X146235465Y-119893477D01*
X146292516Y-119902513D01*
X146437648Y-119925500D01*
X146437649Y-119925500D01*
X146642351Y-119925500D01*
X146642352Y-119925500D01*
X146844534Y-119893477D01*
X147039219Y-119830220D01*
X147221610Y-119737287D01*
X147332773Y-119656523D01*
X147387213Y-119616971D01*
X147387215Y-119616968D01*
X147387219Y-119616966D01*
X147531966Y-119472219D01*
X147531968Y-119472215D01*
X147531971Y-119472213D01*
X147652284Y-119306614D01*
X147652285Y-119306613D01*
X147652287Y-119306610D01*
X147699516Y-119213917D01*
X147747489Y-119163123D01*
X147815310Y-119146328D01*
X147881445Y-119168865D01*
X147920483Y-119213917D01*
X147959422Y-119290338D01*
X147967715Y-119306614D01*
X148088028Y-119472213D01*
X148232786Y-119616971D01*
X148374293Y-119719780D01*
X148398390Y-119737287D01*
X148504553Y-119791380D01*
X148580776Y-119830218D01*
X148580778Y-119830218D01*
X148580781Y-119830220D01*
X148685137Y-119864127D01*
X148775465Y-119893477D01*
X148832516Y-119902513D01*
X148977648Y-119925500D01*
X148977649Y-119925500D01*
X149182351Y-119925500D01*
X149182352Y-119925500D01*
X149384534Y-119893477D01*
X149579219Y-119830220D01*
X149761610Y-119737287D01*
X149872773Y-119656523D01*
X149927213Y-119616971D01*
X149927215Y-119616968D01*
X149927219Y-119616966D01*
X150071966Y-119472219D01*
X150071968Y-119472215D01*
X150071971Y-119472213D01*
X150192284Y-119306614D01*
X150192285Y-119306613D01*
X150192287Y-119306610D01*
X150239516Y-119213917D01*
X150287489Y-119163123D01*
X150355310Y-119146328D01*
X150421445Y-119168865D01*
X150460483Y-119213917D01*
X150499422Y-119290338D01*
X150507715Y-119306614D01*
X150628028Y-119472213D01*
X150772786Y-119616971D01*
X150914293Y-119719780D01*
X150938390Y-119737287D01*
X151044553Y-119791380D01*
X151120776Y-119830218D01*
X151120778Y-119830218D01*
X151120781Y-119830220D01*
X151225137Y-119864127D01*
X151315465Y-119893477D01*
X151372516Y-119902513D01*
X151517648Y-119925500D01*
X151517649Y-119925500D01*
X151722351Y-119925500D01*
X151722352Y-119925500D01*
X151924534Y-119893477D01*
X152119219Y-119830220D01*
X152301610Y-119737287D01*
X152412773Y-119656523D01*
X152467213Y-119616971D01*
X152467215Y-119616968D01*
X152467219Y-119616966D01*
X152611966Y-119472219D01*
X152611968Y-119472215D01*
X152611971Y-119472213D01*
X152732284Y-119306614D01*
X152732285Y-119306613D01*
X152732287Y-119306610D01*
X152779516Y-119213917D01*
X152827489Y-119163123D01*
X152895310Y-119146328D01*
X152961445Y-119168865D01*
X153000483Y-119213917D01*
X153039422Y-119290338D01*
X153047715Y-119306614D01*
X153168028Y-119472213D01*
X153312786Y-119616971D01*
X153454293Y-119719780D01*
X153478390Y-119737287D01*
X153584553Y-119791380D01*
X153660776Y-119830218D01*
X153660778Y-119830218D01*
X153660781Y-119830220D01*
X153765137Y-119864127D01*
X153855465Y-119893477D01*
X153912516Y-119902513D01*
X154057648Y-119925500D01*
X154057649Y-119925500D01*
X154262351Y-119925500D01*
X154262352Y-119925500D01*
X154464534Y-119893477D01*
X154659219Y-119830220D01*
X154841610Y-119737287D01*
X154952773Y-119656523D01*
X155007213Y-119616971D01*
X155007215Y-119616968D01*
X155007219Y-119616966D01*
X155151966Y-119472219D01*
X155151968Y-119472215D01*
X155151971Y-119472213D01*
X155272284Y-119306614D01*
X155272285Y-119306613D01*
X155272287Y-119306610D01*
X155319516Y-119213917D01*
X155367489Y-119163123D01*
X155435310Y-119146328D01*
X155501445Y-119168865D01*
X155540483Y-119213917D01*
X155579422Y-119290338D01*
X155587715Y-119306614D01*
X155708028Y-119472213D01*
X155852786Y-119616971D01*
X155994293Y-119719780D01*
X156018390Y-119737287D01*
X156124553Y-119791380D01*
X156200776Y-119830218D01*
X156200778Y-119830218D01*
X156200781Y-119830220D01*
X156305137Y-119864127D01*
X156395465Y-119893477D01*
X156452516Y-119902513D01*
X156597648Y-119925500D01*
X156597649Y-119925500D01*
X156802351Y-119925500D01*
X156802352Y-119925500D01*
X157004534Y-119893477D01*
X157199219Y-119830220D01*
X157381610Y-119737287D01*
X157492773Y-119656523D01*
X157547213Y-119616971D01*
X157547215Y-119616968D01*
X157547219Y-119616966D01*
X157691966Y-119472219D01*
X157691968Y-119472215D01*
X157691971Y-119472213D01*
X157812284Y-119306614D01*
X157812285Y-119306613D01*
X157812287Y-119306610D01*
X157859516Y-119213917D01*
X157907489Y-119163123D01*
X157975310Y-119146328D01*
X158041445Y-119168865D01*
X158080485Y-119213919D01*
X158127712Y-119306609D01*
X158233437Y-119452128D01*
X158256916Y-119517935D01*
X158241090Y-119585989D01*
X158190984Y-119634683D01*
X158152518Y-119647486D01*
X158095463Y-119656523D01*
X157900776Y-119719781D01*
X157718386Y-119812715D01*
X157552786Y-119933028D01*
X157408028Y-120077786D01*
X157287715Y-120243386D01*
X157194781Y-120425776D01*
X157131522Y-120620465D01*
X157099500Y-120822648D01*
X157099500Y-121027351D01*
X157131522Y-121229534D01*
X157194781Y-121424223D01*
X157287715Y-121606613D01*
X157408028Y-121772213D01*
X157552786Y-121916971D01*
X157707749Y-122029556D01*
X157718390Y-122037287D01*
X157834607Y-122096503D01*
X157900776Y-122130218D01*
X157900778Y-122130218D01*
X157900781Y-122130220D01*
X158005137Y-122164127D01*
X158095465Y-122193477D01*
X158196557Y-122209488D01*
X158297648Y-122225500D01*
X158297649Y-122225500D01*
X158502351Y-122225500D01*
X158502352Y-122225500D01*
X158704534Y-122193477D01*
X158899219Y-122130220D01*
X159039744Y-122058619D01*
X160261354Y-122058619D01*
X160400965Y-122129753D01*
X160400972Y-122129756D01*
X160595582Y-122192990D01*
X160797683Y-122225000D01*
X161002317Y-122225000D01*
X161204417Y-122192990D01*
X161399031Y-122129755D01*
X161538643Y-122058618D01*
X160900001Y-121419974D01*
X160900000Y-121419974D01*
X160261354Y-122058619D01*
X159039744Y-122058619D01*
X159081610Y-122037287D01*
X159247219Y-121916966D01*
X159391966Y-121772219D01*
X159391968Y-121772215D01*
X159391971Y-121772213D01*
X159512284Y-121606614D01*
X159512285Y-121606613D01*
X159512287Y-121606610D01*
X159539795Y-121552621D01*
X159587767Y-121501827D01*
X159655588Y-121485031D01*
X159721723Y-121507567D01*
X159760764Y-121552622D01*
X159766380Y-121563644D01*
X160405025Y-120925000D01*
X160352364Y-120872339D01*
X160500000Y-120872339D01*
X160500000Y-120977661D01*
X160527259Y-121079394D01*
X160579920Y-121170606D01*
X160654394Y-121245080D01*
X160745606Y-121297741D01*
X160847339Y-121325000D01*
X160952661Y-121325000D01*
X161054394Y-121297741D01*
X161145606Y-121245080D01*
X161220080Y-121170606D01*
X161272741Y-121079394D01*
X161300000Y-120977661D01*
X161300000Y-120925000D01*
X161394974Y-120925000D01*
X162033618Y-121563643D01*
X162104755Y-121424031D01*
X162167990Y-121229417D01*
X162200000Y-121027317D01*
X162200000Y-120822682D01*
X162167990Y-120620582D01*
X162104756Y-120425972D01*
X162104753Y-120425965D01*
X162033619Y-120286354D01*
X161394974Y-120925000D01*
X161300000Y-120925000D01*
X161300000Y-120872339D01*
X161272741Y-120770606D01*
X161220080Y-120679394D01*
X161145606Y-120604920D01*
X161054394Y-120552259D01*
X160952661Y-120525000D01*
X160847339Y-120525000D01*
X160745606Y-120552259D01*
X160654394Y-120604920D01*
X160579920Y-120679394D01*
X160527259Y-120770606D01*
X160500000Y-120872339D01*
X160352364Y-120872339D01*
X159766379Y-120286354D01*
X159760764Y-120297376D01*
X159712789Y-120348172D01*
X159644968Y-120364967D01*
X159578833Y-120342429D01*
X159539794Y-120297376D01*
X159512287Y-120243390D01*
X159512285Y-120243387D01*
X159512284Y-120243385D01*
X159406563Y-120097871D01*
X159383083Y-120032064D01*
X159398909Y-119964011D01*
X159449015Y-119915316D01*
X159487482Y-119902513D01*
X159544534Y-119893477D01*
X159739219Y-119830220D01*
X159815264Y-119791473D01*
X160261448Y-119791473D01*
X160900000Y-120430025D01*
X160900001Y-120430025D01*
X161538644Y-119791380D01*
X161538644Y-119791379D01*
X161399024Y-119720241D01*
X161204419Y-119657010D01*
X161002317Y-119625000D01*
X160797683Y-119625000D01*
X160595581Y-119657010D01*
X160595578Y-119657010D01*
X160400976Y-119720241D01*
X160261842Y-119791131D01*
X160261448Y-119791473D01*
X159815264Y-119791473D01*
X159921610Y-119737287D01*
X160087219Y-119616966D01*
X160231966Y-119472219D01*
X160352287Y-119306610D01*
X160445220Y-119124219D01*
X160508477Y-118929534D01*
X160540500Y-118727352D01*
X160540500Y-118122648D01*
X160508477Y-117920466D01*
X160445220Y-117725781D01*
X160445218Y-117725778D01*
X160445218Y-117725776D01*
X160405437Y-117647702D01*
X160352287Y-117543390D01*
X160344556Y-117532749D01*
X160231971Y-117377786D01*
X160087213Y-117233028D01*
X159921613Y-117112715D01*
X159921612Y-117112714D01*
X159921610Y-117112713D01*
X159864653Y-117083691D01*
X159739223Y-117019781D01*
X159544534Y-116956522D01*
X159369995Y-116928878D01*
X159342352Y-116924500D01*
X159137648Y-116924500D01*
X159113329Y-116928351D01*
X158935465Y-116956522D01*
X158740776Y-117019781D01*
X158558386Y-117112715D01*
X158392786Y-117233028D01*
X158248028Y-117377786D01*
X158127715Y-117543386D01*
X158080485Y-117636080D01*
X158032510Y-117686876D01*
X157964689Y-117703671D01*
X157898554Y-117681134D01*
X157859515Y-117636080D01*
X157842398Y-117602487D01*
X157812287Y-117543390D01*
X157804556Y-117532749D01*
X157691971Y-117377786D01*
X157547213Y-117233028D01*
X157381613Y-117112715D01*
X157381612Y-117112714D01*
X157381610Y-117112713D01*
X157324653Y-117083691D01*
X157199223Y-117019781D01*
X157004534Y-116956522D01*
X156829995Y-116928878D01*
X156802352Y-116924500D01*
X156597648Y-116924500D01*
X156573329Y-116928351D01*
X156395465Y-116956522D01*
X156200776Y-117019781D01*
X156018386Y-117112715D01*
X155852786Y-117233028D01*
X155708028Y-117377786D01*
X155587715Y-117543386D01*
X155540485Y-117636080D01*
X155492510Y-117686876D01*
X155424689Y-117703671D01*
X155358554Y-117681134D01*
X155319515Y-117636080D01*
X155302398Y-117602487D01*
X155272287Y-117543390D01*
X155264556Y-117532749D01*
X155151971Y-117377786D01*
X155007213Y-117233028D01*
X154841613Y-117112715D01*
X154841612Y-117112714D01*
X154841610Y-117112713D01*
X154784653Y-117083691D01*
X154659223Y-117019781D01*
X154464534Y-116956522D01*
X154289995Y-116928878D01*
X154262352Y-116924500D01*
X154057648Y-116924500D01*
X154033329Y-116928351D01*
X153855465Y-116956522D01*
X153660776Y-117019781D01*
X153478386Y-117112715D01*
X153312786Y-117233028D01*
X153168028Y-117377786D01*
X153047715Y-117543386D01*
X153000485Y-117636080D01*
X152952510Y-117686876D01*
X152884689Y-117703671D01*
X152818554Y-117681134D01*
X152779515Y-117636080D01*
X152762398Y-117602487D01*
X152732287Y-117543390D01*
X152724556Y-117532749D01*
X152611971Y-117377786D01*
X152467213Y-117233028D01*
X152301613Y-117112715D01*
X152301612Y-117112714D01*
X152301610Y-117112713D01*
X152244653Y-117083691D01*
X152119223Y-117019781D01*
X151924534Y-116956522D01*
X151749995Y-116928878D01*
X151722352Y-116924500D01*
X151517648Y-116924500D01*
X151493329Y-116928351D01*
X151315465Y-116956522D01*
X151120776Y-117019781D01*
X150938386Y-117112715D01*
X150772786Y-117233028D01*
X150628028Y-117377786D01*
X150507715Y-117543386D01*
X150460485Y-117636080D01*
X150412510Y-117686876D01*
X150344689Y-117703671D01*
X150278554Y-117681134D01*
X150239515Y-117636080D01*
X150222398Y-117602487D01*
X150192287Y-117543390D01*
X150184556Y-117532749D01*
X150071971Y-117377786D01*
X149927213Y-117233028D01*
X149761613Y-117112715D01*
X149761612Y-117112714D01*
X149761610Y-117112713D01*
X149704653Y-117083691D01*
X149579223Y-117019781D01*
X149384534Y-116956522D01*
X149209995Y-116928878D01*
X149182352Y-116924500D01*
X148977648Y-116924500D01*
X148953329Y-116928351D01*
X148775465Y-116956522D01*
X148580776Y-117019781D01*
X148398386Y-117112715D01*
X148232786Y-117233028D01*
X148088028Y-117377786D01*
X147967715Y-117543386D01*
X147920485Y-117636080D01*
X147872510Y-117686876D01*
X147804689Y-117703671D01*
X147738554Y-117681134D01*
X147699515Y-117636080D01*
X147682398Y-117602487D01*
X147652287Y-117543390D01*
X147644556Y-117532749D01*
X147531971Y-117377786D01*
X147387213Y-117233028D01*
X147221613Y-117112715D01*
X147221612Y-117112714D01*
X147221610Y-117112713D01*
X147164653Y-117083691D01*
X147039223Y-117019781D01*
X146844534Y-116956522D01*
X146669995Y-116928878D01*
X146642352Y-116924500D01*
X146437648Y-116924500D01*
X146413329Y-116928351D01*
X146235465Y-116956522D01*
X146040776Y-117019781D01*
X145858386Y-117112715D01*
X145692786Y-117233028D01*
X145548028Y-117377786D01*
X145427715Y-117543386D01*
X145380485Y-117636080D01*
X145332510Y-117686876D01*
X145264689Y-117703671D01*
X145198554Y-117681134D01*
X145159515Y-117636080D01*
X145142398Y-117602487D01*
X145112287Y-117543390D01*
X145104556Y-117532749D01*
X144991971Y-117377786D01*
X144847213Y-117233028D01*
X144681613Y-117112715D01*
X144681612Y-117112714D01*
X144681610Y-117112713D01*
X144624653Y-117083691D01*
X144499223Y-117019781D01*
X144304534Y-116956522D01*
X144129995Y-116928878D01*
X144102352Y-116924500D01*
X143897648Y-116924500D01*
X143873329Y-116928351D01*
X143695465Y-116956522D01*
X143500776Y-117019781D01*
X143318386Y-117112715D01*
X143152786Y-117233028D01*
X143008028Y-117377786D01*
X142887715Y-117543386D01*
X142840485Y-117636080D01*
X142792510Y-117686876D01*
X142724689Y-117703671D01*
X142658554Y-117681134D01*
X142619515Y-117636080D01*
X142602398Y-117602487D01*
X142572287Y-117543390D01*
X142564556Y-117532749D01*
X142451971Y-117377786D01*
X142307213Y-117233028D01*
X142141613Y-117112715D01*
X142141612Y-117112714D01*
X142141610Y-117112713D01*
X142084653Y-117083691D01*
X141959223Y-117019781D01*
X141764534Y-116956522D01*
X141589995Y-116928878D01*
X141562352Y-116924500D01*
X141357648Y-116924500D01*
X141333329Y-116928351D01*
X141155465Y-116956522D01*
X140960776Y-117019781D01*
X140778386Y-117112715D01*
X140612786Y-117233028D01*
X140468028Y-117377786D01*
X140347715Y-117543386D01*
X140254781Y-117725776D01*
X140191522Y-117920465D01*
X140159500Y-118122648D01*
X122452282Y-118122648D01*
X122339728Y-117720668D01*
X122335447Y-117696011D01*
X122335136Y-117691628D01*
X122335136Y-117647702D01*
X122325968Y-117562430D01*
X122325810Y-117560202D01*
X122325938Y-117559613D01*
X122325814Y-117557308D01*
X122325765Y-117557312D01*
X122325499Y-117553260D01*
X122310014Y-117435621D01*
X122313221Y-117435198D01*
X122314529Y-117380496D01*
X122353697Y-117322636D01*
X122408445Y-117296645D01*
X122514744Y-117275501D01*
X122633127Y-117226465D01*
X122687333Y-117190246D01*
X122715541Y-117171398D01*
X122782218Y-117150520D01*
X122784432Y-117150500D01*
X124523542Y-117150500D01*
X124543827Y-117146464D01*
X124620188Y-117131275D01*
X124716836Y-117112051D01*
X124802936Y-117076387D01*
X124898914Y-117036632D01*
X125062782Y-116927139D01*
X125202139Y-116787782D01*
X125202140Y-116787779D01*
X125209206Y-116780714D01*
X125209209Y-116780710D01*
X125994919Y-115995000D01*
X133260000Y-115995000D01*
X140060000Y-115995000D01*
X140060000Y-98495000D01*
X133460000Y-98495000D01*
X133260000Y-115995000D01*
X125994919Y-115995000D01*
X126837778Y-115152141D01*
X126837782Y-115152139D01*
X126977139Y-115012782D01*
X127086632Y-114848914D01*
X127162051Y-114666835D01*
X127200500Y-114473541D01*
X127200500Y-114050761D01*
X127220185Y-113983722D01*
X127224165Y-113977899D01*
X127312287Y-113856610D01*
X127405220Y-113674219D01*
X127468477Y-113479534D01*
X127491925Y-113331483D01*
X127521854Y-113268350D01*
X127526699Y-113263219D01*
X128562139Y-112227782D01*
X128612540Y-112152352D01*
X128615169Y-112148418D01*
X128615169Y-112148417D01*
X128656661Y-112086319D01*
X128671632Y-112063914D01*
X128747051Y-111881835D01*
X128781467Y-111708816D01*
X128785500Y-111688543D01*
X128785500Y-109925761D01*
X128805185Y-109858722D01*
X128809165Y-109852899D01*
X128897287Y-109731610D01*
X128990220Y-109549219D01*
X129053477Y-109354534D01*
X129085500Y-109152352D01*
X129085500Y-108947648D01*
X129053477Y-108745466D01*
X129053476Y-108745464D01*
X128990218Y-108550776D01*
X128956503Y-108484607D01*
X128897287Y-108368390D01*
X128889556Y-108357749D01*
X128776971Y-108202786D01*
X128632213Y-108058028D01*
X128466613Y-107937715D01*
X128466612Y-107937714D01*
X128466610Y-107937713D01*
X128409653Y-107908691D01*
X128284223Y-107844781D01*
X128089534Y-107781522D01*
X127914995Y-107753878D01*
X127887352Y-107749500D01*
X127682648Y-107749500D01*
X127658329Y-107753351D01*
X127480465Y-107781522D01*
X127285776Y-107844781D01*
X127103386Y-107937715D01*
X126937786Y-108058028D01*
X126793028Y-108202786D01*
X126672715Y-108368386D01*
X126579781Y-108550776D01*
X126516522Y-108745465D01*
X126484500Y-108947648D01*
X126484500Y-109152351D01*
X126516522Y-109354534D01*
X126579781Y-109549223D01*
X126672713Y-109731610D01*
X126760819Y-109852877D01*
X126784298Y-109918681D01*
X126784500Y-109925761D01*
X126784500Y-111124217D01*
X126764815Y-111191256D01*
X126748181Y-111211898D01*
X126111797Y-111848281D01*
X126050474Y-111881766D01*
X126043515Y-111883073D01*
X125895468Y-111906522D01*
X125700778Y-111969781D01*
X125518386Y-112062715D01*
X125352786Y-112183028D01*
X125208028Y-112327786D01*
X125087714Y-112493386D01*
X125060203Y-112547379D01*
X125012227Y-112598174D01*
X124944406Y-112614968D01*
X124878272Y-112592429D01*
X124839233Y-112547375D01*
X124833618Y-112536355D01*
X124194974Y-113175000D01*
X124833618Y-113813643D01*
X124839233Y-113802623D01*
X124844847Y-113796678D01*
X124847376Y-113788902D01*
X124868486Y-113771647D01*
X124887207Y-113751826D01*
X124895144Y-113749860D01*
X124901475Y-113744686D01*
X124928563Y-113741584D01*
X124955028Y-113735030D01*
X124962767Y-113737667D01*
X124970891Y-113736737D01*
X124995353Y-113748771D01*
X125021163Y-113757566D01*
X125027863Y-113764764D01*
X125033585Y-113767579D01*
X125047344Y-113785692D01*
X125055921Y-113794906D01*
X125058198Y-113798685D01*
X125087713Y-113856610D01*
X125119388Y-113900208D01*
X125122138Y-113904770D01*
X125129714Y-113933621D01*
X125139734Y-113961703D01*
X125138491Y-113967044D01*
X125139885Y-113972349D01*
X125130661Y-114000715D01*
X125123907Y-114029757D01*
X125119205Y-114035944D01*
X125118279Y-114038794D01*
X125115011Y-114041464D01*
X125103617Y-114056461D01*
X124046899Y-115113181D01*
X123985576Y-115146666D01*
X123959218Y-115149500D01*
X122784432Y-115149500D01*
X122717393Y-115129815D01*
X122715541Y-115128602D01*
X122633133Y-115073538D01*
X122633124Y-115073533D01*
X122514744Y-115024499D01*
X122514738Y-115024497D01*
X122389071Y-114999500D01*
X122389069Y-114999500D01*
X121589069Y-114999500D01*
X121460931Y-114999500D01*
X121460929Y-114999500D01*
X121329284Y-115025687D01*
X121329217Y-115025353D01*
X121300376Y-115029500D01*
X121259487Y-115029500D01*
X121207976Y-115018295D01*
X121092269Y-114965454D01*
X121084155Y-114963071D01*
X121025381Y-114925290D01*
X121000125Y-114879032D01*
X120959365Y-114740218D01*
X120881654Y-114619296D01*
X120773023Y-114525167D01*
X120773022Y-114525166D01*
X120642278Y-114465456D01*
X120642274Y-114465455D01*
X120499998Y-114445000D01*
X120249997Y-114445000D01*
X120178131Y-114450139D01*
X120157209Y-114456283D01*
X120104630Y-114460043D01*
X120000000Y-114445000D01*
X119799500Y-114445000D01*
X119790814Y-114442449D01*
X119781853Y-114443738D01*
X119757812Y-114432759D01*
X119732461Y-114425315D01*
X119726533Y-114418474D01*
X119718297Y-114414713D01*
X119704007Y-114392478D01*
X119686706Y-114372511D01*
X119684418Y-114361996D01*
X119680523Y-114355935D01*
X119675500Y-114321000D01*
X119675500Y-114308619D01*
X123061354Y-114308619D01*
X123200965Y-114379753D01*
X123200972Y-114379756D01*
X123395582Y-114442990D01*
X123597683Y-114475000D01*
X123802317Y-114475000D01*
X124004417Y-114442990D01*
X124199031Y-114379755D01*
X124338643Y-114308618D01*
X123700001Y-113669974D01*
X123700000Y-113669974D01*
X123061354Y-114308619D01*
X119675500Y-114308619D01*
X119675500Y-113890697D01*
X119695185Y-113823658D01*
X119699183Y-113817810D01*
X119702211Y-113813643D01*
X119744524Y-113755405D01*
X119833883Y-113580026D01*
X119881480Y-113433538D01*
X119920918Y-113375864D01*
X119985277Y-113348666D01*
X120018815Y-113349386D01*
X120022690Y-113350000D01*
X120227317Y-113350000D01*
X120429417Y-113317990D01*
X120624031Y-113254755D01*
X120763643Y-113183618D01*
X120735522Y-113155497D01*
X120652707Y-113072682D01*
X122400000Y-113072682D01*
X122400000Y-113277317D01*
X122432010Y-113479418D01*
X122432010Y-113479421D01*
X122495241Y-113674023D01*
X122495241Y-113674024D01*
X122566379Y-113813644D01*
X122566380Y-113813644D01*
X123205025Y-113175000D01*
X123152364Y-113122339D01*
X123300000Y-113122339D01*
X123300000Y-113227661D01*
X123327259Y-113329394D01*
X123379920Y-113420606D01*
X123454394Y-113495080D01*
X123545606Y-113547741D01*
X123647339Y-113575000D01*
X123752661Y-113575000D01*
X123854394Y-113547741D01*
X123945606Y-113495080D01*
X124020080Y-113420606D01*
X124072741Y-113329394D01*
X124100000Y-113227661D01*
X124100000Y-113122339D01*
X124072741Y-113020606D01*
X124020080Y-112929394D01*
X123945606Y-112854920D01*
X123854394Y-112802259D01*
X123752661Y-112775000D01*
X123647339Y-112775000D01*
X123545606Y-112802259D01*
X123454394Y-112854920D01*
X123379920Y-112929394D01*
X123327259Y-113020606D01*
X123300000Y-113122339D01*
X123152364Y-113122339D01*
X122566379Y-112536354D01*
X122495242Y-112675973D01*
X122495242Y-112675974D01*
X122432010Y-112870578D01*
X122432010Y-112870581D01*
X122400000Y-113072682D01*
X120652707Y-113072682D01*
X120014538Y-112434512D01*
X120072339Y-112450000D01*
X120177661Y-112450000D01*
X120279394Y-112422741D01*
X120370606Y-112370080D01*
X120445080Y-112295606D01*
X120497741Y-112204394D01*
X120525000Y-112102661D01*
X120525000Y-112050000D01*
X120619974Y-112050000D01*
X121258618Y-112688643D01*
X121329755Y-112549031D01*
X121392990Y-112354417D01*
X121425000Y-112152317D01*
X121425000Y-112041379D01*
X123061354Y-112041379D01*
X123700000Y-112680025D01*
X123700001Y-112680025D01*
X124338644Y-112041380D01*
X124338644Y-112041379D01*
X124199024Y-111970241D01*
X124004419Y-111907010D01*
X123802317Y-111875000D01*
X123597683Y-111875000D01*
X123395581Y-111907010D01*
X123395578Y-111907010D01*
X123200974Y-111970242D01*
X123200973Y-111970242D01*
X123061354Y-112041379D01*
X121425000Y-112041379D01*
X121425000Y-111947682D01*
X121392990Y-111745582D01*
X121329756Y-111550972D01*
X121329753Y-111550965D01*
X121258619Y-111411354D01*
X120619974Y-112050000D01*
X120525000Y-112050000D01*
X120525000Y-111997339D01*
X120497741Y-111895606D01*
X120445080Y-111804394D01*
X120370606Y-111729920D01*
X120279394Y-111677259D01*
X120177661Y-111650000D01*
X120072339Y-111650000D01*
X119970606Y-111677259D01*
X119879394Y-111729920D01*
X119804920Y-111804394D01*
X119752259Y-111895606D01*
X119725000Y-111997339D01*
X119725000Y-112102661D01*
X119740487Y-112160461D01*
X119666345Y-112086319D01*
X118982290Y-111402265D01*
X118949604Y-111398041D01*
X118896152Y-111353044D01*
X118875513Y-111286293D01*
X118875500Y-111284523D01*
X118875500Y-110916379D01*
X119486354Y-110916379D01*
X120125000Y-111555025D01*
X120125001Y-111555025D01*
X120763644Y-110916380D01*
X120763644Y-110916379D01*
X120624024Y-110845241D01*
X120429419Y-110782010D01*
X120227317Y-110750000D01*
X120022683Y-110750000D01*
X119820581Y-110782010D01*
X119820578Y-110782010D01*
X119625974Y-110845242D01*
X119625973Y-110845242D01*
X119486354Y-110916379D01*
X118875500Y-110916379D01*
X118875500Y-109429500D01*
X118881569Y-109391182D01*
X118893477Y-109354534D01*
X118925500Y-109152352D01*
X118925500Y-108947648D01*
X118893477Y-108745466D01*
X118881569Y-108708816D01*
X118875500Y-108670498D01*
X118875500Y-106239816D01*
X118889014Y-106183524D01*
X118905220Y-106151719D01*
X118968477Y-105957034D01*
X119000500Y-105754852D01*
X119000500Y-105550148D01*
X118968477Y-105347966D01*
X118956569Y-105311316D01*
X118950500Y-105272998D01*
X118950500Y-102443594D01*
X118950499Y-102443580D01*
X118950499Y-101827129D01*
X118950498Y-101827123D01*
X118950498Y-101827116D01*
X118944091Y-101767517D01*
X118944090Y-101767515D01*
X118944090Y-101767512D01*
X118942308Y-101759969D01*
X118943773Y-101759622D01*
X118939409Y-101698651D01*
X118943819Y-101683633D01*
X118944089Y-101682488D01*
X118944088Y-101682488D01*
X118944091Y-101682483D01*
X118950500Y-101622873D01*
X118950499Y-101032418D01*
X118950500Y-101032406D01*
X118950500Y-99304070D01*
X118970185Y-99237031D01*
X119018205Y-99193585D01*
X119022522Y-99191385D01*
X119022526Y-99191384D01*
X119197905Y-99102024D01*
X119357146Y-98986328D01*
X122318829Y-96024646D01*
X122434524Y-95865405D01*
X122523884Y-95690026D01*
X122584709Y-95502826D01*
X122602372Y-95391306D01*
X122615500Y-95308421D01*
X122615500Y-95262648D01*
X140159500Y-95262648D01*
X140159500Y-95867351D01*
X140191522Y-96069534D01*
X140254781Y-96264223D01*
X140347715Y-96446613D01*
X140468028Y-96612213D01*
X140612786Y-96756971D01*
X140734535Y-96845425D01*
X140778390Y-96877287D01*
X140894607Y-96936503D01*
X140960776Y-96970218D01*
X140960778Y-96970218D01*
X140960781Y-96970220D01*
X141022178Y-96990169D01*
X141155465Y-97033477D01*
X141256557Y-97049488D01*
X141357648Y-97065500D01*
X141357649Y-97065500D01*
X141562351Y-97065500D01*
X141562352Y-97065500D01*
X141764534Y-97033477D01*
X141959219Y-96970220D01*
X142141610Y-96877287D01*
X142261619Y-96790096D01*
X142307213Y-96756971D01*
X142307215Y-96756968D01*
X142307219Y-96756966D01*
X142451966Y-96612219D01*
X142451968Y-96612215D01*
X142451971Y-96612213D01*
X142572284Y-96446614D01*
X142572286Y-96446611D01*
X142572287Y-96446610D01*
X142619516Y-96353917D01*
X142667489Y-96303123D01*
X142735310Y-96286328D01*
X142801445Y-96308865D01*
X142840485Y-96353919D01*
X142887715Y-96446614D01*
X143008028Y-96612213D01*
X143152786Y-96756971D01*
X143274535Y-96845425D01*
X143318390Y-96877287D01*
X143434607Y-96936503D01*
X143500776Y-96970218D01*
X143500778Y-96970218D01*
X143500781Y-96970220D01*
X143562178Y-96990169D01*
X143695465Y-97033477D01*
X143796557Y-97049488D01*
X143897648Y-97065500D01*
X143897649Y-97065500D01*
X144102351Y-97065500D01*
X144102352Y-97065500D01*
X144304534Y-97033477D01*
X144499219Y-96970220D01*
X144681610Y-96877287D01*
X144801619Y-96790096D01*
X144847213Y-96756971D01*
X144847215Y-96756968D01*
X144847219Y-96756966D01*
X144991966Y-96612219D01*
X144991968Y-96612215D01*
X144991971Y-96612213D01*
X145112284Y-96446614D01*
X145112286Y-96446611D01*
X145112287Y-96446610D01*
X145159516Y-96353917D01*
X145207489Y-96303123D01*
X145275310Y-96286328D01*
X145341445Y-96308865D01*
X145380485Y-96353919D01*
X145427715Y-96446614D01*
X145548028Y-96612213D01*
X145548034Y-96612219D01*
X145692781Y-96756966D01*
X145738384Y-96790098D01*
X145781050Y-96845425D01*
X145789500Y-96890416D01*
X145789500Y-97322770D01*
X145769815Y-97389809D01*
X145753181Y-97410451D01*
X144424621Y-98739010D01*
X144363298Y-98772495D01*
X144354822Y-98773830D01*
X144158170Y-98812947D01*
X144158160Y-98812950D01*
X143976092Y-98888364D01*
X143976079Y-98888371D01*
X143812218Y-98997860D01*
X143812214Y-98997863D01*
X143672863Y-99137214D01*
X143672860Y-99137218D01*
X143563371Y-99301079D01*
X143563364Y-99301092D01*
X143487950Y-99483160D01*
X143487947Y-99483170D01*
X143449500Y-99676456D01*
X143449500Y-99676459D01*
X143449500Y-99873541D01*
X143449500Y-99873543D01*
X143449499Y-99873543D01*
X143487947Y-100066829D01*
X143487950Y-100066839D01*
X143563364Y-100248907D01*
X143563371Y-100248920D01*
X143672860Y-100412781D01*
X143672863Y-100412785D01*
X143812214Y-100552136D01*
X143812218Y-100552139D01*
X143976079Y-100661628D01*
X143976092Y-100661635D01*
X144158160Y-100737049D01*
X144158165Y-100737051D01*
X144158169Y-100737051D01*
X144158170Y-100737052D01*
X144351456Y-100775500D01*
X144351459Y-100775500D01*
X144548543Y-100775500D01*
X144678582Y-100749632D01*
X144741835Y-100737051D01*
X144923914Y-100661632D01*
X145087782Y-100552139D01*
X145227139Y-100412782D01*
X145336632Y-100248914D01*
X145412051Y-100066835D01*
X145450500Y-99873541D01*
X145451689Y-99867566D01*
X145453492Y-99867924D01*
X145476419Y-99811128D01*
X145485980Y-99800386D01*
X147122951Y-98163416D01*
X147205084Y-98040495D01*
X147261658Y-97903913D01*
X147290500Y-97758918D01*
X147290500Y-97611083D01*
X147290500Y-96890416D01*
X147310185Y-96823377D01*
X147341613Y-96790099D01*
X147387219Y-96756966D01*
X147531966Y-96612219D01*
X147531968Y-96612215D01*
X147531971Y-96612213D01*
X147652284Y-96446614D01*
X147652286Y-96446611D01*
X147652287Y-96446610D01*
X147699516Y-96353917D01*
X147747489Y-96303123D01*
X147815310Y-96286328D01*
X147881445Y-96308865D01*
X147920485Y-96353919D01*
X147967715Y-96446614D01*
X148088028Y-96612213D01*
X148232786Y-96756971D01*
X148354535Y-96845425D01*
X148398390Y-96877287D01*
X148514607Y-96936503D01*
X148580776Y-96970218D01*
X148580778Y-96970218D01*
X148580781Y-96970220D01*
X148642178Y-96990169D01*
X148775465Y-97033477D01*
X148876557Y-97049488D01*
X148977648Y-97065500D01*
X148977649Y-97065500D01*
X149182351Y-97065500D01*
X149182352Y-97065500D01*
X149384534Y-97033477D01*
X149579219Y-96970220D01*
X149761610Y-96877287D01*
X149881619Y-96790096D01*
X149927213Y-96756971D01*
X149927215Y-96756968D01*
X149927219Y-96756966D01*
X150071966Y-96612219D01*
X150071968Y-96612215D01*
X150071971Y-96612213D01*
X150192284Y-96446614D01*
X150192286Y-96446611D01*
X150192287Y-96446610D01*
X150239516Y-96353917D01*
X150287489Y-96303123D01*
X150355310Y-96286328D01*
X150421445Y-96308865D01*
X150460485Y-96353919D01*
X150507715Y-96446614D01*
X150628028Y-96612213D01*
X150772786Y-96756971D01*
X150894535Y-96845425D01*
X150938390Y-96877287D01*
X151054607Y-96936503D01*
X151120776Y-96970218D01*
X151120778Y-96970218D01*
X151120781Y-96970220D01*
X151182178Y-96990169D01*
X151315465Y-97033477D01*
X151416557Y-97049488D01*
X151517648Y-97065500D01*
X151517649Y-97065500D01*
X151722351Y-97065500D01*
X151722352Y-97065500D01*
X151924534Y-97033477D01*
X152119219Y-96970220D01*
X152301610Y-96877287D01*
X152421619Y-96790096D01*
X152467213Y-96756971D01*
X152467215Y-96756968D01*
X152467219Y-96756966D01*
X152611966Y-96612219D01*
X152611968Y-96612215D01*
X152611971Y-96612213D01*
X152732284Y-96446614D01*
X152732286Y-96446611D01*
X152732287Y-96446610D01*
X152779516Y-96353917D01*
X152827489Y-96303123D01*
X152895310Y-96286328D01*
X152961445Y-96308865D01*
X153000485Y-96353919D01*
X153047715Y-96446614D01*
X153168028Y-96612213D01*
X153312786Y-96756971D01*
X153434535Y-96845425D01*
X153478390Y-96877287D01*
X153594607Y-96936503D01*
X153660776Y-96970218D01*
X153660778Y-96970218D01*
X153660781Y-96970220D01*
X153722178Y-96990169D01*
X153855465Y-97033477D01*
X153956557Y-97049488D01*
X154057648Y-97065500D01*
X154057649Y-97065500D01*
X154262351Y-97065500D01*
X154262352Y-97065500D01*
X154464534Y-97033477D01*
X154659219Y-96970220D01*
X154841610Y-96877287D01*
X154961619Y-96790096D01*
X155007213Y-96756971D01*
X155007215Y-96756968D01*
X155007219Y-96756966D01*
X155151966Y-96612219D01*
X155151968Y-96612215D01*
X155151971Y-96612213D01*
X155272284Y-96446614D01*
X155272286Y-96446611D01*
X155272287Y-96446610D01*
X155319795Y-96353369D01*
X155367770Y-96302574D01*
X155435591Y-96285779D01*
X155501725Y-96308316D01*
X155540765Y-96353370D01*
X155588140Y-96446349D01*
X155708417Y-96611894D01*
X155708417Y-96611895D01*
X155853104Y-96756582D01*
X156018652Y-96876861D01*
X156099999Y-96918309D01*
X156100000Y-96918309D01*
X156100000Y-95505756D01*
X156250000Y-95505756D01*
X156250000Y-95624244D01*
X156280667Y-95738694D01*
X156339910Y-95841306D01*
X156423694Y-95925090D01*
X156526306Y-95984333D01*
X156640756Y-96015000D01*
X156759244Y-96015000D01*
X156873694Y-95984333D01*
X156976306Y-95925090D01*
X157060090Y-95841306D01*
X157119333Y-95738694D01*
X157150000Y-95624244D01*
X157150000Y-95505756D01*
X157119333Y-95391306D01*
X157060090Y-95288694D01*
X156976306Y-95204910D01*
X156873694Y-95145667D01*
X156759244Y-95115000D01*
X156640756Y-95115000D01*
X156526306Y-95145667D01*
X156423694Y-95204910D01*
X156339910Y-95288694D01*
X156280667Y-95391306D01*
X156250000Y-95505756D01*
X156100000Y-95505756D01*
X156100000Y-94211690D01*
X156099999Y-94211689D01*
X156018652Y-94253138D01*
X155853105Y-94373417D01*
X155853104Y-94373417D01*
X155708417Y-94518104D01*
X155708417Y-94518105D01*
X155588140Y-94683650D01*
X155540765Y-94776629D01*
X155492790Y-94827425D01*
X155424969Y-94844220D01*
X155358834Y-94821682D01*
X155319795Y-94776629D01*
X155295192Y-94728344D01*
X155272287Y-94683390D01*
X155262018Y-94669256D01*
X155151971Y-94517786D01*
X155007213Y-94373028D01*
X154841613Y-94252715D01*
X154841612Y-94252714D01*
X154841610Y-94252713D01*
X154761096Y-94211689D01*
X154659223Y-94159781D01*
X154464534Y-94096522D01*
X154289995Y-94068878D01*
X154262352Y-94064500D01*
X154057648Y-94064500D01*
X154033329Y-94068351D01*
X153855465Y-94096522D01*
X153660776Y-94159781D01*
X153478386Y-94252715D01*
X153312786Y-94373028D01*
X153168028Y-94517786D01*
X153047715Y-94683386D01*
X153000485Y-94776080D01*
X152952510Y-94826876D01*
X152884689Y-94843671D01*
X152818554Y-94821134D01*
X152779515Y-94776080D01*
X152755192Y-94728344D01*
X152732287Y-94683390D01*
X152722018Y-94669256D01*
X152611971Y-94517786D01*
X152467213Y-94373028D01*
X152301613Y-94252715D01*
X152301612Y-94252714D01*
X152301610Y-94252713D01*
X152221096Y-94211689D01*
X152119223Y-94159781D01*
X151924534Y-94096522D01*
X151749995Y-94068878D01*
X151722352Y-94064500D01*
X151517648Y-94064500D01*
X151493329Y-94068351D01*
X151315465Y-94096522D01*
X151120776Y-94159781D01*
X150938386Y-94252715D01*
X150772786Y-94373028D01*
X150628028Y-94517786D01*
X150507715Y-94683386D01*
X150460485Y-94776080D01*
X150412510Y-94826876D01*
X150344689Y-94843671D01*
X150278554Y-94821134D01*
X150239515Y-94776080D01*
X150215192Y-94728344D01*
X150192287Y-94683390D01*
X150182018Y-94669256D01*
X150071971Y-94517786D01*
X149927213Y-94373028D01*
X149761613Y-94252715D01*
X149761612Y-94252714D01*
X149761610Y-94252713D01*
X149681096Y-94211689D01*
X149579223Y-94159781D01*
X149384534Y-94096522D01*
X149209995Y-94068878D01*
X149182352Y-94064500D01*
X148977648Y-94064500D01*
X148953329Y-94068351D01*
X148775465Y-94096522D01*
X148580776Y-94159781D01*
X148398386Y-94252715D01*
X148232786Y-94373028D01*
X148088028Y-94517786D01*
X147967715Y-94683386D01*
X147920485Y-94776080D01*
X147872510Y-94826876D01*
X147804689Y-94843671D01*
X147738554Y-94821134D01*
X147699515Y-94776080D01*
X147675192Y-94728344D01*
X147652287Y-94683390D01*
X147642018Y-94669256D01*
X147531971Y-94517786D01*
X147387213Y-94373028D01*
X147221613Y-94252715D01*
X147221612Y-94252714D01*
X147221610Y-94252713D01*
X147141096Y-94211689D01*
X147039223Y-94159781D01*
X146844534Y-94096522D01*
X146669995Y-94068878D01*
X146642352Y-94064500D01*
X146437648Y-94064500D01*
X146413329Y-94068351D01*
X146235465Y-94096522D01*
X146040776Y-94159781D01*
X145858386Y-94252715D01*
X145692786Y-94373028D01*
X145548028Y-94517786D01*
X145427715Y-94683386D01*
X145380485Y-94776080D01*
X145332510Y-94826876D01*
X145264689Y-94843671D01*
X145198554Y-94821134D01*
X145159515Y-94776080D01*
X145135192Y-94728344D01*
X145112287Y-94683390D01*
X145102018Y-94669256D01*
X144991971Y-94517786D01*
X144847213Y-94373028D01*
X144681613Y-94252715D01*
X144681612Y-94252714D01*
X144681610Y-94252713D01*
X144601096Y-94211689D01*
X144499223Y-94159781D01*
X144304534Y-94096522D01*
X144129995Y-94068878D01*
X144102352Y-94064500D01*
X143897648Y-94064500D01*
X143873329Y-94068351D01*
X143695465Y-94096522D01*
X143500776Y-94159781D01*
X143318386Y-94252715D01*
X143152786Y-94373028D01*
X143008028Y-94517786D01*
X142887715Y-94683386D01*
X142840485Y-94776080D01*
X142792510Y-94826876D01*
X142724689Y-94843671D01*
X142658554Y-94821134D01*
X142619515Y-94776080D01*
X142595192Y-94728344D01*
X142572287Y-94683390D01*
X142562018Y-94669256D01*
X142451971Y-94517786D01*
X142307213Y-94373028D01*
X142141613Y-94252715D01*
X142141612Y-94252714D01*
X142141610Y-94252713D01*
X142061096Y-94211689D01*
X141959223Y-94159781D01*
X141764534Y-94096522D01*
X141589995Y-94068878D01*
X141562352Y-94064500D01*
X141357648Y-94064500D01*
X141333329Y-94068351D01*
X141155465Y-94096522D01*
X140960776Y-94159781D01*
X140778386Y-94252715D01*
X140612786Y-94373028D01*
X140468028Y-94517786D01*
X140347715Y-94683386D01*
X140254781Y-94865776D01*
X140191522Y-95060465D01*
X140159500Y-95262648D01*
X122615500Y-95262648D01*
X122615500Y-93072844D01*
X134900000Y-93072844D01*
X134906401Y-93132372D01*
X134906403Y-93132379D01*
X134956645Y-93267086D01*
X134956649Y-93267093D01*
X135042809Y-93382187D01*
X135042812Y-93382190D01*
X135157906Y-93468350D01*
X135157913Y-93468354D01*
X135292620Y-93518596D01*
X135292627Y-93518598D01*
X135352155Y-93524999D01*
X135352172Y-93525000D01*
X135500000Y-93525000D01*
X137500000Y-93525000D01*
X137647828Y-93525000D01*
X137647844Y-93524999D01*
X137707372Y-93518598D01*
X137707379Y-93518596D01*
X137842086Y-93468354D01*
X137842093Y-93468350D01*
X137957187Y-93382190D01*
X137957190Y-93382187D01*
X138043350Y-93267093D01*
X138043354Y-93267086D01*
X138093596Y-93132379D01*
X138093598Y-93132372D01*
X138099999Y-93072844D01*
X138100000Y-93072827D01*
X138100000Y-92925000D01*
X137500000Y-92925000D01*
X137500000Y-93525000D01*
X135500000Y-93525000D01*
X135500000Y-92925000D01*
X134900000Y-92925000D01*
X134900000Y-93072844D01*
X122615500Y-93072844D01*
X122615500Y-91851131D01*
X135750000Y-91851131D01*
X135750000Y-91998869D01*
X135778822Y-92143767D01*
X135835359Y-92280258D01*
X135917437Y-92403097D01*
X136021903Y-92507563D01*
X136144742Y-92589641D01*
X136281233Y-92646178D01*
X136426131Y-92675000D01*
X136573869Y-92675000D01*
X136718767Y-92646178D01*
X136855258Y-92589641D01*
X136978097Y-92507563D01*
X137082563Y-92403097D01*
X137164641Y-92280258D01*
X137221178Y-92143767D01*
X137250000Y-91998869D01*
X137250000Y-91851131D01*
X137221178Y-91706233D01*
X137164641Y-91569742D01*
X137082563Y-91446903D01*
X136978097Y-91342437D01*
X136855258Y-91260359D01*
X136718767Y-91203822D01*
X136573869Y-91175000D01*
X136426131Y-91175000D01*
X136281233Y-91203822D01*
X136144742Y-91260359D01*
X136021903Y-91342437D01*
X135917437Y-91446903D01*
X135835359Y-91569742D01*
X135778822Y-91706233D01*
X135750000Y-91851131D01*
X122615500Y-91851131D01*
X122615500Y-76146728D01*
X122623318Y-76103394D01*
X122659091Y-76007483D01*
X122665500Y-75947873D01*
X122665499Y-74997648D01*
X127684500Y-74997648D01*
X127684500Y-75202351D01*
X127716522Y-75404530D01*
X127716522Y-75404531D01*
X127728431Y-75441182D01*
X127734500Y-75479500D01*
X127734500Y-76858422D01*
X127765290Y-77052826D01*
X127826117Y-77240030D01*
X127915476Y-77415405D01*
X128031172Y-77574646D01*
X129335354Y-78878828D01*
X129494595Y-78994524D01*
X129669974Y-79083884D01*
X129819546Y-79132483D01*
X129857174Y-79144709D01*
X129889575Y-79149840D01*
X130051578Y-79175500D01*
X130051583Y-79175500D01*
X130051584Y-79175500D01*
X130248417Y-79175500D01*
X134835859Y-79175500D01*
X134902898Y-79195185D01*
X134939104Y-79230824D01*
X134947034Y-79242746D01*
X134956204Y-79267331D01*
X135020668Y-79353444D01*
X135022584Y-79356324D01*
X135031970Y-79386521D01*
X135043023Y-79416153D01*
X135042265Y-79419637D01*
X135043324Y-79423044D01*
X135034893Y-79453526D01*
X135028172Y-79484426D01*
X135024968Y-79489410D01*
X135024699Y-79490386D01*
X135023858Y-79491137D01*
X135018606Y-79499311D01*
X134956203Y-79582669D01*
X134956202Y-79582671D01*
X134905908Y-79717517D01*
X134899501Y-79777116D01*
X134899501Y-79777123D01*
X134899500Y-79777135D01*
X134899500Y-82072870D01*
X134899501Y-82072876D01*
X134905908Y-82132483D01*
X134956202Y-82267328D01*
X134956206Y-82267335D01*
X135042452Y-82382544D01*
X135042455Y-82382547D01*
X135157664Y-82468793D01*
X135157671Y-82468797D01*
X135275033Y-82512570D01*
X135330967Y-82554441D01*
X135355384Y-82619905D01*
X135340533Y-82688178D01*
X135319382Y-82716433D01*
X135208027Y-82827788D01*
X135087715Y-82993386D01*
X134994781Y-83175776D01*
X134931522Y-83370465D01*
X134899500Y-83572648D01*
X134899500Y-83777351D01*
X134931522Y-83979534D01*
X134994781Y-84174223D01*
X135087715Y-84356613D01*
X135208028Y-84522213D01*
X135352786Y-84666971D01*
X135518388Y-84787286D01*
X135571828Y-84814516D01*
X135622623Y-84862490D01*
X135639418Y-84930312D01*
X135616880Y-84996446D01*
X135571828Y-85035484D01*
X135518388Y-85062713D01*
X135352786Y-85183028D01*
X135208028Y-85327786D01*
X135087715Y-85493386D01*
X134994781Y-85675776D01*
X134931522Y-85870465D01*
X134899500Y-86072648D01*
X134899500Y-86277351D01*
X134931522Y-86479534D01*
X134994781Y-86674223D01*
X135087715Y-86856613D01*
X135208028Y-87022213D01*
X135319381Y-87133566D01*
X135352866Y-87194889D01*
X135347882Y-87264581D01*
X135306010Y-87320514D01*
X135275034Y-87337429D01*
X135157669Y-87381203D01*
X135157664Y-87381206D01*
X135042455Y-87467452D01*
X135042452Y-87467455D01*
X134956206Y-87582664D01*
X134956202Y-87582671D01*
X134905908Y-87717517D01*
X134899501Y-87777116D01*
X134899501Y-87777123D01*
X134899500Y-87777135D01*
X134899500Y-90072870D01*
X134899501Y-90072876D01*
X134905908Y-90132483D01*
X134956202Y-90267328D01*
X134956204Y-90267331D01*
X135018917Y-90351104D01*
X135043335Y-90416569D01*
X135028484Y-90484842D01*
X135018918Y-90499727D01*
X134956647Y-90582910D01*
X134956645Y-90582913D01*
X134906403Y-90717620D01*
X134906401Y-90717627D01*
X134900000Y-90777155D01*
X134900000Y-90925000D01*
X138100000Y-90925000D01*
X138100000Y-90777172D01*
X138099999Y-90777155D01*
X138093598Y-90717627D01*
X138093596Y-90717620D01*
X138043354Y-90582913D01*
X138043352Y-90582910D01*
X137981082Y-90499727D01*
X137956665Y-90434262D01*
X137971517Y-90365989D01*
X137981083Y-90351104D01*
X138043796Y-90267331D01*
X138094091Y-90132483D01*
X138100500Y-90072873D01*
X138100499Y-89272648D01*
X145949500Y-89272648D01*
X145949500Y-89477351D01*
X145981522Y-89679534D01*
X146044781Y-89874223D01*
X146108691Y-89999653D01*
X146130056Y-90041583D01*
X146137715Y-90056613D01*
X146258028Y-90222213D01*
X146402786Y-90366971D01*
X146542939Y-90468796D01*
X146568390Y-90487287D01*
X146670499Y-90539314D01*
X146750776Y-90580218D01*
X146750778Y-90580218D01*
X146750781Y-90580220D01*
X146826677Y-90604880D01*
X146945465Y-90643477D01*
X147046557Y-90659488D01*
X147147648Y-90675500D01*
X147147649Y-90675500D01*
X147352351Y-90675500D01*
X147352352Y-90675500D01*
X147554534Y-90643477D01*
X147749219Y-90580220D01*
X147931610Y-90487287D01*
X148075775Y-90382546D01*
X148097213Y-90366971D01*
X148097215Y-90366968D01*
X148097219Y-90366966D01*
X148241966Y-90222219D01*
X148241968Y-90222215D01*
X148241971Y-90222213D01*
X148307163Y-90132482D01*
X148362287Y-90056610D01*
X148455220Y-89874219D01*
X148518477Y-89679534D01*
X148550500Y-89477352D01*
X148550500Y-89272648D01*
X148518477Y-89070466D01*
X148455220Y-88875781D01*
X148455218Y-88875778D01*
X148455218Y-88875776D01*
X148421503Y-88809607D01*
X148362287Y-88693390D01*
X148354556Y-88682749D01*
X148241971Y-88527786D01*
X148097213Y-88383028D01*
X147931613Y-88262715D01*
X147931612Y-88262714D01*
X147931610Y-88262713D01*
X147874653Y-88233691D01*
X147749223Y-88169781D01*
X147554534Y-88106522D01*
X147379995Y-88078878D01*
X147352352Y-88074500D01*
X147147648Y-88074500D01*
X147123329Y-88078351D01*
X146945465Y-88106522D01*
X146750776Y-88169781D01*
X146568386Y-88262715D01*
X146402786Y-88383028D01*
X146258028Y-88527786D01*
X146137715Y-88693386D01*
X146044781Y-88875776D01*
X145981522Y-89070465D01*
X145949500Y-89272648D01*
X138100499Y-89272648D01*
X138100499Y-88875781D01*
X138100499Y-87777129D01*
X138100498Y-87777123D01*
X138100497Y-87777116D01*
X138094091Y-87717517D01*
X138043796Y-87582669D01*
X138043795Y-87582668D01*
X138043793Y-87582664D01*
X137957547Y-87467455D01*
X137957544Y-87467452D01*
X137842335Y-87381206D01*
X137842328Y-87381202D01*
X137707482Y-87330908D01*
X137707483Y-87330908D01*
X137647883Y-87324501D01*
X137647881Y-87324500D01*
X137647873Y-87324500D01*
X137647865Y-87324500D01*
X137189047Y-87324500D01*
X137122008Y-87304815D01*
X137076253Y-87252011D01*
X137066309Y-87182853D01*
X137095334Y-87119297D01*
X137101366Y-87112819D01*
X137191966Y-87022219D01*
X137191968Y-87022215D01*
X137191971Y-87022213D01*
X137244732Y-86949590D01*
X137312287Y-86856610D01*
X137405220Y-86674219D01*
X137468477Y-86479534D01*
X137500500Y-86277352D01*
X137500500Y-86222648D01*
X144949500Y-86222648D01*
X144949500Y-86427351D01*
X144981522Y-86629534D01*
X145044781Y-86824223D01*
X145137715Y-87006613D01*
X145258028Y-87172213D01*
X145402786Y-87316971D01*
X145491200Y-87381206D01*
X145568390Y-87437287D01*
X145684607Y-87496503D01*
X145750776Y-87530218D01*
X145750778Y-87530218D01*
X145750781Y-87530220D01*
X145855137Y-87564127D01*
X145945465Y-87593477D01*
X146046557Y-87609488D01*
X146147648Y-87625500D01*
X146147649Y-87625500D01*
X146352351Y-87625500D01*
X146352352Y-87625500D01*
X146554534Y-87593477D01*
X146749219Y-87530220D01*
X146931610Y-87437287D01*
X147069054Y-87337429D01*
X147097213Y-87316971D01*
X147097215Y-87316968D01*
X147097219Y-87316966D01*
X147241966Y-87172219D01*
X147241968Y-87172215D01*
X147241971Y-87172213D01*
X147350946Y-87022219D01*
X147362287Y-87006610D01*
X147455220Y-86824219D01*
X147518477Y-86629534D01*
X147550500Y-86427352D01*
X147550500Y-86222648D01*
X147518477Y-86020466D01*
X147517900Y-86018691D01*
X147469739Y-85870466D01*
X147455220Y-85825781D01*
X147455218Y-85825778D01*
X147455218Y-85825776D01*
X147421503Y-85759607D01*
X147362287Y-85643390D01*
X147354556Y-85632749D01*
X147241971Y-85477786D01*
X147097213Y-85333028D01*
X146931613Y-85212715D01*
X146931612Y-85212714D01*
X146931610Y-85212713D01*
X146873350Y-85183028D01*
X146749223Y-85119781D01*
X146554534Y-85056522D01*
X146379995Y-85028878D01*
X146352352Y-85024500D01*
X146147648Y-85024500D01*
X146123329Y-85028351D01*
X145945465Y-85056522D01*
X145750776Y-85119781D01*
X145568386Y-85212715D01*
X145402786Y-85333028D01*
X145258028Y-85477786D01*
X145137715Y-85643386D01*
X145044781Y-85825776D01*
X144981522Y-86020465D01*
X144949500Y-86222648D01*
X137500500Y-86222648D01*
X137500500Y-86072648D01*
X137468477Y-85870466D01*
X137453956Y-85825776D01*
X137405218Y-85675776D01*
X137371503Y-85609607D01*
X137312287Y-85493390D01*
X137300950Y-85477786D01*
X137191971Y-85327786D01*
X137047213Y-85183028D01*
X136881613Y-85062715D01*
X136881612Y-85062714D01*
X136881610Y-85062713D01*
X136828171Y-85035484D01*
X136777376Y-84987510D01*
X136760581Y-84919689D01*
X136783118Y-84853554D01*
X136828172Y-84814515D01*
X136881610Y-84787287D01*
X136974590Y-84719732D01*
X137047213Y-84666971D01*
X137047215Y-84666968D01*
X137047219Y-84666966D01*
X137191966Y-84522219D01*
X137191968Y-84522215D01*
X137191971Y-84522213D01*
X137253674Y-84437284D01*
X137312287Y-84356610D01*
X137405220Y-84174219D01*
X137468477Y-83979534D01*
X137500500Y-83777352D01*
X137500500Y-83572648D01*
X137469568Y-83377352D01*
X137468477Y-83370465D01*
X137405218Y-83175776D01*
X137371503Y-83109607D01*
X137312287Y-82993390D01*
X137295631Y-82970465D01*
X137191971Y-82827786D01*
X137101365Y-82737180D01*
X137067880Y-82675857D01*
X137072864Y-82606165D01*
X137114736Y-82550232D01*
X137180200Y-82525815D01*
X137189046Y-82525499D01*
X137647871Y-82525499D01*
X137647872Y-82525499D01*
X137707483Y-82519091D01*
X137842331Y-82468796D01*
X137957546Y-82382546D01*
X138043796Y-82267331D01*
X138094091Y-82132483D01*
X138100500Y-82072873D01*
X138100499Y-79777128D01*
X138094091Y-79717517D01*
X138084342Y-79691379D01*
X138043797Y-79582671D01*
X138043796Y-79582669D01*
X137981394Y-79499311D01*
X137956977Y-79433847D01*
X137971828Y-79365574D01*
X137981394Y-79350689D01*
X138043796Y-79267331D01*
X138094091Y-79132483D01*
X138100500Y-79072873D01*
X138100499Y-76777128D01*
X138094091Y-76717517D01*
X138043796Y-76582669D01*
X138043795Y-76582668D01*
X138043793Y-76582664D01*
X137957547Y-76467455D01*
X137957544Y-76467452D01*
X137842335Y-76381206D01*
X137842328Y-76381202D01*
X137707482Y-76330908D01*
X137707483Y-76330908D01*
X137647883Y-76324501D01*
X137647881Y-76324500D01*
X137647873Y-76324500D01*
X137647864Y-76324500D01*
X135352129Y-76324500D01*
X135352123Y-76324501D01*
X135292516Y-76330908D01*
X135157671Y-76381202D01*
X135157664Y-76381206D01*
X135042455Y-76467452D01*
X135042452Y-76467455D01*
X134956206Y-76582664D01*
X134956204Y-76582668D01*
X134956204Y-76582669D01*
X134952039Y-76593834D01*
X134910171Y-76649766D01*
X134844707Y-76674184D01*
X134835859Y-76674500D01*
X130719336Y-76674500D01*
X130652297Y-76654815D01*
X130631655Y-76638181D01*
X130271819Y-76278345D01*
X130238334Y-76217022D01*
X130235500Y-76190664D01*
X130235500Y-75479500D01*
X130241569Y-75441182D01*
X130253477Y-75404534D01*
X130285500Y-75202352D01*
X130285500Y-74997648D01*
X130253477Y-74795466D01*
X130190220Y-74600781D01*
X130190218Y-74600778D01*
X130190218Y-74600776D01*
X130097285Y-74418387D01*
X130074282Y-74386725D01*
X130074281Y-74386724D01*
X130024869Y-74318713D01*
X135044500Y-74318713D01*
X135044500Y-74531287D01*
X135077754Y-74741243D01*
X135095372Y-74795466D01*
X135143444Y-74943414D01*
X135239951Y-75132820D01*
X135364890Y-75304786D01*
X135515213Y-75455109D01*
X135687179Y-75580048D01*
X135687181Y-75580049D01*
X135687184Y-75580051D01*
X135876588Y-75676557D01*
X136078757Y-75742246D01*
X136288713Y-75775500D01*
X136288714Y-75775500D01*
X136501286Y-75775500D01*
X136501287Y-75775500D01*
X136711243Y-75742246D01*
X136913412Y-75676557D01*
X137102816Y-75580051D01*
X137268245Y-75459861D01*
X137274786Y-75455109D01*
X137274788Y-75455106D01*
X137274792Y-75455104D01*
X137425104Y-75304792D01*
X137425106Y-75304788D01*
X137425109Y-75304786D01*
X137550048Y-75132820D01*
X137550047Y-75132820D01*
X137550051Y-75132816D01*
X137554514Y-75124054D01*
X137602488Y-75073259D01*
X137670308Y-75056463D01*
X137736444Y-75078999D01*
X137775486Y-75124056D01*
X137779951Y-75132820D01*
X137904890Y-75304786D01*
X138055213Y-75455109D01*
X138227179Y-75580048D01*
X138227181Y-75580049D01*
X138227184Y-75580051D01*
X138416588Y-75676557D01*
X138618757Y-75742246D01*
X138828713Y-75775500D01*
X138828714Y-75775500D01*
X139041286Y-75775500D01*
X139041287Y-75775500D01*
X139251243Y-75742246D01*
X139453412Y-75676557D01*
X139642816Y-75580051D01*
X139808245Y-75459861D01*
X139814786Y-75455109D01*
X139814788Y-75455106D01*
X139814792Y-75455104D01*
X139965104Y-75304792D01*
X139965106Y-75304788D01*
X139965109Y-75304786D01*
X140090048Y-75132820D01*
X140090047Y-75132820D01*
X140090051Y-75132816D01*
X140094514Y-75124054D01*
X140142488Y-75073259D01*
X140210308Y-75056463D01*
X140276444Y-75078999D01*
X140315486Y-75124056D01*
X140319951Y-75132820D01*
X140447759Y-75308734D01*
X140446888Y-75309366D01*
X140473357Y-75368401D01*
X140474500Y-75385199D01*
X140474500Y-82364826D01*
X140454815Y-82431865D01*
X140450819Y-82437711D01*
X140337712Y-82593390D01*
X140244781Y-82775776D01*
X140181522Y-82970465D01*
X140149500Y-83172648D01*
X140149500Y-83377351D01*
X140181522Y-83579534D01*
X140244781Y-83774223D01*
X140337715Y-83956613D01*
X140458028Y-84122213D01*
X140602786Y-84266971D01*
X140757749Y-84379556D01*
X140768390Y-84387287D01*
X140884607Y-84446503D01*
X140950776Y-84480218D01*
X140950778Y-84480218D01*
X140950781Y-84480220D01*
X141055137Y-84514127D01*
X141145465Y-84543477D01*
X141246557Y-84559488D01*
X141347648Y-84575500D01*
X141347649Y-84575500D01*
X141552351Y-84575500D01*
X141552352Y-84575500D01*
X141754534Y-84543477D01*
X141949219Y-84480220D01*
X142131610Y-84387287D01*
X142224590Y-84319732D01*
X142297213Y-84266971D01*
X142297215Y-84266968D01*
X142297219Y-84266966D01*
X142441966Y-84122219D01*
X142441968Y-84122215D01*
X142441971Y-84122213D01*
X142525960Y-84006610D01*
X142562287Y-83956610D01*
X142655220Y-83774219D01*
X142718477Y-83579534D01*
X142750500Y-83377352D01*
X142750500Y-83172648D01*
X150309500Y-83172648D01*
X150309500Y-83377351D01*
X150341522Y-83579534D01*
X150404781Y-83774223D01*
X150497715Y-83956613D01*
X150618028Y-84122213D01*
X150762786Y-84266971D01*
X150917749Y-84379556D01*
X150928390Y-84387287D01*
X151044607Y-84446503D01*
X151110776Y-84480218D01*
X151110778Y-84480218D01*
X151110781Y-84480220D01*
X151215137Y-84514127D01*
X151305465Y-84543477D01*
X151406557Y-84559488D01*
X151507648Y-84575500D01*
X151507649Y-84575500D01*
X151712351Y-84575500D01*
X151712352Y-84575500D01*
X151914534Y-84543477D01*
X152109219Y-84480220D01*
X152291610Y-84387287D01*
X152384590Y-84319732D01*
X152457213Y-84266971D01*
X152457215Y-84266968D01*
X152457219Y-84266966D01*
X152601966Y-84122219D01*
X152601968Y-84122215D01*
X152601971Y-84122213D01*
X152722286Y-83956611D01*
X152789742Y-83824223D01*
X152794516Y-83814851D01*
X152842490Y-83764055D01*
X152910311Y-83747260D01*
X152976446Y-83769797D01*
X153016815Y-83820261D01*
X153017568Y-83819878D01*
X153019427Y-83823527D01*
X153019564Y-83823698D01*
X153019779Y-83824218D01*
X153112715Y-84006613D01*
X153233028Y-84172213D01*
X153377786Y-84316971D01*
X153474566Y-84387284D01*
X153543390Y-84437287D01*
X153627647Y-84480218D01*
X153725776Y-84530218D01*
X153725778Y-84530218D01*
X153725781Y-84530220D01*
X153830137Y-84564127D01*
X153920465Y-84593477D01*
X154021557Y-84609488D01*
X154122648Y-84625500D01*
X154122649Y-84625500D01*
X154327351Y-84625500D01*
X154327352Y-84625500D01*
X154529534Y-84593477D01*
X154724219Y-84530220D01*
X154906610Y-84437287D01*
X155017653Y-84356610D01*
X155072213Y-84316971D01*
X155072215Y-84316968D01*
X155072219Y-84316966D01*
X155216966Y-84172219D01*
X155216968Y-84172215D01*
X155216971Y-84172213D01*
X155269732Y-84099590D01*
X155337287Y-84006610D01*
X155430220Y-83824219D01*
X155493477Y-83629534D01*
X155525500Y-83427352D01*
X155525500Y-83222648D01*
X155493477Y-83020466D01*
X155484679Y-82993390D01*
X155430871Y-82827786D01*
X155430220Y-82825781D01*
X155430218Y-82825778D01*
X155430218Y-82825776D01*
X155374504Y-82716433D01*
X155337287Y-82643390D01*
X155300961Y-82593391D01*
X155216971Y-82477786D01*
X155072213Y-82333028D01*
X154906613Y-82212715D01*
X154906612Y-82212714D01*
X154906610Y-82212713D01*
X154852621Y-82185204D01*
X154801825Y-82137229D01*
X154785030Y-82069408D01*
X154807568Y-82003273D01*
X154852623Y-81964233D01*
X154863643Y-81958618D01*
X154225001Y-81319974D01*
X154225000Y-81319974D01*
X153586355Y-81958618D01*
X153597375Y-81964233D01*
X153648172Y-82012207D01*
X153664968Y-82080028D01*
X153642432Y-82146163D01*
X153597379Y-82185203D01*
X153543386Y-82212714D01*
X153377786Y-82333028D01*
X153233028Y-82477786D01*
X153112715Y-82643386D01*
X153040483Y-82785148D01*
X152992508Y-82835944D01*
X152924687Y-82852739D01*
X152858552Y-82830201D01*
X152818187Y-82779736D01*
X152817432Y-82780122D01*
X152815564Y-82776457D01*
X152815430Y-82776289D01*
X152815223Y-82775791D01*
X152815220Y-82775781D01*
X152722287Y-82593390D01*
X152690931Y-82550232D01*
X152601971Y-82427786D01*
X152457213Y-82283028D01*
X152291613Y-82162715D01*
X152291612Y-82162714D01*
X152291610Y-82162713D01*
X152232278Y-82132482D01*
X152109223Y-82069781D01*
X151914534Y-82006522D01*
X151739995Y-81978878D01*
X151712352Y-81974500D01*
X151507648Y-81974500D01*
X151483329Y-81978351D01*
X151305465Y-82006522D01*
X151110776Y-82069781D01*
X150928386Y-82162715D01*
X150762786Y-82283028D01*
X150618028Y-82427786D01*
X150497715Y-82593386D01*
X150404781Y-82775776D01*
X150341522Y-82970465D01*
X150309500Y-83172648D01*
X142750500Y-83172648D01*
X142718477Y-82970466D01*
X142655220Y-82775781D01*
X142655218Y-82775778D01*
X142655218Y-82775776D01*
X142568796Y-82606165D01*
X142562287Y-82593390D01*
X142539999Y-82562713D01*
X142499181Y-82506529D01*
X142475702Y-82440722D01*
X142475500Y-82433645D01*
X142475500Y-80722682D01*
X152925000Y-80722682D01*
X152925000Y-80927317D01*
X152957010Y-81129418D01*
X152957010Y-81129421D01*
X153020241Y-81324023D01*
X153020241Y-81324024D01*
X153091379Y-81463644D01*
X153091380Y-81463644D01*
X153730025Y-80825000D01*
X153677364Y-80772339D01*
X153825000Y-80772339D01*
X153825000Y-80877661D01*
X153852259Y-80979394D01*
X153904920Y-81070606D01*
X153979394Y-81145080D01*
X154070606Y-81197741D01*
X154172339Y-81225000D01*
X154277661Y-81225000D01*
X154379394Y-81197741D01*
X154470606Y-81145080D01*
X154545080Y-81070606D01*
X154597741Y-80979394D01*
X154625000Y-80877661D01*
X154625000Y-80825000D01*
X154719974Y-80825000D01*
X155358618Y-81463643D01*
X155429755Y-81324031D01*
X155492990Y-81129417D01*
X155525000Y-80927317D01*
X155525000Y-80722682D01*
X155492990Y-80520582D01*
X155429756Y-80325972D01*
X155429753Y-80325965D01*
X155358619Y-80186354D01*
X154719974Y-80825000D01*
X154625000Y-80825000D01*
X154625000Y-80772339D01*
X154597741Y-80670606D01*
X154545080Y-80579394D01*
X154470606Y-80504920D01*
X154379394Y-80452259D01*
X154277661Y-80425000D01*
X154172339Y-80425000D01*
X154070606Y-80452259D01*
X153979394Y-80504920D01*
X153904920Y-80579394D01*
X153852259Y-80670606D01*
X153825000Y-80772339D01*
X153677364Y-80772339D01*
X153091379Y-80186354D01*
X153020242Y-80325973D01*
X153020242Y-80325974D01*
X152957010Y-80520578D01*
X152957010Y-80520581D01*
X152925000Y-80722682D01*
X142475500Y-80722682D01*
X142475500Y-79691379D01*
X153586354Y-79691379D01*
X154225000Y-80330025D01*
X154225001Y-80330025D01*
X154863644Y-79691380D01*
X154863644Y-79691379D01*
X154724024Y-79620241D01*
X154529419Y-79557010D01*
X154327317Y-79525000D01*
X154122683Y-79525000D01*
X153920581Y-79557010D01*
X153920578Y-79557010D01*
X153725974Y-79620242D01*
X153725973Y-79620242D01*
X153586354Y-79691379D01*
X142475500Y-79691379D01*
X142475500Y-75385199D01*
X142495185Y-75318160D01*
X142504471Y-75305664D01*
X142630048Y-75132820D01*
X142630047Y-75132820D01*
X142630051Y-75132816D01*
X142634514Y-75124054D01*
X142682488Y-75073259D01*
X142750308Y-75056463D01*
X142816444Y-75078999D01*
X142855486Y-75124056D01*
X142859951Y-75132820D01*
X142984890Y-75304786D01*
X143135213Y-75455109D01*
X143307179Y-75580048D01*
X143307181Y-75580049D01*
X143307184Y-75580051D01*
X143496588Y-75676557D01*
X143698757Y-75742246D01*
X143908713Y-75775500D01*
X143908714Y-75775500D01*
X144121286Y-75775500D01*
X144121287Y-75775500D01*
X144331243Y-75742246D01*
X144533412Y-75676557D01*
X144722816Y-75580051D01*
X144888245Y-75459861D01*
X144894786Y-75455109D01*
X144894788Y-75455106D01*
X144894792Y-75455104D01*
X145045104Y-75304792D01*
X145045106Y-75304788D01*
X145045109Y-75304786D01*
X145170048Y-75132820D01*
X145170047Y-75132820D01*
X145170051Y-75132816D01*
X145266557Y-74943412D01*
X145332246Y-74741243D01*
X145365500Y-74531287D01*
X145365500Y-74318713D01*
X145332246Y-74108757D01*
X145266557Y-73906588D01*
X145170051Y-73717184D01*
X145170049Y-73717181D01*
X145170048Y-73717179D01*
X145045109Y-73545213D01*
X144894786Y-73394890D01*
X144722820Y-73269951D01*
X144533414Y-73173444D01*
X144533413Y-73173443D01*
X144533412Y-73173443D01*
X144331243Y-73107754D01*
X144331241Y-73107753D01*
X144331240Y-73107753D01*
X144169957Y-73082208D01*
X144121287Y-73074500D01*
X143908713Y-73074500D01*
X143860042Y-73082208D01*
X143698760Y-73107753D01*
X143496585Y-73173444D01*
X143307179Y-73269951D01*
X143135213Y-73394890D01*
X142984890Y-73545213D01*
X142859949Y-73717182D01*
X142855484Y-73725946D01*
X142807509Y-73776742D01*
X142739688Y-73793536D01*
X142673553Y-73770998D01*
X142634516Y-73725946D01*
X142630050Y-73717182D01*
X142505109Y-73545213D01*
X142354786Y-73394890D01*
X142182820Y-73269951D01*
X141993414Y-73173444D01*
X141993413Y-73173443D01*
X141993412Y-73173443D01*
X141791243Y-73107754D01*
X141791241Y-73107753D01*
X141791240Y-73107753D01*
X141629957Y-73082208D01*
X141581287Y-73074500D01*
X141368713Y-73074500D01*
X141320042Y-73082208D01*
X141158760Y-73107753D01*
X140956585Y-73173444D01*
X140767179Y-73269951D01*
X140595213Y-73394890D01*
X140444890Y-73545213D01*
X140319949Y-73717182D01*
X140315484Y-73725946D01*
X140267509Y-73776742D01*
X140199688Y-73793536D01*
X140133553Y-73770998D01*
X140094516Y-73725946D01*
X140090050Y-73717182D01*
X139965109Y-73545213D01*
X139814786Y-73394890D01*
X139642820Y-73269951D01*
X139453414Y-73173444D01*
X139453413Y-73173443D01*
X139453412Y-73173443D01*
X139251243Y-73107754D01*
X139251241Y-73107753D01*
X139251240Y-73107753D01*
X139089957Y-73082208D01*
X139041287Y-73074500D01*
X138828713Y-73074500D01*
X138780042Y-73082208D01*
X138618760Y-73107753D01*
X138416585Y-73173444D01*
X138227179Y-73269951D01*
X138055213Y-73394890D01*
X137904890Y-73545213D01*
X137779949Y-73717182D01*
X137775484Y-73725946D01*
X137727509Y-73776742D01*
X137659688Y-73793536D01*
X137593553Y-73770998D01*
X137554516Y-73725946D01*
X137550050Y-73717182D01*
X137425109Y-73545213D01*
X137274786Y-73394890D01*
X137102820Y-73269951D01*
X136913414Y-73173444D01*
X136913413Y-73173443D01*
X136913412Y-73173443D01*
X136711243Y-73107754D01*
X136711241Y-73107753D01*
X136711240Y-73107753D01*
X136549957Y-73082208D01*
X136501287Y-73074500D01*
X136288713Y-73074500D01*
X136240042Y-73082208D01*
X136078760Y-73107753D01*
X135876585Y-73173444D01*
X135687179Y-73269951D01*
X135515213Y-73394890D01*
X135364890Y-73545213D01*
X135239951Y-73717179D01*
X135143444Y-73906585D01*
X135077753Y-74108760D01*
X135054942Y-74252786D01*
X135044500Y-74318713D01*
X130024869Y-74318713D01*
X129976971Y-74252787D01*
X129976967Y-74252782D01*
X129832213Y-74108028D01*
X129666613Y-73987715D01*
X129666612Y-73987714D01*
X129666610Y-73987713D01*
X129609653Y-73958691D01*
X129484223Y-73894781D01*
X129289534Y-73831522D01*
X129114995Y-73803878D01*
X129087352Y-73799500D01*
X128882648Y-73799500D01*
X128858329Y-73803351D01*
X128680465Y-73831522D01*
X128485776Y-73894781D01*
X128303386Y-73987715D01*
X128137786Y-74108028D01*
X127993028Y-74252786D01*
X127872715Y-74418386D01*
X127779781Y-74600776D01*
X127716522Y-74795465D01*
X127684500Y-74997648D01*
X122665499Y-74997648D01*
X122665499Y-74252128D01*
X122659091Y-74192517D01*
X122623318Y-74096604D01*
X122615500Y-74053271D01*
X122615500Y-73301583D01*
X122602026Y-73216513D01*
X122600499Y-73197115D01*
X122600499Y-72502129D01*
X122600498Y-72502123D01*
X122600498Y-72502116D01*
X122594091Y-72442517D01*
X122594090Y-72442515D01*
X122594090Y-72442512D01*
X122592308Y-72434969D01*
X122593250Y-72434746D01*
X122587097Y-72388657D01*
X122588611Y-72372175D01*
X122594091Y-72357483D01*
X122600500Y-72297873D01*
X122600499Y-72242758D01*
X122601019Y-72237101D01*
X122606612Y-72222982D01*
X122614014Y-72192151D01*
X122683884Y-72055026D01*
X122744709Y-71867826D01*
X122746724Y-71855102D01*
X122776651Y-71791970D01*
X122835962Y-71755037D01*
X122869197Y-71750500D01*
X123023416Y-71750500D01*
X151955664Y-71750500D01*
X152022703Y-71770185D01*
X152043345Y-71786819D01*
X157874181Y-77617655D01*
X157907666Y-77678978D01*
X157910500Y-77705336D01*
X157910500Y-85951652D01*
X157890815Y-86018691D01*
X157838011Y-86064446D01*
X157768853Y-86074390D01*
X157705297Y-86045365D01*
X157668569Y-85989971D01*
X157615218Y-85825776D01*
X157581503Y-85759607D01*
X157522287Y-85643390D01*
X157514556Y-85632749D01*
X157401971Y-85477786D01*
X157257213Y-85333028D01*
X157091613Y-85212715D01*
X157091612Y-85212714D01*
X157091610Y-85212713D01*
X157033350Y-85183028D01*
X156909223Y-85119781D01*
X156714534Y-85056522D01*
X156539995Y-85028878D01*
X156512352Y-85024500D01*
X156307648Y-85024500D01*
X156283329Y-85028351D01*
X156105465Y-85056522D01*
X155910776Y-85119781D01*
X155728386Y-85212715D01*
X155562786Y-85333028D01*
X155418028Y-85477786D01*
X155297715Y-85643386D01*
X155204781Y-85825776D01*
X155141522Y-86020465D01*
X155109500Y-86222648D01*
X155109500Y-86427351D01*
X155141522Y-86629534D01*
X155204781Y-86824223D01*
X155297715Y-87006613D01*
X155418028Y-87172213D01*
X155562786Y-87316971D01*
X155651200Y-87381206D01*
X155728390Y-87437287D01*
X155844607Y-87496503D01*
X155910776Y-87530218D01*
X155910778Y-87530218D01*
X155910781Y-87530220D01*
X156015137Y-87564127D01*
X156105465Y-87593477D01*
X156206557Y-87609488D01*
X156307648Y-87625500D01*
X156307649Y-87625500D01*
X156512351Y-87625500D01*
X156512352Y-87625500D01*
X156714534Y-87593477D01*
X156909219Y-87530220D01*
X157091610Y-87437287D01*
X157229054Y-87337429D01*
X157257213Y-87316971D01*
X157257215Y-87316968D01*
X157257219Y-87316966D01*
X157401966Y-87172219D01*
X157401968Y-87172215D01*
X157401971Y-87172213D01*
X157510946Y-87022219D01*
X157522287Y-87006610D01*
X157615220Y-86824219D01*
X157668569Y-86660028D01*
X157708007Y-86602353D01*
X157772366Y-86575155D01*
X157841212Y-86587070D01*
X157892688Y-86634314D01*
X157910500Y-86698347D01*
X157910500Y-87999524D01*
X157890815Y-88066563D01*
X157838011Y-88112318D01*
X157768853Y-88122262D01*
X157748183Y-88117455D01*
X157714542Y-88106524D01*
X157714535Y-88106523D01*
X157613443Y-88090511D01*
X157512352Y-88074500D01*
X157307648Y-88074500D01*
X157283329Y-88078351D01*
X157105465Y-88106522D01*
X156910776Y-88169781D01*
X156728386Y-88262715D01*
X156562786Y-88383028D01*
X156418028Y-88527786D01*
X156297715Y-88693386D01*
X156204781Y-88875776D01*
X156141522Y-89070465D01*
X156109500Y-89272648D01*
X156109500Y-89477351D01*
X156141522Y-89679534D01*
X156204781Y-89874223D01*
X156268691Y-89999653D01*
X156290056Y-90041583D01*
X156297715Y-90056613D01*
X156418028Y-90222213D01*
X156562786Y-90366971D01*
X156702939Y-90468796D01*
X156728390Y-90487287D01*
X156830499Y-90539314D01*
X156910776Y-90580218D01*
X156910778Y-90580218D01*
X156910781Y-90580220D01*
X156986677Y-90604880D01*
X157105465Y-90643477D01*
X157206557Y-90659488D01*
X157307648Y-90675500D01*
X157307649Y-90675500D01*
X157512351Y-90675500D01*
X157512352Y-90675500D01*
X157714534Y-90643477D01*
X157827183Y-90606874D01*
X157897022Y-90604880D01*
X157956855Y-90640960D01*
X157987684Y-90703660D01*
X157989500Y-90724806D01*
X157989500Y-94546518D01*
X157969815Y-94613557D01*
X157917011Y-94659312D01*
X157847853Y-94669256D01*
X157784297Y-94640231D01*
X157765182Y-94619404D01*
X157691583Y-94518105D01*
X157546895Y-94373417D01*
X157381347Y-94253138D01*
X157300000Y-94211689D01*
X157300000Y-96918309D01*
X157381347Y-96876861D01*
X157546894Y-96756582D01*
X157546895Y-96756582D01*
X157691582Y-96611895D01*
X157691582Y-96611894D01*
X157811861Y-96446347D01*
X157859234Y-96353371D01*
X157907208Y-96302575D01*
X157975028Y-96285779D01*
X158041164Y-96308316D01*
X158080203Y-96353369D01*
X158127713Y-96446611D01*
X158248028Y-96612213D01*
X158392786Y-96756971D01*
X158514535Y-96845425D01*
X158558390Y-96877287D01*
X158674607Y-96936503D01*
X158740776Y-96970218D01*
X158740778Y-96970218D01*
X158740781Y-96970220D01*
X158802178Y-96990169D01*
X158935465Y-97033477D01*
X159036557Y-97049488D01*
X159137648Y-97065500D01*
X159137649Y-97065500D01*
X159342351Y-97065500D01*
X159342352Y-97065500D01*
X159544534Y-97033477D01*
X159739219Y-96970220D01*
X159921610Y-96877287D01*
X160041619Y-96790096D01*
X160087213Y-96756971D01*
X160087215Y-96756968D01*
X160087219Y-96756966D01*
X160231966Y-96612219D01*
X160231968Y-96612215D01*
X160231971Y-96612213D01*
X160284732Y-96539590D01*
X160352287Y-96446610D01*
X160445220Y-96264219D01*
X160508477Y-96069534D01*
X160540500Y-95867352D01*
X160540500Y-95262648D01*
X160508477Y-95060466D01*
X160496569Y-95023816D01*
X160490500Y-94985498D01*
X160490500Y-90041577D01*
X160459709Y-89847173D01*
X160417569Y-89717481D01*
X160411500Y-89679162D01*
X160411500Y-77037577D01*
X160380709Y-76843177D01*
X160380709Y-76843176D01*
X160380709Y-76843174D01*
X160364017Y-76791802D01*
X160355671Y-76766115D01*
X160319885Y-76655976D01*
X160319884Y-76655973D01*
X160230523Y-76480594D01*
X160220975Y-76467452D01*
X160114828Y-76321354D01*
X153339646Y-69546172D01*
X153180405Y-69430476D01*
X153131340Y-69405476D01*
X153005030Y-69341117D01*
X152817826Y-69280290D01*
X152623422Y-69249500D01*
X152623417Y-69249500D01*
X123166020Y-69249500D01*
X123146622Y-69247973D01*
X122998422Y-69224500D01*
X122998417Y-69224500D01*
X121623417Y-69224500D01*
X117746948Y-69224500D01*
X117679909Y-69204815D01*
X117634154Y-69152011D01*
X117624210Y-69082853D01*
X117653235Y-69019297D01*
X117684945Y-68993115D01*
X117730289Y-68966936D01*
X117922738Y-68819265D01*
X118094265Y-68647738D01*
X118241936Y-68455289D01*
X118363224Y-68245212D01*
X118456054Y-68021100D01*
X118518838Y-67786789D01*
X118550500Y-67546288D01*
X118550500Y-67303712D01*
X118518838Y-67063211D01*
X118456054Y-66828900D01*
X118363224Y-66604788D01*
X118241936Y-66394711D01*
X118094265Y-66202262D01*
X118094260Y-66202256D01*
X117948999Y-66056995D01*
X136649500Y-66056995D01*
X136649500Y-66293004D01*
X136649501Y-66293020D01*
X136680306Y-66527010D01*
X136741394Y-66754993D01*
X136831714Y-66973045D01*
X136831719Y-66973056D01*
X136898124Y-67088071D01*
X136949727Y-67177450D01*
X136949729Y-67177453D01*
X136949730Y-67177454D01*
X137093406Y-67364697D01*
X137093412Y-67364704D01*
X137260295Y-67531587D01*
X137260302Y-67531593D01*
X137301418Y-67563142D01*
X137447550Y-67675273D01*
X137578918Y-67751118D01*
X137651943Y-67793280D01*
X137651948Y-67793282D01*
X137651951Y-67793284D01*
X137870007Y-67883606D01*
X138097986Y-67944693D01*
X138331989Y-67975500D01*
X138331996Y-67975500D01*
X138568004Y-67975500D01*
X138568011Y-67975500D01*
X138802014Y-67944693D01*
X139029993Y-67883606D01*
X139248049Y-67793284D01*
X139452450Y-67675273D01*
X139639699Y-67531592D01*
X139806592Y-67364699D01*
X139950273Y-67177450D01*
X140068284Y-66973049D01*
X140158606Y-66754993D01*
X140219693Y-66527014D01*
X140250500Y-66293011D01*
X140250500Y-66056989D01*
X140219693Y-65822986D01*
X140158606Y-65595007D01*
X140143537Y-65558627D01*
X140118960Y-65499292D01*
X140100192Y-65453984D01*
X141729500Y-65453984D01*
X141729500Y-66896015D01*
X141735650Y-66984624D01*
X141735652Y-66984640D01*
X141784465Y-67192176D01*
X141784467Y-67192182D01*
X141784468Y-67192185D01*
X141870591Y-67387237D01*
X141870592Y-67387238D01*
X141991088Y-67563141D01*
X141991093Y-67563147D01*
X142141852Y-67713906D01*
X142141858Y-67713911D01*
X142317763Y-67834409D01*
X142512815Y-67920532D01*
X142512821Y-67920533D01*
X142512823Y-67920534D01*
X142720359Y-67969347D01*
X142720364Y-67969347D01*
X142720370Y-67969349D01*
X142769602Y-67972766D01*
X142808984Y-67975500D01*
X142808988Y-67975500D01*
X144251016Y-67975500D01*
X144286459Y-67973039D01*
X144339630Y-67969349D01*
X144339636Y-67969347D01*
X144339640Y-67969347D01*
X144547176Y-67920534D01*
X144547174Y-67920534D01*
X144547185Y-67920532D01*
X144742237Y-67834409D01*
X144918142Y-67713911D01*
X145068911Y-67563142D01*
X145189409Y-67387237D01*
X145226289Y-67303711D01*
X161849500Y-67303711D01*
X161849500Y-67546288D01*
X161881161Y-67786785D01*
X161943947Y-68021104D01*
X162036773Y-68245205D01*
X162036776Y-68245212D01*
X162158064Y-68455289D01*
X162158066Y-68455292D01*
X162158067Y-68455293D01*
X162305733Y-68647736D01*
X162305739Y-68647743D01*
X162477256Y-68819260D01*
X162477262Y-68819265D01*
X162669711Y-68966936D01*
X162879788Y-69088224D01*
X163103900Y-69181054D01*
X163338211Y-69243838D01*
X163518586Y-69267584D01*
X163578711Y-69275500D01*
X163578712Y-69275500D01*
X163821289Y-69275500D01*
X163869388Y-69269167D01*
X164061789Y-69243838D01*
X164296100Y-69181054D01*
X164520212Y-69088224D01*
X164730289Y-68966936D01*
X164922738Y-68819265D01*
X165094265Y-68647738D01*
X165241936Y-68455289D01*
X165363224Y-68245212D01*
X165456054Y-68021100D01*
X165518838Y-67786789D01*
X165550500Y-67546288D01*
X165550500Y-67303712D01*
X165518838Y-67063211D01*
X165456054Y-66828900D01*
X165363224Y-66604788D01*
X165241936Y-66394711D01*
X165094265Y-66202262D01*
X165094260Y-66202256D01*
X164922743Y-66030739D01*
X164922736Y-66030733D01*
X164730293Y-65883067D01*
X164730292Y-65883066D01*
X164730289Y-65883064D01*
X164520212Y-65761776D01*
X164520205Y-65761773D01*
X164296104Y-65668947D01*
X164061785Y-65606161D01*
X163821289Y-65574500D01*
X163821288Y-65574500D01*
X163578712Y-65574500D01*
X163578711Y-65574500D01*
X163338214Y-65606161D01*
X163103895Y-65668947D01*
X162879794Y-65761773D01*
X162879785Y-65761777D01*
X162669706Y-65883067D01*
X162477263Y-66030733D01*
X162477256Y-66030739D01*
X162305739Y-66202256D01*
X162305733Y-66202263D01*
X162158067Y-66394706D01*
X162036777Y-66604785D01*
X162036773Y-66604794D01*
X161943947Y-66828895D01*
X161881161Y-67063214D01*
X161849500Y-67303711D01*
X145226289Y-67303711D01*
X145275532Y-67192185D01*
X145287695Y-67140468D01*
X145324347Y-66984640D01*
X145324347Y-66984636D01*
X145324349Y-66984630D01*
X145330500Y-66896012D01*
X145330500Y-65453988D01*
X145324349Y-65365370D01*
X145324347Y-65365364D01*
X145324347Y-65365359D01*
X145275534Y-65157823D01*
X145275532Y-65157817D01*
X145275532Y-65157815D01*
X145189409Y-64962763D01*
X145068911Y-64786858D01*
X145068906Y-64786852D01*
X144918147Y-64636093D01*
X144918141Y-64636088D01*
X144742238Y-64515592D01*
X144742239Y-64515592D01*
X144742237Y-64515591D01*
X144547185Y-64429468D01*
X144547183Y-64429467D01*
X144547182Y-64429467D01*
X144547176Y-64429465D01*
X144339640Y-64380652D01*
X144339624Y-64380650D01*
X144251016Y-64374500D01*
X144251012Y-64374500D01*
X142808988Y-64374500D01*
X142808984Y-64374500D01*
X142720375Y-64380650D01*
X142720359Y-64380652D01*
X142512823Y-64429465D01*
X142512817Y-64429467D01*
X142512815Y-64429468D01*
X142318486Y-64515272D01*
X142317761Y-64515592D01*
X142141858Y-64636088D01*
X142141852Y-64636093D01*
X141991093Y-64786852D01*
X141991088Y-64786858D01*
X141870592Y-64962761D01*
X141784467Y-65157817D01*
X141784465Y-65157823D01*
X141735652Y-65365359D01*
X141735650Y-65365375D01*
X141729500Y-65453984D01*
X140100192Y-65453984D01*
X140068285Y-65376954D01*
X140068280Y-65376943D01*
X140026118Y-65303918D01*
X139950273Y-65172550D01*
X139806592Y-64985301D01*
X139806587Y-64985295D01*
X139639704Y-64818412D01*
X139639697Y-64818406D01*
X139452454Y-64674730D01*
X139452453Y-64674729D01*
X139452450Y-64674727D01*
X139370957Y-64627677D01*
X139248056Y-64556719D01*
X139248045Y-64556714D01*
X139029993Y-64466394D01*
X138892180Y-64429467D01*
X138802014Y-64405307D01*
X138802013Y-64405306D01*
X138802010Y-64405306D01*
X138568020Y-64374501D01*
X138568017Y-64374500D01*
X138568011Y-64374500D01*
X138331989Y-64374500D01*
X138331983Y-64374500D01*
X138331979Y-64374501D01*
X138097989Y-64405306D01*
X137870006Y-64466394D01*
X137651954Y-64556714D01*
X137651943Y-64556719D01*
X137447545Y-64674730D01*
X137260302Y-64818406D01*
X137260295Y-64818412D01*
X137093412Y-64985295D01*
X137093406Y-64985302D01*
X136949730Y-65172545D01*
X136831719Y-65376943D01*
X136831714Y-65376954D01*
X136741394Y-65595006D01*
X136680306Y-65822989D01*
X136649501Y-66056979D01*
X136649500Y-66056995D01*
X117948999Y-66056995D01*
X117922743Y-66030739D01*
X117922736Y-66030733D01*
X117730293Y-65883067D01*
X117730292Y-65883066D01*
X117730289Y-65883064D01*
X117520212Y-65761776D01*
X117520205Y-65761773D01*
X117296104Y-65668947D01*
X117061785Y-65606161D01*
X116821289Y-65574500D01*
X116821288Y-65574500D01*
X116578712Y-65574500D01*
X116578711Y-65574500D01*
X116338214Y-65606161D01*
X116103895Y-65668947D01*
X115879794Y-65761773D01*
X115879785Y-65761777D01*
X115669706Y-65883067D01*
X115477263Y-66030733D01*
X115477256Y-66030739D01*
X115305739Y-66202256D01*
X115305733Y-66202263D01*
X115158067Y-66394706D01*
X115036777Y-66604785D01*
X115036773Y-66604794D01*
X114943947Y-66828895D01*
X114881161Y-67063214D01*
X114849500Y-67303711D01*
X114849500Y-67546288D01*
X114881161Y-67786785D01*
X114943947Y-68021104D01*
X115036773Y-68245205D01*
X115036776Y-68245212D01*
X115158064Y-68455289D01*
X115158066Y-68455292D01*
X115158067Y-68455293D01*
X115305733Y-68647736D01*
X115305739Y-68647743D01*
X115477256Y-68819260D01*
X115477262Y-68819265D01*
X115669711Y-68966936D01*
X115728780Y-69001040D01*
X115776994Y-69051604D01*
X115790218Y-69120211D01*
X115764250Y-69185076D01*
X115707336Y-69225605D01*
X115686178Y-69230898D01*
X115532172Y-69255291D01*
X115344969Y-69316117D01*
X115169594Y-69405476D01*
X115078741Y-69471485D01*
X115010354Y-69521172D01*
X115010352Y-69521174D01*
X115010351Y-69521174D01*
X113546174Y-70985351D01*
X113546174Y-70985352D01*
X113546172Y-70985354D01*
X113499893Y-71049050D01*
X113430473Y-71144598D01*
X113430225Y-71145004D01*
X113430090Y-71145125D01*
X113427612Y-71148537D01*
X113426895Y-71148016D01*
X113378411Y-71191877D01*
X113309481Y-71203297D01*
X113245319Y-71175638D01*
X113206297Y-71117681D01*
X113200500Y-71080210D01*
X113200500Y-67428051D01*
X113200649Y-67421967D01*
X113206458Y-67303712D01*
X113217052Y-67088068D01*
X113218245Y-67075962D01*
X113233511Y-66973045D01*
X113266849Y-66748296D01*
X113269218Y-66736385D01*
X113349710Y-66415043D01*
X113353240Y-66403411D01*
X113356355Y-66394706D01*
X113464835Y-66091525D01*
X113469476Y-66080318D01*
X113611124Y-65780828D01*
X113616840Y-65770136D01*
X113787145Y-65485998D01*
X113793888Y-65475905D01*
X113991232Y-65209818D01*
X113998935Y-65200433D01*
X114221405Y-64954975D01*
X114229975Y-64946405D01*
X114475433Y-64723935D01*
X114484818Y-64716232D01*
X114750905Y-64518888D01*
X114760998Y-64512145D01*
X115045136Y-64341840D01*
X115055828Y-64336124D01*
X115355318Y-64194476D01*
X115366525Y-64189835D01*
X115678412Y-64078239D01*
X115690043Y-64074710D01*
X116011385Y-63994218D01*
X116023296Y-63991849D01*
X116350962Y-63943244D01*
X116363068Y-63942052D01*
X116696967Y-63925648D01*
X116703051Y-63925500D01*
X116765892Y-63925500D01*
X163634108Y-63925500D01*
X163696949Y-63925500D01*
X163703032Y-63925648D01*
G37*
G04 #@! TD.AperFunction*
G04 #@! TA.AperFunction,Conductor*
G36*
X119097503Y-114569685D02*
G01*
X119143258Y-114622489D01*
X119153202Y-114691647D01*
X119153022Y-114692855D01*
X119025000Y-115524998D01*
X119025000Y-115651000D01*
X119005315Y-115718039D01*
X118952511Y-115763794D01*
X118901000Y-115775000D01*
X118549000Y-115775000D01*
X118481961Y-115755315D01*
X118436206Y-115702511D01*
X118425000Y-115651000D01*
X118425000Y-115525000D01*
X118214692Y-114704798D01*
X118217108Y-114634971D01*
X118256893Y-114577534D01*
X118321415Y-114550725D01*
X118334806Y-114550000D01*
X119030464Y-114550000D01*
X119097503Y-114569685D01*
G37*
G04 #@! TD.AperFunction*
G04 #@! TA.AperFunction,Conductor*
G36*
X121772675Y-117543387D02*
G01*
X121818430Y-117596191D01*
X121829636Y-117647702D01*
X121829636Y-117773702D01*
X122131850Y-118853040D01*
X122130970Y-118922904D01*
X122092458Y-118981202D01*
X122028542Y-119009424D01*
X122002932Y-119010109D01*
X121033761Y-118935557D01*
X120968428Y-118910788D01*
X120926858Y-118854631D01*
X120922248Y-118784913D01*
X120924635Y-118775846D01*
X121229636Y-117773702D01*
X121229636Y-117647702D01*
X121249321Y-117580663D01*
X121302125Y-117534908D01*
X121353636Y-117523702D01*
X121705636Y-117523702D01*
X121772675Y-117543387D01*
G37*
G04 #@! TD.AperFunction*
G04 #@! TA.AperFunction,Conductor*
G36*
X118968039Y-117544685D02*
G01*
X119013794Y-117597489D01*
X119025000Y-117649000D01*
X119025000Y-117775000D01*
X119327214Y-118854338D01*
X119326334Y-118924202D01*
X119287822Y-118982500D01*
X119223906Y-119010722D01*
X119198296Y-119011407D01*
X118229125Y-118936855D01*
X118163792Y-118912086D01*
X118122222Y-118855929D01*
X118117612Y-118786211D01*
X118119999Y-118777144D01*
X118425000Y-117775000D01*
X118425000Y-117649000D01*
X118444685Y-117581961D01*
X118497489Y-117536206D01*
X118549000Y-117525000D01*
X118901000Y-117525000D01*
X118968039Y-117544685D01*
G37*
G04 #@! TD.AperFunction*
G04 #@! TA.AperFunction,Conductor*
G36*
X118118039Y-116769685D02*
G01*
X118163794Y-116822489D01*
X118175000Y-116874000D01*
X118175000Y-117000000D01*
X118667197Y-117000000D01*
X118677068Y-117000021D01*
X118678856Y-117000500D01*
X118901265Y-117000500D01*
X118934826Y-117010432D01*
X118968039Y-117020185D01*
X118968128Y-117020288D01*
X118968262Y-117020328D01*
X118991113Y-117046813D01*
X119013794Y-117072989D01*
X119013827Y-117073140D01*
X119013904Y-117073230D01*
X119014011Y-117073988D01*
X119025000Y-117124500D01*
X119025000Y-117151000D01*
X119005315Y-117218039D01*
X118952511Y-117263794D01*
X118901000Y-117275000D01*
X118425000Y-117275000D01*
X118424999Y-117275000D01*
X118424999Y-117275001D01*
X118393653Y-117324785D01*
X118357613Y-117361816D01*
X118297190Y-117402189D01*
X118297189Y-117402190D01*
X118239614Y-117488357D01*
X118239614Y-117488358D01*
X118224499Y-117564346D01*
X118223971Y-117569706D01*
X118205502Y-117623611D01*
X118000000Y-117949998D01*
X118000000Y-118447180D01*
X117994628Y-118483284D01*
X117923396Y-118717334D01*
X117921271Y-118724820D01*
X117919231Y-118732570D01*
X117883127Y-118792389D01*
X117820413Y-118823192D01*
X117799317Y-118825000D01*
X114974000Y-118825000D01*
X114906961Y-118805315D01*
X114861206Y-118752511D01*
X114850000Y-118701000D01*
X114850000Y-116874000D01*
X114869685Y-116806961D01*
X114922489Y-116761206D01*
X114974000Y-116750000D01*
X118051000Y-116750000D01*
X118118039Y-116769685D01*
G37*
G04 #@! TD.AperFunction*
G04 #@! TA.AperFunction,Conductor*
G36*
X117917539Y-114294685D02*
G01*
X117963294Y-114347489D01*
X117974500Y-114399000D01*
X117974500Y-114793993D01*
X117974500Y-114793995D01*
X117974499Y-114793995D01*
X117997617Y-114910208D01*
X118000000Y-114934400D01*
X118000000Y-115100000D01*
X118000000Y-115100001D01*
X118000001Y-115100003D01*
X118208385Y-115558447D01*
X118210039Y-115565213D01*
X118212463Y-115568579D01*
X118216180Y-115590333D01*
X118219326Y-115603200D01*
X118219500Y-115606484D01*
X118219500Y-115651000D01*
X118224147Y-115694226D01*
X118224326Y-115697590D01*
X118224181Y-115698200D01*
X118224500Y-115704149D01*
X118224500Y-115735658D01*
X118239614Y-115811641D01*
X118239614Y-115811642D01*
X118274128Y-115863295D01*
X118297190Y-115897810D01*
X118348843Y-115932323D01*
X118383357Y-115955385D01*
X118459341Y-115970499D01*
X118459344Y-115970500D01*
X118459346Y-115970500D01*
X118470586Y-115970500D01*
X118488235Y-115971762D01*
X118491096Y-115972173D01*
X118491102Y-115972175D01*
X118549000Y-115980500D01*
X118549004Y-115980500D01*
X118901000Y-115980500D01*
X118909685Y-115983050D01*
X118918647Y-115981762D01*
X118942687Y-115992740D01*
X118968039Y-116000185D01*
X118973966Y-116007025D01*
X118982203Y-116010787D01*
X118996492Y-116033021D01*
X119013794Y-116052989D01*
X119016081Y-116063503D01*
X119019977Y-116069565D01*
X119025000Y-116104500D01*
X119025000Y-116151000D01*
X119005315Y-116218039D01*
X118952511Y-116263794D01*
X118901000Y-116275000D01*
X118175000Y-116275000D01*
X118175000Y-116420500D01*
X118155315Y-116487539D01*
X118102511Y-116533294D01*
X118051000Y-116544500D01*
X114974000Y-116544500D01*
X114906961Y-116524815D01*
X114861206Y-116472011D01*
X114850000Y-116420500D01*
X114850000Y-114399000D01*
X114869685Y-114331961D01*
X114922489Y-114286206D01*
X114974000Y-114275000D01*
X117850500Y-114275000D01*
X117917539Y-114294685D01*
G37*
G04 #@! TD.AperFunction*
G04 #@! TA.AperFunction,Conductor*
G36*
X130338838Y-123019685D02*
G01*
X130384593Y-123072489D01*
X130394537Y-123141647D01*
X130372117Y-123196886D01*
X130338143Y-123243646D01*
X130338138Y-123243654D01*
X130245739Y-123425000D01*
X131326000Y-123425000D01*
X131393039Y-123444685D01*
X131438794Y-123497489D01*
X131444779Y-123525000D01*
X131397339Y-123525000D01*
X131295606Y-123552259D01*
X131204394Y-123604920D01*
X131129920Y-123679394D01*
X131077259Y-123770606D01*
X131050000Y-123872339D01*
X131050000Y-123977661D01*
X131077259Y-124079394D01*
X131129920Y-124170606D01*
X131204394Y-124245080D01*
X131295606Y-124297741D01*
X131397339Y-124325000D01*
X131502661Y-124325000D01*
X131604394Y-124297741D01*
X131695606Y-124245080D01*
X131770080Y-124170606D01*
X131822741Y-124079394D01*
X131850000Y-123977661D01*
X131850000Y-123932047D01*
X131893039Y-123944685D01*
X131938794Y-123997489D01*
X131950000Y-124049000D01*
X131950000Y-125129260D01*
X132131345Y-125036861D01*
X132131352Y-125036857D01*
X132203114Y-124984719D01*
X132268920Y-124961239D01*
X132336974Y-124977064D01*
X132385669Y-125027170D01*
X132400000Y-125085037D01*
X132400000Y-125957077D01*
X132380315Y-126024116D01*
X132327511Y-126069871D01*
X132262744Y-126080366D01*
X132212844Y-126075000D01*
X131815000Y-126075000D01*
X131815000Y-127301000D01*
X131806849Y-127328756D01*
X131780925Y-127232007D01*
X131715099Y-127117993D01*
X131622007Y-127024901D01*
X131507993Y-126959075D01*
X131380826Y-126925000D01*
X131249174Y-126925000D01*
X131122007Y-126959075D01*
X131007993Y-127024901D01*
X130914901Y-127117993D01*
X130849075Y-127232007D01*
X130815000Y-127359174D01*
X130815000Y-127490826D01*
X130849075Y-127617993D01*
X130914901Y-127732007D01*
X131007993Y-127825099D01*
X131122007Y-127890925D01*
X131223107Y-127918015D01*
X131191000Y-127925000D01*
X129965000Y-127925000D01*
X129965000Y-128214262D01*
X129945315Y-128281301D01*
X129892511Y-128327056D01*
X129833190Y-128338016D01*
X127272317Y-128176408D01*
X127229578Y-128165883D01*
X125590053Y-127433952D01*
X125536861Y-127388649D01*
X125516606Y-127321779D01*
X125535719Y-127254575D01*
X125588132Y-127208372D01*
X125621206Y-127198249D01*
X125654416Y-127192989D01*
X125847987Y-127130093D01*
X125245049Y-126527155D01*
X129965000Y-126527155D01*
X129965000Y-126925000D01*
X130815000Y-126925000D01*
X130815000Y-126075000D01*
X130417155Y-126075000D01*
X130357627Y-126081401D01*
X130357620Y-126081403D01*
X130222913Y-126131645D01*
X130222906Y-126131649D01*
X130107812Y-126217809D01*
X130107809Y-126217812D01*
X130021649Y-126332906D01*
X130021645Y-126332913D01*
X129971403Y-126467620D01*
X129971401Y-126467627D01*
X129965000Y-126527155D01*
X125245049Y-126527155D01*
X124679213Y-125961319D01*
X124590233Y-125872339D01*
X124950000Y-125872339D01*
X124950000Y-125977661D01*
X124977259Y-126079394D01*
X125029920Y-126170606D01*
X125104394Y-126245080D01*
X125195606Y-126297741D01*
X125297339Y-126325000D01*
X125402661Y-126325000D01*
X125504394Y-126297741D01*
X125595606Y-126245080D01*
X125670080Y-126170606D01*
X125722741Y-126079394D01*
X125750000Y-125977661D01*
X125750000Y-125924999D01*
X126057106Y-125924999D01*
X126057106Y-125925000D01*
X126555093Y-126422986D01*
X126617990Y-126229411D01*
X126650000Y-126027317D01*
X126650000Y-125822682D01*
X126617990Y-125620588D01*
X126555093Y-125427011D01*
X126057106Y-125924999D01*
X125750000Y-125924999D01*
X125750000Y-125872339D01*
X125722741Y-125770606D01*
X125670080Y-125679394D01*
X125595606Y-125604920D01*
X125504394Y-125552259D01*
X125402661Y-125525000D01*
X125297339Y-125525000D01*
X125195606Y-125552259D01*
X125104394Y-125604920D01*
X125029920Y-125679394D01*
X124977259Y-125770606D01*
X124950000Y-125872339D01*
X124590233Y-125872339D01*
X124222782Y-125504888D01*
X124097185Y-124719904D01*
X124852011Y-124719904D01*
X125350000Y-125217893D01*
X125350001Y-125217893D01*
X125847987Y-124719905D01*
X125847987Y-124719904D01*
X125654419Y-124657010D01*
X125452317Y-124625000D01*
X125247683Y-124625000D01*
X125045581Y-124657010D01*
X125045578Y-124657010D01*
X124852011Y-124719904D01*
X124097185Y-124719904D01*
X124051212Y-124432575D01*
X124050475Y-124425000D01*
X130245739Y-124425000D01*
X130338138Y-124606345D01*
X130338143Y-124606353D01*
X130458417Y-124771894D01*
X130458417Y-124771895D01*
X130603104Y-124916582D01*
X130768646Y-125036856D01*
X130768654Y-125036861D01*
X130950000Y-125129260D01*
X130950000Y-124425000D01*
X130245739Y-124425000D01*
X124050475Y-124425000D01*
X124049731Y-124417345D01*
X124004503Y-123128346D01*
X124021825Y-123060660D01*
X124072992Y-123013081D01*
X124128427Y-123000000D01*
X130271799Y-123000000D01*
X130338838Y-123019685D01*
G37*
G04 #@! TD.AperFunction*
M02*
