G04 #@! TF.GenerationSoftware,KiCad,Pcbnew,8.99.0-3309-gecdc7ee08f-dirty*
G04 #@! TF.CreationDate,2024-12-18T14:42:25+01:00*
G04 #@! TF.ProjectId,aniweather,616e6977-6561-4746-9865-722e6b696361,v1.12*
G04 #@! TF.SameCoordinates,Original*
G04 #@! TF.FileFunction,Soldermask,Bot*
G04 #@! TF.FilePolarity,Negative*
%FSLAX46Y46*%
G04 Gerber Fmt 4.6, Leading zero omitted, Abs format (unit mm)*
G04 Created by KiCad (PCBNEW 8.99.0-3309-gecdc7ee08f-dirty) date 2024-12-18 14:42:25*
%MOMM*%
%LPD*%
G01*
G04 APERTURE LIST*
G04 Aperture macros list*
%AMRoundRect*
0 Rectangle with rounded corners*
0 $1 Rounding radius*
0 $2 $3 $4 $5 $6 $7 $8 $9 X,Y pos of 4 corners*
0 Add a 4 corners polygon primitive as box body*
4,1,4,$2,$3,$4,$5,$6,$7,$8,$9,$2,$3,0*
0 Add four circle primitives for the rounded corners*
1,1,$1+$1,$2,$3*
1,1,$1+$1,$4,$5*
1,1,$1+$1,$6,$7*
1,1,$1+$1,$8,$9*
0 Add four rect primitives between the rounded corners*
20,1,$1+$1,$2,$3,$4,$5,0*
20,1,$1+$1,$4,$5,$6,$7,0*
20,1,$1+$1,$6,$7,$8,$9,0*
20,1,$1+$1,$8,$9,$2,$3,0*%
%AMFreePoly0*
4,1,21,-0.125000,1.200000,0.125000,1.200000,0.125000,1.700000,0.375000,1.700000,0.375000,1.200000,0.825000,1.200000,0.825000,-1.200000,0.375000,-1.200000,0.375000,-1.700000,0.125000,-1.700000,0.125000,-1.200000,-0.125000,-1.200000,-0.125000,-1.700000,-0.375000,-1.700000,-0.375000,-1.200000,-0.825000,-1.200000,-0.825000,1.200000,-0.375000,1.200000,-0.375000,1.700000,-0.125000,1.700000,
-0.125000,1.200000,-0.125000,1.200000,$1*%
G04 Aperture macros list end*
%ADD10R,1.600000X1.600000*%
%ADD11O,1.600000X1.600000*%
%ADD12C,1.600000*%
%ADD13R,1.700000X1.700000*%
%ADD14O,1.700000X1.700000*%
%ADD15R,2.200000X2.200000*%
%ADD16C,3.200000*%
%ADD17O,1.600000X2.000000*%
%ADD18C,2.000000*%
%ADD19RoundRect,0.250000X1.075000X-0.375000X1.075000X0.375000X-1.075000X0.375000X-1.075000X-0.375000X0*%
%ADD20RoundRect,0.650000X0.650000X0.650000X-0.650000X0.650000X-0.650000X-0.650000X0.650000X-0.650000X0*%
%ADD21C,2.600000*%
%ADD22RoundRect,0.060000X-0.240000X-0.060000X0.240000X-0.060000X0.240000X0.060000X-0.240000X0.060000X0*%
%ADD23FreePoly0,0.000000*%
%ADD24R,1.500000X1.000000*%
G04 APERTURE END LIST*
D10*
X117700000Y-98032500D03*
D11*
X117700000Y-105652500D03*
D12*
X136200000Y-83675000D03*
X136200000Y-86175000D03*
X147250000Y-89375000D03*
D11*
X157410000Y-89375000D03*
D12*
X166380000Y-126325000D03*
D11*
X156220000Y-126325000D03*
D13*
X131315000Y-127425000D03*
D14*
X133855000Y-127425000D03*
X136395000Y-127425000D03*
X138935000Y-127425000D03*
X141475000Y-127425000D03*
X144015000Y-127425000D03*
X146555000Y-127425000D03*
X149095000Y-127425000D03*
X136395000Y-74425000D03*
X138935000Y-74425000D03*
X141475000Y-74425000D03*
X144015000Y-74425000D03*
D12*
X146250000Y-86325000D03*
D11*
X156410000Y-86325000D03*
D12*
X138940000Y-131525000D03*
D11*
X149100000Y-131525000D03*
D15*
X136500000Y-80925000D03*
X136500000Y-88925000D03*
X136500000Y-77925000D03*
X136500000Y-91925000D03*
X114500000Y-77925000D03*
X114500000Y-91925000D03*
D16*
X163700000Y-134425000D03*
D10*
X121365000Y-75100000D03*
D11*
X128985000Y-75100000D03*
D17*
X151620000Y-118425000D03*
X149080000Y-118425000D03*
X146540000Y-118425000D03*
X144000000Y-118425000D03*
X154160000Y-118425000D03*
X156700000Y-118425000D03*
X154160000Y-95565000D03*
X151620000Y-95565000D03*
X149080000Y-95565000D03*
X146540000Y-95565000D03*
X141460000Y-118425000D03*
X159240000Y-118425000D03*
X156700000Y-95565000D03*
X159240000Y-95565000D03*
X144000000Y-95565000D03*
X141460000Y-95565000D03*
D12*
X154225000Y-80825000D03*
X154225000Y-83325000D03*
X141450000Y-83275000D03*
D11*
X151610000Y-83275000D03*
D18*
X158400000Y-129675000D03*
X158400000Y-136175000D03*
X153900000Y-129675000D03*
X153900000Y-136175000D03*
D12*
X122850000Y-125925000D03*
X125350000Y-125925000D03*
D16*
X163700000Y-67425000D03*
D12*
X139260000Y-136175000D03*
D11*
X129100000Y-136175000D03*
D12*
X131450000Y-123925000D03*
X133950000Y-123925000D03*
D16*
X116700000Y-134425000D03*
X116700000Y-67425000D03*
D18*
X122000000Y-136175000D03*
X122000000Y-129675000D03*
X126500000Y-136175000D03*
X126500000Y-129675000D03*
D12*
X117625000Y-112050000D03*
X120125000Y-112050000D03*
X158400000Y-120925000D03*
X160900000Y-120925000D03*
X118750000Y-120600000D03*
X116250000Y-120600000D03*
D19*
X116425000Y-117950000D03*
X116425000Y-115150000D03*
D20*
X143530000Y-66175000D03*
D21*
X138450000Y-66175000D03*
D12*
X127785000Y-109050000D03*
D11*
X117625000Y-109050000D03*
D22*
X118725000Y-117650000D03*
X118725000Y-117150000D03*
X118725000Y-116650000D03*
X118725000Y-116150000D03*
X118725000Y-115650000D03*
X121525000Y-115650000D03*
X121525000Y-116150000D03*
X121525000Y-116650000D03*
X121525000Y-117150000D03*
X121525000Y-117650000D03*
D23*
X120125000Y-116650000D03*
D24*
X117700000Y-102375000D03*
X117700000Y-101075000D03*
X121350000Y-71750000D03*
X121350000Y-73050000D03*
X114500000Y-74200000D03*
X114500000Y-72900000D03*
D12*
X126200000Y-113175000D03*
X123700000Y-113175000D03*
X118750000Y-123700000D03*
X116250000Y-123700000D03*
M02*
