G04 #@! TF.GenerationSoftware,KiCad,Pcbnew,8.99.0-3309-gecdc7ee08f-dirty*
G04 #@! TF.CreationDate,2024-12-18T14:42:25+01:00*
G04 #@! TF.ProjectId,aniweather,616e6977-6561-4746-9865-722e6b696361,v1.12*
G04 #@! TF.SameCoordinates,Original*
G04 #@! TF.FileFunction,Legend,Bot*
G04 #@! TF.FilePolarity,Positive*
%FSLAX46Y46*%
G04 Gerber Fmt 4.6, Leading zero omitted, Abs format (unit mm)*
G04 Created by KiCad (PCBNEW 8.99.0-3309-gecdc7ee08f-dirty) date 2024-12-18 14:42:25*
%MOMM*%
%LPD*%
G01*
G04 APERTURE LIST*
G04 Aperture macros list*
%AMRoundRect*
0 Rectangle with rounded corners*
0 $1 Rounding radius*
0 $2 $3 $4 $5 $6 $7 $8 $9 X,Y pos of 4 corners*
0 Add a 4 corners polygon primitive as box body*
4,1,4,$2,$3,$4,$5,$6,$7,$8,$9,$2,$3,0*
0 Add four circle primitives for the rounded corners*
1,1,$1+$1,$2,$3*
1,1,$1+$1,$4,$5*
1,1,$1+$1,$6,$7*
1,1,$1+$1,$8,$9*
0 Add four rect primitives between the rounded corners*
20,1,$1+$1,$2,$3,$4,$5,0*
20,1,$1+$1,$4,$5,$6,$7,0*
20,1,$1+$1,$6,$7,$8,$9,0*
20,1,$1+$1,$8,$9,$2,$3,0*%
%AMFreePoly0*
4,1,21,-0.125000,1.200000,0.125000,1.200000,0.125000,1.700000,0.375000,1.700000,0.375000,1.200000,0.825000,1.200000,0.825000,-1.200000,0.375000,-1.200000,0.375000,-1.700000,0.125000,-1.700000,0.125000,-1.200000,-0.125000,-1.200000,-0.125000,-1.700000,-0.375000,-1.700000,-0.375000,-1.200000,-0.825000,-1.200000,-0.825000,1.200000,-0.375000,1.200000,-0.375000,1.700000,-0.125000,1.700000,
-0.125000,1.200000,-0.125000,1.200000,$1*%
G04 Aperture macros list end*
%ADD10C,0.150000*%
%ADD11C,0.120000*%
%ADD12C,0.000000*%
%ADD13R,1.600000X1.600000*%
%ADD14O,1.600000X1.600000*%
%ADD15C,1.600000*%
%ADD16R,1.700000X1.700000*%
%ADD17O,1.700000X1.700000*%
%ADD18R,2.200000X2.200000*%
%ADD19C,3.200000*%
%ADD20O,1.600000X2.000000*%
%ADD21C,2.000000*%
%ADD22RoundRect,0.250000X1.075000X-0.375000X1.075000X0.375000X-1.075000X0.375000X-1.075000X-0.375000X0*%
%ADD23RoundRect,0.650000X0.650000X0.650000X-0.650000X0.650000X-0.650000X-0.650000X0.650000X-0.650000X0*%
%ADD24C,2.600000*%
%ADD25RoundRect,0.060000X-0.240000X-0.060000X0.240000X-0.060000X0.240000X0.060000X-0.240000X0.060000X0*%
%ADD26FreePoly0,0.000000*%
%ADD27R,1.500000X1.000000*%
G04 APERTURE END LIST*
D10*
X119041666Y-114909580D02*
X119089285Y-114957200D01*
X119089285Y-114957200D02*
X119232142Y-115004819D01*
X119232142Y-115004819D02*
X119327380Y-115004819D01*
X119327380Y-115004819D02*
X119470237Y-114957200D01*
X119470237Y-114957200D02*
X119565475Y-114861961D01*
X119565475Y-114861961D02*
X119613094Y-114766723D01*
X119613094Y-114766723D02*
X119660713Y-114576247D01*
X119660713Y-114576247D02*
X119660713Y-114433390D01*
X119660713Y-114433390D02*
X119613094Y-114242914D01*
X119613094Y-114242914D02*
X119565475Y-114147676D01*
X119565475Y-114147676D02*
X119470237Y-114052438D01*
X119470237Y-114052438D02*
X119327380Y-114004819D01*
X119327380Y-114004819D02*
X119232142Y-114004819D01*
X119232142Y-114004819D02*
X119089285Y-114052438D01*
X119089285Y-114052438D02*
X119041666Y-114100057D01*
X118184523Y-114004819D02*
X118374999Y-114004819D01*
X118374999Y-114004819D02*
X118470237Y-114052438D01*
X118470237Y-114052438D02*
X118517856Y-114100057D01*
X118517856Y-114100057D02*
X118613094Y-114242914D01*
X118613094Y-114242914D02*
X118660713Y-114433390D01*
X118660713Y-114433390D02*
X118660713Y-114814342D01*
X118660713Y-114814342D02*
X118613094Y-114909580D01*
X118613094Y-114909580D02*
X118565475Y-114957200D01*
X118565475Y-114957200D02*
X118470237Y-115004819D01*
X118470237Y-115004819D02*
X118279761Y-115004819D01*
X118279761Y-115004819D02*
X118184523Y-114957200D01*
X118184523Y-114957200D02*
X118136904Y-114909580D01*
X118136904Y-114909580D02*
X118089285Y-114814342D01*
X118089285Y-114814342D02*
X118089285Y-114576247D01*
X118089285Y-114576247D02*
X118136904Y-114481009D01*
X118136904Y-114481009D02*
X118184523Y-114433390D01*
X118184523Y-114433390D02*
X118279761Y-114385771D01*
X118279761Y-114385771D02*
X118470237Y-114385771D01*
X118470237Y-114385771D02*
X118565475Y-114433390D01*
X118565475Y-114433390D02*
X118613094Y-114481009D01*
X118613094Y-114481009D02*
X118660713Y-114576247D01*
X117666666Y-118459580D02*
X117714285Y-118507200D01*
X117714285Y-118507200D02*
X117857142Y-118554819D01*
X117857142Y-118554819D02*
X117952380Y-118554819D01*
X117952380Y-118554819D02*
X118095237Y-118507200D01*
X118095237Y-118507200D02*
X118190475Y-118411961D01*
X118190475Y-118411961D02*
X118238094Y-118316723D01*
X118238094Y-118316723D02*
X118285713Y-118126247D01*
X118285713Y-118126247D02*
X118285713Y-117983390D01*
X118285713Y-117983390D02*
X118238094Y-117792914D01*
X118238094Y-117792914D02*
X118190475Y-117697676D01*
X118190475Y-117697676D02*
X118095237Y-117602438D01*
X118095237Y-117602438D02*
X117952380Y-117554819D01*
X117952380Y-117554819D02*
X117857142Y-117554819D01*
X117857142Y-117554819D02*
X117714285Y-117602438D01*
X117714285Y-117602438D02*
X117666666Y-117650057D01*
X117333332Y-117554819D02*
X116666666Y-117554819D01*
X116666666Y-117554819D02*
X117095237Y-118554819D01*
X119159819Y-116383333D02*
X119159819Y-115907143D01*
X119159819Y-115907143D02*
X118159819Y-115907143D01*
X119159819Y-117240476D02*
X119159819Y-116669048D01*
X119159819Y-116954762D02*
X118159819Y-116954762D01*
X118159819Y-116954762D02*
X118302676Y-116859524D01*
X118302676Y-116859524D02*
X118397914Y-116764286D01*
X118397914Y-116764286D02*
X118445533Y-116669048D01*
X122871666Y-107134819D02*
X123204999Y-106658628D01*
X123443094Y-107134819D02*
X123443094Y-106134819D01*
X123443094Y-106134819D02*
X123062142Y-106134819D01*
X123062142Y-106134819D02*
X122966904Y-106182438D01*
X122966904Y-106182438D02*
X122919285Y-106230057D01*
X122919285Y-106230057D02*
X122871666Y-106325295D01*
X122871666Y-106325295D02*
X122871666Y-106468152D01*
X122871666Y-106468152D02*
X122919285Y-106563390D01*
X122919285Y-106563390D02*
X122966904Y-106611009D01*
X122966904Y-106611009D02*
X123062142Y-106658628D01*
X123062142Y-106658628D02*
X123443094Y-106658628D01*
X122490713Y-106230057D02*
X122443094Y-106182438D01*
X122443094Y-106182438D02*
X122347856Y-106134819D01*
X122347856Y-106134819D02*
X122109761Y-106134819D01*
X122109761Y-106134819D02*
X122014523Y-106182438D01*
X122014523Y-106182438D02*
X121966904Y-106230057D01*
X121966904Y-106230057D02*
X121919285Y-106325295D01*
X121919285Y-106325295D02*
X121919285Y-106420533D01*
X121919285Y-106420533D02*
X121966904Y-106563390D01*
X121966904Y-106563390D02*
X122538332Y-107134819D01*
X122538332Y-107134819D02*
X121919285Y-107134819D01*
X120907224Y-118804819D02*
X120907224Y-119614342D01*
X120907224Y-119614342D02*
X120859605Y-119709580D01*
X120859605Y-119709580D02*
X120811986Y-119757200D01*
X120811986Y-119757200D02*
X120716748Y-119804819D01*
X120716748Y-119804819D02*
X120526272Y-119804819D01*
X120526272Y-119804819D02*
X120431034Y-119757200D01*
X120431034Y-119757200D02*
X120383415Y-119709580D01*
X120383415Y-119709580D02*
X120335796Y-119614342D01*
X120335796Y-119614342D02*
X120335796Y-118804819D01*
X119383415Y-118804819D02*
X119859605Y-118804819D01*
X119859605Y-118804819D02*
X119907224Y-119281009D01*
X119907224Y-119281009D02*
X119859605Y-119233390D01*
X119859605Y-119233390D02*
X119764367Y-119185771D01*
X119764367Y-119185771D02*
X119526272Y-119185771D01*
X119526272Y-119185771D02*
X119431034Y-119233390D01*
X119431034Y-119233390D02*
X119383415Y-119281009D01*
X119383415Y-119281009D02*
X119335796Y-119376247D01*
X119335796Y-119376247D02*
X119335796Y-119614342D01*
X119335796Y-119614342D02*
X119383415Y-119709580D01*
X119383415Y-119709580D02*
X119431034Y-119757200D01*
X119431034Y-119757200D02*
X119526272Y-119804819D01*
X119526272Y-119804819D02*
X119764367Y-119804819D01*
X119764367Y-119804819D02*
X119859605Y-119757200D01*
X119859605Y-119757200D02*
X119907224Y-119709580D01*
X118954819Y-100891666D02*
X119669104Y-100891666D01*
X119669104Y-100891666D02*
X119811961Y-100844047D01*
X119811961Y-100844047D02*
X119907200Y-100748809D01*
X119907200Y-100748809D02*
X119954819Y-100605952D01*
X119954819Y-100605952D02*
X119954819Y-100510714D01*
X119954819Y-101367857D02*
X118954819Y-101367857D01*
X118954819Y-101367857D02*
X118954819Y-101748809D01*
X118954819Y-101748809D02*
X119002438Y-101844047D01*
X119002438Y-101844047D02*
X119050057Y-101891666D01*
X119050057Y-101891666D02*
X119145295Y-101939285D01*
X119145295Y-101939285D02*
X119288152Y-101939285D01*
X119288152Y-101939285D02*
X119383390Y-101891666D01*
X119383390Y-101891666D02*
X119431009Y-101844047D01*
X119431009Y-101844047D02*
X119478628Y-101748809D01*
X119478628Y-101748809D02*
X119478628Y-101367857D01*
X119954819Y-102891666D02*
X119954819Y-102320238D01*
X119954819Y-102605952D02*
X118954819Y-102605952D01*
X118954819Y-102605952D02*
X119097676Y-102510714D01*
X119097676Y-102510714D02*
X119192914Y-102415476D01*
X119192914Y-102415476D02*
X119240533Y-102320238D01*
X117666666Y-121559580D02*
X117714285Y-121607200D01*
X117714285Y-121607200D02*
X117857142Y-121654819D01*
X117857142Y-121654819D02*
X117952380Y-121654819D01*
X117952380Y-121654819D02*
X118095237Y-121607200D01*
X118095237Y-121607200D02*
X118190475Y-121511961D01*
X118190475Y-121511961D02*
X118238094Y-121416723D01*
X118238094Y-121416723D02*
X118285713Y-121226247D01*
X118285713Y-121226247D02*
X118285713Y-121083390D01*
X118285713Y-121083390D02*
X118238094Y-120892914D01*
X118238094Y-120892914D02*
X118190475Y-120797676D01*
X118190475Y-120797676D02*
X118095237Y-120702438D01*
X118095237Y-120702438D02*
X117952380Y-120654819D01*
X117952380Y-120654819D02*
X117857142Y-120654819D01*
X117857142Y-120654819D02*
X117714285Y-120702438D01*
X117714285Y-120702438D02*
X117666666Y-120750057D01*
X117095237Y-121083390D02*
X117190475Y-121035771D01*
X117190475Y-121035771D02*
X117238094Y-120988152D01*
X117238094Y-120988152D02*
X117285713Y-120892914D01*
X117285713Y-120892914D02*
X117285713Y-120845295D01*
X117285713Y-120845295D02*
X117238094Y-120750057D01*
X117238094Y-120750057D02*
X117190475Y-120702438D01*
X117190475Y-120702438D02*
X117095237Y-120654819D01*
X117095237Y-120654819D02*
X116904761Y-120654819D01*
X116904761Y-120654819D02*
X116809523Y-120702438D01*
X116809523Y-120702438D02*
X116761904Y-120750057D01*
X116761904Y-120750057D02*
X116714285Y-120845295D01*
X116714285Y-120845295D02*
X116714285Y-120892914D01*
X116714285Y-120892914D02*
X116761904Y-120988152D01*
X116761904Y-120988152D02*
X116809523Y-121035771D01*
X116809523Y-121035771D02*
X116904761Y-121083390D01*
X116904761Y-121083390D02*
X117095237Y-121083390D01*
X117095237Y-121083390D02*
X117190475Y-121131009D01*
X117190475Y-121131009D02*
X117238094Y-121178628D01*
X117238094Y-121178628D02*
X117285713Y-121273866D01*
X117285713Y-121273866D02*
X117285713Y-121464342D01*
X117285713Y-121464342D02*
X117238094Y-121559580D01*
X117238094Y-121559580D02*
X117190475Y-121607200D01*
X117190475Y-121607200D02*
X117095237Y-121654819D01*
X117095237Y-121654819D02*
X116904761Y-121654819D01*
X116904761Y-121654819D02*
X116809523Y-121607200D01*
X116809523Y-121607200D02*
X116761904Y-121559580D01*
X116761904Y-121559580D02*
X116714285Y-121464342D01*
X116714285Y-121464342D02*
X116714285Y-121273866D01*
X116714285Y-121273866D02*
X116761904Y-121178628D01*
X116761904Y-121178628D02*
X116809523Y-121131009D01*
X116809523Y-121131009D02*
X116904761Y-121083390D01*
D11*
X116255000Y-110680000D02*
X121495000Y-110680000D01*
X116255000Y-113420000D02*
X116255000Y-110680000D01*
X116255000Y-113420000D02*
X121495000Y-113420000D01*
X121495000Y-113420000D02*
X121495000Y-110680000D01*
X157030000Y-119555000D02*
X162270000Y-119555000D01*
X157030000Y-122295000D02*
X157030000Y-119555000D01*
X157030000Y-122295000D02*
X162270000Y-122295000D01*
X162270000Y-122295000D02*
X162270000Y-119555000D01*
X114880000Y-119230000D02*
X114880000Y-121970000D01*
X120120000Y-119230000D02*
X114880000Y-119230000D01*
X120120000Y-119230000D02*
X120120000Y-121970000D01*
X120120000Y-121970000D02*
X114880000Y-121970000D01*
X115065000Y-117152064D02*
X115065000Y-115947936D01*
X117785000Y-117152064D02*
X117785000Y-115947936D01*
X136930000Y-67675000D02*
X136930000Y-64675000D01*
X136930000Y-67675000D02*
X145030000Y-67675000D01*
X145030000Y-64675000D02*
X136930000Y-64675000D01*
X145030000Y-64675000D02*
X145030000Y-67675000D01*
X118665000Y-109050000D02*
X119435000Y-109050000D01*
X119435000Y-107680000D02*
X125975000Y-107680000D01*
X119435000Y-110420000D02*
X119435000Y-107680000D01*
X125975000Y-107680000D02*
X125975000Y-110420000D01*
X125975000Y-110420000D02*
X119435000Y-110420000D01*
X126745000Y-109050000D02*
X125975000Y-109050000D01*
X118515000Y-115040000D02*
X119490000Y-115040000D01*
X118515000Y-115270000D02*
X118515000Y-115040000D01*
X118805000Y-118260000D02*
X119490000Y-118260000D01*
X120760000Y-115040000D02*
X121735000Y-115040000D01*
X120760000Y-118260000D02*
X121735000Y-118260000D01*
X121735000Y-115270000D02*
X121735000Y-115040000D01*
X121735000Y-118260000D02*
X121735000Y-118030000D01*
X118485000Y-118540000D02*
X118205000Y-118260000D01*
X118485000Y-118260000D01*
X118485000Y-118540000D01*
G36*
X118485000Y-118540000D02*
G01*
X118205000Y-118260000D01*
X118485000Y-118260000D01*
X118485000Y-118540000D01*
G37*
X116700000Y-100325000D02*
X116700000Y-103125000D01*
X116700000Y-103125000D02*
X118700000Y-103125000D01*
X118700000Y-100325000D02*
X116700000Y-100325000D01*
X118700000Y-103125000D02*
X118700000Y-100325000D01*
X120350000Y-71000000D02*
X120350000Y-73800000D01*
X120350000Y-73800000D02*
X122350000Y-73800000D01*
X122350000Y-71000000D02*
X120350000Y-71000000D01*
X122350000Y-73800000D02*
X122350000Y-71000000D01*
X113500000Y-72150000D02*
X113500000Y-74950000D01*
X113500000Y-74950000D02*
X115500000Y-74950000D01*
X115500000Y-72150000D02*
X113500000Y-72150000D01*
X115500000Y-74950000D02*
X115500000Y-72150000D01*
D12*
G36*
X123726553Y-113165040D02*
G01*
X123697357Y-113194236D01*
X123668162Y-113165040D01*
X123697357Y-113135845D01*
X123726553Y-113165040D01*
G37*
G36*
X125595058Y-130857454D02*
G01*
X125565863Y-130886650D01*
X125536668Y-130857454D01*
X125565863Y-130828259D01*
X125595058Y-130857454D01*
G37*
G36*
X125711840Y-130915845D02*
G01*
X125682645Y-130945040D01*
X125653449Y-130915845D01*
X125682645Y-130886650D01*
X125711840Y-130915845D01*
G37*
G36*
X137506783Y-95939753D02*
G01*
X137477587Y-95968948D01*
X137448392Y-95939753D01*
X137477587Y-95910558D01*
X137506783Y-95939753D01*
G37*
G36*
X138849771Y-123675385D02*
G01*
X138820576Y-123704581D01*
X138791380Y-123675385D01*
X138820576Y-123646190D01*
X138849771Y-123675385D01*
G37*
G36*
X139083334Y-123441822D02*
G01*
X139054139Y-123471017D01*
X139024944Y-123441822D01*
X139054139Y-123412627D01*
X139083334Y-123441822D01*
G37*
G36*
X146031840Y-119471247D02*
G01*
X146002645Y-119500443D01*
X145973449Y-119471247D01*
X146002645Y-119442052D01*
X146031840Y-119471247D01*
G37*
G36*
X147958737Y-131032627D02*
G01*
X147929541Y-131061822D01*
X147900346Y-131032627D01*
X147929541Y-131003431D01*
X147958737Y-131032627D01*
G37*
G36*
X148367472Y-114099293D02*
G01*
X148338277Y-114128489D01*
X148309081Y-114099293D01*
X148338277Y-114070098D01*
X148367472Y-114099293D01*
G37*
G36*
X148484254Y-113398604D02*
G01*
X148455058Y-113427799D01*
X148425863Y-113398604D01*
X148455058Y-113369408D01*
X148484254Y-113398604D01*
G37*
G36*
X148601035Y-113340213D02*
G01*
X148571840Y-113369408D01*
X148542645Y-113340213D01*
X148571840Y-113311017D01*
X148601035Y-113340213D01*
G37*
G36*
X148601035Y-131032627D02*
G01*
X148571840Y-131061822D01*
X148542645Y-131032627D01*
X148571840Y-131003431D01*
X148601035Y-131032627D01*
G37*
G36*
X149301725Y-117194006D02*
G01*
X149272530Y-117223201D01*
X149243334Y-117194006D01*
X149272530Y-117164811D01*
X149301725Y-117194006D01*
G37*
G36*
X149593679Y-117544351D02*
G01*
X149564484Y-117573546D01*
X149535288Y-117544351D01*
X149564484Y-117515155D01*
X149593679Y-117544351D01*
G37*
G36*
X151987702Y-97866650D02*
G01*
X151958507Y-97895845D01*
X151929311Y-97866650D01*
X151958507Y-97837454D01*
X151987702Y-97866650D01*
G37*
G36*
X152162875Y-97925040D02*
G01*
X152133679Y-97954236D01*
X152104484Y-97925040D01*
X152133679Y-97895845D01*
X152162875Y-97925040D01*
G37*
G36*
X152338047Y-129981592D02*
G01*
X152308852Y-130010788D01*
X152279656Y-129981592D01*
X152308852Y-129952397D01*
X152338047Y-129981592D01*
G37*
G36*
X152396438Y-129864811D02*
G01*
X152367242Y-129894006D01*
X152338047Y-129864811D01*
X152367242Y-129835615D01*
X152396438Y-129864811D01*
G37*
G36*
X125127932Y-130361132D02*
G01*
X125123718Y-130392044D01*
X125089005Y-130400060D01*
X125082017Y-130391501D01*
X125089005Y-130322205D01*
X125106568Y-130313070D01*
X125127932Y-130361132D01*
G37*
G36*
X125186323Y-130536305D02*
G01*
X125182109Y-130567217D01*
X125147396Y-130575232D01*
X125140407Y-130566674D01*
X125147396Y-130497378D01*
X125164959Y-130488243D01*
X125186323Y-130536305D01*
G37*
G36*
X139822951Y-122789791D02*
G01*
X139832086Y-122807354D01*
X139784024Y-122828719D01*
X139753112Y-122824505D01*
X139745097Y-122789791D01*
X139753655Y-122782803D01*
X139822951Y-122789791D01*
G37*
G36*
X141827702Y-93691707D02*
G01*
X141823488Y-93722619D01*
X141788775Y-93730634D01*
X141781787Y-93722076D01*
X141788775Y-93652780D01*
X141806338Y-93643645D01*
X141827702Y-93691707D01*
G37*
G36*
X148464790Y-113272090D02*
G01*
X148473925Y-113289653D01*
X148425863Y-113311017D01*
X148394951Y-113306803D01*
X148386936Y-113272090D01*
X148395494Y-113265102D01*
X148464790Y-113272090D01*
G37*
G36*
X148523181Y-114031171D02*
G01*
X148532316Y-114048734D01*
X148484254Y-114070098D01*
X148453342Y-114065884D01*
X148445327Y-114031171D01*
X148453885Y-114024182D01*
X148523181Y-114031171D01*
G37*
G36*
X151793066Y-129563125D02*
G01*
X151802201Y-129580688D01*
X151754139Y-129602052D01*
X151723227Y-129597838D01*
X151715212Y-129563125D01*
X151723770Y-129556136D01*
X151793066Y-129563125D01*
G37*
G36*
X133156668Y-126609830D02*
G01*
X133253052Y-126633864D01*
X133302645Y-126660123D01*
X133266537Y-126674824D01*
X133156668Y-126682512D01*
X133060707Y-126670039D01*
X133010691Y-126632218D01*
X133048166Y-126605826D01*
X133156668Y-126609830D01*
G37*
G36*
X139610978Y-122888201D02*
G01*
X139663570Y-122900153D01*
X139608852Y-122945500D01*
X139527789Y-122988508D01*
X139458163Y-122997081D01*
X139462875Y-122945500D01*
X139492123Y-122917757D01*
X139597700Y-122888003D01*
X139610978Y-122888201D01*
G37*
G36*
X139355756Y-123141616D02*
G01*
X139288026Y-123237096D01*
X139248818Y-123279316D01*
X139173548Y-123346737D01*
X139168286Y-123321887D01*
X139235875Y-123206437D01*
X139238537Y-123202403D01*
X139314425Y-123110010D01*
X139363376Y-123089297D01*
X139355756Y-123141616D01*
G37*
G36*
X148158570Y-103138327D02*
G01*
X148201235Y-103161299D01*
X148294837Y-103269193D01*
X148287580Y-103389413D01*
X148177702Y-103489613D01*
X148137753Y-103507965D01*
X147963395Y-103548280D01*
X147851967Y-103498456D01*
X147812760Y-103361749D01*
X147813774Y-103330371D01*
X147866506Y-103172845D01*
X147987073Y-103105189D01*
X148158570Y-103138327D01*
G37*
G36*
X151742948Y-130907847D02*
G01*
X151728088Y-130998343D01*
X151706755Y-131016008D01*
X151593048Y-131048811D01*
X151426097Y-131061822D01*
X151421263Y-131061815D01*
X151256578Y-131047976D01*
X151204896Y-131010753D01*
X151265876Y-130954759D01*
X151439178Y-130884607D01*
X151526973Y-130861826D01*
X151668389Y-130859381D01*
X151742948Y-130907847D01*
G37*
G36*
X155596757Y-108650488D02*
G01*
X155638373Y-108775856D01*
X155662082Y-108953238D01*
X155663592Y-109148153D01*
X155638611Y-109326123D01*
X155597485Y-109435513D01*
X155549799Y-109458522D01*
X155507010Y-109388001D01*
X155475952Y-109236089D01*
X155463457Y-109014928D01*
X155464207Y-108890969D01*
X155474957Y-108720771D01*
X155501867Y-108634508D01*
X155549541Y-108610558D01*
X155596757Y-108650488D01*
G37*
G36*
X146132074Y-124025442D02*
G01*
X146092176Y-124195010D01*
X146054264Y-124414344D01*
X146063791Y-124666049D01*
X146063931Y-124666987D01*
X146081641Y-124831775D01*
X146066289Y-124910592D01*
X146012586Y-124930788D01*
X145961130Y-124919779D01*
X145852597Y-124826893D01*
X145771659Y-124668696D01*
X145739886Y-124480785D01*
X145770172Y-124319334D01*
X145910233Y-124099680D01*
X146030140Y-123984105D01*
X146110170Y-123954498D01*
X146132074Y-124025442D01*
G37*
G36*
X154736068Y-95428953D02*
G01*
X154894987Y-95451115D01*
X154948889Y-95490150D01*
X154902385Y-95541345D01*
X154760087Y-95599985D01*
X154526606Y-95661355D01*
X154206553Y-95720741D01*
X154162398Y-95727586D01*
X153966522Y-95752000D01*
X153856632Y-95745717D01*
X153808480Y-95702539D01*
X153797817Y-95616270D01*
X153809432Y-95556338D01*
X153866820Y-95501057D01*
X153988232Y-95464336D01*
X154191228Y-95441410D01*
X154493368Y-95427514D01*
X154736068Y-95428953D01*
G37*
G36*
X144535864Y-105671663D02*
G01*
X144824857Y-105716500D01*
X144900381Y-105734772D01*
X145039732Y-105779904D01*
X145090022Y-105827512D01*
X145070793Y-105891500D01*
X145046852Y-105909818D01*
X144926158Y-105938699D01*
X144739576Y-105952869D01*
X144521287Y-105952899D01*
X144305472Y-105939362D01*
X144126314Y-105912831D01*
X144017994Y-105873876D01*
X143961138Y-105829641D01*
X143946562Y-105782650D01*
X144032191Y-105727899D01*
X144066356Y-105712239D01*
X144270261Y-105670426D01*
X144535864Y-105671663D01*
G37*
G36*
X147687472Y-123432431D02*
G01*
X147803142Y-123534445D01*
X147937415Y-123699404D01*
X148072691Y-123900328D01*
X148191366Y-124110234D01*
X148275840Y-124302140D01*
X148308511Y-124449063D01*
X148303628Y-124496795D01*
X148266673Y-124521155D01*
X148207537Y-124458269D01*
X148143137Y-124321216D01*
X148082775Y-124200250D01*
X147959484Y-124015306D01*
X147810257Y-123830913D01*
X147667056Y-123662695D01*
X147571567Y-123519320D01*
X147560960Y-123438188D01*
X147632397Y-123412627D01*
X147687472Y-123432431D01*
G37*
G36*
X148219000Y-130650329D02*
G01*
X148302164Y-130722123D01*
X148368683Y-130739924D01*
X148391629Y-130741904D01*
X148404673Y-130814289D01*
X148411857Y-130867415D01*
X148467555Y-130901948D01*
X148500996Y-130907021D01*
X148505101Y-130974936D01*
X148424729Y-131038555D01*
X148244443Y-131061822D01*
X148194435Y-131061562D01*
X148073314Y-131048461D01*
X148025804Y-130994758D01*
X148018022Y-130872052D01*
X148021669Y-130776029D01*
X148054920Y-130624487D01*
X148121306Y-130581916D01*
X148219000Y-130650329D01*
G37*
G36*
X153890241Y-113854316D02*
G01*
X153914599Y-113923137D01*
X153889079Y-113971379D01*
X153783035Y-114062072D01*
X153622645Y-114157684D01*
X153330691Y-114305628D01*
X153330691Y-115024798D01*
X153330682Y-115040632D01*
X153327512Y-115317519D01*
X153319449Y-115549154D01*
X153307670Y-115711697D01*
X153293351Y-115781307D01*
X153284322Y-115789722D01*
X153233702Y-115803322D01*
X153197106Y-115737789D01*
X153172939Y-115583771D01*
X153159608Y-115331922D01*
X153155518Y-114972890D01*
X153155518Y-114189242D01*
X153462070Y-114013436D01*
X153657397Y-113908054D01*
X153808726Y-113848446D01*
X153890241Y-113854316D01*
G37*
G36*
X144188493Y-92444546D02*
G01*
X144280116Y-92549099D01*
X144284772Y-92556523D01*
X144369025Y-92678644D01*
X144497754Y-92853547D01*
X144645058Y-93045968D01*
X144669770Y-93077950D01*
X144797975Y-93256246D01*
X144888267Y-93402611D01*
X144922415Y-93487991D01*
X144912599Y-93543414D01*
X144845140Y-93577840D01*
X144721262Y-93526123D01*
X144549928Y-93392956D01*
X144340100Y-93183033D01*
X144231533Y-93061731D01*
X144089855Y-92884717D01*
X144020408Y-92760161D01*
X144012980Y-92672114D01*
X144030589Y-92595106D01*
X144045755Y-92480098D01*
X144049881Y-92449072D01*
X144101580Y-92408209D01*
X144188493Y-92444546D01*
G37*
G36*
X139303746Y-128098703D02*
G01*
X139371385Y-128231200D01*
X139488541Y-128418398D01*
X139697274Y-128659859D01*
X139982230Y-128939263D01*
X140330680Y-129246283D01*
X140729892Y-129570588D01*
X141167136Y-129901852D01*
X141629679Y-130229745D01*
X142104792Y-130543939D01*
X142579743Y-130834105D01*
X142966323Y-131059756D01*
X141886093Y-131059235D01*
X140805863Y-131058713D01*
X140426323Y-130619319D01*
X140232126Y-130378995D01*
X139936104Y-129932529D01*
X139677091Y-129423019D01*
X139440404Y-128823721D01*
X139379982Y-128643158D01*
X139314807Y-128419099D01*
X139272997Y-128238896D01*
X139256151Y-128116278D01*
X139265868Y-128064972D01*
X139303746Y-128098703D01*
G37*
G36*
X149175038Y-113349659D02*
G01*
X149310784Y-113422013D01*
X149353289Y-113522973D01*
X149290787Y-113638934D01*
X149285367Y-113643819D01*
X149183568Y-113702340D01*
X148998109Y-113785228D01*
X148753514Y-113882155D01*
X148474305Y-113982793D01*
X148433019Y-113996941D01*
X148159971Y-114088726D01*
X147925954Y-114164458D01*
X147754697Y-114216619D01*
X147669926Y-114237689D01*
X147645065Y-114212314D01*
X147698032Y-114132529D01*
X147813781Y-114013134D01*
X147976589Y-113868994D01*
X148170734Y-113714972D01*
X148380491Y-113565934D01*
X148583581Y-113436486D01*
X148741993Y-113356439D01*
X148874973Y-113322720D01*
X149016843Y-113322181D01*
X149175038Y-113349659D01*
G37*
G36*
X146339467Y-121851814D02*
G01*
X146517410Y-121936136D01*
X146708538Y-122069743D01*
X146876489Y-122225716D01*
X146984898Y-122377139D01*
X147066145Y-122595602D01*
X147069205Y-122770575D01*
X146991977Y-122932508D01*
X146963398Y-122966975D01*
X146842602Y-123044839D01*
X146709398Y-123067969D01*
X146601684Y-123035234D01*
X146557357Y-122945500D01*
X146567557Y-122877659D01*
X146611813Y-122828719D01*
X146652987Y-122814229D01*
X146698661Y-122723391D01*
X146699269Y-122582724D01*
X146650935Y-122431569D01*
X146624842Y-122387134D01*
X146504324Y-122230612D01*
X146355972Y-122080090D01*
X146238421Y-121973169D01*
X146164038Y-121887203D01*
X146171270Y-121846406D01*
X146253972Y-121836075D01*
X146339467Y-121851814D01*
G37*
G36*
X147659527Y-115254668D02*
G01*
X147778657Y-115274452D01*
X147822395Y-115302749D01*
X147866353Y-115341147D01*
X147994862Y-115420584D01*
X148188016Y-115529250D01*
X148425863Y-115655486D01*
X148723919Y-115818829D01*
X148961467Y-115976536D01*
X149105168Y-116115912D01*
X149164200Y-116246124D01*
X149147744Y-116376338D01*
X149139958Y-116393904D01*
X149063625Y-116455235D01*
X148933935Y-116436335D01*
X148745837Y-116334588D01*
X148494279Y-116147376D01*
X148174208Y-115872083D01*
X148115128Y-115818947D01*
X147899214Y-115624806D01*
X147717169Y-115461189D01*
X147586641Y-115343957D01*
X147525282Y-115288970D01*
X147521162Y-115284712D01*
X147544109Y-115257934D01*
X147651699Y-115254068D01*
X147659527Y-115254668D01*
G37*
G36*
X159741328Y-99709711D02*
G01*
X159775401Y-99753176D01*
X159798710Y-99859728D01*
X159814170Y-100047259D01*
X159824692Y-100333661D01*
X159841265Y-100961362D01*
X160177012Y-100978874D01*
X160297770Y-100987366D01*
X160455321Y-101014578D01*
X160510843Y-101059480D01*
X160473832Y-101126803D01*
X160450564Y-101140119D01*
X160328801Y-101161320D01*
X160151062Y-101165749D01*
X159959844Y-101155131D01*
X159797646Y-101131193D01*
X159706967Y-101095661D01*
X159697354Y-101082581D01*
X159663939Y-100955525D01*
X159643701Y-100715697D01*
X159636898Y-100365776D01*
X159637929Y-100161268D01*
X159644531Y-99935085D01*
X159659271Y-99795800D01*
X159684486Y-99725422D01*
X159722508Y-99705960D01*
X159741328Y-99709711D01*
G37*
G36*
X139378726Y-87845162D02*
G01*
X139540997Y-87954413D01*
X139766518Y-88131933D01*
X140047195Y-88371136D01*
X140374931Y-88665434D01*
X140741632Y-89008242D01*
X140823017Y-89085877D01*
X140996062Y-89255012D01*
X141098416Y-89367304D01*
X141141206Y-89439220D01*
X141135554Y-89487232D01*
X141092587Y-89527809D01*
X141080436Y-89536027D01*
X141036584Y-89550805D01*
X140980322Y-89537877D01*
X140900145Y-89487910D01*
X140784548Y-89391574D01*
X140622024Y-89239536D01*
X140401068Y-89022466D01*
X140110175Y-88731031D01*
X140017911Y-88637771D01*
X139771999Y-88384686D01*
X139563392Y-88163376D01*
X139403542Y-87986405D01*
X139303903Y-87866339D01*
X139275927Y-87815743D01*
X139287802Y-87810767D01*
X139378726Y-87845162D01*
G37*
G36*
X150015295Y-98599292D02*
G01*
X150097406Y-98682362D01*
X150107984Y-98781268D01*
X150093446Y-98969411D01*
X150056702Y-99204850D01*
X150004198Y-99453285D01*
X149942376Y-99680414D01*
X149877681Y-99851937D01*
X149808576Y-99993421D01*
X149673821Y-100255960D01*
X149565245Y-100441589D01*
X149469542Y-100571849D01*
X149373407Y-100668277D01*
X149267895Y-100750678D01*
X149202657Y-100763021D01*
X149144690Y-100706699D01*
X149129020Y-100681656D01*
X149086778Y-100515370D01*
X149081544Y-100271212D01*
X149109996Y-99974630D01*
X149168813Y-99651072D01*
X149254671Y-99325987D01*
X149364249Y-99024823D01*
X149426036Y-98913366D01*
X149562017Y-98761463D01*
X149722372Y-98650627D01*
X149881874Y-98592642D01*
X150015295Y-98599292D01*
G37*
G36*
X146181158Y-122629785D02*
G01*
X146149973Y-122709412D01*
X146109068Y-122823745D01*
X146095058Y-123040154D01*
X146145893Y-123232355D01*
X146148679Y-123237069D01*
X146233356Y-123316986D01*
X146389653Y-123423012D01*
X146585991Y-123533537D01*
X146733378Y-123615493D01*
X146935890Y-123769231D01*
X147023557Y-123914198D01*
X146997339Y-124051607D01*
X146988827Y-124064858D01*
X146947675Y-124102968D01*
X146892577Y-124087661D01*
X146803344Y-124006767D01*
X146659791Y-123848116D01*
X146554459Y-123738845D01*
X146370517Y-123579833D01*
X146206346Y-123470677D01*
X146107297Y-123410368D01*
X145949670Y-123240358D01*
X145892319Y-123040546D01*
X145943305Y-122830554D01*
X146028064Y-122706943D01*
X146118618Y-122632741D01*
X146136781Y-122626193D01*
X146181158Y-122629785D01*
G37*
G36*
X153840906Y-96729324D02*
G01*
X153979695Y-96798160D01*
X154139201Y-96890294D01*
X154290004Y-96989360D01*
X154402681Y-97078997D01*
X154409088Y-97085117D01*
X154456052Y-97139442D01*
X154472848Y-97199598D01*
X154452371Y-97283731D01*
X154387514Y-97409982D01*
X154271172Y-97596495D01*
X154096238Y-97861415D01*
X154063644Y-97909870D01*
X153942721Y-98081052D01*
X153848763Y-98200990D01*
X153799865Y-98246190D01*
X153797520Y-98245989D01*
X153730087Y-98202799D01*
X153629052Y-98107033D01*
X153570341Y-98040978D01*
X153534180Y-97973043D01*
X153527285Y-97881897D01*
X153547889Y-97737179D01*
X153594225Y-97508527D01*
X153666144Y-97151200D01*
X153712717Y-96887400D01*
X153735403Y-96707883D01*
X153752256Y-96700147D01*
X153840906Y-96729324D01*
G37*
G36*
X142044044Y-114072626D02*
G01*
X142325757Y-114081154D01*
X142503146Y-114097587D01*
X142573721Y-114120105D01*
X142534991Y-114146886D01*
X142384466Y-114176108D01*
X142119656Y-114205951D01*
X141753869Y-114258060D01*
X141223769Y-114386201D01*
X140682505Y-114569044D01*
X140162047Y-114793919D01*
X139694363Y-115048153D01*
X139311422Y-115319074D01*
X139309365Y-115320788D01*
X139076665Y-115492691D01*
X138897463Y-115571159D01*
X138759050Y-115558866D01*
X138648714Y-115458485D01*
X138618424Y-115411372D01*
X138559077Y-115235885D01*
X138595333Y-115069092D01*
X138731333Y-114907160D01*
X138971221Y-114746256D01*
X139319136Y-114582547D01*
X139779220Y-114412199D01*
X140135150Y-114301039D01*
X140707829Y-114167551D01*
X141292168Y-114093696D01*
X141936336Y-114071873D01*
X142044044Y-114072626D01*
G37*
G36*
X138550231Y-89966525D02*
G01*
X138740285Y-90009561D01*
X138968980Y-90073232D01*
X139198165Y-90146009D01*
X139389687Y-90216363D01*
X139505393Y-90272766D01*
X139516727Y-90281110D01*
X139542547Y-90311054D01*
X139536817Y-90345506D01*
X139488766Y-90390519D01*
X139387621Y-90452149D01*
X139222611Y-90536451D01*
X138982963Y-90649480D01*
X138657906Y-90797292D01*
X138236668Y-90985941D01*
X138089213Y-91051091D01*
X137811770Y-91169924D01*
X137577065Y-91265582D01*
X137406246Y-91329584D01*
X137320459Y-91353445D01*
X137295705Y-91353263D01*
X137201215Y-91317448D01*
X137204189Y-91232122D01*
X137305496Y-91111306D01*
X137509076Y-90924390D01*
X137804913Y-90619069D01*
X138079522Y-90284122D01*
X138179705Y-90160485D01*
X138336726Y-90007095D01*
X138452767Y-89954696D01*
X138550231Y-89966525D01*
G37*
G36*
X137281003Y-89939123D02*
G01*
X137287290Y-89948257D01*
X137275691Y-90041179D01*
X137198295Y-90195361D01*
X137069450Y-90393056D01*
X136903509Y-90616514D01*
X136714823Y-90847987D01*
X136517741Y-91069729D01*
X136326616Y-91263991D01*
X136155797Y-91413025D01*
X136019636Y-91499082D01*
X135854214Y-91596666D01*
X135701087Y-91728090D01*
X135638154Y-91793378D01*
X135534686Y-91868445D01*
X135460807Y-91847271D01*
X135391536Y-91730012D01*
X135366685Y-91670710D01*
X135357362Y-91581066D01*
X135421985Y-91522742D01*
X135511319Y-91442816D01*
X135603072Y-91309380D01*
X135676733Y-91198092D01*
X135822660Y-91025457D01*
X136011676Y-90828730D01*
X136223557Y-90626371D01*
X136438077Y-90436844D01*
X136635011Y-90278610D01*
X136794134Y-90170130D01*
X136895222Y-90129868D01*
X136896560Y-90129824D01*
X136971589Y-90091248D01*
X137080459Y-90002182D01*
X137098976Y-89985206D01*
X137206298Y-89916230D01*
X137281003Y-89939123D01*
G37*
G36*
X143014934Y-128075359D02*
G01*
X143333844Y-128123046D01*
X143723100Y-128202385D01*
X144171634Y-128311982D01*
X144362408Y-128361066D01*
X144669659Y-128436365D01*
X144934079Y-128496592D01*
X145132386Y-128536544D01*
X145241296Y-128551017D01*
X145319016Y-128567364D01*
X145491337Y-128667764D01*
X145699457Y-128845882D01*
X145930873Y-129085785D01*
X146173083Y-129371539D01*
X146413583Y-129687213D01*
X146639872Y-130016873D01*
X146839446Y-130344586D01*
X146999804Y-130654420D01*
X147108443Y-130930443D01*
X147120360Y-130973176D01*
X147117106Y-131023339D01*
X147064301Y-131049777D01*
X146939538Y-131060075D01*
X146720405Y-131061822D01*
X146291676Y-131061822D01*
X145855206Y-130619102D01*
X145011346Y-129832425D01*
X144061425Y-129094772D01*
X143034379Y-128439685D01*
X142925931Y-128375098D01*
X142747802Y-128258318D01*
X142629639Y-128165723D01*
X142592771Y-128113086D01*
X142632425Y-128080518D01*
X142777439Y-128060719D01*
X143014934Y-128075359D01*
G37*
G36*
X140084914Y-92861520D02*
G01*
X140156727Y-92923875D01*
X140218093Y-92997402D01*
X140245657Y-93088478D01*
X140247590Y-93230056D01*
X140232061Y-93455092D01*
X140203093Y-93729380D01*
X140142230Y-94017758D01*
X140039026Y-94289193D01*
X139876973Y-94596765D01*
X139818588Y-94698521D01*
X139617771Y-95047958D01*
X139463516Y-95314132D01*
X139346600Y-95511491D01*
X139257801Y-95654483D01*
X139187898Y-95757557D01*
X139127667Y-95835161D01*
X139067887Y-95901743D01*
X138999336Y-95971752D01*
X138960438Y-96007254D01*
X138796216Y-96083132D01*
X138637766Y-96045343D01*
X138498786Y-95895960D01*
X138465578Y-95830666D01*
X138401553Y-95581981D01*
X138381365Y-95262524D01*
X138400336Y-94895718D01*
X138453791Y-94504983D01*
X138537051Y-94113742D01*
X138645441Y-93745418D01*
X138774283Y-93423432D01*
X138918900Y-93171207D01*
X139074616Y-93012165D01*
X139164297Y-92963799D01*
X139351354Y-92884805D01*
X139563213Y-92811984D01*
X139903573Y-92708931D01*
X140084914Y-92861520D01*
G37*
G36*
X147176198Y-124281525D02*
G01*
X147357699Y-124337712D01*
X147387582Y-124355344D01*
X147523290Y-124494087D01*
X147584800Y-124666594D01*
X147555849Y-124832274D01*
X147544813Y-124855122D01*
X147520304Y-124949218D01*
X147516786Y-125086180D01*
X147534873Y-125289895D01*
X147575178Y-125584250D01*
X147606836Y-125832289D01*
X147645347Y-126307392D01*
X147663484Y-126818014D01*
X147662238Y-127342506D01*
X147642598Y-127859224D01*
X147605554Y-128346521D01*
X147552098Y-128782751D01*
X147483219Y-129146268D01*
X147399908Y-129415425D01*
X147390249Y-129438270D01*
X147332879Y-129556251D01*
X147292308Y-129580175D01*
X147248849Y-129524220D01*
X147235683Y-129484100D01*
X147221763Y-129339525D01*
X147220976Y-129097540D01*
X147233372Y-128751942D01*
X147259004Y-128296526D01*
X147266929Y-128163996D01*
X147292710Y-127420135D01*
X147279620Y-126762051D01*
X147226659Y-126168502D01*
X147132827Y-125618245D01*
X147069731Y-125436257D01*
X146941728Y-125239387D01*
X146782577Y-125100291D01*
X146618078Y-125047569D01*
X146589732Y-125044394D01*
X146504533Y-124975172D01*
X146466288Y-124839970D01*
X146474505Y-124671407D01*
X146528693Y-124502098D01*
X146628361Y-124364660D01*
X146758296Y-124300334D01*
X146959864Y-124269676D01*
X147176198Y-124281525D01*
G37*
G36*
X151987702Y-128679593D02*
G01*
X151968240Y-128741524D01*
X151916753Y-128881722D01*
X151844456Y-129069565D01*
X151844140Y-129070372D01*
X151628386Y-129547875D01*
X151337272Y-130078392D01*
X150983657Y-130638489D01*
X150699546Y-131061822D01*
X150117417Y-131061822D01*
X150020150Y-131061268D01*
X149756557Y-131051703D01*
X149592049Y-131030968D01*
X149535288Y-130999985D01*
X149527929Y-130976523D01*
X149467876Y-130979812D01*
X149434852Y-130994062D01*
X149442715Y-130953110D01*
X149465163Y-130927420D01*
X149536393Y-130916528D01*
X149586702Y-130910592D01*
X149646666Y-130835401D01*
X149683584Y-130728908D01*
X149674604Y-130637282D01*
X149660435Y-130607236D01*
X149681264Y-130608922D01*
X149741517Y-130606733D01*
X149809299Y-130535419D01*
X149855102Y-130436302D01*
X149850799Y-130352008D01*
X149837236Y-130322196D01*
X149869785Y-130322142D01*
X149876727Y-130324040D01*
X149938730Y-130276792D01*
X150032007Y-130148022D01*
X150141309Y-129958170D01*
X150150589Y-129940549D01*
X150263620Y-129738178D01*
X150352887Y-129616629D01*
X150440829Y-129551823D01*
X150549884Y-129519677D01*
X150559273Y-129517783D01*
X150741651Y-129451433D01*
X150970272Y-129331278D01*
X151207726Y-129180885D01*
X151416605Y-129023821D01*
X151559500Y-128883652D01*
X151605385Y-128836287D01*
X151719634Y-128754005D01*
X151844999Y-128689233D01*
X151946136Y-128658815D01*
X151987702Y-128679593D01*
G37*
G36*
X161794703Y-96974423D02*
G01*
X162013229Y-97037575D01*
X162193717Y-97173190D01*
X162371422Y-97401123D01*
X162396251Y-97438320D01*
X162554359Y-97687796D01*
X162667106Y-97903864D01*
X162743015Y-98116556D01*
X162790605Y-98355903D01*
X162818398Y-98651937D01*
X162834914Y-99034688D01*
X162840046Y-99255396D01*
X162838599Y-99625293D01*
X162822922Y-99912803D01*
X162793665Y-100101087D01*
X162784583Y-100132926D01*
X162635834Y-100438554D01*
X162404128Y-100672124D01*
X162105991Y-100821308D01*
X161757950Y-100873776D01*
X161616015Y-100895487D01*
X161472770Y-100960341D01*
X161370699Y-101016554D01*
X161245814Y-101024471D01*
X161171545Y-100952513D01*
X161172736Y-100922308D01*
X161243527Y-100847003D01*
X161381957Y-100774588D01*
X161554969Y-100720107D01*
X161729502Y-100698604D01*
X161857570Y-100687110D01*
X162122646Y-100603507D01*
X162361200Y-100458767D01*
X162528518Y-100276511D01*
X162568068Y-100202278D01*
X162601336Y-100104947D01*
X162623344Y-99975177D01*
X162636314Y-99791890D01*
X162642467Y-99534005D01*
X162644024Y-99180443D01*
X162644024Y-98275385D01*
X162369396Y-97775082D01*
X162237911Y-97547762D01*
X162091596Y-97342769D01*
X161950382Y-97217131D01*
X161794101Y-97154058D01*
X161602588Y-97136765D01*
X161576409Y-97137675D01*
X161388478Y-97173736D01*
X161198877Y-97246091D01*
X161147579Y-97270909D01*
X161019368Y-97319646D01*
X160952967Y-97323945D01*
X160935542Y-97301363D01*
X160939747Y-97213112D01*
X161030220Y-97122346D01*
X161184335Y-97041837D01*
X161379467Y-96984354D01*
X161592990Y-96962671D01*
X161794703Y-96974423D01*
G37*
G36*
X145837297Y-112091264D02*
G01*
X145984989Y-112121972D01*
X146124270Y-112194230D01*
X146303618Y-112325332D01*
X146543479Y-112535428D01*
X146840633Y-112890102D01*
X147059191Y-113277440D01*
X147195963Y-113681346D01*
X147247760Y-114085721D01*
X147211392Y-114474466D01*
X147083671Y-114831485D01*
X146861406Y-115140678D01*
X146639953Y-115341811D01*
X146386456Y-115495370D01*
X146111220Y-115573350D01*
X145795643Y-115578076D01*
X145421123Y-115511872D01*
X144969057Y-115377061D01*
X144768244Y-115310804D01*
X144503848Y-115235763D01*
X144307419Y-115205793D01*
X144153951Y-115221171D01*
X144018440Y-115282170D01*
X143875881Y-115389065D01*
X143823046Y-115435506D01*
X143740646Y-115535972D01*
X143704334Y-115660081D01*
X143696208Y-115854176D01*
X143696356Y-115886706D01*
X143711305Y-116082598D01*
X143764255Y-116225539D01*
X143874299Y-116370938D01*
X143897622Y-116396717D01*
X144139727Y-116585096D01*
X144430538Y-116676304D01*
X144784283Y-116675096D01*
X144910633Y-116662985D01*
X145045306Y-116658805D01*
X145097587Y-116670343D01*
X145093941Y-116691976D01*
X145031702Y-116801319D01*
X144917070Y-116935735D01*
X144782303Y-117060551D01*
X144659656Y-117141092D01*
X144608042Y-117160202D01*
X144415109Y-117202824D01*
X144204347Y-117220916D01*
X144197320Y-117220967D01*
X144040645Y-117214188D01*
X143922250Y-117178567D01*
X143803260Y-117094853D01*
X143644799Y-116943791D01*
X143615020Y-116913373D01*
X143364379Y-116578652D01*
X143218194Y-116201334D01*
X143170909Y-115767627D01*
X143173698Y-115672555D01*
X143234245Y-115368395D01*
X143378009Y-115140216D01*
X143610457Y-114978198D01*
X143697518Y-114939364D01*
X143801353Y-114909025D01*
X143919587Y-114903692D01*
X144085567Y-114922789D01*
X144332638Y-114965743D01*
X144375090Y-114973503D01*
X144725565Y-115035906D01*
X144985282Y-115077221D01*
X145175727Y-115099252D01*
X145318390Y-115103805D01*
X145434759Y-115092684D01*
X145546321Y-115067694D01*
X145674777Y-115022786D01*
X145933066Y-114847982D01*
X146126056Y-114579719D01*
X146251485Y-114221829D01*
X146307094Y-113778144D01*
X146308007Y-113576817D01*
X146270353Y-113202293D01*
X146186679Y-112868810D01*
X146064127Y-112600741D01*
X145909840Y-112422461D01*
X145804650Y-112357415D01*
X145568528Y-112269151D01*
X145324326Y-112233975D01*
X145121560Y-112261969D01*
X145032163Y-112291349D01*
X144947581Y-112297827D01*
X144965026Y-112255419D01*
X145089261Y-112176702D01*
X145154886Y-112149596D01*
X145369396Y-112102396D01*
X145629409Y-112084811D01*
X145632714Y-112084811D01*
X145837297Y-112091264D01*
G37*
G36*
X161555027Y-109195829D02*
G01*
X161401940Y-109368620D01*
X161144430Y-109548024D01*
X161062865Y-109597623D01*
X160844249Y-109734005D01*
X160569182Y-109908611D01*
X160264752Y-110104192D01*
X159958047Y-110303499D01*
X159706349Y-110467628D01*
X159342533Y-110702107D01*
X159049739Y-110885965D01*
X158811870Y-111028744D01*
X158612825Y-111139988D01*
X158436507Y-111229240D01*
X158266815Y-111306044D01*
X158155919Y-111349160D01*
X157948330Y-111410943D01*
X157784336Y-111437424D01*
X157767976Y-111437757D01*
X157666431Y-111430707D01*
X157587245Y-111397893D01*
X157527032Y-111326313D01*
X157482402Y-111202966D01*
X157449967Y-111014851D01*
X157426338Y-110748965D01*
X157408126Y-110392309D01*
X157391944Y-109931880D01*
X157379929Y-109542634D01*
X157371770Y-109225300D01*
X157369973Y-109044235D01*
X157547645Y-109044235D01*
X157570728Y-109369638D01*
X157576667Y-109446858D01*
X157598463Y-109807370D01*
X157614600Y-110194740D01*
X157621941Y-110537454D01*
X157624701Y-110699682D01*
X157635281Y-110932998D01*
X157651536Y-111107557D01*
X157671286Y-111194351D01*
X157704475Y-111228406D01*
X157815631Y-111264660D01*
X157870010Y-111256371D01*
X158045474Y-111196503D01*
X158284996Y-111088418D01*
X158566146Y-110943383D01*
X158866493Y-110772665D01*
X159163606Y-110587533D01*
X159218046Y-110551892D01*
X159641339Y-110275100D01*
X159983032Y-110052470D01*
X160257356Y-109874881D01*
X160478543Y-109733211D01*
X160660825Y-109618337D01*
X160818432Y-109521137D01*
X160965597Y-109432489D01*
X161156611Y-109309665D01*
X161347403Y-109149555D01*
X161426362Y-109016933D01*
X161392849Y-108912578D01*
X161335475Y-108892294D01*
X161164399Y-108868087D01*
X160889748Y-108845668D01*
X160518853Y-108825610D01*
X160059048Y-108808485D01*
X159871342Y-108802066D01*
X159364119Y-108778098D01*
X158908585Y-108746834D01*
X158526430Y-108709936D01*
X158239344Y-108669065D01*
X158093079Y-108642932D01*
X157848788Y-108609106D01*
X157686226Y-108617521D01*
X157591266Y-108682979D01*
X157549782Y-108820283D01*
X157547645Y-109044235D01*
X157369973Y-109044235D01*
X157369467Y-108993271D01*
X157374084Y-108830330D01*
X157386688Y-108720259D01*
X157408345Y-108646842D01*
X157440119Y-108593861D01*
X157483078Y-108545099D01*
X157518464Y-108508872D01*
X157587326Y-108454785D01*
X157671240Y-108423822D01*
X157790168Y-108415570D01*
X157964073Y-108429619D01*
X158212919Y-108465556D01*
X158556668Y-108522971D01*
X158709953Y-108547599D01*
X159155312Y-108600972D01*
X159643961Y-108631916D01*
X160212010Y-108643049D01*
X160314660Y-108643589D01*
X160747616Y-108652004D01*
X161078186Y-108671638D01*
X161318052Y-108704688D01*
X161478894Y-108753355D01*
X161572395Y-108819839D01*
X161610237Y-108906339D01*
X161614142Y-109015252D01*
X161613592Y-109016933D01*
X161555027Y-109195829D01*
G37*
G36*
X162282650Y-74604298D02*
G01*
X162486840Y-74643924D01*
X162728985Y-74708887D01*
X162963959Y-74786462D01*
X163146639Y-74863927D01*
X163159079Y-74870630D01*
X163304012Y-74968444D01*
X163489559Y-75116837D01*
X163678764Y-75286467D01*
X163752080Y-75356986D01*
X163894644Y-75504508D01*
X163974183Y-75617016D01*
X164008703Y-75725074D01*
X164016208Y-75859245D01*
X164024854Y-76000428D01*
X164078717Y-76145112D01*
X164205978Y-76287441D01*
X164220320Y-76300900D01*
X164303583Y-76387061D01*
X164357935Y-76474779D01*
X164392231Y-76592815D01*
X164415325Y-76769929D01*
X164436070Y-77034884D01*
X164443510Y-77162410D01*
X164455161Y-77429549D01*
X164467659Y-77782047D01*
X164480454Y-78201519D01*
X164492996Y-78669578D01*
X164504735Y-79167839D01*
X164515121Y-79677914D01*
X164522056Y-80063101D01*
X164529642Y-80556794D01*
X164533485Y-80955621D01*
X164533293Y-81272744D01*
X164528773Y-81521326D01*
X164519634Y-81714528D01*
X164505585Y-81865513D01*
X164486334Y-81987442D01*
X164461588Y-82093479D01*
X164415470Y-82249415D01*
X164355425Y-82416381D01*
X164307783Y-82510325D01*
X164236938Y-82558616D01*
X164089172Y-82617619D01*
X163914983Y-82666366D01*
X163758885Y-82692772D01*
X163665390Y-82684748D01*
X163654723Y-82681477D01*
X163552548Y-82686748D01*
X163376532Y-82716646D01*
X163157466Y-82766233D01*
X162920582Y-82822507D01*
X162608309Y-82892190D01*
X162262427Y-82966130D01*
X161923605Y-83035452D01*
X161884091Y-83043395D01*
X161573008Y-83110837D01*
X161285235Y-83181093D01*
X161051309Y-83246299D01*
X160901766Y-83298593D01*
X160727025Y-83373333D01*
X160624505Y-83404061D01*
X160580508Y-83388404D01*
X160571150Y-83328526D01*
X160574936Y-83293775D01*
X160601081Y-83240755D01*
X160659932Y-83189469D01*
X160760614Y-83137359D01*
X160912252Y-83081868D01*
X161123970Y-83020437D01*
X161404892Y-82950510D01*
X161764142Y-82869528D01*
X162210844Y-82774934D01*
X162754124Y-82664170D01*
X163403104Y-82534679D01*
X163626650Y-82488948D01*
X163863725Y-82436968D01*
X164040312Y-82394233D01*
X164129287Y-82367006D01*
X164175173Y-82312694D01*
X164238438Y-82170899D01*
X164294901Y-81980322D01*
X164301129Y-81952648D01*
X164323571Y-81820520D01*
X164339890Y-81653900D01*
X164350369Y-81439087D01*
X164355291Y-81162381D01*
X164354941Y-80810081D01*
X164349602Y-80368484D01*
X164339558Y-79823891D01*
X164337709Y-79735171D01*
X164326428Y-79243621D01*
X164313657Y-78757074D01*
X164300088Y-78297882D01*
X164286415Y-77888397D01*
X164273331Y-77550972D01*
X164261530Y-77307960D01*
X164245668Y-77048053D01*
X164227173Y-76828013D01*
X164202837Y-76677374D01*
X164166263Y-76570577D01*
X164111052Y-76482063D01*
X164030806Y-76386273D01*
X163965228Y-76306577D01*
X163868380Y-76133156D01*
X163841035Y-75945566D01*
X163839175Y-75882582D01*
X163818068Y-75776069D01*
X163759543Y-75671887D01*
X163646517Y-75543926D01*
X163461908Y-75366074D01*
X163414111Y-75321956D01*
X163168209Y-75120938D01*
X162925369Y-74979443D01*
X162645646Y-74878107D01*
X162289095Y-74797569D01*
X162160000Y-74750412D01*
X162093571Y-74683419D01*
X162104175Y-74623722D01*
X162203244Y-74597914D01*
X162282650Y-74604298D01*
G37*
G36*
X162288809Y-94870673D02*
G01*
X162477903Y-94886899D01*
X162926874Y-94989558D01*
X163328805Y-95187756D01*
X163707942Y-95492111D01*
X163826638Y-95613233D01*
X163951876Y-95776720D01*
X164050225Y-95969763D01*
X164146764Y-96234805D01*
X164201610Y-96407152D01*
X164287694Y-96713930D01*
X164359035Y-97029411D01*
X164417415Y-97369033D01*
X164464610Y-97748231D01*
X164502401Y-98182442D01*
X164532566Y-98687103D01*
X164556883Y-99277650D01*
X164577132Y-99969520D01*
X164581923Y-100166983D01*
X164591645Y-100656689D01*
X164595348Y-101045467D01*
X164592837Y-101344957D01*
X164583916Y-101566796D01*
X164568390Y-101722622D01*
X164546066Y-101824073D01*
X164507881Y-101926588D01*
X164448727Y-102034455D01*
X164364569Y-102125695D01*
X164242556Y-102205610D01*
X164069835Y-102279503D01*
X163833555Y-102352678D01*
X163520861Y-102430438D01*
X163118904Y-102518085D01*
X162614829Y-102620923D01*
X162281161Y-102688423D01*
X161877982Y-102771528D01*
X161512428Y-102848533D01*
X161203738Y-102915324D01*
X160971152Y-102967787D01*
X160833909Y-103001807D01*
X160786762Y-103014620D01*
X160566621Y-103068591D01*
X160293782Y-103129495D01*
X160016438Y-103186447D01*
X159923797Y-103206004D01*
X159598886Y-103289835D01*
X159249301Y-103397478D01*
X158936208Y-103510578D01*
X158676658Y-103610524D01*
X158451249Y-103684283D01*
X158306451Y-103709969D01*
X158229173Y-103689643D01*
X158206323Y-103625361D01*
X158234861Y-103583258D01*
X158350546Y-103513336D01*
X158527472Y-103444338D01*
X158640844Y-103407013D01*
X158904789Y-103313989D01*
X159140576Y-103224075D01*
X159169613Y-103212776D01*
X159385386Y-103142423D01*
X159655629Y-103069624D01*
X159928852Y-103008463D01*
X159952063Y-103003867D01*
X160253198Y-102940007D01*
X160568697Y-102866994D01*
X160833909Y-102799736D01*
X160907765Y-102780749D01*
X161132300Y-102728171D01*
X161437851Y-102660853D01*
X161801841Y-102583626D01*
X162201692Y-102501319D01*
X162614829Y-102418761D01*
X162860388Y-102369508D01*
X163235367Y-102290449D01*
X163567011Y-102215888D01*
X163837453Y-102150058D01*
X164028828Y-102097190D01*
X164123269Y-102061514D01*
X164141757Y-102048337D01*
X164256278Y-101923504D01*
X164351172Y-101759694D01*
X164368568Y-101714418D01*
X164389615Y-101635168D01*
X164404625Y-101530947D01*
X164413761Y-101388653D01*
X164417180Y-101195187D01*
X164415042Y-100937446D01*
X164407507Y-100602330D01*
X164394734Y-100176738D01*
X164376883Y-99647569D01*
X164367649Y-99393775D01*
X164348865Y-98936106D01*
X164328910Y-98514947D01*
X164308697Y-98146343D01*
X164289137Y-97846338D01*
X164271145Y-97630978D01*
X164255632Y-97516305D01*
X164255137Y-97514211D01*
X164215108Y-97336289D01*
X164163617Y-97096026D01*
X164111680Y-96844811D01*
X164051212Y-96594205D01*
X163965319Y-96310774D01*
X163877515Y-96078210D01*
X163801442Y-95930896D01*
X163552265Y-95614702D01*
X163226172Y-95359097D01*
X162843921Y-95172730D01*
X162426269Y-95064254D01*
X161993974Y-95042320D01*
X161567794Y-95115578D01*
X161464436Y-95146030D01*
X161293883Y-95191742D01*
X161201114Y-95202978D01*
X161162661Y-95180210D01*
X161155058Y-95123913D01*
X161171141Y-95081496D01*
X161278551Y-95007151D01*
X161467177Y-94943724D01*
X161713864Y-94896388D01*
X161995460Y-94870314D01*
X162288809Y-94870673D01*
G37*
G36*
X164167814Y-84186355D02*
G01*
X164250047Y-84214460D01*
X164296543Y-84271576D01*
X164307496Y-84315137D01*
X164325733Y-84467695D01*
X164344486Y-84708049D01*
X164362632Y-85018586D01*
X164379050Y-85381692D01*
X164392617Y-85779753D01*
X164399240Y-86007065D01*
X164411503Y-86412373D01*
X164423352Y-86785750D01*
X164434088Y-87105995D01*
X164443013Y-87351906D01*
X164449426Y-87502282D01*
X164451727Y-87562006D01*
X164456276Y-87754272D01*
X164460977Y-88037444D01*
X164465623Y-88394673D01*
X164470005Y-88809106D01*
X164473915Y-89263895D01*
X164477143Y-89742186D01*
X164478874Y-90045195D01*
X164480722Y-90543040D01*
X164478936Y-90942420D01*
X164471490Y-91255370D01*
X164456355Y-91493924D01*
X164431505Y-91670117D01*
X164394911Y-91795983D01*
X164344547Y-91883557D01*
X164278386Y-91944871D01*
X164194398Y-91991962D01*
X164090559Y-92036862D01*
X164031469Y-92058487D01*
X163840248Y-92114051D01*
X163590716Y-92174972D01*
X163321422Y-92231494D01*
X163188703Y-92257897D01*
X162932755Y-92313940D01*
X162719716Y-92367033D01*
X162585633Y-92408503D01*
X162525034Y-92429758D01*
X162330791Y-92482006D01*
X162118507Y-92524063D01*
X162022378Y-92537795D01*
X161829583Y-92557623D01*
X161693358Y-92561604D01*
X161665520Y-92559235D01*
X161569096Y-92530044D01*
X161572626Y-92483382D01*
X161665650Y-92431832D01*
X161837705Y-92387978D01*
X161995619Y-92356110D01*
X162248837Y-92295128D01*
X162498047Y-92226397D01*
X162533824Y-92215954D01*
X162793020Y-92148191D01*
X163098587Y-92077834D01*
X163391765Y-92018548D01*
X163436653Y-92009990D01*
X163708281Y-91945744D01*
X163939478Y-91871125D01*
X164092455Y-91798026D01*
X164278967Y-91672099D01*
X164270506Y-89630984D01*
X164269873Y-89499085D01*
X164265329Y-88910201D01*
X164258080Y-88280518D01*
X164248629Y-87641553D01*
X164237481Y-87024821D01*
X164225142Y-86461838D01*
X164212115Y-85984121D01*
X164162185Y-84378374D01*
X163887875Y-84360701D01*
X163882040Y-84360342D01*
X163638937Y-84372839D01*
X163441476Y-84432019D01*
X163421362Y-84441922D01*
X163235709Y-84510513D01*
X163033298Y-84558762D01*
X162984951Y-84568277D01*
X162834007Y-84622612D01*
X162749812Y-84691812D01*
X162749772Y-84691894D01*
X162740258Y-84768419D01*
X162731382Y-84949850D01*
X162723340Y-85224364D01*
X162716325Y-85580135D01*
X162710530Y-86005338D01*
X162706151Y-86488150D01*
X162703381Y-87016744D01*
X162702415Y-87579296D01*
X162702570Y-87867415D01*
X162703566Y-88477765D01*
X162703924Y-88985114D01*
X162701760Y-89399166D01*
X162695190Y-89729625D01*
X162682327Y-89986196D01*
X162661289Y-90178584D01*
X162630189Y-90316491D01*
X162587144Y-90409624D01*
X162530269Y-90467685D01*
X162457678Y-90500380D01*
X162367488Y-90517412D01*
X162257814Y-90528486D01*
X162126770Y-90543307D01*
X161959251Y-90566846D01*
X161773246Y-90593201D01*
X161657665Y-90609849D01*
X161592237Y-90607162D01*
X161522572Y-90556658D01*
X161535464Y-90515267D01*
X161652273Y-90453380D01*
X161885488Y-90389539D01*
X162235288Y-90323685D01*
X162527242Y-90275845D01*
X162527242Y-87499172D01*
X162527267Y-87315380D01*
X162527880Y-86693417D01*
X162529553Y-86175603D01*
X162532599Y-85751954D01*
X162537333Y-85412489D01*
X162544066Y-85147225D01*
X162553112Y-84946180D01*
X162564784Y-84799372D01*
X162579396Y-84696817D01*
X162597261Y-84628534D01*
X162618691Y-84584540D01*
X162722905Y-84490918D01*
X162928660Y-84388900D01*
X163202521Y-84299410D01*
X163518626Y-84230706D01*
X163851109Y-84191045D01*
X164020664Y-84181985D01*
X164167814Y-84186355D01*
G37*
G36*
X158042636Y-106448659D02*
G01*
X158299726Y-106479095D01*
X158374386Y-106488607D01*
X158626650Y-106514686D01*
X158948409Y-106542224D01*
X159306083Y-106568477D01*
X159666093Y-106590702D01*
X159755456Y-106595737D01*
X160117747Y-106619718D01*
X160391861Y-106646213D01*
X160601433Y-106678705D01*
X160770099Y-106720675D01*
X160921495Y-106775603D01*
X160950487Y-106787435D01*
X161080859Y-106833705D01*
X161222420Y-106868701D01*
X161396286Y-106895018D01*
X161623573Y-106915250D01*
X161925397Y-106931994D01*
X162322875Y-106947845D01*
X162711608Y-106963875D01*
X163205441Y-106995754D01*
X163601401Y-107043806D01*
X163910809Y-107115681D01*
X164144984Y-107219029D01*
X164315246Y-107361500D01*
X164432916Y-107550744D01*
X164509314Y-107794411D01*
X164555758Y-108100152D01*
X164583571Y-108475616D01*
X164594050Y-108725235D01*
X164589517Y-109010413D01*
X164553539Y-109222555D01*
X164477378Y-109386942D01*
X164352299Y-109528854D01*
X164169563Y-109673572D01*
X164130827Y-109702078D01*
X163929949Y-109860878D01*
X163698306Y-110056722D01*
X163478602Y-110253755D01*
X163053253Y-110614888D01*
X162549343Y-110955161D01*
X161973896Y-111255676D01*
X161942704Y-111270312D01*
X161704591Y-111391086D01*
X161486291Y-111515514D01*
X161331597Y-111618837D01*
X161326614Y-111622656D01*
X161215122Y-111698372D01*
X161019118Y-111822543D01*
X160753867Y-111985853D01*
X160434635Y-112178985D01*
X160076687Y-112392623D01*
X159695288Y-112617450D01*
X159303334Y-112849295D01*
X158924686Y-113077417D01*
X158577302Y-113290690D01*
X158278669Y-113478262D01*
X158046275Y-113629283D01*
X157897608Y-113732901D01*
X157705697Y-113864571D01*
X157437861Y-114028990D01*
X157134739Y-114201394D01*
X156832144Y-114360683D01*
X156819002Y-114367280D01*
X156405411Y-114578754D01*
X156002763Y-114791497D01*
X155629880Y-114995055D01*
X155305585Y-115178973D01*
X155048700Y-115332797D01*
X154878047Y-115446072D01*
X154762804Y-115522360D01*
X154565731Y-115637722D01*
X154352530Y-115750968D01*
X154179823Y-115849949D01*
X153992872Y-115985140D01*
X153869058Y-116107750D01*
X153830607Y-116157715D01*
X153720053Y-116266227D01*
X153648242Y-116275629D01*
X153622645Y-116183621D01*
X153626132Y-116156176D01*
X153698032Y-116025764D01*
X153844571Y-115872640D01*
X154041594Y-115719212D01*
X154264944Y-115587884D01*
X154338171Y-115550359D01*
X154539753Y-115436427D01*
X154702875Y-115330855D01*
X154810303Y-115256412D01*
X155111757Y-115068089D01*
X155510365Y-114839570D01*
X155999211Y-114574754D01*
X156571380Y-114277538D01*
X156737479Y-114191283D01*
X157066820Y-114012481D01*
X157377305Y-113834647D01*
X157640203Y-113674464D01*
X157826783Y-113548615D01*
X157831057Y-113545442D01*
X157956268Y-113454383D01*
X158090591Y-113361181D01*
X158245503Y-113258758D01*
X158432480Y-113140037D01*
X158662998Y-112997942D01*
X158948533Y-112825395D01*
X159300561Y-112615319D01*
X159730558Y-112360636D01*
X160250001Y-112054271D01*
X160470947Y-111923244D01*
X160757409Y-111750711D01*
X161005696Y-111598190D01*
X161194880Y-111478576D01*
X161304035Y-111404765D01*
X161410918Y-111334459D01*
X161609930Y-111223549D01*
X161825180Y-111119492D01*
X161977715Y-111047997D01*
X162463867Y-110773979D01*
X162945039Y-110440202D01*
X163374245Y-110078249D01*
X163418195Y-110037250D01*
X163636766Y-109843420D01*
X163855334Y-109663006D01*
X164032490Y-109530465D01*
X164135952Y-109456190D01*
X164271382Y-109330974D01*
X164356734Y-109189787D01*
X164400098Y-109007765D01*
X164409563Y-108760042D01*
X164393220Y-108421754D01*
X164367514Y-108112401D01*
X164325314Y-107838708D01*
X164256149Y-107627269D01*
X164147189Y-107469416D01*
X163985605Y-107356478D01*
X163758567Y-107279784D01*
X163453246Y-107230665D01*
X163056813Y-107200451D01*
X162556438Y-107180472D01*
X162185158Y-107167772D01*
X161871281Y-107153591D01*
X161631977Y-107136405D01*
X161445215Y-107113442D01*
X161288966Y-107081933D01*
X161141199Y-107039106D01*
X160979886Y-106982191D01*
X160814006Y-106924469D01*
X160641776Y-106876501D01*
X160454655Y-106840780D01*
X160227180Y-106813513D01*
X159933886Y-106790910D01*
X159549311Y-106769179D01*
X159262951Y-106753411D01*
X158786896Y-106720630D01*
X158416813Y-106684527D01*
X158145558Y-106644156D01*
X157965987Y-106598570D01*
X157870955Y-106546822D01*
X157851967Y-106526440D01*
X157829080Y-106470701D01*
X157889195Y-106445317D01*
X158042636Y-106448659D01*
G37*
G36*
X163609527Y-115268172D02*
G01*
X163682179Y-115311548D01*
X163813790Y-115432713D01*
X163931052Y-115612749D01*
X164044917Y-115870468D01*
X164166335Y-116224682D01*
X164186691Y-116287843D01*
X164283520Y-116562278D01*
X164386662Y-116822252D01*
X164476978Y-117018834D01*
X164496078Y-117055801D01*
X164549714Y-117170338D01*
X164586641Y-117282741D01*
X164609963Y-117416792D01*
X164622780Y-117596272D01*
X164628196Y-117844964D01*
X164629311Y-118186650D01*
X164629287Y-118212128D01*
X164595999Y-119067688D01*
X164498365Y-119830932D01*
X164334458Y-120508100D01*
X164102351Y-121105434D01*
X163800118Y-121629174D01*
X163425832Y-122085562D01*
X163262483Y-122255530D01*
X163109346Y-122416854D01*
X163004069Y-122529950D01*
X162987752Y-122546718D01*
X162828017Y-122665352D01*
X162590402Y-122796817D01*
X162304955Y-122925900D01*
X162001725Y-123037388D01*
X161840031Y-123076973D01*
X161499825Y-123111763D01*
X161113422Y-123104597D01*
X160720642Y-123054931D01*
X160165969Y-122908364D01*
X159691143Y-122686138D01*
X159301903Y-122387994D01*
X158995101Y-122012030D01*
X158954275Y-121943484D01*
X158842362Y-121728021D01*
X158707998Y-121443598D01*
X158563133Y-121118108D01*
X158419713Y-120779444D01*
X158289686Y-120455501D01*
X158184999Y-120174173D01*
X158117601Y-119963353D01*
X158107290Y-119927392D01*
X158047057Y-119767426D01*
X157985814Y-119663645D01*
X157916725Y-119571963D01*
X157833830Y-119431783D01*
X157756715Y-119317399D01*
X157621664Y-119153846D01*
X157461059Y-118981769D01*
X157391605Y-118913486D01*
X157217889Y-118766515D01*
X157054395Y-118678494D01*
X156857078Y-118623282D01*
X156751420Y-118605711D01*
X156500370Y-118587413D01*
X156280998Y-118598202D01*
X156278221Y-118598617D01*
X156114583Y-118616066D01*
X156036564Y-118600417D01*
X156016668Y-118546270D01*
X156044921Y-118491126D01*
X156163540Y-118436034D01*
X156350126Y-118405592D01*
X156577842Y-118400044D01*
X156819851Y-118419633D01*
X157049314Y-118464602D01*
X157239392Y-118535194D01*
X157402985Y-118651999D01*
X157601629Y-118844192D01*
X157805890Y-119080155D01*
X157990125Y-119330202D01*
X158128691Y-119564649D01*
X158159647Y-119629901D01*
X158251282Y-119837422D01*
X158367203Y-120112965D01*
X158495688Y-120428401D01*
X158625013Y-120755600D01*
X158671901Y-120874687D01*
X158893157Y-121388197D01*
X159112179Y-121801947D01*
X159341454Y-122128988D01*
X159593470Y-122382373D01*
X159880715Y-122575154D01*
X160215677Y-122720382D01*
X160610845Y-122831110D01*
X160926825Y-122894267D01*
X161311568Y-122933482D01*
X161658245Y-122910985D01*
X162004649Y-122823285D01*
X162388576Y-122666891D01*
X162603484Y-122562588D01*
X162796415Y-122448971D01*
X162931334Y-122334847D01*
X163037519Y-122199110D01*
X163083390Y-122134238D01*
X163232827Y-121957615D01*
X163378441Y-121823701D01*
X163427630Y-121782118D01*
X163584738Y-121597243D01*
X163754986Y-121333589D01*
X163923545Y-121015734D01*
X164075583Y-120668259D01*
X164120842Y-120540818D01*
X164217861Y-120187420D01*
X164305650Y-119764883D01*
X164379317Y-119306072D01*
X164433970Y-118843856D01*
X164464718Y-118411100D01*
X164466668Y-118040673D01*
X164456088Y-117832294D01*
X164433309Y-117585954D01*
X164394030Y-117384213D01*
X164328830Y-117183606D01*
X164228292Y-116940671D01*
X164184238Y-116837650D01*
X164098145Y-116623625D01*
X164038506Y-116457133D01*
X164016208Y-116367587D01*
X164014890Y-116340970D01*
X163975831Y-116178641D01*
X163894678Y-115980604D01*
X163787848Y-115775944D01*
X163671759Y-115593747D01*
X163562826Y-115463099D01*
X163477467Y-115413086D01*
X163470881Y-115414433D01*
X163393481Y-115469043D01*
X163261514Y-115589446D01*
X163093291Y-115756253D01*
X162907127Y-115950072D01*
X162721333Y-116151514D01*
X162554221Y-116341188D01*
X162424104Y-116499704D01*
X162349294Y-116607670D01*
X162303700Y-116699021D01*
X162279477Y-116787096D01*
X162282856Y-116893967D01*
X162315135Y-117050852D01*
X162377612Y-117288973D01*
X162386854Y-117322898D01*
X162470130Y-117608841D01*
X162561598Y-117896463D01*
X162643070Y-118128259D01*
X162658677Y-118171351D01*
X162731205Y-118418162D01*
X162799116Y-118714037D01*
X162849483Y-119004121D01*
X162850493Y-119011407D01*
X162883097Y-119264175D01*
X162894571Y-119445558D01*
X162881264Y-119598617D01*
X162839523Y-119766415D01*
X162765696Y-119992015D01*
X162642868Y-120307733D01*
X162449299Y-120652522D01*
X162224382Y-120892001D01*
X161962512Y-121031661D01*
X161658081Y-121076994D01*
X161509767Y-121070396D01*
X161190102Y-120994350D01*
X160936881Y-120830104D01*
X160932462Y-120825857D01*
X160836499Y-120706204D01*
X160707129Y-120511605D01*
X160560623Y-120270586D01*
X160413249Y-120011675D01*
X160281276Y-119763398D01*
X160180975Y-119554283D01*
X160128613Y-119412857D01*
X160080039Y-119238248D01*
X159969724Y-118925657D01*
X159824855Y-118572986D01*
X159657535Y-118205316D01*
X159479869Y-117847726D01*
X159303960Y-117525298D01*
X159141912Y-117263112D01*
X159005827Y-117086248D01*
X158965200Y-117045772D01*
X158698968Y-116847898D01*
X158362802Y-116677094D01*
X157995716Y-116550490D01*
X157636726Y-116485213D01*
X157536408Y-116478889D01*
X157029577Y-116500904D01*
X156475904Y-116603315D01*
X155900471Y-116780247D01*
X155328357Y-117025827D01*
X155087458Y-117140659D01*
X154877770Y-117232321D01*
X154727201Y-117288883D01*
X154658103Y-117301161D01*
X154636440Y-117271544D01*
X154681153Y-117191908D01*
X154832160Y-117076130D01*
X155090737Y-116923301D01*
X155458162Y-116732514D01*
X155720677Y-116605014D01*
X155969171Y-116496436D01*
X156181251Y-116423820D01*
X156392329Y-116375359D01*
X156637816Y-116339250D01*
X156640836Y-116338878D01*
X157207317Y-116293708D01*
X157696025Y-116310568D01*
X158129488Y-116391845D01*
X158530233Y-116539930D01*
X158682443Y-116616132D01*
X158971197Y-116795451D01*
X159181107Y-116977558D01*
X159292392Y-117119760D01*
X159466060Y-117394126D01*
X159653956Y-117738908D01*
X159844616Y-118130249D01*
X160026580Y-118544292D01*
X160188384Y-118957177D01*
X160318567Y-119345049D01*
X160389757Y-119531654D01*
X160503967Y-119771311D01*
X160633342Y-120002974D01*
X160651818Y-120033323D01*
X160758959Y-120216469D01*
X160834508Y-120357782D01*
X160863104Y-120428796D01*
X160880472Y-120486192D01*
X160978016Y-120603569D01*
X161132640Y-120723728D01*
X161311212Y-120822655D01*
X161480600Y-120876337D01*
X161489520Y-120877648D01*
X161785911Y-120882693D01*
X162034796Y-120800184D01*
X162244683Y-120623009D01*
X162424082Y-120344055D01*
X162581502Y-119956211D01*
X162587316Y-119938879D01*
X162652923Y-119734149D01*
X162688887Y-119578111D01*
X162697978Y-119429767D01*
X162682965Y-119248122D01*
X162646616Y-118992178D01*
X162632707Y-118905847D01*
X162577569Y-118629975D01*
X162513280Y-118379134D01*
X162451055Y-118198820D01*
X162424453Y-118134935D01*
X162345800Y-117904621D01*
X162294162Y-117693185D01*
X162273962Y-117593288D01*
X162214373Y-117363145D01*
X162142338Y-117134385D01*
X162093065Y-116978368D01*
X162065124Y-116804080D01*
X162088869Y-116669653D01*
X162142081Y-116568751D01*
X162265897Y-116389068D01*
X162429416Y-116180325D01*
X162608093Y-115972134D01*
X162777379Y-115794104D01*
X162912729Y-115675845D01*
X163049348Y-115554190D01*
X163149986Y-115423163D01*
X163269875Y-115268229D01*
X163421880Y-115213644D01*
X163609527Y-115268172D01*
G37*
G36*
X149809473Y-71098084D02*
G01*
X150723654Y-71529233D01*
X150806294Y-71568313D01*
X151349872Y-71832358D01*
X151828329Y-72080229D01*
X152280560Y-72333597D01*
X152745458Y-72614133D01*
X153261918Y-72943508D01*
X153923031Y-73373392D01*
X154312953Y-73018972D01*
X154769245Y-72636708D01*
X155357826Y-72232653D01*
X155950756Y-71920228D01*
X156537282Y-71704075D01*
X157106652Y-71588836D01*
X157648115Y-71579153D01*
X157809861Y-71597898D01*
X158346171Y-71721704D01*
X158906898Y-71936462D01*
X159469739Y-72232538D01*
X160012391Y-72600299D01*
X160590013Y-73083734D01*
X161284109Y-73791291D01*
X161919540Y-74586981D01*
X162491131Y-75460877D01*
X162993710Y-76403050D01*
X163422102Y-77403574D01*
X163542095Y-77764189D01*
X163771135Y-78452520D01*
X164035635Y-79539963D01*
X164210428Y-80655973D01*
X164216914Y-80726964D01*
X164213271Y-80848478D01*
X164186913Y-80866314D01*
X164148918Y-80785462D01*
X164110366Y-80610911D01*
X164103065Y-80568426D01*
X164063819Y-80394713D01*
X164022662Y-80273870D01*
X164021609Y-80271707D01*
X163984244Y-80174571D01*
X163921698Y-79992298D01*
X163842438Y-79750189D01*
X163754926Y-79473546D01*
X163730579Y-79396493D01*
X163536966Y-78859467D01*
X163303210Y-78341275D01*
X163013528Y-77809855D01*
X162652138Y-77233145D01*
X162486450Y-76996849D01*
X162234547Y-76668875D01*
X161946792Y-76318680D01*
X161643761Y-75969835D01*
X161346027Y-75645912D01*
X161074166Y-75370481D01*
X160848752Y-75167114D01*
X160580424Y-74948039D01*
X160073022Y-75251288D01*
X160058729Y-75259870D01*
X159771565Y-75449449D01*
X159525403Y-75643031D01*
X159353098Y-75814895D01*
X159255546Y-75933039D01*
X159070770Y-76152637D01*
X158894756Y-76357736D01*
X158870318Y-76386061D01*
X158560206Y-76786084D01*
X158279468Y-77218910D01*
X158060959Y-77634236D01*
X157991910Y-77779807D01*
X157916923Y-77921105D01*
X157870116Y-77988690D01*
X157866692Y-78016812D01*
X157897342Y-78132695D01*
X157965452Y-78314143D01*
X158062458Y-78536758D01*
X158097435Y-78613732D01*
X158226278Y-78914862D01*
X158348293Y-79223226D01*
X158441074Y-79482835D01*
X158455117Y-79523871D01*
X158583518Y-79820888D01*
X158762718Y-80152906D01*
X158967647Y-80476581D01*
X159173232Y-80748572D01*
X159173719Y-80749096D01*
X159190376Y-80711103D01*
X159205196Y-80577548D01*
X159216584Y-80369061D01*
X159222943Y-80106273D01*
X159236272Y-79660870D01*
X159272449Y-79139484D01*
X159327898Y-78655878D01*
X159399770Y-78229737D01*
X159485218Y-77880744D01*
X159581395Y-77628583D01*
X159588754Y-77614706D01*
X159716557Y-77435402D01*
X159909864Y-77225339D01*
X160138048Y-77013180D01*
X160370481Y-76827591D01*
X160576536Y-76697235D01*
X160698481Y-76645577D01*
X160859077Y-76608242D01*
X161072970Y-76589579D01*
X161371698Y-76585141D01*
X161614961Y-76587907D01*
X161809122Y-76599193D01*
X161946119Y-76625288D01*
X162057649Y-76672598D01*
X162175409Y-76747525D01*
X162305390Y-76849467D01*
X162402301Y-76982683D01*
X162454225Y-77168918D01*
X162471281Y-77262447D01*
X162512528Y-77483656D01*
X162564163Y-77756775D01*
X162618871Y-78042971D01*
X162621617Y-78057433D01*
X162666492Y-78346834D01*
X162706520Y-78698615D01*
X162740289Y-79087314D01*
X162766388Y-79487469D01*
X162783405Y-79873621D01*
X162789928Y-80220307D01*
X162784544Y-80502067D01*
X162765843Y-80693439D01*
X162742463Y-80791823D01*
X162689050Y-80890261D01*
X162584838Y-80970517D01*
X162400541Y-81062150D01*
X162275122Y-81112554D01*
X161953734Y-81203665D01*
X161601225Y-81262920D01*
X161311484Y-81299434D01*
X160969477Y-81350040D01*
X160666884Y-81401704D01*
X160609629Y-81412197D01*
X160296915Y-81459392D01*
X160026738Y-81483737D01*
X159817041Y-81484964D01*
X159685764Y-81462801D01*
X159650849Y-81416980D01*
X159664219Y-81401997D01*
X159770844Y-81359396D01*
X159964774Y-81315128D01*
X160225025Y-81274404D01*
X160325198Y-81260990D01*
X160611031Y-81219066D01*
X160873970Y-81175843D01*
X161067472Y-81138811D01*
X161241799Y-81105109D01*
X161506379Y-81062534D01*
X161768162Y-81027753D01*
X161969851Y-80998360D01*
X162287119Y-80912680D01*
X162494705Y-80790268D01*
X162593532Y-80630679D01*
X162595590Y-80622026D01*
X162615926Y-80441512D01*
X162620449Y-80171736D01*
X162610880Y-79837166D01*
X162588940Y-79462267D01*
X162556351Y-79071506D01*
X162514833Y-78689351D01*
X162466108Y-78340268D01*
X162411898Y-78048724D01*
X162360269Y-77805025D01*
X162310630Y-77545880D01*
X162276914Y-77339953D01*
X162264484Y-77217484D01*
X162253550Y-77130453D01*
X162184463Y-77017578D01*
X162030448Y-76897107D01*
X161936936Y-76838074D01*
X161827958Y-76787271D01*
X161705489Y-76763085D01*
X161535225Y-76759753D01*
X161282858Y-76771511D01*
X161062561Y-76787612D01*
X160846869Y-76818811D01*
X160684359Y-76869117D01*
X160538848Y-76947070D01*
X160426324Y-77027109D01*
X160233810Y-77191404D01*
X160038154Y-77383639D01*
X159862963Y-77578618D01*
X159731843Y-77751149D01*
X159668402Y-77876038D01*
X159603587Y-78171726D01*
X159512935Y-78702508D01*
X159453894Y-79257578D01*
X159420868Y-79882282D01*
X159413215Y-80084317D01*
X159397577Y-80381976D01*
X159379359Y-80625930D01*
X159360243Y-80795160D01*
X159341912Y-80868652D01*
X159345991Y-80928732D01*
X159396879Y-81071501D01*
X159487183Y-81273053D01*
X159607623Y-81510951D01*
X159915027Y-82122700D01*
X160308855Y-83039333D01*
X160643873Y-84002208D01*
X160924823Y-85027207D01*
X161156445Y-86130213D01*
X161343478Y-87327109D01*
X161347696Y-87360532D01*
X161372860Y-87647866D01*
X161392525Y-88031333D01*
X161406794Y-88493075D01*
X161415771Y-89015234D01*
X161419557Y-89579953D01*
X161418257Y-90169373D01*
X161411974Y-90765637D01*
X161400810Y-91350886D01*
X161384870Y-91907263D01*
X161364255Y-92416910D01*
X161339070Y-92861968D01*
X161309417Y-93224581D01*
X161259621Y-93691543D01*
X161194635Y-94251520D01*
X161122310Y-94834991D01*
X161046322Y-95414007D01*
X160970348Y-95960615D01*
X160898065Y-96446867D01*
X160833151Y-96844811D01*
X160801198Y-97088926D01*
X160773465Y-97448992D01*
X160754816Y-97872536D01*
X160745248Y-98333857D01*
X160744759Y-98807255D01*
X160753346Y-99267027D01*
X160771006Y-99687473D01*
X160797736Y-100042892D01*
X160833533Y-100307582D01*
X160860838Y-100445328D01*
X160921579Y-100699013D01*
X160989325Y-100883904D01*
X161078049Y-101033105D01*
X161201729Y-101179719D01*
X161298213Y-101304330D01*
X161303786Y-101373044D01*
X161215965Y-101376481D01*
X161038345Y-101311738D01*
X161037403Y-101311312D01*
X160739700Y-101120134D01*
X160454661Y-100829361D01*
X160194245Y-100456125D01*
X159970410Y-100017557D01*
X159795115Y-99530788D01*
X159720144Y-99271783D01*
X159595430Y-98831157D01*
X159500835Y-98480083D01*
X159432701Y-98204126D01*
X159387365Y-97988853D01*
X159361167Y-97819830D01*
X159327722Y-97537433D01*
X158997294Y-98172863D01*
X158882517Y-98388835D01*
X158683094Y-98750589D01*
X158472069Y-99121060D01*
X158279500Y-99446896D01*
X157892132Y-100085500D01*
X157957157Y-100581822D01*
X157959517Y-100600593D01*
X157980326Y-100841857D01*
X157997292Y-101176515D01*
X158010420Y-101585464D01*
X158019711Y-102049604D01*
X158025080Y-102541648D01*
X158025169Y-102549834D01*
X158026799Y-103067052D01*
X158024601Y-103582157D01*
X158018581Y-104076049D01*
X158008741Y-104529625D01*
X157995085Y-104923786D01*
X157977615Y-105239429D01*
X157956335Y-105457454D01*
X157935202Y-105603063D01*
X157755031Y-106669975D01*
X157538449Y-107689304D01*
X157288611Y-108652467D01*
X157008671Y-109550882D01*
X156701783Y-110375966D01*
X156371105Y-111119135D01*
X156019789Y-111771807D01*
X155650991Y-112325399D01*
X155267867Y-112771328D01*
X155252877Y-112786153D01*
X155067146Y-112953066D01*
X154838637Y-113136738D01*
X154593497Y-113318452D01*
X154357873Y-113479493D01*
X154157914Y-113601145D01*
X154019765Y-113664694D01*
X153840829Y-113716012D01*
X154074779Y-113498917D01*
X154101696Y-113472346D01*
X154253405Y-113279111D01*
X154428711Y-112997027D01*
X154618009Y-112644830D01*
X154811695Y-112241257D01*
X155000165Y-111805043D01*
X155173813Y-111354925D01*
X155175558Y-111350094D01*
X155325676Y-110883641D01*
X155470540Y-110341625D01*
X155600947Y-109764721D01*
X155707692Y-109193604D01*
X155781572Y-108668948D01*
X155799288Y-108511230D01*
X155827696Y-108263311D01*
X155850921Y-108066651D01*
X155865175Y-107953661D01*
X155872726Y-107871331D01*
X155865451Y-107822282D01*
X155862023Y-107824766D01*
X155816778Y-107891303D01*
X155733790Y-108030101D01*
X155627968Y-108216420D01*
X155478406Y-108478346D01*
X155166196Y-108994168D01*
X154824457Y-109526547D01*
X154479651Y-110034763D01*
X154158239Y-110478095D01*
X154098032Y-110556319D01*
X153827956Y-110884347D01*
X153521172Y-111227728D01*
X153195759Y-111568546D01*
X152869796Y-111888889D01*
X152561361Y-112170843D01*
X152288532Y-112396493D01*
X152069387Y-112547927D01*
X152042407Y-112563724D01*
X151812662Y-112703254D01*
X151546437Y-112871257D01*
X151295999Y-113034829D01*
X151228163Y-113079639D01*
X151012073Y-113216358D01*
X150822580Y-113328043D01*
X150694394Y-113393972D01*
X150521734Y-113466570D01*
X150772994Y-113631788D01*
X150773487Y-113632113D01*
X150866175Y-113707808D01*
X151032183Y-113858778D01*
X151263318Y-114076824D01*
X151551387Y-114353747D01*
X151888197Y-114681345D01*
X152265554Y-115051419D01*
X152675264Y-115455769D01*
X153109135Y-115886196D01*
X153558972Y-116334499D01*
X154016583Y-116792479D01*
X154473773Y-117251936D01*
X154922350Y-117704669D01*
X155354120Y-118142480D01*
X155760889Y-118557167D01*
X156134465Y-118940532D01*
X156466654Y-119284374D01*
X156749261Y-119580493D01*
X156974095Y-119820690D01*
X157132961Y-119996765D01*
X157552382Y-120483771D01*
X158051230Y-121082839D01*
X158465024Y-121605976D01*
X158793430Y-122052722D01*
X159036117Y-122422621D01*
X159106072Y-122553297D01*
X159192752Y-122715216D01*
X159249409Y-122888474D01*
X159263004Y-122930048D01*
X159264958Y-122943052D01*
X159294776Y-123311996D01*
X159286779Y-123711315D01*
X159243994Y-124093153D01*
X159169447Y-124409656D01*
X159138838Y-124496629D01*
X158986178Y-124862366D01*
X158779252Y-125287622D01*
X158532444Y-125747358D01*
X158260140Y-126216533D01*
X157976727Y-126670106D01*
X157696588Y-127083038D01*
X157434111Y-127430287D01*
X157395215Y-127480170D01*
X157257242Y-127683895D01*
X157121865Y-127917470D01*
X157005205Y-128149533D01*
X156923386Y-128348727D01*
X156892530Y-128483690D01*
X156931241Y-128576106D01*
X157038507Y-128667799D01*
X157071972Y-128688178D01*
X157150893Y-128778155D01*
X157179771Y-128913662D01*
X157157477Y-129109130D01*
X157082882Y-129378990D01*
X156954858Y-129737674D01*
X156868173Y-129970868D01*
X156798678Y-130180947D01*
X156764369Y-130332786D01*
X156759492Y-130453523D01*
X156778293Y-130570293D01*
X156785581Y-130602896D01*
X156818601Y-130786853D01*
X156832746Y-130930443D01*
X156834139Y-131061822D01*
X154319049Y-131061822D01*
X151803959Y-131061822D01*
X151987299Y-130741378D01*
X152068363Y-130583019D01*
X152123467Y-130435457D01*
X152128539Y-130352816D01*
X152114534Y-130322127D01*
X152147026Y-130322142D01*
X152190501Y-130307269D01*
X152269563Y-130212555D01*
X152363461Y-130060416D01*
X152457605Y-129879319D01*
X152537401Y-129697737D01*
X152588258Y-129544139D01*
X152595582Y-129446995D01*
X152581117Y-129381787D01*
X152615726Y-129416140D01*
X152623305Y-129421860D01*
X152676414Y-129382415D01*
X152758944Y-129255210D01*
X152862814Y-129058049D01*
X152979941Y-128808732D01*
X153102243Y-128525063D01*
X153221638Y-128224844D01*
X153330044Y-127925875D01*
X153419379Y-127645960D01*
X153471486Y-127458650D01*
X153527164Y-127205177D01*
X153547116Y-126995519D01*
X153543891Y-126930673D01*
X155666549Y-126930673D01*
X155671278Y-126939607D01*
X155749377Y-126964476D01*
X155893076Y-126974466D01*
X156009014Y-126968933D01*
X156109095Y-126931664D01*
X156156673Y-126843086D01*
X156201813Y-126676585D01*
X156270123Y-126414678D01*
X156353127Y-126089513D01*
X156446894Y-125717134D01*
X156547488Y-125313586D01*
X156650978Y-124894913D01*
X156753430Y-124477161D01*
X156850911Y-124076374D01*
X156939488Y-123708596D01*
X157015228Y-123389872D01*
X157074198Y-123136248D01*
X157112464Y-122963767D01*
X157126093Y-122888474D01*
X157121224Y-122841962D01*
X157089190Y-122803012D01*
X157007459Y-122781472D01*
X156853677Y-122772268D01*
X156605488Y-122770328D01*
X156084883Y-122770328D01*
X156081076Y-123521795D01*
X156072953Y-123950003D01*
X156046666Y-124375503D01*
X156028910Y-124662904D01*
X155942512Y-125382254D01*
X155808700Y-126156994D01*
X155801945Y-126191780D01*
X155749182Y-126467028D01*
X155706182Y-126697421D01*
X155677214Y-126859716D01*
X155666549Y-126930673D01*
X153543891Y-126930673D01*
X153536865Y-126789398D01*
X153511046Y-126632274D01*
X153458544Y-126398375D01*
X153389122Y-126130127D01*
X153311279Y-125857189D01*
X153233510Y-125609222D01*
X153164311Y-125415885D01*
X153112178Y-125306837D01*
X153063589Y-125258522D01*
X152931647Y-125146553D01*
X152735817Y-124988775D01*
X152492806Y-124798048D01*
X152219322Y-124587232D01*
X151932075Y-124369187D01*
X151647771Y-124156774D01*
X151383119Y-123962852D01*
X151154827Y-123800281D01*
X150850521Y-123593587D01*
X150345800Y-123270204D01*
X149808931Y-122946384D01*
X149254249Y-122629424D01*
X148696088Y-122326619D01*
X148148784Y-122045267D01*
X147626672Y-121792662D01*
X147144087Y-121576102D01*
X146715363Y-121402882D01*
X146354835Y-121280300D01*
X146076838Y-121215651D01*
X145953303Y-121199793D01*
X145790979Y-121189378D01*
X145626671Y-121197245D01*
X145432768Y-121226717D01*
X145181656Y-121281114D01*
X144845723Y-121363759D01*
X144514746Y-121452757D01*
X143984346Y-121621364D01*
X143451103Y-121826479D01*
X142885307Y-122079919D01*
X142257248Y-122393506D01*
X142008234Y-122523743D01*
X141620248Y-122731339D01*
X141255802Y-122933866D01*
X140903319Y-123138995D01*
X140551223Y-123354399D01*
X140187937Y-123587746D01*
X139801884Y-123846708D01*
X139544363Y-124025730D01*
X139381488Y-124138956D01*
X138915172Y-124472161D01*
X138391360Y-124853992D01*
X137798474Y-125292122D01*
X137124939Y-125794221D01*
X136981210Y-125901829D01*
X136527115Y-126244299D01*
X136159173Y-126526549D01*
X135870318Y-126754372D01*
X135653483Y-126933558D01*
X135501601Y-127069901D01*
X135407605Y-127169192D01*
X135364428Y-127237224D01*
X135351457Y-127272192D01*
X135282331Y-127457624D01*
X135208100Y-127655751D01*
X135172096Y-127759307D01*
X135146629Y-127891868D01*
X135157560Y-128035264D01*
X135204587Y-128239659D01*
X135247040Y-128377655D01*
X135357678Y-128663880D01*
X135510548Y-129009598D01*
X135693740Y-129390380D01*
X135895342Y-129781796D01*
X136103443Y-130159416D01*
X136306130Y-130498811D01*
X136407930Y-130662085D01*
X136523153Y-130850312D01*
X136601813Y-130983128D01*
X136630921Y-131038926D01*
X136606952Y-131047721D01*
X136495688Y-131057567D01*
X136324369Y-131061099D01*
X136200794Y-131058847D01*
X136064771Y-131038168D01*
X135975339Y-130978991D01*
X135888907Y-130861316D01*
X135728593Y-130599719D01*
X135517582Y-130225900D01*
X135301482Y-129817259D01*
X135101159Y-129413432D01*
X134937480Y-129054055D01*
X134833941Y-128803314D01*
X134703462Y-128437454D01*
X134630673Y-128134510D01*
X134612768Y-127871742D01*
X134646941Y-127626408D01*
X134730385Y-127375769D01*
X134738524Y-127347512D01*
X134716250Y-127300886D01*
X134620691Y-127268320D01*
X134430165Y-127240009D01*
X134396619Y-127235781D01*
X134171161Y-127201123D01*
X133899451Y-127151971D01*
X133613789Y-127094996D01*
X133346475Y-127036869D01*
X133129810Y-126984260D01*
X132996093Y-126943841D01*
X132920541Y-126934810D01*
X132892878Y-127012012D01*
X132881213Y-127098752D01*
X132834493Y-127288691D01*
X132761870Y-127532113D01*
X132673932Y-127797454D01*
X132581268Y-128053150D01*
X132494466Y-128267639D01*
X132424115Y-128409356D01*
X132383626Y-128469778D01*
X132199566Y-128649883D01*
X131999322Y-128726569D01*
X131801116Y-128705224D01*
X131623172Y-128591233D01*
X131483712Y-128389986D01*
X131400959Y-128106869D01*
X131392889Y-128034789D01*
X131382076Y-127815987D01*
X131380697Y-127586683D01*
X131688917Y-127586683D01*
X131716670Y-127946433D01*
X131786554Y-128235313D01*
X131805095Y-128277924D01*
X131886919Y-128363396D01*
X131998777Y-128342663D01*
X132148912Y-128215270D01*
X132242507Y-128102415D01*
X132418820Y-127813004D01*
X132572855Y-127461928D01*
X132687279Y-127085553D01*
X132722903Y-126926680D01*
X132764236Y-126672519D01*
X132763268Y-126476899D01*
X132717792Y-126305398D01*
X132625602Y-126123599D01*
X132490490Y-125946193D01*
X132339603Y-125863969D01*
X132187899Y-125896868D01*
X132038459Y-126044127D01*
X131894361Y-126304981D01*
X131837659Y-126454403D01*
X131751490Y-126803448D01*
X131701217Y-127193282D01*
X131688917Y-127586683D01*
X131380697Y-127586683D01*
X131380436Y-127543314D01*
X131388591Y-127259376D01*
X131416475Y-126680303D01*
X131264732Y-126644711D01*
X131261325Y-126643896D01*
X131102126Y-126586712D01*
X130932549Y-126500842D01*
X130892312Y-126476809D01*
X130790398Y-126425638D01*
X130736507Y-126439773D01*
X130689683Y-126522941D01*
X130646487Y-126619575D01*
X130598492Y-126745357D01*
X130561339Y-126810213D01*
X130460596Y-126957981D01*
X130306712Y-127172962D01*
X130109509Y-127442103D01*
X129878809Y-127752346D01*
X129624433Y-128090635D01*
X129356204Y-128443917D01*
X129083943Y-128799133D01*
X128817473Y-129143230D01*
X128566615Y-129463151D01*
X128351086Y-129733431D01*
X128341191Y-129745840D01*
X128190855Y-129929918D01*
X127959137Y-130199235D01*
X127766035Y-130399342D01*
X127593989Y-130547809D01*
X127425438Y-130662210D01*
X127394286Y-130682282D01*
X127266098Y-130764878D01*
X127134951Y-130879317D01*
X127101915Y-130967272D01*
X127102531Y-130970940D01*
X127098167Y-131014476D01*
X127055415Y-131041812D01*
X126954700Y-131055817D01*
X126776447Y-131059358D01*
X126501083Y-131055305D01*
X126295482Y-131048635D01*
X126096721Y-131036054D01*
X125973010Y-131020378D01*
X125945213Y-131003549D01*
X125951545Y-130996021D01*
X125916567Y-130948166D01*
X125813117Y-130882181D01*
X125674110Y-130814581D01*
X125532463Y-130761881D01*
X125421094Y-130740596D01*
X125379527Y-130732591D01*
X125340006Y-130682282D01*
X125361495Y-130682282D01*
X125390691Y-130711477D01*
X125419886Y-130682282D01*
X125390691Y-130653086D01*
X125361495Y-130682282D01*
X125340006Y-130682282D01*
X125332300Y-130672473D01*
X125331109Y-130655539D01*
X125288507Y-130560634D01*
X125254475Y-130516313D01*
X125269244Y-130446696D01*
X125395844Y-130394252D01*
X125400681Y-130393021D01*
X125499478Y-130347919D01*
X125491270Y-130285738D01*
X125433266Y-130186226D01*
X125368986Y-130039983D01*
X125328043Y-129936256D01*
X125316135Y-129926497D01*
X125331702Y-130019961D01*
X125355510Y-130127569D01*
X125357982Y-130138740D01*
X125393744Y-130260448D01*
X125394425Y-130317754D01*
X125310178Y-130376201D01*
X125238038Y-130380701D01*
X125161311Y-130321783D01*
X125136138Y-130285222D01*
X125060840Y-130278924D01*
X125037084Y-130287171D01*
X125013993Y-130239612D01*
X125026152Y-130097200D01*
X125082017Y-130097200D01*
X125089005Y-130166496D01*
X125106568Y-130175631D01*
X125127932Y-130127569D01*
X125123718Y-130096657D01*
X125089005Y-130088642D01*
X125082017Y-130097200D01*
X125026152Y-130097200D01*
X125026523Y-130092854D01*
X125030198Y-130067677D01*
X125044387Y-129947311D01*
X125033729Y-129929527D01*
X124994294Y-130003416D01*
X124979533Y-130038914D01*
X124963969Y-130144755D01*
X124990155Y-130286927D01*
X125062828Y-130499738D01*
X125141575Y-130709542D01*
X125204585Y-130889137D01*
X125227504Y-130994372D01*
X125209945Y-131045038D01*
X125151522Y-131060924D01*
X125051849Y-131061822D01*
X124944719Y-131056887D01*
X124864848Y-131022799D01*
X124807226Y-130931943D01*
X124744035Y-130756750D01*
X124727713Y-130705784D01*
X124652830Y-130330478D01*
X124677102Y-129998859D01*
X124747416Y-129826182D01*
X125091042Y-129826182D01*
X125148816Y-129758428D01*
X125194043Y-129704456D01*
X125235516Y-129685175D01*
X125262046Y-129758428D01*
X125269281Y-129784971D01*
X125287165Y-129815002D01*
X125296331Y-129733431D01*
X125288111Y-129651275D01*
X125246768Y-129602052D01*
X125195287Y-129633268D01*
X125126765Y-129733431D01*
X125095209Y-129800185D01*
X125091042Y-129826182D01*
X124747416Y-129826182D01*
X124801473Y-129693431D01*
X124853193Y-129610750D01*
X124976328Y-129443407D01*
X125085087Y-129328966D01*
X125097733Y-129318631D01*
X125172039Y-129236270D01*
X125194697Y-129131817D01*
X125177043Y-128959753D01*
X125170758Y-128916309D01*
X125144951Y-128674880D01*
X125132260Y-128448834D01*
X125130077Y-128383669D01*
X125117276Y-128252741D01*
X125098199Y-128200673D01*
X125066236Y-128209993D01*
X124944701Y-128256201D01*
X124757927Y-128331630D01*
X124531268Y-128425627D01*
X124290080Y-128527542D01*
X124059715Y-128626722D01*
X123865528Y-128712516D01*
X123732874Y-128774272D01*
X123655557Y-128810018D01*
X123553328Y-128836032D01*
X123509043Y-128799178D01*
X123477478Y-128752593D01*
X123393849Y-128723220D01*
X123316741Y-128751024D01*
X123297206Y-128828852D01*
X123303920Y-128867113D01*
X123293365Y-128974747D01*
X123239100Y-129112294D01*
X123134069Y-129290977D01*
X122971217Y-129522014D01*
X122743488Y-129816627D01*
X122443827Y-130186037D01*
X121722849Y-131061822D01*
X117849068Y-131061822D01*
X113975288Y-131061822D01*
X113975288Y-130775841D01*
X113975590Y-130753051D01*
X113983087Y-130667541D01*
X114004443Y-130568774D01*
X114044692Y-130445469D01*
X114108866Y-130286351D01*
X114202000Y-130080141D01*
X114329127Y-129815561D01*
X114495281Y-129481335D01*
X114705496Y-129066183D01*
X114964803Y-128558829D01*
X115894354Y-126744820D01*
X129264199Y-126744820D01*
X129273679Y-127108186D01*
X129302875Y-127913401D01*
X129838810Y-127336029D01*
X130053516Y-127102459D01*
X130206194Y-126926409D01*
X130306853Y-126790047D01*
X130369925Y-126670782D01*
X130409837Y-126546022D01*
X130441020Y-126393176D01*
X130486954Y-126183339D01*
X130502736Y-126127799D01*
X130863983Y-126127799D01*
X131156549Y-126259178D01*
X131275868Y-126311092D01*
X131419759Y-126368313D01*
X131494470Y-126390558D01*
X131523664Y-126370278D01*
X131600494Y-126273613D01*
X131695955Y-126124140D01*
X131785575Y-125990001D01*
X131989750Y-125782804D01*
X132212327Y-125663001D01*
X132435070Y-125638458D01*
X132639742Y-125717043D01*
X132677963Y-125747437D01*
X132819306Y-125934236D01*
X132916285Y-126186288D01*
X132952300Y-126463927D01*
X132952300Y-126672519D01*
X132952300Y-126724015D01*
X133346438Y-126761239D01*
X133472711Y-126771031D01*
X133751257Y-126785239D01*
X134071564Y-126795089D01*
X134386548Y-126798878D01*
X134609443Y-126798608D01*
X134820465Y-126794025D01*
X134959773Y-126779459D01*
X135053028Y-126749283D01*
X135125890Y-126697868D01*
X135204019Y-126619587D01*
X135209123Y-126614353D01*
X135316694Y-126518573D01*
X135510658Y-126359648D01*
X135783908Y-126143075D01*
X136129336Y-125874349D01*
X136539836Y-125558964D01*
X137008300Y-125202415D01*
X137527621Y-124810197D01*
X138090691Y-124387805D01*
X138143044Y-124348004D01*
X138309741Y-124211402D01*
X138426340Y-124100323D01*
X138470231Y-124035740D01*
X138475752Y-124025730D01*
X138499426Y-124025730D01*
X138528622Y-124054925D01*
X138557817Y-124025730D01*
X138528622Y-123996535D01*
X138499426Y-124025730D01*
X138475752Y-124025730D01*
X138492129Y-123996036D01*
X138586862Y-123967416D01*
X138654703Y-123954587D01*
X138703643Y-123899217D01*
X138705671Y-123878978D01*
X138756949Y-123782435D01*
X138779742Y-123766599D01*
X138768100Y-123806765D01*
X138754787Y-123841247D01*
X138780785Y-123879753D01*
X138791508Y-123878787D01*
X138869669Y-123832914D01*
X138930006Y-123753731D01*
X138932958Y-123690450D01*
X138933480Y-123673422D01*
X139006453Y-123666627D01*
X139064008Y-123658592D01*
X139096485Y-123598057D01*
X139095811Y-123566055D01*
X139138775Y-123556780D01*
X139183953Y-123550370D01*
X139310874Y-123491816D01*
X139493597Y-123387444D01*
X139709532Y-123249418D01*
X140129989Y-122978226D01*
X140671940Y-122652089D01*
X141249572Y-122325459D01*
X141841027Y-122009629D01*
X142424449Y-121715891D01*
X142977980Y-121455541D01*
X143479763Y-121239870D01*
X143907940Y-121080172D01*
X143917491Y-121077003D01*
X144207044Y-120991027D01*
X144516334Y-120915255D01*
X144819055Y-120854400D01*
X145088901Y-120813174D01*
X145299565Y-120796290D01*
X145424742Y-120808461D01*
X145467055Y-120813293D01*
X145506323Y-120752164D01*
X145496977Y-120696714D01*
X145461531Y-120550833D01*
X145407246Y-120347481D01*
X145342241Y-120115053D01*
X145274638Y-119881943D01*
X145212559Y-119676544D01*
X145164124Y-119527249D01*
X145137453Y-119462454D01*
X145108874Y-119453267D01*
X145633749Y-119453267D01*
X145715019Y-119647771D01*
X145764891Y-119775791D01*
X145841679Y-119988651D01*
X145919163Y-120216578D01*
X146042037Y-120590881D01*
X146458639Y-120752164D01*
X146676403Y-120836469D01*
X147091630Y-121005848D01*
X147840494Y-121347403D01*
X148633094Y-121749180D01*
X149444525Y-122197745D01*
X150249880Y-122679667D01*
X151024254Y-123181511D01*
X151108910Y-123239140D01*
X151419571Y-123456504D01*
X151727127Y-123679618D01*
X152000013Y-123885290D01*
X152206668Y-124050328D01*
X152317333Y-124142258D01*
X152478225Y-124271364D01*
X152588854Y-124354033D01*
X152630001Y-124375503D01*
X152629977Y-124375077D01*
X152603834Y-124311211D01*
X152535384Y-124165129D01*
X152434819Y-123958130D01*
X152312329Y-123711514D01*
X152247874Y-123579325D01*
X152112723Y-123289018D01*
X151950829Y-122929465D01*
X151772918Y-122524895D01*
X151589716Y-122099539D01*
X151411950Y-121677624D01*
X151333314Y-121489655D01*
X151134390Y-121021341D01*
X150924583Y-120535896D01*
X150717604Y-120064649D01*
X150527167Y-119638931D01*
X150366983Y-119290073D01*
X150240084Y-119014756D01*
X150086290Y-118669860D01*
X149949191Y-118350478D01*
X149840136Y-118083164D01*
X149823769Y-118038830D01*
X153641635Y-118038830D01*
X153651196Y-118069868D01*
X153949510Y-118548286D01*
X154283208Y-119092215D01*
X154611394Y-119635517D01*
X154919510Y-120153887D01*
X155192999Y-120623018D01*
X155417302Y-121018604D01*
X155559748Y-121277755D01*
X155722387Y-121587156D01*
X155841664Y-121838690D01*
X155928079Y-122057044D01*
X155992131Y-122266908D01*
X156044321Y-122492971D01*
X156056425Y-122542558D01*
X156114342Y-122628808D01*
X156236746Y-122642295D01*
X156339366Y-122635534D01*
X156537997Y-122623342D01*
X156761150Y-122610314D01*
X156934326Y-122596102D01*
X157072944Y-122575115D01*
X157126093Y-122553297D01*
X157123377Y-122536615D01*
X157075517Y-122423209D01*
X156976886Y-122237570D01*
X156839161Y-121998484D01*
X156674018Y-121724734D01*
X156493134Y-121435104D01*
X156308184Y-121148379D01*
X156130846Y-120883344D01*
X155972795Y-120658782D01*
X155845708Y-120493478D01*
X155742175Y-120369707D01*
X155489242Y-120071604D01*
X155221516Y-119761089D01*
X154948119Y-119448234D01*
X154678170Y-119143112D01*
X154420789Y-118855795D01*
X154185098Y-118596356D01*
X153980217Y-118374868D01*
X153815266Y-118201402D01*
X153699365Y-118086032D01*
X153641635Y-118038830D01*
X149823769Y-118038830D01*
X149770475Y-117894476D01*
X149761119Y-117866083D01*
X149695089Y-117670260D01*
X149644220Y-117526982D01*
X149618867Y-117465544D01*
X149617348Y-117464656D01*
X149561904Y-117493753D01*
X149429838Y-117591689D01*
X149218451Y-117760615D01*
X148925047Y-118002681D01*
X148546927Y-118320036D01*
X148062244Y-118666559D01*
X147476382Y-118963558D01*
X146798299Y-119201107D01*
X146022565Y-119381487D01*
X145633749Y-119453267D01*
X145108874Y-119453267D01*
X145106121Y-119452382D01*
X144980609Y-119423160D01*
X144782698Y-119381448D01*
X144537410Y-119332659D01*
X144319550Y-119285406D01*
X143967995Y-119196676D01*
X143596320Y-119091823D01*
X143255836Y-118984776D01*
X143116343Y-118938397D01*
X142769642Y-118825833D01*
X142369424Y-118698584D01*
X141954816Y-118569033D01*
X141564944Y-118449566D01*
X140535325Y-118118274D01*
X138912779Y-117513019D01*
X137360806Y-116828987D01*
X137224884Y-116763867D01*
X136883196Y-116598147D01*
X136575937Y-116446341D01*
X136320914Y-116317406D01*
X136135935Y-116220300D01*
X136038805Y-116163981D01*
X135884621Y-116056534D01*
X135843990Y-116274925D01*
X135832597Y-116330278D01*
X135759277Y-116579267D01*
X135702932Y-116714422D01*
X135658636Y-116820677D01*
X135615360Y-116897696D01*
X135547291Y-117018840D01*
X135441859Y-117138085D01*
X135349132Y-117189900D01*
X135159070Y-117214702D01*
X134986322Y-117126877D01*
X134965568Y-117110123D01*
X134931708Y-117098853D01*
X134892621Y-117117290D01*
X134841795Y-117176210D01*
X134772717Y-117286390D01*
X134678874Y-117458609D01*
X134553755Y-117703643D01*
X134390848Y-118032271D01*
X134183639Y-118455268D01*
X133880260Y-119091707D01*
X133313677Y-120280306D01*
X133306410Y-120295552D01*
X132467571Y-122155913D01*
X131711274Y-123945660D01*
X131039318Y-125660673D01*
X130863983Y-126127799D01*
X130502736Y-126127799D01*
X130599136Y-125788556D01*
X130758706Y-125310359D01*
X130960992Y-124760490D01*
X131201318Y-124150692D01*
X131475012Y-123492706D01*
X131777399Y-122798276D01*
X132103806Y-122079144D01*
X132449558Y-121347051D01*
X132475914Y-121292302D01*
X132626981Y-120977216D01*
X132757816Y-120702216D01*
X132860755Y-120483560D01*
X132928137Y-120337504D01*
X132952300Y-120280306D01*
X132947843Y-120274346D01*
X132869291Y-120278450D01*
X132708697Y-120315561D01*
X132486917Y-120378604D01*
X132224807Y-120460505D01*
X131943221Y-120554187D01*
X131663017Y-120652577D01*
X131405049Y-120748600D01*
X131190174Y-120835180D01*
X131039247Y-120905242D01*
X130973124Y-120951711D01*
X130948685Y-121022601D01*
X130912518Y-121187795D01*
X130881616Y-121390971D01*
X130856250Y-121570120D01*
X130799372Y-121868694D01*
X130731355Y-122138792D01*
X130659970Y-122351190D01*
X130592984Y-122476666D01*
X130590039Y-122480457D01*
X130547014Y-122578793D01*
X130488910Y-122764208D01*
X130422978Y-123011595D01*
X130356466Y-123295845D01*
X130278634Y-123625316D01*
X130156050Y-124078035D01*
X130016649Y-124536209D01*
X129867528Y-124979944D01*
X129715785Y-125389348D01*
X129568516Y-125744527D01*
X129432821Y-126025589D01*
X129315795Y-126212641D01*
X129309334Y-126222122D01*
X129281415Y-126314791D01*
X129266574Y-126484689D01*
X129264199Y-126744820D01*
X115894354Y-126744820D01*
X115954319Y-126627799D01*
X115611803Y-125910672D01*
X115466644Y-125600754D01*
X115317924Y-125272616D01*
X115185792Y-124971044D01*
X115087694Y-124735166D01*
X114906100Y-124276786D01*
X115144841Y-123596545D01*
X115148056Y-123587375D01*
X115238642Y-123319211D01*
X115310930Y-123086992D01*
X115357661Y-122915301D01*
X115371576Y-122828719D01*
X115364824Y-122746123D01*
X115359358Y-122530058D01*
X115359569Y-122217747D01*
X115365022Y-121821559D01*
X115375283Y-121353863D01*
X115389919Y-120827029D01*
X115393919Y-120703524D01*
X130988531Y-120703524D01*
X131017484Y-120694138D01*
X131126793Y-120647928D01*
X131288162Y-120575264D01*
X131383100Y-120534991D01*
X131640883Y-120441625D01*
X131955029Y-120341552D01*
X132286783Y-120246198D01*
X132597389Y-120166989D01*
X132848093Y-120115352D01*
X132948273Y-120093181D01*
X133030820Y-120049639D01*
X133107935Y-119964660D01*
X133198530Y-119817087D01*
X133321518Y-119585763D01*
X133388272Y-119455951D01*
X133481977Y-119268499D01*
X133542794Y-119139631D01*
X133559933Y-119091707D01*
X133531881Y-119097889D01*
X133406952Y-119145908D01*
X133208090Y-119233514D01*
X132955287Y-119351151D01*
X132668539Y-119489260D01*
X132367837Y-119638283D01*
X132073176Y-119788664D01*
X131804550Y-119930844D01*
X131530007Y-120081184D01*
X131310069Y-120207714D01*
X131163830Y-120303296D01*
X131075418Y-120379723D01*
X131028964Y-120448788D01*
X131008598Y-120522282D01*
X131008170Y-120524988D01*
X130991157Y-120648701D01*
X130988531Y-120703524D01*
X115393919Y-120703524D01*
X115408495Y-120253428D01*
X115430577Y-119645429D01*
X115446612Y-119243795D01*
X121960935Y-119243795D01*
X121963743Y-119569621D01*
X121985195Y-119901558D01*
X122441456Y-120138931D01*
X122530926Y-120184919D01*
X122729828Y-120282869D01*
X122880068Y-120350852D01*
X122954492Y-120376305D01*
X122954603Y-120376305D01*
X122972039Y-120375447D01*
X122987803Y-120365768D01*
X123004042Y-120336641D01*
X123022905Y-120277438D01*
X123046539Y-120177534D01*
X123077092Y-120026300D01*
X123116710Y-119813111D01*
X123167542Y-119527339D01*
X123231735Y-119158358D01*
X123311437Y-118695540D01*
X123408796Y-118128259D01*
X123476531Y-117735737D01*
X123572396Y-117186883D01*
X123627802Y-116873525D01*
X135142368Y-116873525D01*
X135153808Y-116888839D01*
X135232987Y-116931247D01*
X135265734Y-116928164D01*
X135279502Y-116897696D01*
X135197313Y-116850577D01*
X135151767Y-116840344D01*
X135142368Y-116873525D01*
X123627802Y-116873525D01*
X123642798Y-116788716D01*
X135346323Y-116788716D01*
X135346891Y-116796879D01*
X135380692Y-116809738D01*
X135439485Y-116747053D01*
X135453692Y-116714422D01*
X135413736Y-116721304D01*
X135387797Y-116739328D01*
X135346323Y-116788716D01*
X123642798Y-116788716D01*
X123670217Y-116633643D01*
X123685079Y-116550533D01*
X135066844Y-116550533D01*
X135073832Y-116619830D01*
X135091395Y-116628965D01*
X135112760Y-116580902D01*
X135108546Y-116549991D01*
X135073832Y-116541975D01*
X135066844Y-116550533D01*
X123685079Y-116550533D01*
X123767560Y-116089290D01*
X123811802Y-115844640D01*
X135063543Y-115844640D01*
X135077482Y-115922789D01*
X135097414Y-115921885D01*
X135108150Y-115846152D01*
X135098799Y-115788756D01*
X135072872Y-115810874D01*
X135063543Y-115844640D01*
X123811802Y-115844640D01*
X123861993Y-115567098D01*
X123863678Y-115557890D01*
X135125235Y-115557890D01*
X135132223Y-115627186D01*
X135149786Y-115636321D01*
X135171150Y-115588259D01*
X135166936Y-115557347D01*
X135132223Y-115549332D01*
X135125235Y-115557890D01*
X123863678Y-115557890D01*
X123885991Y-115435974D01*
X135173332Y-115435974D01*
X135224703Y-115471477D01*
X135231632Y-115473098D01*
X135276463Y-115542723D01*
X135290505Y-115588259D01*
X135322741Y-115692790D01*
X135354358Y-115846152D01*
X135363912Y-115892492D01*
X135393421Y-116111021D01*
X135404714Y-116317572D01*
X135406602Y-116386970D01*
X135425089Y-116533074D01*
X135445885Y-116580902D01*
X135456916Y-116606273D01*
X135470723Y-116610244D01*
X135529067Y-116559416D01*
X135593157Y-116424646D01*
X135654694Y-116230844D01*
X135705379Y-116002923D01*
X135736914Y-115765793D01*
X135743394Y-115685132D01*
X135751655Y-115509326D01*
X135735330Y-115402207D01*
X135684068Y-115328145D01*
X135587518Y-115251507D01*
X135406724Y-115119122D01*
X135288937Y-115236909D01*
X135201442Y-115345401D01*
X135173332Y-115435974D01*
X123885991Y-115435974D01*
X123951081Y-115080337D01*
X124032392Y-114642280D01*
X124103492Y-114266199D01*
X124161948Y-113965368D01*
X124205327Y-113753058D01*
X124231194Y-113642542D01*
X124264499Y-113583533D01*
X124359529Y-113569115D01*
X124373254Y-113555001D01*
X124314481Y-113481775D01*
X124193679Y-113365073D01*
X124025507Y-113214955D01*
X123784276Y-113006257D01*
X123593909Y-112850344D01*
X123465738Y-112756362D01*
X123411098Y-112733458D01*
X123366359Y-112804141D01*
X123285880Y-112962663D01*
X123187927Y-113174844D01*
X123086109Y-113411049D01*
X122994035Y-113641644D01*
X122908852Y-113886595D01*
X122782770Y-114314623D01*
X122655008Y-114816257D01*
X122528803Y-115372871D01*
X122407393Y-115965834D01*
X122294016Y-116576520D01*
X122191909Y-117186300D01*
X122104310Y-117776546D01*
X122034456Y-118328629D01*
X121985586Y-118823921D01*
X121960935Y-119243795D01*
X115446612Y-119243795D01*
X115455731Y-119015403D01*
X115483522Y-118375718D01*
X115513517Y-117738746D01*
X115545281Y-117116855D01*
X115578381Y-116522416D01*
X115612381Y-115967799D01*
X115634680Y-115625340D01*
X115681622Y-114927479D01*
X115725098Y-114325905D01*
X115766908Y-113806511D01*
X115808857Y-113355191D01*
X115852747Y-112957836D01*
X115900380Y-112600341D01*
X115913315Y-112519653D01*
X123504578Y-112519653D01*
X123547779Y-112577913D01*
X123663324Y-112696683D01*
X123832535Y-112856206D01*
X124037030Y-113038565D01*
X124147731Y-113134207D01*
X124360746Y-113311273D01*
X124511556Y-113420692D01*
X124616216Y-113471293D01*
X124690783Y-113471903D01*
X124751311Y-113431353D01*
X124770462Y-113416687D01*
X124894609Y-113354161D01*
X125100946Y-113270352D01*
X125366849Y-113173292D01*
X125669698Y-113071013D01*
X125986872Y-112971549D01*
X126295748Y-112882931D01*
X126338010Y-112871538D01*
X126840021Y-112744070D01*
X127354183Y-112626585D01*
X127862686Y-112522127D01*
X128347723Y-112433739D01*
X128791483Y-112364464D01*
X129176157Y-112317344D01*
X129483937Y-112295424D01*
X129697012Y-112301746D01*
X129814711Y-112305355D01*
X129907978Y-112275627D01*
X129918173Y-112222900D01*
X129828727Y-112164446D01*
X129789338Y-112140505D01*
X129773888Y-112078521D01*
X129781161Y-112044196D01*
X129748565Y-111924186D01*
X129668253Y-111767785D01*
X129561561Y-111608651D01*
X129518518Y-111559261D01*
X135654405Y-111559261D01*
X135668354Y-111901642D01*
X135669492Y-111923236D01*
X135682042Y-112169901D01*
X135684649Y-112222900D01*
X135698351Y-112501420D01*
X135717043Y-112889258D01*
X135736741Y-113304880D01*
X135748393Y-113555001D01*
X135756068Y-113719753D01*
X135760100Y-113806234D01*
X135779562Y-114201586D01*
X135799526Y-114575550D01*
X135818622Y-114904302D01*
X135835479Y-115164023D01*
X135848728Y-115330889D01*
X135869192Y-115509326D01*
X135870459Y-115520375D01*
X135897490Y-115627074D01*
X135941270Y-115665888D01*
X136014215Y-115661629D01*
X136062657Y-115665093D01*
X136223875Y-115715695D01*
X136478649Y-115821099D01*
X136822064Y-115979212D01*
X137249203Y-116187936D01*
X137592202Y-116355238D01*
X138188332Y-116628237D01*
X138825867Y-116898094D01*
X139515243Y-117168575D01*
X140266893Y-117443444D01*
X141091253Y-117726468D01*
X141998758Y-118021414D01*
X142999843Y-118332046D01*
X144104944Y-118662131D01*
X144495076Y-118751079D01*
X144950585Y-118811162D01*
X145420017Y-118837089D01*
X145862262Y-118826634D01*
X146236208Y-118777570D01*
X146733095Y-118652516D01*
X147283255Y-118452857D01*
X147807243Y-118185073D01*
X148344857Y-117831304D01*
X148351705Y-117826366D01*
X148659783Y-117617271D01*
X148947463Y-117445868D01*
X149197079Y-117321013D01*
X149390967Y-117251564D01*
X149511463Y-117246378D01*
X149554774Y-117255969D01*
X149564070Y-117222532D01*
X149544430Y-117200701D01*
X149446089Y-117164811D01*
X149403707Y-117151358D01*
X149399270Y-117072328D01*
X149424840Y-117030317D01*
X149470426Y-117037557D01*
X149483036Y-117040686D01*
X149501542Y-116969632D01*
X149510884Y-116823488D01*
X149512052Y-116788978D01*
X149522992Y-116616367D01*
X149543651Y-116356347D01*
X149572168Y-116030445D01*
X149606684Y-115660190D01*
X149645339Y-115267109D01*
X149689465Y-114821459D01*
X149744417Y-114229791D01*
X149784105Y-113745450D01*
X149808764Y-113363350D01*
X149818632Y-113078405D01*
X149813944Y-112885527D01*
X149799000Y-112802276D01*
X149962142Y-112802276D01*
X149967960Y-112867468D01*
X149970671Y-112878297D01*
X149992308Y-113027644D01*
X149994916Y-113078405D01*
X150001617Y-113208834D01*
X150002322Y-113275106D01*
X150019068Y-113381472D01*
X150084449Y-113421602D01*
X150232532Y-113427799D01*
X150276915Y-113426725D01*
X150422276Y-113406549D01*
X150499057Y-113368890D01*
X150517145Y-113347961D01*
X150612294Y-113260246D01*
X150765875Y-113129735D01*
X150955031Y-112976115D01*
X150987093Y-112950478D01*
X151194337Y-112779909D01*
X151411459Y-112594391D01*
X151621915Y-112408937D01*
X151809155Y-112238560D01*
X151956632Y-112098274D01*
X152047800Y-112003092D01*
X152066110Y-111968029D01*
X152059392Y-111969122D01*
X151977219Y-112006338D01*
X151848617Y-112080042D01*
X151655198Y-112182531D01*
X151364221Y-112309640D01*
X151027873Y-112437577D01*
X150682112Y-112552751D01*
X150362895Y-112641573D01*
X150297047Y-112657666D01*
X150105178Y-112709676D01*
X150000712Y-112753779D01*
X149962142Y-112802276D01*
X149799000Y-112802276D01*
X149794935Y-112779632D01*
X149761842Y-112755632D01*
X149717773Y-112768568D01*
X149553611Y-112796119D01*
X149326767Y-112819256D01*
X149067038Y-112836635D01*
X148804225Y-112846914D01*
X148568127Y-112848749D01*
X148388544Y-112840798D01*
X148295276Y-112821718D01*
X148289936Y-112818352D01*
X148202618Y-112737868D01*
X148228567Y-112676492D01*
X148369256Y-112630408D01*
X148526224Y-112562600D01*
X148606613Y-112493546D01*
X149034107Y-112493546D01*
X149036707Y-112493490D01*
X149130382Y-112481042D01*
X149311695Y-112449913D01*
X149555619Y-112404593D01*
X149837124Y-112349568D01*
X150375881Y-112228725D01*
X151187971Y-111986321D01*
X151901723Y-111689994D01*
X152521347Y-111337879D01*
X153051053Y-110928116D01*
X153130086Y-110858731D01*
X153233381Y-110781627D01*
X153263655Y-110787062D01*
X153220303Y-110875964D01*
X153102721Y-111049261D01*
X152910304Y-111307882D01*
X152642450Y-111652756D01*
X152391506Y-111968029D01*
X152298553Y-112084811D01*
X152256877Y-112143408D01*
X152277027Y-112146353D01*
X152379506Y-112068295D01*
X152563700Y-111909638D01*
X152720423Y-111762396D01*
X153008411Y-111461206D01*
X153330949Y-111094197D01*
X153671375Y-110681769D01*
X154013023Y-110244323D01*
X154339230Y-109802259D01*
X154633332Y-109375977D01*
X154986147Y-108827634D01*
X155449804Y-108054681D01*
X155867746Y-107294549D01*
X156234348Y-106559365D01*
X156543987Y-105861255D01*
X156791040Y-105212348D01*
X156969882Y-104624770D01*
X157074892Y-104110649D01*
X157104805Y-103913600D01*
X157138434Y-103752384D01*
X157169420Y-103687791D01*
X157201283Y-103708626D01*
X157211093Y-103729395D01*
X157236654Y-103900980D01*
X157218176Y-104159844D01*
X157159856Y-104490170D01*
X157065895Y-104876143D01*
X156940491Y-105301946D01*
X156787845Y-105751762D01*
X156612156Y-106209775D01*
X156417622Y-106660169D01*
X156294091Y-106940475D01*
X156199220Y-107192634D01*
X156148030Y-107392299D01*
X156132352Y-107565390D01*
X156131442Y-107616598D01*
X156114400Y-107883647D01*
X156078758Y-108231424D01*
X156028321Y-108632999D01*
X155966893Y-109061443D01*
X155898279Y-109489824D01*
X155826282Y-109891213D01*
X155754708Y-110238679D01*
X155741896Y-110294960D01*
X155579644Y-110922176D01*
X155389534Y-111525635D01*
X155182170Y-112074351D01*
X154968153Y-112537339D01*
X154933268Y-112604422D01*
X154840063Y-112786229D01*
X154777101Y-112913034D01*
X154756468Y-112960673D01*
X154796977Y-112923545D01*
X154896870Y-112823774D01*
X155034077Y-112683316D01*
X155233076Y-112454430D01*
X155539142Y-112016626D01*
X155844530Y-111482273D01*
X156144872Y-110863480D01*
X156435802Y-110172354D01*
X156712951Y-109421003D01*
X156971951Y-108621535D01*
X157208435Y-107786059D01*
X157418035Y-106926681D01*
X157596383Y-106055510D01*
X157739111Y-105184655D01*
X157780365Y-104839319D01*
X157821803Y-104322568D01*
X157849573Y-103751114D01*
X157863717Y-103149345D01*
X157864274Y-102541648D01*
X157851285Y-101952412D01*
X157824790Y-101406025D01*
X157784829Y-100926874D01*
X157731443Y-100539347D01*
X157697499Y-100350895D01*
X157339655Y-100860497D01*
X157229604Y-101006962D01*
X157043938Y-101231786D01*
X156817148Y-101490047D01*
X156561146Y-101769712D01*
X156287847Y-102058747D01*
X156009165Y-102345119D01*
X155737015Y-102616793D01*
X155483309Y-102861736D01*
X155259963Y-103067914D01*
X155078890Y-103223294D01*
X154952005Y-103315842D01*
X154891220Y-103333524D01*
X154865333Y-103264646D01*
X154929633Y-103158536D01*
X154982781Y-103086149D01*
X155091423Y-102847483D01*
X155194948Y-102493034D01*
X155293252Y-102023408D01*
X155386234Y-101439213D01*
X155473790Y-100741054D01*
X155555818Y-99929537D01*
X155632216Y-99005270D01*
X155665068Y-98567339D01*
X155563511Y-98802965D01*
X155364395Y-99219492D01*
X154949041Y-99913408D01*
X154433017Y-100605395D01*
X153825395Y-101282512D01*
X153791633Y-101317417D01*
X153493078Y-101652994D01*
X153184141Y-102041590D01*
X152888862Y-102450134D01*
X152631275Y-102845557D01*
X152435419Y-103194791D01*
X152385824Y-103305829D01*
X152344068Y-103436418D01*
X152310891Y-103599476D01*
X152282956Y-103816058D01*
X152262894Y-104040457D01*
X152256925Y-104107217D01*
X152229460Y-104494006D01*
X152179843Y-105139676D01*
X152114401Y-105805685D01*
X152039387Y-106418532D01*
X151958316Y-106946420D01*
X151956654Y-106980056D01*
X151983970Y-106961903D01*
X152041764Y-106865195D01*
X152121428Y-106708525D01*
X152214353Y-106510483D01*
X152311927Y-106289661D01*
X152405542Y-106064649D01*
X152486589Y-105854038D01*
X152546457Y-105676420D01*
X152586494Y-105551935D01*
X152637294Y-105420765D01*
X152669970Y-105369868D01*
X152681660Y-105380885D01*
X152684121Y-105475735D01*
X152658094Y-105649261D01*
X152608195Y-105878954D01*
X152539041Y-106142306D01*
X152455249Y-106416807D01*
X152377359Y-106632955D01*
X152260985Y-106926702D01*
X152118072Y-107269605D01*
X151958622Y-107639156D01*
X151792635Y-108012850D01*
X151630114Y-108368180D01*
X151481060Y-108682640D01*
X151355474Y-108933723D01*
X151263358Y-109098924D01*
X151201082Y-109200437D01*
X151083678Y-109396221D01*
X150940510Y-109638062D01*
X150789894Y-109895155D01*
X150423437Y-110501225D01*
X149897971Y-111287849D01*
X149366195Y-111985730D01*
X149220633Y-112170585D01*
X149100582Y-112338829D01*
X149034751Y-112452072D01*
X149034107Y-112493546D01*
X148606613Y-112493546D01*
X148666481Y-112442120D01*
X148786749Y-112289224D01*
X148504122Y-112165799D01*
X148324040Y-112091907D01*
X148051193Y-111986291D01*
X147707428Y-111856968D01*
X147312659Y-111711111D01*
X146886796Y-111555889D01*
X146449753Y-111398475D01*
X146021440Y-111246040D01*
X145621769Y-111105754D01*
X145270653Y-110984790D01*
X144988003Y-110890318D01*
X144793732Y-110829510D01*
X144108400Y-110649916D01*
X142856517Y-110413815D01*
X141550014Y-110280820D01*
X141336790Y-110270474D01*
X140963056Y-110261112D01*
X140542182Y-110258745D01*
X140090558Y-110262731D01*
X139624578Y-110272427D01*
X139160633Y-110287189D01*
X138715115Y-110306374D01*
X138304418Y-110329338D01*
X137944931Y-110355439D01*
X137653049Y-110384032D01*
X137445163Y-110414476D01*
X137337665Y-110446126D01*
X137319159Y-110479532D01*
X137316488Y-110598906D01*
X137344073Y-110810673D01*
X137402866Y-111124768D01*
X137449203Y-111350135D01*
X137495928Y-111569997D01*
X137530339Y-111723438D01*
X137547189Y-111786401D01*
X137560297Y-111786250D01*
X137641165Y-111741896D01*
X137767526Y-111652375D01*
X137791841Y-111633911D01*
X137904115Y-111557685D01*
X138003897Y-111524702D01*
X138133524Y-111528171D01*
X138335334Y-111561302D01*
X138423902Y-111578262D01*
X138839635Y-111674727D01*
X139320149Y-111807794D01*
X139832450Y-111967322D01*
X140343543Y-112143168D01*
X140820435Y-112325191D01*
X141071503Y-112429405D01*
X141400355Y-112571696D01*
X141745140Y-112725973D01*
X142090502Y-112884864D01*
X142421085Y-113040999D01*
X142721533Y-113187010D01*
X142976489Y-113315524D01*
X143170597Y-113419172D01*
X143288502Y-113490584D01*
X143314846Y-113522389D01*
X143296103Y-113525829D01*
X143205101Y-113517687D01*
X143043448Y-113484364D01*
X142803039Y-113423747D01*
X142475768Y-113333725D01*
X142053529Y-113212188D01*
X141528218Y-113057022D01*
X141264439Y-112980125D01*
X140090004Y-112682122D01*
X138968863Y-112473589D01*
X137886626Y-112351737D01*
X137828147Y-112346872D01*
X137564788Y-112304532D01*
X137410670Y-112234505D01*
X137361493Y-112133584D01*
X137412952Y-111998559D01*
X137434048Y-111964746D01*
X137463076Y-111865242D01*
X137408807Y-111761128D01*
X137364010Y-111693650D01*
X137267608Y-111536265D01*
X137142210Y-111323944D01*
X137003608Y-111083110D01*
X136683266Y-110519341D01*
X136467323Y-110577454D01*
X136383518Y-110605270D01*
X136181117Y-110695260D01*
X135981001Y-110807086D01*
X135846965Y-110901090D01*
X135748709Y-111003961D01*
X135688151Y-111132937D01*
X135658860Y-111310531D01*
X135654405Y-111559261D01*
X129518518Y-111559261D01*
X129449825Y-111480439D01*
X129354384Y-111416807D01*
X129326830Y-111411855D01*
X129167542Y-111404346D01*
X128919087Y-111409226D01*
X128601977Y-111424971D01*
X128236722Y-111450061D01*
X127843833Y-111482974D01*
X127443823Y-111522187D01*
X127057203Y-111566178D01*
X126704484Y-111613427D01*
X126578976Y-111632489D01*
X126211473Y-111693216D01*
X125799902Y-111766751D01*
X125370824Y-111847868D01*
X124950801Y-111931338D01*
X124566393Y-112011935D01*
X124244161Y-112084430D01*
X124010666Y-112143597D01*
X124001595Y-112146205D01*
X123814327Y-112221937D01*
X123649606Y-112323884D01*
X123536625Y-112430353D01*
X123504578Y-112519653D01*
X115913315Y-112519653D01*
X115953560Y-112268597D01*
X116014088Y-111948497D01*
X116083768Y-111625935D01*
X116164403Y-111286803D01*
X116257794Y-110916994D01*
X116386377Y-110431390D01*
X116538821Y-109899155D01*
X116674588Y-109479617D01*
X116684100Y-109455099D01*
X124482170Y-109455099D01*
X124489159Y-109513438D01*
X124534187Y-109540355D01*
X124583419Y-109554259D01*
X124800624Y-109605149D01*
X125099245Y-109665484D01*
X125453432Y-109730783D01*
X125837336Y-109796566D01*
X126225107Y-109858351D01*
X126590895Y-109911658D01*
X126908852Y-109952005D01*
X126984688Y-109960623D01*
X127296609Y-109996402D01*
X127577042Y-110029063D01*
X127797799Y-110055303D01*
X127930691Y-110071815D01*
X127940482Y-110073018D01*
X128114345Y-110069798D01*
X128251840Y-110029233D01*
X128294742Y-110013840D01*
X128456441Y-109986082D01*
X128714788Y-109959812D01*
X129056773Y-109936236D01*
X129469385Y-109916556D01*
X129482190Y-109916055D01*
X129826718Y-109901499D01*
X130128341Y-109886805D01*
X130368608Y-109873026D01*
X130529067Y-109861218D01*
X130591267Y-109852434D01*
X130592784Y-109823548D01*
X130570540Y-109709157D01*
X130545715Y-109618535D01*
X130923632Y-109618535D01*
X130931041Y-109694096D01*
X130950683Y-109744697D01*
X130988909Y-109702597D01*
X130996308Y-109669095D01*
X130965744Y-109571954D01*
X130958582Y-109560718D01*
X130926028Y-109536173D01*
X130923632Y-109618535D01*
X130545715Y-109618535D01*
X130524773Y-109542086D01*
X130493319Y-109428029D01*
X130908622Y-109428029D01*
X130937817Y-109457224D01*
X130967012Y-109428029D01*
X130937817Y-109398834D01*
X130908622Y-109428029D01*
X130493319Y-109428029D01*
X130482523Y-109388880D01*
X130398044Y-109001931D01*
X130862238Y-109001931D01*
X130869951Y-109121477D01*
X130890226Y-109131382D01*
X130899402Y-109048489D01*
X130891263Y-108968165D01*
X130869951Y-108975500D01*
X130862238Y-109001931D01*
X130398044Y-109001931D01*
X130396745Y-108995982D01*
X130330521Y-108610558D01*
X130791840Y-108610558D01*
X130821035Y-108639753D01*
X130850231Y-108610558D01*
X130821035Y-108581362D01*
X130791840Y-108610558D01*
X130330521Y-108610558D01*
X130311041Y-108497183D01*
X130226318Y-107899755D01*
X130155260Y-107308874D01*
X132780612Y-107308874D01*
X132868023Y-107403163D01*
X133039950Y-107535337D01*
X133043763Y-107538007D01*
X133209064Y-107651898D01*
X133331758Y-107732992D01*
X133385535Y-107763891D01*
X133385370Y-107752044D01*
X133358359Y-107658283D01*
X133301854Y-107491371D01*
X133223944Y-107275752D01*
X133043040Y-106787612D01*
X132945359Y-107005789D01*
X132924773Y-107049641D01*
X132845814Y-107188787D01*
X132780678Y-107265375D01*
X132780612Y-107308874D01*
X130155260Y-107308874D01*
X130143486Y-107210970D01*
X130063455Y-106438097D01*
X129987133Y-105588410D01*
X129915431Y-104669178D01*
X129894641Y-104392214D01*
X129865303Y-104015784D01*
X129830015Y-103572951D01*
X129790817Y-103089110D01*
X129749753Y-102589655D01*
X129715756Y-102182527D01*
X131392926Y-102182527D01*
X131398850Y-102918375D01*
X131414333Y-103619504D01*
X131439381Y-104265498D01*
X131474001Y-104835938D01*
X131518198Y-105310408D01*
X131533771Y-105442325D01*
X131568525Y-105725811D01*
X131598519Y-105955865D01*
X131620971Y-106111618D01*
X131633098Y-106172198D01*
X131639422Y-106131469D01*
X131649063Y-105991491D01*
X131660591Y-105769390D01*
X131673075Y-105483319D01*
X131685579Y-105151429D01*
X131690889Y-105013250D01*
X131713847Y-104545708D01*
X131744814Y-104036683D01*
X131780397Y-103538924D01*
X131817204Y-103105178D01*
X131827984Y-102989427D01*
X131860097Y-102607807D01*
X131877440Y-102312559D01*
X131880490Y-102080335D01*
X131869723Y-101887786D01*
X131845613Y-101711564D01*
X131816374Y-101515919D01*
X131803127Y-101365344D01*
X131809406Y-101296517D01*
X131818632Y-101288698D01*
X131832237Y-101288966D01*
X131848732Y-101313154D01*
X131871200Y-101372456D01*
X131902725Y-101478068D01*
X131946390Y-101641187D01*
X132005279Y-101873006D01*
X132082477Y-102184722D01*
X132181066Y-102587531D01*
X132304131Y-103092627D01*
X132402771Y-103493178D01*
X132634827Y-104395516D01*
X132856061Y-105195595D01*
X133069324Y-105903052D01*
X133277466Y-106527522D01*
X133483338Y-107078644D01*
X133484993Y-107082801D01*
X133578652Y-107306103D01*
X133696983Y-107570756D01*
X133786899Y-107763891D01*
X133830853Y-107858303D01*
X133971134Y-108150291D01*
X134108695Y-108428263D01*
X134202041Y-108610558D01*
X134234406Y-108673764D01*
X134339137Y-108868338D01*
X134413757Y-108993531D01*
X134449137Y-109030885D01*
X134450596Y-109026840D01*
X134443690Y-108946133D01*
X134416179Y-108786580D01*
X134372972Y-108577417D01*
X134361974Y-108522699D01*
X134323353Y-108228700D01*
X134296388Y-107843648D01*
X134281051Y-107387819D01*
X134277317Y-106881492D01*
X134284668Y-106378655D01*
X134653021Y-106378655D01*
X134654716Y-106767746D01*
X134658706Y-107153974D01*
X134664921Y-107518276D01*
X134673296Y-107841589D01*
X134683762Y-108104849D01*
X134696251Y-108288995D01*
X134733219Y-108668121D01*
X135375518Y-109002757D01*
X135463973Y-109048489D01*
X135630430Y-109134549D01*
X135851513Y-109244754D01*
X135994290Y-109308216D01*
X136071979Y-109329865D01*
X136097796Y-109314635D01*
X136084957Y-109267454D01*
X135997077Y-109065884D01*
X135809727Y-108599176D01*
X135613759Y-108069231D01*
X135418507Y-107504380D01*
X135233305Y-106932949D01*
X135067486Y-106383269D01*
X134930383Y-105883668D01*
X134831331Y-105462475D01*
X134809614Y-105361106D01*
X134756549Y-105151418D01*
X134714102Y-105043333D01*
X134684751Y-105043918D01*
X134681319Y-105057463D01*
X134670531Y-105174923D01*
X134662375Y-105384835D01*
X134656783Y-105668137D01*
X134653687Y-106005764D01*
X134653021Y-106378655D01*
X134284668Y-106378655D01*
X134285161Y-106344945D01*
X134304555Y-105798456D01*
X134335473Y-105262303D01*
X134377890Y-104756765D01*
X134415630Y-104402916D01*
X134464424Y-103986541D01*
X134521737Y-103527168D01*
X134585756Y-103037013D01*
X134654674Y-102528293D01*
X134726678Y-102013223D01*
X134799960Y-101504021D01*
X134872709Y-101012901D01*
X134943115Y-100552080D01*
X135009367Y-100133775D01*
X135069656Y-99770201D01*
X135122171Y-99473575D01*
X135165103Y-99256113D01*
X135196640Y-99130030D01*
X135214974Y-99107544D01*
X135216887Y-99134670D01*
X135210859Y-99265511D01*
X135193519Y-99485717D01*
X135166430Y-99777876D01*
X135131154Y-100124579D01*
X135089254Y-100508413D01*
X135067369Y-100702811D01*
X134995314Y-101347105D01*
X134935762Y-101890003D01*
X134887858Y-102342978D01*
X134850749Y-102717501D01*
X134823580Y-103025044D01*
X134805499Y-103277077D01*
X134795652Y-103485073D01*
X134793184Y-103660503D01*
X134797243Y-103814839D01*
X134806974Y-103959551D01*
X134821525Y-104106112D01*
X134944125Y-104917531D01*
X135151708Y-105842446D01*
X135436328Y-106826629D01*
X135794650Y-107858610D01*
X136223337Y-108926918D01*
X136321726Y-109154284D01*
X136392891Y-109314635D01*
X136443217Y-109428029D01*
X136470814Y-109490212D01*
X136552187Y-109669095D01*
X136622447Y-109823548D01*
X136623844Y-109826618D01*
X136773487Y-110148184D01*
X136912410Y-110439593D01*
X137033284Y-110685528D01*
X137128776Y-110870673D01*
X137191556Y-110979711D01*
X137214292Y-110997324D01*
X137210647Y-110967878D01*
X137178562Y-110843230D01*
X137124036Y-110676175D01*
X137083735Y-110555941D01*
X136995650Y-110264591D01*
X136891272Y-109892433D01*
X136776035Y-109460798D01*
X136655377Y-108991017D01*
X136534733Y-108504421D01*
X136419538Y-108022340D01*
X136315228Y-107566104D01*
X136227240Y-107157046D01*
X136134396Y-106687871D01*
X135975908Y-105795075D01*
X135834141Y-104877982D01*
X135715834Y-103981620D01*
X135627724Y-103151017D01*
X135618227Y-103036745D01*
X135591844Y-102587060D01*
X135573632Y-102051685D01*
X135563437Y-101454323D01*
X135561102Y-100818678D01*
X135566476Y-100168454D01*
X135579402Y-99527354D01*
X135599727Y-98919084D01*
X135627296Y-98367346D01*
X135661954Y-97895845D01*
X135674795Y-97756202D01*
X135746304Y-97059972D01*
X135828728Y-96372263D01*
X135920005Y-95703860D01*
X136018076Y-95065551D01*
X136120882Y-94468119D01*
X136226363Y-93922353D01*
X136332459Y-93439036D01*
X136437110Y-93028955D01*
X136538256Y-92702897D01*
X136633839Y-92471646D01*
X136721797Y-92345988D01*
X136762968Y-92318989D01*
X136804433Y-92341354D01*
X136791216Y-92464126D01*
X136723311Y-92685446D01*
X136686038Y-92801925D01*
X136605652Y-93111892D01*
X136518718Y-93513983D01*
X136427917Y-93992133D01*
X136335930Y-94530281D01*
X136245436Y-95112363D01*
X136159116Y-95722318D01*
X136079651Y-96344082D01*
X136009721Y-96961592D01*
X136005871Y-96999155D01*
X135974862Y-97382278D01*
X135947766Y-97858943D01*
X135924870Y-98408382D01*
X135906460Y-99009827D01*
X135892824Y-99642511D01*
X135884247Y-100285667D01*
X135881018Y-100918526D01*
X135883421Y-101520321D01*
X135891745Y-102070285D01*
X135906275Y-102547650D01*
X135927299Y-102931649D01*
X135988860Y-103616183D01*
X136089031Y-104466589D01*
X136217641Y-105375884D01*
X136370203Y-106316593D01*
X136542231Y-107261245D01*
X136729239Y-108182363D01*
X136926740Y-109052475D01*
X137103524Y-109786347D01*
X137524119Y-109920582D01*
X137554926Y-109930472D01*
X137761795Y-109999975D01*
X137922019Y-110058906D01*
X138003104Y-110095405D01*
X138042673Y-110105073D01*
X138182441Y-110111744D01*
X138392672Y-110108177D01*
X138645403Y-110094414D01*
X138745708Y-110087637D01*
X139081215Y-110068778D01*
X139420443Y-110054330D01*
X139703347Y-110046984D01*
X140177383Y-110041132D01*
X140182801Y-110000736D01*
X140426323Y-110000736D01*
X140426399Y-110001526D01*
X140483445Y-110021509D01*
X140626254Y-110035721D01*
X140824917Y-110041132D01*
X140998399Y-110043628D01*
X141540688Y-110075014D01*
X142149613Y-110138541D01*
X142793206Y-110229348D01*
X143439501Y-110342578D01*
X144056529Y-110473370D01*
X144612322Y-110616864D01*
X144820307Y-110680040D01*
X145156327Y-110788893D01*
X145562761Y-110925621D01*
X146018323Y-111082728D01*
X146501724Y-111252715D01*
X146991676Y-111428084D01*
X147466891Y-111601337D01*
X147906082Y-111764976D01*
X148287960Y-111911503D01*
X148488777Y-111989570D01*
X148696355Y-112068920D01*
X148841478Y-112122773D01*
X148901064Y-112142436D01*
X148934892Y-112109467D01*
X149025185Y-111990691D01*
X149160851Y-111798775D01*
X149332658Y-111547768D01*
X149531378Y-111251723D01*
X149747778Y-110924690D01*
X149972630Y-110580719D01*
X150196703Y-110233862D01*
X150410767Y-109898170D01*
X150605592Y-109587693D01*
X150771947Y-109316483D01*
X150900602Y-109098590D01*
X151056434Y-108818915D01*
X151192900Y-108546539D01*
X151299285Y-108287535D01*
X151392857Y-107999197D01*
X151490884Y-107638820D01*
X151547076Y-107411095D01*
X151668101Y-106858115D01*
X151784279Y-106249866D01*
X151888389Y-105628117D01*
X151973212Y-105034636D01*
X152031526Y-104511191D01*
X152042747Y-104378869D01*
X152056757Y-104175649D01*
X152061600Y-104040457D01*
X152056122Y-103997387D01*
X152043772Y-104018707D01*
X151992697Y-104128940D01*
X151913670Y-104310582D01*
X151816817Y-104539572D01*
X151712263Y-104791848D01*
X151610134Y-105043349D01*
X151520556Y-105270015D01*
X151443452Y-105453788D01*
X151215109Y-105873451D01*
X150922644Y-106258037D01*
X150557308Y-106614447D01*
X150110353Y-106949585D01*
X149573032Y-107270353D01*
X148936597Y-107583656D01*
X148192300Y-107896394D01*
X147890687Y-108011107D01*
X147384837Y-108192363D01*
X146814314Y-108386581D01*
X146207606Y-108584523D01*
X145593206Y-108776949D01*
X144999603Y-108954619D01*
X144455288Y-109108294D01*
X144273463Y-109158436D01*
X143966161Y-109246629D01*
X143701218Y-109326925D01*
X143502171Y-109392090D01*
X143392556Y-109434892D01*
X143231427Y-109495322D01*
X143030988Y-109511132D01*
X142801215Y-109465059D01*
X142528216Y-109352529D01*
X142198093Y-109168971D01*
X141796954Y-108909811D01*
X141389771Y-108634390D01*
X141137561Y-108914428D01*
X141090927Y-108968539D01*
X140957339Y-109140264D01*
X140810644Y-109346073D01*
X140667518Y-109560496D01*
X140544639Y-109758061D01*
X140458681Y-109913298D01*
X140426323Y-110000736D01*
X140182801Y-110000736D01*
X140208182Y-109811511D01*
X140247395Y-109628272D01*
X140373741Y-109294721D01*
X140557134Y-108962779D01*
X140775095Y-108677418D01*
X141017548Y-108414387D01*
X140264707Y-107918792D01*
X139833845Y-107628373D01*
X139255761Y-107210824D01*
X138720065Y-106784476D01*
X138200439Y-106326929D01*
X137670564Y-105815782D01*
X137104121Y-105228632D01*
X136820051Y-104920659D01*
X136544379Y-104609175D01*
X136324396Y-104345765D01*
X136166916Y-104138963D01*
X136078753Y-103997303D01*
X136066720Y-103929318D01*
X136090958Y-103936834D01*
X136188645Y-104007071D01*
X136345831Y-104137696D01*
X136547471Y-104316024D01*
X136778517Y-104529371D01*
X136817212Y-104565793D01*
X137348739Y-105064264D01*
X137811988Y-105493734D01*
X138221380Y-105865882D01*
X138591337Y-106192383D01*
X138936283Y-106484913D01*
X139270639Y-106755151D01*
X139608827Y-107014771D01*
X139965270Y-107275451D01*
X140354391Y-107548867D01*
X140790611Y-107846696D01*
X141288353Y-108180614D01*
X141342047Y-108216430D01*
X141761116Y-108494707D01*
X142096194Y-108714029D01*
X142358314Y-108880792D01*
X142558511Y-109001393D01*
X142707819Y-109082229D01*
X142817274Y-109129695D01*
X142897908Y-109150190D01*
X142960757Y-109150109D01*
X142973287Y-109148171D01*
X143130843Y-109114687D01*
X143379912Y-109052520D01*
X143702673Y-108966752D01*
X144081300Y-108862468D01*
X144497972Y-108744751D01*
X144934864Y-108618685D01*
X145374152Y-108489354D01*
X145798014Y-108361841D01*
X146188625Y-108241230D01*
X146528162Y-108132605D01*
X146694845Y-108077664D01*
X147525686Y-107792195D01*
X148249989Y-107521320D01*
X148875084Y-107261347D01*
X149408300Y-107008582D01*
X149856969Y-106759331D01*
X150228419Y-106509902D01*
X150529980Y-106256600D01*
X150768983Y-105995733D01*
X150839912Y-105901652D01*
X151004339Y-105653640D01*
X151157404Y-105386337D01*
X151284645Y-105128080D01*
X151371596Y-104907206D01*
X151403794Y-104752053D01*
X151403835Y-104742893D01*
X151444862Y-104415918D01*
X151555682Y-104027240D01*
X151725614Y-103598759D01*
X151943975Y-103152376D01*
X152200084Y-102709989D01*
X152483257Y-102293501D01*
X152782813Y-101924811D01*
X152943009Y-101740208D01*
X153085346Y-101564241D01*
X153178691Y-101435364D01*
X153190413Y-101417737D01*
X153282845Y-101294560D01*
X153430407Y-101110510D01*
X153615347Y-100887411D01*
X153819911Y-100647088D01*
X154151817Y-100252626D01*
X154665846Y-99590977D01*
X155079613Y-98983081D01*
X155394325Y-98427103D01*
X155611187Y-97921208D01*
X155663361Y-97739294D01*
X155725942Y-97398844D01*
X155762326Y-97019983D01*
X155792311Y-96465270D01*
X155650385Y-96758939D01*
X155607370Y-96843064D01*
X155487317Y-97058035D01*
X155336854Y-97311192D01*
X155178656Y-97563847D01*
X154848852Y-98075085D01*
X154848852Y-98653513D01*
X154846925Y-98815254D01*
X154837053Y-99036663D01*
X154820694Y-99194490D01*
X154799982Y-99262144D01*
X154760315Y-99248586D01*
X154670496Y-99162138D01*
X154559148Y-99020005D01*
X154367183Y-98747662D01*
X154222294Y-98920259D01*
X154095492Y-99070198D01*
X153757294Y-99455247D01*
X153465709Y-99759400D01*
X153206791Y-99994593D01*
X152966596Y-100172762D01*
X152731178Y-100305841D01*
X152486591Y-100405766D01*
X152288333Y-100465252D01*
X152132174Y-100488515D01*
X152065518Y-100462248D01*
X152096680Y-100386854D01*
X152103923Y-100375953D01*
X152147346Y-100266850D01*
X152206595Y-100072381D01*
X152277119Y-99812377D01*
X152354366Y-99506670D01*
X152433787Y-99175091D01*
X152510830Y-98837471D01*
X152580944Y-98513642D01*
X152639580Y-98223434D01*
X152682187Y-97986679D01*
X152704213Y-97823208D01*
X152701108Y-97752852D01*
X152685948Y-97743131D01*
X152572112Y-97722355D01*
X152392711Y-97720298D01*
X152185984Y-97734691D01*
X151990171Y-97763265D01*
X151843511Y-97803750D01*
X151823774Y-97811638D01*
X151659907Y-97855383D01*
X151531660Y-97857271D01*
X151515136Y-97854613D01*
X151386130Y-97861538D01*
X151188794Y-97893943D01*
X150958689Y-97946303D01*
X150676762Y-98017887D01*
X150364883Y-98095313D01*
X150097405Y-98160069D01*
X149865354Y-98218133D01*
X149646517Y-98287116D01*
X149493809Y-98362631D01*
X149379561Y-98459206D01*
X149276108Y-98591371D01*
X149274753Y-98593336D01*
X149190946Y-98741270D01*
X149096692Y-98947388D01*
X149001790Y-99184275D01*
X148916034Y-99424514D01*
X148849223Y-99640691D01*
X148811154Y-99805389D01*
X148811622Y-99891194D01*
X148821293Y-99919448D01*
X148783647Y-99993316D01*
X148745280Y-100068594D01*
X148717020Y-100236740D01*
X148701666Y-100470214D01*
X148699399Y-100742899D01*
X148710402Y-101028675D01*
X148734855Y-101301427D01*
X148772940Y-101535036D01*
X148775032Y-101544579D01*
X148837068Y-101805708D01*
X148898312Y-101981672D01*
X148977773Y-102101421D01*
X149094459Y-102193903D01*
X149267376Y-102288067D01*
X149554177Y-102432810D01*
X149681367Y-102193408D01*
X149690799Y-102175659D01*
X149854203Y-101870519D01*
X149975480Y-101650338D01*
X150065193Y-101497025D01*
X150133907Y-101392491D01*
X150192185Y-101318644D01*
X150257389Y-101219362D01*
X150294369Y-101094496D01*
X150307409Y-101033077D01*
X150381620Y-100953411D01*
X150420995Y-100929432D01*
X150436310Y-100867245D01*
X150432719Y-100834763D01*
X150494700Y-100779659D01*
X150537205Y-100753880D01*
X150553346Y-100692485D01*
X150545797Y-100675611D01*
X150574577Y-100640213D01*
X150578040Y-100639581D01*
X150636061Y-100584287D01*
X150728673Y-100461548D01*
X150835775Y-100302398D01*
X150937268Y-100137875D01*
X151013053Y-99999016D01*
X151043030Y-99916856D01*
X151045167Y-99901963D01*
X151100732Y-99829270D01*
X151119065Y-99810560D01*
X151194076Y-99708898D01*
X151307534Y-99540751D01*
X151444927Y-99328700D01*
X151591739Y-99095325D01*
X151733456Y-98863207D01*
X151855566Y-98654925D01*
X151923868Y-98535775D01*
X152061102Y-98305127D01*
X152152699Y-98168093D01*
X152203991Y-98117223D01*
X152220305Y-98145067D01*
X152220188Y-98149754D01*
X152187702Y-98265566D01*
X152101842Y-98468794D01*
X151968692Y-98747475D01*
X151794337Y-99089645D01*
X151584862Y-99483340D01*
X151346352Y-99916598D01*
X151084891Y-100377454D01*
X150942898Y-100624827D01*
X150752732Y-100958041D01*
X150576248Y-101269296D01*
X150428387Y-101532220D01*
X150324086Y-101720443D01*
X150306353Y-101752804D01*
X150096621Y-102113776D01*
X149912064Y-102390334D01*
X149758562Y-102574400D01*
X149641993Y-102657894D01*
X149512478Y-102663425D01*
X149339409Y-102626181D01*
X149178976Y-102560960D01*
X149083210Y-102483958D01*
X149082480Y-102482757D01*
X148999785Y-102406539D01*
X148865266Y-102327681D01*
X148811777Y-102299585D01*
X148751750Y-102251339D01*
X148698977Y-102175481D01*
X148646322Y-102054882D01*
X148586646Y-101872409D01*
X148512813Y-101610931D01*
X148417686Y-101253316D01*
X148388885Y-101088150D01*
X148381659Y-100751438D01*
X148419079Y-100357082D01*
X148495543Y-99933678D01*
X148605449Y-99509820D01*
X148743195Y-99114106D01*
X148903179Y-98775130D01*
X149081774Y-98457403D01*
X148923925Y-98560830D01*
X148818902Y-98611612D01*
X148733447Y-98626119D01*
X148699994Y-98604791D01*
X148748704Y-98549567D01*
X148789248Y-98509955D01*
X148863794Y-98402554D01*
X148917628Y-98339377D01*
X149062136Y-98213638D01*
X149274388Y-98049682D01*
X149536233Y-97860007D01*
X149829520Y-97657110D01*
X150136098Y-97453490D01*
X150437815Y-97261644D01*
X150716521Y-97094072D01*
X150954066Y-96963271D01*
X151155315Y-96857305D01*
X151328618Y-96759968D01*
X151432421Y-96693951D01*
X151449214Y-96669638D01*
X151395410Y-96672832D01*
X151181903Y-96715199D01*
X150907019Y-96797665D01*
X150599795Y-96908542D01*
X150289272Y-97036145D01*
X150004489Y-97168787D01*
X149774484Y-97294782D01*
X149628297Y-97402442D01*
X149549739Y-97453821D01*
X149439556Y-97462868D01*
X149384675Y-97414236D01*
X149409720Y-97327630D01*
X149519267Y-97217540D01*
X149699447Y-97092367D01*
X149936389Y-96960516D01*
X150216222Y-96830389D01*
X150525076Y-96710390D01*
X150849081Y-96608921D01*
X150853612Y-96607685D01*
X151115609Y-96546565D01*
X151394056Y-96504948D01*
X151722298Y-96479104D01*
X152133679Y-96465307D01*
X152951150Y-96449422D01*
X152987515Y-96194588D01*
X152996998Y-96123238D01*
X153010403Y-95985043D01*
X153008653Y-95921964D01*
X152956568Y-95921918D01*
X152810529Y-95935747D01*
X152594242Y-95961483D01*
X152331261Y-95996531D01*
X152035721Y-96033863D01*
X151615789Y-96072816D01*
X151240658Y-96090962D01*
X150924399Y-96088571D01*
X150681080Y-96065912D01*
X150524771Y-96023255D01*
X150469541Y-95960869D01*
X150474550Y-95933174D01*
X150499121Y-95908886D01*
X150557041Y-95886480D01*
X150662095Y-95863473D01*
X150828065Y-95837379D01*
X151068737Y-95805713D01*
X151397894Y-95765991D01*
X151829320Y-95715727D01*
X151942553Y-95702538D01*
X152294851Y-95660328D01*
X152600750Y-95621921D01*
X152842835Y-95589615D01*
X153003692Y-95565711D01*
X153065908Y-95552505D01*
X153070220Y-95539129D01*
X153086098Y-95433719D01*
X153107916Y-95241889D01*
X153133376Y-94984823D01*
X153160178Y-94683702D01*
X153180789Y-94407118D01*
X153214105Y-93704493D01*
X153228729Y-92927751D01*
X153225467Y-92104059D01*
X153205124Y-91260582D01*
X153168505Y-90424487D01*
X153116414Y-89622942D01*
X153049656Y-88883113D01*
X152969037Y-88232167D01*
X152954390Y-88130154D01*
X152933508Y-87990670D01*
X152914774Y-87904407D01*
X152894306Y-87880056D01*
X152868223Y-87926312D01*
X152832644Y-88051866D01*
X152783688Y-88265411D01*
X152717474Y-88575641D01*
X152630119Y-88991247D01*
X152623993Y-89020188D01*
X152368088Y-90046427D01*
X152035600Y-91097006D01*
X151637986Y-92144023D01*
X151186706Y-93159574D01*
X150693217Y-94115755D01*
X150168979Y-94984662D01*
X150073554Y-95127924D01*
X149506776Y-95903713D01*
X148899843Y-96616738D01*
X148264001Y-97256417D01*
X147610495Y-97812169D01*
X146950570Y-98273412D01*
X146295469Y-98629567D01*
X146275396Y-98638801D01*
X146052399Y-98735773D01*
X145851919Y-98814029D01*
X145715202Y-98857377D01*
X145544540Y-98895777D01*
X145761848Y-98655243D01*
X145870678Y-98526088D01*
X146039554Y-98304036D01*
X146191065Y-98083442D01*
X146217022Y-98041517D01*
X146314832Y-97870211D01*
X146436429Y-97643691D01*
X146572033Y-97381774D01*
X146711866Y-97104275D01*
X146846146Y-96831010D01*
X146965095Y-96581794D01*
X147058934Y-96376442D01*
X147117881Y-96234770D01*
X147132159Y-96176594D01*
X147077091Y-96196223D01*
X146940904Y-96263030D01*
X146744224Y-96366525D01*
X146507631Y-96496178D01*
X146097595Y-96714957D01*
X145455950Y-97022019D01*
X144812140Y-97290903D01*
X144189437Y-97512836D01*
X143611116Y-97679041D01*
X143100451Y-97780744D01*
X143088765Y-97782358D01*
X142893124Y-97801511D01*
X142645716Y-97815415D01*
X142370601Y-97824006D01*
X142091836Y-97827223D01*
X141833480Y-97825003D01*
X141619593Y-97817284D01*
X141474231Y-97804003D01*
X141421454Y-97785098D01*
X141461706Y-97737743D01*
X141571762Y-97640561D01*
X141726769Y-97516305D01*
X141797356Y-97460799D01*
X142005099Y-97290887D01*
X142243731Y-97089222D01*
X142474441Y-96888397D01*
X142919285Y-96494052D01*
X142954615Y-95834801D01*
X142968985Y-95602314D01*
X142988624Y-95358379D01*
X143008572Y-95175355D01*
X143026180Y-95081125D01*
X143028876Y-95055174D01*
X142980930Y-94941759D01*
X142850554Y-94760444D01*
X142634829Y-94506946D01*
X142508699Y-94363769D01*
X142310734Y-94133136D01*
X142137260Y-93924380D01*
X142015354Y-93769727D01*
X141937408Y-93673768D01*
X141828336Y-93572562D01*
X141758171Y-93552615D01*
X141730544Y-93565086D01*
X141730361Y-93532318D01*
X141717574Y-93482590D01*
X141641046Y-93377808D01*
X141523312Y-93249191D01*
X141391292Y-93123807D01*
X141271904Y-93028726D01*
X141192067Y-92991017D01*
X141135754Y-92960990D01*
X141019252Y-92868073D01*
X140873457Y-92734173D01*
X140687300Y-92573348D01*
X140407160Y-92366787D01*
X140086384Y-92155485D01*
X139871520Y-92027569D01*
X141798762Y-92027569D01*
X142068899Y-92348719D01*
X142091324Y-92375724D01*
X142241503Y-92568829D01*
X142414626Y-92807186D01*
X142595233Y-93067649D01*
X142767868Y-93327072D01*
X142917071Y-93562311D01*
X143027384Y-93750218D01*
X143083349Y-93867650D01*
X143098579Y-93908569D01*
X143156889Y-93979025D01*
X143207486Y-93944609D01*
X143229081Y-93813264D01*
X143237420Y-93677593D01*
X143261393Y-93558664D01*
X143262631Y-93547776D01*
X143220066Y-93456188D01*
X143110644Y-93306250D01*
X142949795Y-93114993D01*
X142752947Y-92899449D01*
X142535531Y-92676651D01*
X142312975Y-92463630D01*
X142100708Y-92277419D01*
X141798762Y-92027569D01*
X139871520Y-92027569D01*
X139757330Y-91959588D01*
X139452357Y-91799244D01*
X139203823Y-91694601D01*
X139042697Y-91650429D01*
X138789197Y-91621136D01*
X138582275Y-91647116D01*
X138450726Y-91727126D01*
X138438374Y-91745735D01*
X138383140Y-91864290D01*
X138324748Y-92027569D01*
X138317446Y-92050349D01*
X138237312Y-92266207D01*
X138148560Y-92465500D01*
X138130032Y-92506505D01*
X138068367Y-92681555D01*
X137994508Y-92932648D01*
X137912658Y-93240889D01*
X137827019Y-93587382D01*
X137741794Y-93953233D01*
X137661183Y-94319547D01*
X137589391Y-94667428D01*
X137530618Y-94977982D01*
X137489067Y-95232313D01*
X137468939Y-95411526D01*
X137474438Y-95496726D01*
X137481962Y-95517160D01*
X137443050Y-95571725D01*
X137411920Y-95618027D01*
X137377831Y-95753004D01*
X137355730Y-95941655D01*
X137344863Y-96085118D01*
X137320806Y-96334597D01*
X137295357Y-96538259D01*
X137289308Y-96581772D01*
X137284864Y-96735941D01*
X137323922Y-96786420D01*
X137363081Y-96809962D01*
X137390001Y-96906647D01*
X137401602Y-96973236D01*
X137444803Y-96993005D01*
X137478232Y-96986981D01*
X137546987Y-97040461D01*
X137588557Y-97089969D01*
X137725367Y-97200203D01*
X137925912Y-97333172D01*
X138167128Y-97476495D01*
X138425950Y-97617789D01*
X138679312Y-97744671D01*
X138904149Y-97844758D01*
X139077396Y-97905667D01*
X139175989Y-97915016D01*
X139216546Y-97908121D01*
X139258507Y-97950043D01*
X139280960Y-97995488D01*
X139360919Y-97974890D01*
X139486356Y-97883389D01*
X139644182Y-97733602D01*
X139821313Y-97538141D01*
X140004662Y-97309623D01*
X140181142Y-97060662D01*
X140211537Y-97013312D01*
X140319614Y-96831826D01*
X140450150Y-96599175D01*
X140591780Y-96337223D01*
X140733140Y-96067833D01*
X140862868Y-95812868D01*
X140969600Y-95594192D01*
X141041972Y-95433666D01*
X141068622Y-95353155D01*
X141084272Y-95308590D01*
X141137199Y-95183714D01*
X141214599Y-95010972D01*
X141278681Y-94864941D01*
X141337776Y-94714669D01*
X141360576Y-94633750D01*
X141369108Y-94585031D01*
X141429232Y-94459566D01*
X141526688Y-94321323D01*
X141637379Y-94198685D01*
X141737209Y-94120033D01*
X141802080Y-94113748D01*
X141791049Y-94166783D01*
X141740911Y-94310513D01*
X141658352Y-94526748D01*
X141550717Y-94797651D01*
X141425353Y-95105385D01*
X141289604Y-95432115D01*
X141150814Y-95760004D01*
X141016330Y-96071215D01*
X140893496Y-96347913D01*
X140789658Y-96572260D01*
X140623833Y-96904131D01*
X140391589Y-97323334D01*
X140164326Y-97684287D01*
X139953178Y-97969642D01*
X139769278Y-98162051D01*
X139763894Y-98166568D01*
X139629018Y-98261685D01*
X139498026Y-98296129D01*
X139312415Y-98285739D01*
X139273793Y-98280666D01*
X138879335Y-98182525D01*
X138452530Y-98004969D01*
X138022584Y-97764135D01*
X137618701Y-97476161D01*
X137270086Y-97157187D01*
X136964664Y-96834247D01*
X137000222Y-96328609D01*
X137022191Y-96103859D01*
X137083132Y-95684469D01*
X137171698Y-95197396D01*
X137281812Y-94668578D01*
X137407396Y-94123950D01*
X137542371Y-93589450D01*
X137680660Y-93091014D01*
X137816183Y-92654581D01*
X137942864Y-92306086D01*
X138017030Y-92120177D01*
X138070346Y-91979985D01*
X138090691Y-91917301D01*
X138042086Y-91919852D01*
X137910774Y-91951222D01*
X137725748Y-92004772D01*
X137617711Y-92036974D01*
X137334796Y-92113774D01*
X137033257Y-92187355D01*
X136739327Y-92252122D01*
X136479237Y-92302477D01*
X136279220Y-92332827D01*
X136165508Y-92337576D01*
X136110866Y-92356881D01*
X135979492Y-92454749D01*
X135789173Y-92626629D01*
X135548696Y-92863357D01*
X135266848Y-93155768D01*
X134952416Y-93494697D01*
X134614187Y-93870980D01*
X134260948Y-94275452D01*
X133901484Y-94698948D01*
X133703979Y-94931064D01*
X133502312Y-95159186D01*
X133334110Y-95339947D01*
X133212808Y-95458955D01*
X133151841Y-95501822D01*
X133099317Y-95464358D01*
X133076071Y-95341247D01*
X133076110Y-95334329D01*
X133071011Y-95206291D01*
X133057283Y-94992787D01*
X133036887Y-94721868D01*
X133011783Y-94421592D01*
X132995183Y-94187658D01*
X132981701Y-93514364D01*
X133009738Y-92745153D01*
X133078623Y-91889292D01*
X133187681Y-90956050D01*
X133336238Y-89954696D01*
X133343260Y-89911282D01*
X133355477Y-89805656D01*
X133332948Y-89798046D01*
X133263091Y-89874694D01*
X133219758Y-89925377D01*
X133012913Y-90170577D01*
X132867249Y-90354441D01*
X132769129Y-90499355D01*
X132704913Y-90627707D01*
X132660961Y-90761882D01*
X132625042Y-90918144D01*
X132623634Y-90924268D01*
X132601547Y-91033816D01*
X132546700Y-91326404D01*
X132479153Y-91706294D01*
X132401968Y-92154814D01*
X132318207Y-92653295D01*
X132296529Y-92784883D01*
X132230932Y-93183066D01*
X132143204Y-93725456D01*
X132058087Y-94261795D01*
X131978641Y-94773412D01*
X131907928Y-95241637D01*
X131849010Y-95647799D01*
X131801424Y-95989143D01*
X131747480Y-96391275D01*
X131700811Y-96763460D01*
X131658090Y-97134969D01*
X131615986Y-97535073D01*
X131571172Y-97993041D01*
X131520319Y-98538144D01*
X131506465Y-98697104D01*
X131464691Y-99300289D01*
X131432443Y-99970841D01*
X131409729Y-100688342D01*
X131396555Y-101432377D01*
X131392926Y-102182527D01*
X129715756Y-102182527D01*
X129708863Y-102099983D01*
X129703594Y-102037299D01*
X129665458Y-101575687D01*
X129629853Y-101131535D01*
X129598286Y-100724620D01*
X129572267Y-100374718D01*
X129553306Y-100101608D01*
X129542910Y-99925067D01*
X129538366Y-99829734D01*
X129524259Y-99647680D01*
X129494656Y-99509855D01*
X129435599Y-99382086D01*
X129333134Y-99230196D01*
X129173302Y-99020010D01*
X129113317Y-98941501D01*
X128924035Y-98687073D01*
X128742682Y-98434869D01*
X128601556Y-98229542D01*
X128592909Y-98216527D01*
X128478201Y-98059242D01*
X128386058Y-97959215D01*
X128335730Y-97937588D01*
X128330468Y-97947035D01*
X128293435Y-98045259D01*
X128228784Y-98236535D01*
X128141094Y-98506634D01*
X128034943Y-98841326D01*
X127914908Y-99226381D01*
X127785568Y-99647569D01*
X127712015Y-99888779D01*
X127440788Y-100777047D01*
X127199374Y-101565474D01*
X126984781Y-102263653D01*
X126794017Y-102881177D01*
X126624092Y-103427639D01*
X126472013Y-103912631D01*
X126334789Y-104345747D01*
X126209428Y-104736578D01*
X126092939Y-105094718D01*
X125982329Y-105429760D01*
X125957284Y-105504819D01*
X125787956Y-106002065D01*
X125604527Y-106525477D01*
X125414255Y-107055479D01*
X125379256Y-107150788D01*
X125293489Y-107384351D01*
X125224399Y-107572496D01*
X125042218Y-108056953D01*
X124874970Y-108489274D01*
X124779208Y-108727339D01*
X124729914Y-108849883D01*
X124614307Y-109119206D01*
X124600111Y-109150601D01*
X124517671Y-109341949D01*
X124482170Y-109455099D01*
X116684100Y-109455099D01*
X116794235Y-109171225D01*
X116898317Y-108972428D01*
X116987391Y-108881673D01*
X117003028Y-108874763D01*
X117254204Y-108797217D01*
X117581515Y-108740095D01*
X117948232Y-108708234D01*
X118317628Y-108706473D01*
X118819674Y-108727339D01*
X119172070Y-108727339D01*
X119201265Y-108756535D01*
X119230461Y-108727339D01*
X119201265Y-108698144D01*
X119172070Y-108727339D01*
X118819674Y-108727339D01*
X118888034Y-108552167D01*
X118939733Y-108430233D01*
X119048904Y-108192772D01*
X119198920Y-107878779D01*
X119382131Y-107503333D01*
X119441014Y-107384351D01*
X122266783Y-107384351D01*
X122295978Y-107413546D01*
X122325173Y-107384351D01*
X122295978Y-107355155D01*
X122266783Y-107384351D01*
X119441014Y-107384351D01*
X119556602Y-107150788D01*
X121682875Y-107150788D01*
X121712070Y-107179983D01*
X121741265Y-107150788D01*
X121712070Y-107121592D01*
X121682875Y-107150788D01*
X119556602Y-107150788D01*
X119590884Y-107081517D01*
X119817528Y-106628411D01*
X120054411Y-106159094D01*
X120293883Y-105688650D01*
X120528291Y-105232157D01*
X120749984Y-104804696D01*
X120951310Y-104421349D01*
X121124619Y-104097197D01*
X121262258Y-103847319D01*
X121356575Y-103686797D01*
X121450067Y-103539856D01*
X121557958Y-103369606D01*
X121624624Y-103255834D01*
X121643091Y-103201099D01*
X121606387Y-103207954D01*
X121507538Y-103278957D01*
X121339571Y-103416664D01*
X121095513Y-103623631D01*
X120768391Y-103902414D01*
X120378273Y-104224931D01*
X119988006Y-104521737D01*
X119659130Y-104738722D01*
X119384025Y-104880848D01*
X119155073Y-104953079D01*
X119123931Y-104958851D01*
X118976196Y-104979186D01*
X118869625Y-104963704D01*
X118761859Y-104897974D01*
X118610544Y-104767567D01*
X118542550Y-104701666D01*
X118371855Y-104510592D01*
X118183879Y-104274617D01*
X118008428Y-104030243D01*
X117848714Y-103793189D01*
X117642791Y-103487614D01*
X117423982Y-103162969D01*
X117219117Y-102859063D01*
X117201688Y-102833122D01*
X116782397Y-102153047D01*
X116397398Y-101422737D01*
X116055036Y-100664026D01*
X115763652Y-99898746D01*
X115531591Y-99148730D01*
X115367197Y-98435810D01*
X115278812Y-97781820D01*
X115270351Y-97666511D01*
X115263169Y-97477245D01*
X115277702Y-97352656D01*
X115320784Y-97257185D01*
X115399250Y-97155272D01*
X115611577Y-96952673D01*
X115923227Y-96727173D01*
X116315686Y-96489974D01*
X116772652Y-96249642D01*
X117277819Y-96014746D01*
X117814884Y-95793851D01*
X118367542Y-95595527D01*
X118452153Y-95567629D01*
X119529639Y-95242553D01*
X120617209Y-94967960D01*
X121694066Y-94747640D01*
X122739414Y-94585383D01*
X123732456Y-94484979D01*
X124652395Y-94450217D01*
X125390691Y-94449647D01*
X125086505Y-94308023D01*
X124627085Y-94054237D01*
X124128330Y-93699382D01*
X123631630Y-93268412D01*
X123600618Y-93238708D01*
X123348223Y-92968215D01*
X123172674Y-92706993D01*
X123067937Y-92431780D01*
X123044356Y-92247404D01*
X123434599Y-92247404D01*
X123434599Y-92740849D01*
X123857932Y-93078257D01*
X124314970Y-93426722D01*
X124755513Y-93732332D01*
X125158021Y-93980868D01*
X125501379Y-94158454D01*
X125550982Y-94180581D01*
X125881270Y-94321930D01*
X126154334Y-94428182D01*
X126358225Y-94495335D01*
X126480999Y-94519392D01*
X126510709Y-94496353D01*
X126340978Y-94096616D01*
X126017069Y-93282956D01*
X125716989Y-92462008D01*
X125447776Y-91655383D01*
X125216470Y-90884692D01*
X125030109Y-90171547D01*
X124895731Y-89537559D01*
X124889737Y-89504590D01*
X124830127Y-89208966D01*
X124773289Y-89002206D01*
X124710882Y-88859329D01*
X124634565Y-88755354D01*
X124613092Y-88731544D01*
X124521513Y-88612210D01*
X124482954Y-88530192D01*
X124481689Y-88521891D01*
X124453544Y-88542329D01*
X124394505Y-88651052D01*
X124312151Y-88830270D01*
X124214056Y-89062193D01*
X124107798Y-89329033D01*
X124000954Y-89613000D01*
X123901101Y-89896305D01*
X123713706Y-90507757D01*
X123561753Y-91144363D01*
X123467164Y-91732075D01*
X123434599Y-92247404D01*
X123044356Y-92247404D01*
X123027973Y-92119309D01*
X123046749Y-91746317D01*
X123118227Y-91289537D01*
X123185880Y-90990217D01*
X123332825Y-90497419D01*
X123522262Y-89979738D01*
X123739859Y-89472353D01*
X123971281Y-89010444D01*
X124202195Y-88629191D01*
X124370490Y-88383916D01*
X124013214Y-87840915D01*
X123843967Y-87572270D01*
X123616655Y-87177575D01*
X123400673Y-86766719D01*
X123204638Y-86358783D01*
X123037166Y-85972843D01*
X122906874Y-85627979D01*
X122822380Y-85343269D01*
X122792300Y-85137791D01*
X122805029Y-85035555D01*
X122818749Y-84986926D01*
X122925998Y-84986926D01*
X122931815Y-85092361D01*
X122959915Y-85213707D01*
X122962886Y-85224618D01*
X123049957Y-85476390D01*
X123190114Y-85805185D01*
X123373508Y-86191056D01*
X123590292Y-86614059D01*
X123830617Y-87054247D01*
X124084637Y-87491676D01*
X124181819Y-87652585D01*
X124345696Y-87918951D01*
X124488208Y-88144490D01*
X124596683Y-88309291D01*
X124658451Y-88393444D01*
X124679018Y-88415034D01*
X124717459Y-88440350D01*
X124733579Y-88403663D01*
X124730298Y-88286976D01*
X124710533Y-88072294D01*
X124703879Y-87996420D01*
X124687655Y-87706398D01*
X124676042Y-87331806D01*
X124668984Y-86896542D01*
X124666425Y-86424504D01*
X124668310Y-85939592D01*
X124670362Y-85784615D01*
X124952760Y-85784615D01*
X124958416Y-86499656D01*
X124979518Y-87208962D01*
X125018451Y-87844594D01*
X125077525Y-88428900D01*
X125159052Y-88984225D01*
X125265343Y-89532915D01*
X125398706Y-90097317D01*
X125502198Y-90487626D01*
X125766358Y-91381780D01*
X126073959Y-92308638D01*
X126416406Y-93247017D01*
X126785102Y-94175734D01*
X126923062Y-94496353D01*
X127171449Y-95073607D01*
X127566851Y-95919452D01*
X127962710Y-96692086D01*
X128350429Y-97370328D01*
X128516095Y-97635232D01*
X128946358Y-98277074D01*
X129417007Y-98924709D01*
X129899849Y-99540172D01*
X130366693Y-100085500D01*
X130454869Y-100182841D01*
X130659189Y-100406183D01*
X130834618Y-100594934D01*
X130964821Y-100731622D01*
X131033466Y-100798773D01*
X131054937Y-100810838D01*
X131081448Y-100797275D01*
X131103660Y-100734414D01*
X131123507Y-100608782D01*
X131142921Y-100406909D01*
X131163837Y-100115322D01*
X131188188Y-99720548D01*
X131256274Y-98571348D01*
X131026944Y-98218999D01*
X130892499Y-97994884D01*
X130716737Y-97669643D01*
X130524461Y-97288651D01*
X130328966Y-96879776D01*
X130143547Y-96470892D01*
X129981500Y-96089870D01*
X129856122Y-95764581D01*
X129849127Y-95744850D01*
X129738241Y-95387910D01*
X129672782Y-95054296D01*
X129638924Y-94674634D01*
X129629420Y-94470066D01*
X129627879Y-94259023D01*
X129630298Y-94236054D01*
X129816174Y-94236054D01*
X129818356Y-94582595D01*
X129881979Y-94982368D01*
X130009199Y-95443081D01*
X130202170Y-95972443D01*
X130463049Y-96578161D01*
X130793990Y-97267945D01*
X130843610Y-97367140D01*
X131011408Y-97698386D01*
X131136255Y-97935539D01*
X131223744Y-98087763D01*
X131279466Y-98164221D01*
X131309015Y-98174075D01*
X131317982Y-98126489D01*
X131318105Y-98116616D01*
X131329456Y-97925050D01*
X131357238Y-97636559D01*
X131399097Y-97268185D01*
X131452680Y-96836974D01*
X131515631Y-96359967D01*
X131585597Y-95854209D01*
X131660225Y-95336744D01*
X131737159Y-94824614D01*
X131814047Y-94334863D01*
X131888534Y-93884535D01*
X131958266Y-93490674D01*
X132007754Y-93220674D01*
X132050596Y-92962366D01*
X132068231Y-92784883D01*
X132058409Y-92669115D01*
X132018879Y-92595957D01*
X131947391Y-92546299D01*
X131841693Y-92501036D01*
X131782530Y-92478043D01*
X131636227Y-92427336D01*
X131551238Y-92407109D01*
X131550043Y-92407126D01*
X131519044Y-92419541D01*
X131480301Y-92462525D01*
X131428441Y-92547084D01*
X131358095Y-92684226D01*
X131263893Y-92884959D01*
X131140463Y-93160291D01*
X130982435Y-93521228D01*
X130784439Y-93978779D01*
X130715796Y-94137283D01*
X130568660Y-94472605D01*
X130437601Y-94765385D01*
X130330029Y-94999393D01*
X130253353Y-95158400D01*
X130214982Y-95226174D01*
X130161650Y-95264490D01*
X130102452Y-95242942D01*
X130081209Y-95128663D01*
X130102693Y-94934068D01*
X130111697Y-94882585D01*
X130125503Y-94690688D01*
X130104595Y-94473107D01*
X130045783Y-94188029D01*
X129935129Y-93720902D01*
X129867488Y-93954466D01*
X129816174Y-94236054D01*
X129630298Y-94236054D01*
X129644123Y-94104810D01*
X129682618Y-93972701D01*
X129747832Y-93827967D01*
X129755243Y-93812864D01*
X129802269Y-93710259D01*
X129836014Y-93611076D01*
X129858223Y-93495287D01*
X129870644Y-93342863D01*
X129875023Y-93133776D01*
X129873106Y-92847998D01*
X129866639Y-92465500D01*
X129865754Y-92415670D01*
X129864321Y-91766563D01*
X129885929Y-91181064D01*
X129934219Y-90615629D01*
X130012831Y-90026718D01*
X130125406Y-89370788D01*
X130216159Y-88909797D01*
X130557934Y-87500061D01*
X130987741Y-86125466D01*
X131500602Y-84797032D01*
X132091539Y-83525780D01*
X132755575Y-82322732D01*
X133487733Y-81198907D01*
X134283034Y-80165326D01*
X134835139Y-79541521D01*
X135774770Y-78612676D01*
X136793106Y-77751858D01*
X137874469Y-76970980D01*
X139003181Y-76281957D01*
X140163564Y-75696702D01*
X140302430Y-75634228D01*
X140528288Y-75534683D01*
X140745463Y-75442864D01*
X140963327Y-75355962D01*
X141191254Y-75271165D01*
X141438617Y-75185662D01*
X141714790Y-75096642D01*
X142029147Y-75001295D01*
X142391060Y-74896808D01*
X142809903Y-74780372D01*
X143295050Y-74649174D01*
X143855874Y-74500404D01*
X144501747Y-74331251D01*
X145242045Y-74138904D01*
X146086140Y-73920552D01*
X146359508Y-73851179D01*
X146795430Y-73748802D01*
X147151667Y-73679901D01*
X147448496Y-73642305D01*
X147706196Y-73633840D01*
X147945044Y-73652333D01*
X148185319Y-73695611D01*
X148516098Y-73782014D01*
X148817826Y-73887799D01*
X149050366Y-73999677D01*
X149190292Y-74108036D01*
X149192856Y-74111147D01*
X149239832Y-74198338D01*
X149190964Y-74225043D01*
X149050131Y-74191371D01*
X148821214Y-74097435D01*
X148818375Y-74096140D01*
X148642896Y-74021116D01*
X148489229Y-73972761D01*
X148322740Y-73945336D01*
X148108794Y-73933100D01*
X147812760Y-73930316D01*
X147597291Y-73932548D01*
X147391889Y-73942152D01*
X147189312Y-73962864D01*
X146966411Y-73998414D01*
X146700034Y-74052533D01*
X146367032Y-74128951D01*
X145944254Y-74231398D01*
X145537220Y-74330579D01*
X145061698Y-74445021D01*
X144585655Y-74558320D01*
X144147038Y-74661450D01*
X143783794Y-74745382D01*
X143736733Y-74756138D01*
X142786541Y-74987628D01*
X141933214Y-75226346D01*
X141157728Y-75479565D01*
X140441055Y-75754558D01*
X139764170Y-76058598D01*
X139108047Y-76398958D01*
X138453659Y-76782911D01*
X138308182Y-76873843D01*
X137168757Y-77657657D01*
X136119977Y-78513346D01*
X135159341Y-79443760D01*
X134284351Y-80451747D01*
X133492506Y-81540157D01*
X132781307Y-82711837D01*
X132148254Y-83969638D01*
X131732986Y-84950168D01*
X131310071Y-86122531D01*
X130944259Y-87334467D01*
X130643387Y-88557020D01*
X130415289Y-89761231D01*
X130267804Y-90918144D01*
X130256589Y-91059255D01*
X130239708Y-91370578D01*
X130226831Y-91740387D01*
X130218039Y-92146786D01*
X130213415Y-92567877D01*
X130213042Y-92981763D01*
X130217002Y-93366548D01*
X130225377Y-93700336D01*
X130238251Y-93961228D01*
X130255705Y-94127329D01*
X130296749Y-94358583D01*
X130466372Y-93952157D01*
X130779567Y-93246116D01*
X131251276Y-92323694D01*
X131326968Y-92198145D01*
X131609311Y-92198145D01*
X131609903Y-92199889D01*
X131670138Y-92222083D01*
X131799081Y-92245846D01*
X131958236Y-92275970D01*
X132077333Y-92311614D01*
X132096290Y-92316918D01*
X132138000Y-92294592D01*
X132176876Y-92207894D01*
X132219065Y-92039704D01*
X132270713Y-91772900D01*
X132298993Y-91618155D01*
X132345040Y-91370461D01*
X132382824Y-91172398D01*
X132406168Y-91056624D01*
X132436725Y-90918144D01*
X132313093Y-91064121D01*
X132287908Y-91096483D01*
X132201034Y-91221804D01*
X132084926Y-91399510D01*
X131955110Y-91604582D01*
X131827114Y-91812000D01*
X131716464Y-91996747D01*
X131638687Y-92133801D01*
X131609311Y-92198145D01*
X131326968Y-92198145D01*
X131757195Y-91484536D01*
X132290600Y-90739530D01*
X132844769Y-90099569D01*
X133423589Y-89498618D01*
X133651739Y-88602634D01*
X133674546Y-88514078D01*
X133777358Y-88133100D01*
X133889277Y-87741816D01*
X133998247Y-87381531D01*
X134092212Y-87093546D01*
X134169933Y-86878541D01*
X134284009Y-86585528D01*
X134406787Y-86289327D01*
X134529786Y-86008620D01*
X134644527Y-85762088D01*
X134742532Y-85568412D01*
X134815319Y-85446274D01*
X134854410Y-85414354D01*
X134851376Y-85456980D01*
X134811360Y-85588359D01*
X134738590Y-85784495D01*
X134641278Y-86021976D01*
X134395334Y-86629494D01*
X134042665Y-87648561D01*
X133755564Y-88697012D01*
X133531120Y-89789982D01*
X133366419Y-90942604D01*
X133258549Y-92170012D01*
X133204598Y-93487339D01*
X133203188Y-93557576D01*
X133195971Y-93973203D01*
X133191409Y-94344170D01*
X133189541Y-94656059D01*
X133190402Y-94894453D01*
X133194029Y-95044934D01*
X133200461Y-95093086D01*
X133201678Y-95091793D01*
X133251212Y-95029494D01*
X133355053Y-94894146D01*
X133498773Y-94704669D01*
X133667946Y-94479983D01*
X133760402Y-94358462D01*
X133933310Y-94140029D01*
X134125626Y-93908934D01*
X134345334Y-93656527D01*
X134600419Y-93374157D01*
X134898865Y-93053174D01*
X135248657Y-92684927D01*
X135657778Y-92260766D01*
X136134212Y-91772040D01*
X136685944Y-91210098D01*
X136871395Y-91021362D01*
X137216026Y-90668875D01*
X137544114Y-90331165D01*
X137842528Y-90021866D01*
X138098137Y-89754615D01*
X138297808Y-89543045D01*
X138428411Y-89400794D01*
X138559621Y-89256867D01*
X138692750Y-89125708D01*
X138767214Y-89078229D01*
X138789933Y-89108839D01*
X138767135Y-89188821D01*
X138687613Y-89339565D01*
X138570967Y-89510722D01*
X138471122Y-89643631D01*
X138360871Y-89794675D01*
X138295058Y-89890262D01*
X138219202Y-89992885D01*
X138065863Y-90175514D01*
X137850570Y-90418117D01*
X137584066Y-90708614D01*
X137277094Y-91034925D01*
X137158130Y-91160161D01*
X136925253Y-91406126D01*
X136702205Y-91642596D01*
X136524388Y-91832081D01*
X136216061Y-92162110D01*
X136817629Y-91943195D01*
X136970659Y-91886653D01*
X137292565Y-91763542D01*
X137604813Y-91639496D01*
X137857127Y-91534292D01*
X137879597Y-91524554D01*
X138129934Y-91417151D01*
X138372545Y-91314708D01*
X138557817Y-91238192D01*
X138597874Y-91221556D01*
X138853771Y-91102565D01*
X139183712Y-90933833D01*
X139481774Y-90773059D01*
X140538065Y-90773059D01*
X140540243Y-90818316D01*
X140602337Y-90887477D01*
X140737026Y-90993768D01*
X140956989Y-91150417D01*
X141061616Y-91224133D01*
X141323380Y-91413273D01*
X141573421Y-91599546D01*
X141769311Y-91751554D01*
X141793143Y-91770908D01*
X141970156Y-91920750D01*
X142200143Y-92122491D01*
X142455989Y-92352108D01*
X142710583Y-92585576D01*
X143330704Y-93161283D01*
X143417666Y-92724247D01*
X143504629Y-92287210D01*
X142616457Y-91339918D01*
X142549927Y-91268879D01*
X142237794Y-90934068D01*
X141993946Y-90673726D01*
X141806519Y-90480834D01*
X141663646Y-90348372D01*
X141553462Y-90269321D01*
X141464099Y-90236661D01*
X141383693Y-90243371D01*
X141300377Y-90282433D01*
X141202285Y-90346827D01*
X141077551Y-90429533D01*
X141029807Y-90459604D01*
X140830376Y-90584681D01*
X140666357Y-90686745D01*
X140569390Y-90746087D01*
X140538065Y-90773059D01*
X139481774Y-90773059D01*
X139567622Y-90726753D01*
X139985429Y-90492717D01*
X140417057Y-90243120D01*
X140842434Y-89989353D01*
X140940772Y-89928598D01*
X141834711Y-89928598D01*
X141837857Y-89937090D01*
X141897389Y-90012461D01*
X142022218Y-90154730D01*
X142201009Y-90351365D01*
X142422426Y-90589835D01*
X142675132Y-90857610D01*
X142770592Y-90957684D01*
X143019338Y-91215321D01*
X143237851Y-91437201D01*
X143413711Y-91610974D01*
X143534494Y-91724293D01*
X143587778Y-91764811D01*
X143616273Y-91744488D01*
X143637817Y-91651394D01*
X143638309Y-91636768D01*
X143657413Y-91494687D01*
X143701299Y-91259916D01*
X143765886Y-90949593D01*
X143847098Y-90580854D01*
X143940854Y-90170838D01*
X144043076Y-89736681D01*
X144149685Y-89295522D01*
X144256603Y-88864499D01*
X144359749Y-88460747D01*
X144455046Y-88101406D01*
X144538414Y-87803613D01*
X144605774Y-87584505D01*
X144612572Y-87556025D01*
X144584930Y-87554830D01*
X144497421Y-87648259D01*
X144486359Y-87661309D01*
X144349182Y-87805371D01*
X144141347Y-88004928D01*
X143880882Y-88244096D01*
X143585819Y-88506992D01*
X143274185Y-88777735D01*
X142964010Y-89040440D01*
X142673325Y-89279225D01*
X142420157Y-89478207D01*
X142414260Y-89482695D01*
X142195797Y-89649325D01*
X142013820Y-89788851D01*
X141887176Y-89886775D01*
X141834711Y-89928598D01*
X140940772Y-89928598D01*
X141241486Y-89742811D01*
X141594139Y-89514886D01*
X142004302Y-89234548D01*
X142534742Y-88853394D01*
X143064971Y-88453898D01*
X143569900Y-88055486D01*
X144024438Y-87677584D01*
X144403497Y-87339619D01*
X144487650Y-87260261D01*
X144634575Y-87112276D01*
X144741195Y-86978530D01*
X144826727Y-86827735D01*
X144910387Y-86628604D01*
X145011391Y-86349850D01*
X145181963Y-85872140D01*
X145389751Y-85305173D01*
X145590845Y-84772101D01*
X145781300Y-84282480D01*
X145957173Y-83845865D01*
X146114518Y-83471812D01*
X146249393Y-83169877D01*
X146357852Y-82949616D01*
X146435953Y-82820584D01*
X146479750Y-82792337D01*
X146476669Y-82827242D01*
X146439090Y-82955724D01*
X146368682Y-83160394D01*
X146271920Y-83422659D01*
X146155279Y-83723927D01*
X145898439Y-84381391D01*
X145554930Y-85294886D01*
X145251753Y-86151579D01*
X144982897Y-86973138D01*
X144809387Y-87556025D01*
X144742350Y-87781226D01*
X144524099Y-88597511D01*
X144322132Y-89443656D01*
X144130437Y-90341328D01*
X143943003Y-91312192D01*
X143769918Y-92287210D01*
X143753816Y-92377914D01*
X143707690Y-92646247D01*
X143587730Y-93336119D01*
X143550126Y-93547776D01*
X143483630Y-93922060D01*
X143395814Y-94401776D01*
X143324707Y-94772978D01*
X143270735Y-95033374D01*
X143234321Y-95180673D01*
X143230075Y-95195611D01*
X143199286Y-95352166D01*
X143168846Y-95575686D01*
X143144777Y-95822971D01*
X143108752Y-96290098D01*
X143372083Y-95998144D01*
X143502522Y-95844464D01*
X143599225Y-95712497D01*
X143636616Y-95636103D01*
X143646375Y-95598842D01*
X143720459Y-95519321D01*
X143734416Y-95507746D01*
X143809692Y-95416236D01*
X143922918Y-95258865D01*
X144057354Y-95061097D01*
X144196264Y-94848396D01*
X144322908Y-94646225D01*
X144420549Y-94480047D01*
X144472448Y-94375327D01*
X144487205Y-94349762D01*
X144543311Y-94347302D01*
X144556657Y-94418526D01*
X144513322Y-94579898D01*
X144412221Y-94815791D01*
X144258264Y-95114925D01*
X144056359Y-95466026D01*
X144046949Y-95481613D01*
X143775635Y-95884519D01*
X143446554Y-96303412D01*
X143086664Y-96707917D01*
X142722922Y-97067662D01*
X142382284Y-97352274D01*
X142330229Y-97391214D01*
X142170633Y-97516717D01*
X142064516Y-97609965D01*
X142032628Y-97653108D01*
X142061019Y-97656978D01*
X142184543Y-97651605D01*
X142381320Y-97633821D01*
X142625219Y-97605716D01*
X142777032Y-97584594D01*
X143267183Y-97490306D01*
X143795620Y-97349348D01*
X144373836Y-97157684D01*
X145013327Y-96911281D01*
X145725589Y-96606106D01*
X146522117Y-96238122D01*
X146677127Y-96164773D01*
X146942670Y-96041039D01*
X147160755Y-95941902D01*
X147312126Y-95876048D01*
X147377530Y-95852167D01*
X147388207Y-95857806D01*
X147387545Y-95937538D01*
X147343634Y-96097976D01*
X147264082Y-96321744D01*
X147156501Y-96591465D01*
X147028500Y-96889764D01*
X146887689Y-97199264D01*
X146741678Y-97502589D01*
X146598076Y-97782362D01*
X146464494Y-98021208D01*
X146348541Y-98201750D01*
X146295268Y-98276340D01*
X146227044Y-98377849D01*
X146207439Y-98426392D01*
X146245239Y-98418317D01*
X146349228Y-98349973D01*
X146528194Y-98217708D01*
X146790921Y-98017870D01*
X146845461Y-97975693D01*
X147243347Y-97642254D01*
X147678254Y-97239709D01*
X148126255Y-96792642D01*
X148563421Y-96325638D01*
X148965822Y-95863282D01*
X149309531Y-95430161D01*
X149377153Y-95338448D01*
X149729077Y-94829309D01*
X150096014Y-94251728D01*
X150457471Y-93640130D01*
X150792956Y-93028941D01*
X151081975Y-92452588D01*
X151097078Y-92420518D01*
X151312237Y-91936703D01*
X151534741Y-91392066D01*
X151752462Y-90819552D01*
X151953272Y-90252109D01*
X152125043Y-89722684D01*
X152255647Y-89264223D01*
X152389356Y-88721692D01*
X152585343Y-87794703D01*
X152724957Y-86910373D01*
X152812359Y-86032750D01*
X152851712Y-85125879D01*
X152847177Y-84153808D01*
X152845948Y-84105636D01*
X152812315Y-83314217D01*
X152754186Y-82621225D01*
X152668908Y-82011212D01*
X152553826Y-81468732D01*
X152406287Y-80978337D01*
X152223637Y-80524581D01*
X152111043Y-80301681D01*
X151967273Y-80098461D01*
X151822836Y-79995456D01*
X151668599Y-79983768D01*
X151563569Y-79992806D01*
X151525244Y-79955544D01*
X151590645Y-79864765D01*
X151641328Y-79825138D01*
X151801223Y-79791300D01*
X151983005Y-79855047D01*
X152165519Y-80010997D01*
X152386379Y-80330440D01*
X152584612Y-80766901D01*
X152754712Y-81314633D01*
X152896912Y-81974384D01*
X153011441Y-82746900D01*
X153018476Y-82805191D01*
X153039162Y-82985529D01*
X153056077Y-83156850D01*
X153069265Y-83330586D01*
X153078771Y-83518169D01*
X153084639Y-83731031D01*
X153086915Y-83980605D01*
X153085644Y-84278322D01*
X153080868Y-84635614D01*
X153072635Y-85063914D01*
X153060987Y-85574653D01*
X153045970Y-86179264D01*
X153027629Y-86889178D01*
X153030686Y-86955123D01*
X153049278Y-87134529D01*
X153081929Y-87389734D01*
X153125555Y-87697129D01*
X153177071Y-88033102D01*
X153196490Y-88157114D01*
X153342884Y-89246968D01*
X153450539Y-90355940D01*
X153520101Y-91472073D01*
X153552215Y-92583410D01*
X153547527Y-93677992D01*
X153506681Y-94743862D01*
X153430323Y-95769064D01*
X153319099Y-96741639D01*
X153173653Y-97649630D01*
X152994631Y-98481080D01*
X152782678Y-99224030D01*
X152538440Y-99866525D01*
X152474654Y-100013270D01*
X152418185Y-100149450D01*
X152396438Y-100211047D01*
X152397839Y-100213257D01*
X152456485Y-100197495D01*
X152574689Y-100142299D01*
X152646670Y-100099743D01*
X152860554Y-99935596D01*
X153122438Y-99695831D01*
X153419852Y-99395238D01*
X153740326Y-99048608D01*
X154071389Y-98670730D01*
X154400571Y-98276397D01*
X154715404Y-97880397D01*
X155003415Y-97497523D01*
X155252136Y-97142564D01*
X155449097Y-96830311D01*
X155581827Y-96575555D01*
X155655918Y-96408401D01*
X155734957Y-96236038D01*
X155786673Y-96130315D01*
X155791171Y-96116333D01*
X155804827Y-95999872D01*
X155816926Y-95785364D01*
X155827053Y-95487096D01*
X155834797Y-95119356D01*
X155839745Y-94696433D01*
X155841484Y-94232614D01*
X155837683Y-93544782D01*
X155814995Y-92515643D01*
X155770938Y-91575961D01*
X155704449Y-90709879D01*
X155614465Y-89901541D01*
X155499925Y-89135089D01*
X155486062Y-89060026D01*
X155448071Y-88898578D01*
X155413760Y-88803377D01*
X155410702Y-88726899D01*
X155473829Y-88683646D01*
X155553761Y-88709352D01*
X155570179Y-88734730D01*
X155614916Y-88874384D01*
X155664814Y-89115047D01*
X155718513Y-89445660D01*
X155774654Y-89855166D01*
X155831878Y-90332507D01*
X155888823Y-90866625D01*
X155944130Y-91446463D01*
X155996440Y-92060961D01*
X156044393Y-92699063D01*
X156077154Y-93236485D01*
X156109859Y-94032148D01*
X156127144Y-94857455D01*
X156129696Y-95700220D01*
X156119329Y-96465270D01*
X156118204Y-96548261D01*
X156093354Y-97389394D01*
X156055835Y-98211435D01*
X156006335Y-99002200D01*
X155945542Y-99749506D01*
X155874143Y-100441169D01*
X155792827Y-101065005D01*
X155702281Y-101608831D01*
X155603193Y-102060463D01*
X155496251Y-102407717D01*
X155458780Y-102520028D01*
X155453552Y-102567109D01*
X155458996Y-102565558D01*
X155527938Y-102506603D01*
X155654809Y-102372742D01*
X155827667Y-102178305D01*
X156034567Y-101937623D01*
X156263567Y-101665029D01*
X156502725Y-101374852D01*
X156740097Y-101081425D01*
X156963739Y-100799078D01*
X157161710Y-100542142D01*
X157322066Y-100324950D01*
X157480225Y-100094455D01*
X157583952Y-99914575D01*
X157636824Y-99771570D01*
X157651610Y-99638858D01*
X157652443Y-99580962D01*
X157670179Y-99448271D01*
X157714921Y-99424159D01*
X157791854Y-99503626D01*
X157809184Y-99519335D01*
X157852404Y-99512577D01*
X157917914Y-99449976D01*
X158014698Y-99320184D01*
X158151736Y-99111854D01*
X158338013Y-98813638D01*
X158376763Y-98750490D01*
X158581572Y-98408887D01*
X158791410Y-98047868D01*
X158983695Y-97706744D01*
X159135847Y-97424822D01*
X159199125Y-97300113D01*
X159328352Y-97031957D01*
X159472290Y-96720098D01*
X159622951Y-96383239D01*
X159772348Y-96040082D01*
X159912493Y-95709330D01*
X160035398Y-95409685D01*
X160133077Y-95159850D01*
X160197542Y-94978527D01*
X160220806Y-94884418D01*
X160226682Y-94848112D01*
X160279196Y-94801132D01*
X160312230Y-94820934D01*
X160337587Y-94913261D01*
X160336655Y-94929988D01*
X160306042Y-95071994D01*
X160237240Y-95297837D01*
X160137157Y-95588130D01*
X160012699Y-95923481D01*
X159870774Y-96284501D01*
X159718288Y-96651801D01*
X159457720Y-97261852D01*
X159553716Y-97827010D01*
X159569659Y-97919056D01*
X159732487Y-98693473D01*
X159930215Y-99365089D01*
X160165792Y-99942566D01*
X160442171Y-100434566D01*
X160548436Y-100591070D01*
X160630233Y-100702114D01*
X160666844Y-100739155D01*
X160668364Y-100722226D01*
X160653812Y-100621407D01*
X160620560Y-100463457D01*
X160605545Y-100386252D01*
X160575596Y-100115130D01*
X160557725Y-99753603D01*
X160551607Y-99320168D01*
X160556919Y-98833320D01*
X160573339Y-98311552D01*
X160600541Y-97773361D01*
X160638204Y-97237241D01*
X160686003Y-96721687D01*
X160712329Y-96475064D01*
X160752173Y-96106918D01*
X160794885Y-95716572D01*
X160834816Y-95355845D01*
X160841357Y-95297026D01*
X160989624Y-93832834D01*
X161097694Y-92470041D01*
X161165126Y-91200546D01*
X161191483Y-90016252D01*
X161176326Y-88909057D01*
X161119216Y-87870864D01*
X161019715Y-86893572D01*
X160877384Y-85969083D01*
X160691784Y-85089296D01*
X160462477Y-84246114D01*
X160189024Y-83431436D01*
X160108204Y-83221096D01*
X159928902Y-82793743D01*
X159719266Y-82331401D01*
X159493420Y-81862991D01*
X159265494Y-81417430D01*
X159049612Y-81023640D01*
X158859902Y-80710538D01*
X158674090Y-80434733D01*
X158276201Y-79891137D01*
X157852766Y-79367139D01*
X157419283Y-78879738D01*
X156991245Y-78445934D01*
X156584150Y-78082728D01*
X156213491Y-77807121D01*
X156087693Y-77722934D01*
X155948457Y-77621350D01*
X155881393Y-77559784D01*
X155899886Y-77549243D01*
X155954232Y-77565609D01*
X156225351Y-77676695D01*
X156510265Y-77845128D01*
X156822090Y-78080613D01*
X157173942Y-78392855D01*
X157578937Y-78791558D01*
X158236149Y-79462685D01*
X157970412Y-78855012D01*
X157813450Y-78509136D01*
X157481492Y-77837177D01*
X157115695Y-77160269D01*
X156744222Y-76531772D01*
X156597958Y-76318335D01*
X156331574Y-75983693D01*
X156006843Y-75618756D01*
X155644599Y-75245650D01*
X155265676Y-74886503D01*
X154890908Y-74563441D01*
X154816639Y-74503390D01*
X154665530Y-74388969D01*
X154563821Y-74334837D01*
X154483008Y-74329363D01*
X154394586Y-74360914D01*
X154257518Y-74433345D01*
X154022002Y-74579747D01*
X153741003Y-74771161D01*
X153439112Y-74990708D01*
X153140921Y-75221506D01*
X153059775Y-75285400D01*
X152899431Y-75404099D01*
X152788330Y-75475464D01*
X152746783Y-75485872D01*
X152747619Y-75480109D01*
X152800811Y-75400578D01*
X152922946Y-75268289D01*
X153094527Y-75101127D01*
X153296060Y-74916975D01*
X153508047Y-74733717D01*
X153710994Y-74569237D01*
X153885403Y-74441416D01*
X153919149Y-74418836D01*
X154415695Y-74134409D01*
X154965633Y-74134409D01*
X154966048Y-74136242D01*
X155015401Y-74193248D01*
X155135147Y-74308654D01*
X155308405Y-74466670D01*
X155518299Y-74651502D01*
X155777882Y-74880454D01*
X156006506Y-75097002D01*
X156193395Y-75299758D01*
X156362960Y-75517803D01*
X156539612Y-75780215D01*
X156747764Y-76116075D01*
X156837337Y-76265074D01*
X157033912Y-76598654D01*
X157237375Y-76950759D01*
X157415690Y-77266222D01*
X157746910Y-77861657D01*
X157909977Y-77506400D01*
X158055267Y-77210880D01*
X158327055Y-76762436D01*
X158661421Y-76334439D01*
X158791068Y-76182018D01*
X158986141Y-75946467D01*
X159154744Y-75736535D01*
X159242302Y-75640563D01*
X159414597Y-75485557D01*
X159625215Y-75318708D01*
X159849004Y-75157865D01*
X160060808Y-75020878D01*
X160235476Y-74925595D01*
X160347853Y-74889868D01*
X160359427Y-74889315D01*
X160381224Y-74859869D01*
X160312672Y-74783152D01*
X160150007Y-74655752D01*
X159889466Y-74474256D01*
X159886734Y-74472413D01*
X159517657Y-74239764D01*
X159169393Y-74060333D01*
X158796191Y-73913406D01*
X158352300Y-73778267D01*
X157919702Y-73690937D01*
X157385081Y-73645166D01*
X156832821Y-73653308D01*
X156308622Y-73716739D01*
X156113210Y-73758422D01*
X155865803Y-73821101D01*
X155607817Y-73894049D01*
X155364029Y-73969560D01*
X155159217Y-74039928D01*
X155018159Y-74097446D01*
X154965633Y-74134409D01*
X154415695Y-74134409D01*
X154665842Y-73991122D01*
X155472302Y-73657673D01*
X156320625Y-73425952D01*
X156366032Y-73416835D01*
X156952971Y-73339835D01*
X157566063Y-73326544D01*
X158163293Y-73375891D01*
X158702645Y-73486801D01*
X159220842Y-73671759D01*
X159839235Y-73981578D01*
X160460140Y-74383319D01*
X161059191Y-74859869D01*
X161067142Y-74866194D01*
X161643825Y-75419419D01*
X161653567Y-75429671D01*
X162031519Y-75839721D01*
X162340735Y-76205645D01*
X162602717Y-76556167D01*
X162838967Y-76920011D01*
X163070989Y-77325902D01*
X163082286Y-77346670D01*
X163214983Y-77584144D01*
X163299108Y-77721637D01*
X163336306Y-77764189D01*
X163328224Y-77716838D01*
X163276508Y-77584622D01*
X163182805Y-77372581D01*
X163048761Y-77085754D01*
X162876022Y-76729178D01*
X162742957Y-76463167D01*
X162402111Y-75830501D01*
X162058940Y-75270444D01*
X161694159Y-74752850D01*
X161288480Y-74247569D01*
X161253378Y-74206332D01*
X160935456Y-73843259D01*
X160651411Y-73543702D01*
X160370783Y-73278729D01*
X160063112Y-73019406D01*
X159697937Y-72736802D01*
X159191166Y-72395347D01*
X158583314Y-72090350D01*
X157934821Y-71875917D01*
X157519464Y-71810363D01*
X156990846Y-71831178D01*
X156438497Y-71959184D01*
X155868179Y-72191941D01*
X155285655Y-72527015D01*
X154696689Y-72961968D01*
X154107042Y-73494364D01*
X153803099Y-73808152D01*
X153377076Y-74305676D01*
X153028577Y-74790710D01*
X152766659Y-75250170D01*
X152600378Y-75670972D01*
X152559861Y-75802626D01*
X152505039Y-75947379D01*
X152471637Y-75989635D01*
X152463868Y-75926326D01*
X152485942Y-75754380D01*
X152591599Y-75331618D01*
X152786326Y-74872611D01*
X153072359Y-74396619D01*
X153457505Y-73888649D01*
X153681825Y-73617315D01*
X153053729Y-73212260D01*
X152377145Y-72787441D01*
X151426277Y-72234824D01*
X150500641Y-71754479D01*
X149573674Y-71333758D01*
X148618809Y-70960017D01*
X147609483Y-70620609D01*
X147422337Y-70563417D01*
X146768993Y-70384209D01*
X146091928Y-70231849D01*
X145360201Y-70099894D01*
X144542875Y-69981898D01*
X144368178Y-69959602D01*
X144067454Y-69924510D01*
X143794458Y-69899098D01*
X143525119Y-69882448D01*
X143235364Y-69873644D01*
X142901120Y-69871769D01*
X142498314Y-69875906D01*
X142002875Y-69885137D01*
X141525368Y-69897122D01*
X140971427Y-69919223D01*
X140485044Y-69951720D01*
X140038147Y-69998294D01*
X139602667Y-70062624D01*
X139150532Y-70148392D01*
X138653673Y-70259278D01*
X138084019Y-70398962D01*
X137964959Y-70429275D01*
X137299354Y-70610750D01*
X136683277Y-70802830D01*
X136079748Y-71018589D01*
X135451787Y-71271103D01*
X134762415Y-71573448D01*
X134232547Y-71818017D01*
X133771503Y-72043009D01*
X133362917Y-72258705D01*
X132978002Y-72481012D01*
X132587967Y-72725836D01*
X132164024Y-73009085D01*
X131561995Y-73428729D01*
X130975465Y-73859532D01*
X130462662Y-74263595D01*
X130007167Y-74653908D01*
X129592557Y-75043465D01*
X129510824Y-75124212D01*
X128902582Y-75746045D01*
X128372633Y-76331486D01*
X127902832Y-76903711D01*
X127475036Y-77485897D01*
X127071098Y-78101220D01*
X126672876Y-78772857D01*
X126348153Y-79366908D01*
X125982655Y-80110982D01*
X125681166Y-80833280D01*
X125532954Y-81273728D01*
X125438979Y-81552996D01*
X125251384Y-82289324D01*
X125113673Y-83061456D01*
X125021138Y-83888586D01*
X124969069Y-84789908D01*
X124952760Y-85784615D01*
X124670362Y-85784615D01*
X124674584Y-85465705D01*
X124685190Y-85026741D01*
X124700074Y-84646599D01*
X124719180Y-84349178D01*
X124791026Y-83633346D01*
X124888447Y-82934434D01*
X125004373Y-82341810D01*
X125139629Y-81850574D01*
X125186685Y-81702041D01*
X125246625Y-81491577D01*
X125281002Y-81340281D01*
X125283440Y-81273728D01*
X125239056Y-81282855D01*
X125133975Y-81366407D01*
X124986313Y-81513705D01*
X124810779Y-81708323D01*
X124622086Y-81933837D01*
X124434943Y-82173823D01*
X124264061Y-82411857D01*
X124133309Y-82606843D01*
X123589151Y-83504034D01*
X123138898Y-84405525D01*
X123105561Y-84480204D01*
X123006540Y-84709436D01*
X122948796Y-84868813D01*
X122925998Y-84986926D01*
X122818749Y-84986926D01*
X122868810Y-84809494D01*
X122978559Y-84513896D01*
X123125662Y-84167125D01*
X123301501Y-83787543D01*
X123497460Y-83393512D01*
X123704925Y-83003396D01*
X123915278Y-82635556D01*
X124119904Y-82308356D01*
X124176308Y-82225511D01*
X124389237Y-81939280D01*
X124626012Y-81650733D01*
X124845042Y-81411319D01*
X125240076Y-81013459D01*
X125132949Y-80739825D01*
X125048556Y-80496092D01*
X124954915Y-80139887D01*
X124870762Y-79710115D01*
X124793352Y-79192372D01*
X124719942Y-78572258D01*
X124610995Y-77553808D01*
X124820810Y-77553808D01*
X124825715Y-77657844D01*
X124839230Y-77794596D01*
X124878124Y-78094841D01*
X124933313Y-78461587D01*
X124999820Y-78865087D01*
X125072665Y-79275597D01*
X125146872Y-79663372D01*
X125217462Y-79998668D01*
X125266673Y-80223976D01*
X125315779Y-80463681D01*
X125349173Y-80644782D01*
X125361495Y-80739705D01*
X125363165Y-80786271D01*
X125389251Y-80857331D01*
X125445901Y-80818245D01*
X125531749Y-80670571D01*
X125645428Y-80415866D01*
X125690334Y-80311245D01*
X125855072Y-79963993D01*
X126067043Y-79554592D01*
X126312265Y-79108090D01*
X126576755Y-78649537D01*
X126846531Y-78203980D01*
X127107609Y-77796469D01*
X127320959Y-77481998D01*
X127605093Y-77089697D01*
X127904852Y-76709686D01*
X128244125Y-76312010D01*
X128646806Y-75866717D01*
X128706970Y-75801173D01*
X128929988Y-75546728D01*
X129068534Y-75361247D01*
X129124287Y-75237350D01*
X129244484Y-75237350D01*
X129282103Y-75200691D01*
X129388430Y-75099235D01*
X129546872Y-74948799D01*
X129740806Y-74765194D01*
X129870888Y-74645157D01*
X130271517Y-74300525D01*
X130738130Y-73927357D01*
X131245641Y-73543837D01*
X131768964Y-73168150D01*
X132283013Y-72818481D01*
X132762701Y-72513017D01*
X133182943Y-72269941D01*
X133617955Y-72035656D01*
X133661418Y-71876877D01*
X133835231Y-71876877D01*
X133888462Y-71862804D01*
X134026663Y-71807237D01*
X134227874Y-71718914D01*
X134470461Y-71607026D01*
X134746586Y-71478439D01*
X135457520Y-71164179D01*
X136124221Y-70898372D01*
X136784462Y-70667469D01*
X137476020Y-70457923D01*
X138236668Y-70256184D01*
X138313025Y-70237124D01*
X138873371Y-70102653D01*
X139350857Y-69999628D01*
X139770431Y-69923461D01*
X140157040Y-69869564D01*
X140535633Y-69833348D01*
X140612583Y-69827359D01*
X140837054Y-69805643D01*
X140965926Y-69782423D01*
X141015920Y-69753453D01*
X141003761Y-69714486D01*
X140986123Y-69699017D01*
X140876615Y-69629186D01*
X140690614Y-69524500D01*
X140448713Y-69396305D01*
X140171507Y-69255948D01*
X139863250Y-69108354D01*
X139456295Y-68935784D01*
X139049680Y-68795175D01*
X138587012Y-68665514D01*
X138512515Y-68646628D01*
X138188181Y-68570649D01*
X137881687Y-68507896D01*
X137624576Y-68464439D01*
X137448392Y-68446352D01*
X137393560Y-68445355D01*
X137256048Y-68451601D01*
X137126658Y-68479097D01*
X136978438Y-68537737D01*
X136784436Y-68637416D01*
X136517698Y-68788029D01*
X136484478Y-68807237D01*
X136086546Y-69059680D01*
X135716072Y-69343367D01*
X135328433Y-69692224D01*
X135151853Y-69864170D01*
X134783996Y-70253185D01*
X134487687Y-70621967D01*
X134242146Y-70997909D01*
X134048575Y-71366542D01*
X134026594Y-71408403D01*
X133987719Y-71491379D01*
X133902715Y-71682509D01*
X133848436Y-71819452D01*
X133835231Y-71876877D01*
X133661418Y-71876877D01*
X133715193Y-71680428D01*
X133757082Y-71508925D01*
X133780967Y-71366542D01*
X133776504Y-71303877D01*
X133759019Y-71295207D01*
X133633218Y-71252151D01*
X133433734Y-71196649D01*
X133192642Y-71136453D01*
X132942015Y-71079312D01*
X132713929Y-71032976D01*
X132540457Y-71005197D01*
X132483034Y-70999733D01*
X132216367Y-70995586D01*
X131893683Y-71015305D01*
X131536548Y-71054954D01*
X131166533Y-71110598D01*
X130805206Y-71178301D01*
X130474136Y-71254127D01*
X130194893Y-71334140D01*
X129989044Y-71414405D01*
X129878159Y-71490987D01*
X129841593Y-71546784D01*
X129745148Y-71747006D01*
X129635749Y-72033585D01*
X129520487Y-72387017D01*
X129406459Y-72787799D01*
X129371559Y-72923611D01*
X129322860Y-73144840D01*
X129289638Y-73362036D01*
X129268789Y-73605391D01*
X129257205Y-73905101D01*
X129251780Y-74291358D01*
X129250074Y-74513162D01*
X129247852Y-74801777D01*
X129246080Y-75031556D01*
X129244908Y-75183185D01*
X129244486Y-75237088D01*
X129244484Y-75237350D01*
X129124287Y-75237350D01*
X129124405Y-75237088D01*
X129099398Y-75166606D01*
X128995313Y-75142160D01*
X128813945Y-75156106D01*
X128437188Y-75229933D01*
X127844716Y-75418604D01*
X127221931Y-75695023D01*
X126584894Y-76050836D01*
X125949664Y-76477689D01*
X125332300Y-76967227D01*
X125133283Y-77139243D01*
X124976609Y-77281830D01*
X124881886Y-77385393D01*
X124834743Y-77469522D01*
X124820810Y-77553808D01*
X124610995Y-77553808D01*
X124610229Y-77546650D01*
X124754043Y-77326301D01*
X124780646Y-77286815D01*
X125023345Y-76991038D01*
X125351468Y-76669905D01*
X125744472Y-76338096D01*
X126181815Y-76010291D01*
X126642953Y-75701169D01*
X127107344Y-75425411D01*
X127554444Y-75197696D01*
X127963712Y-75032704D01*
X128200635Y-74965149D01*
X128474898Y-74910469D01*
X128700066Y-74889614D01*
X129010921Y-74889360D01*
X129014399Y-74203522D01*
X129016565Y-74061646D01*
X129054474Y-73486679D01*
X129135385Y-72936936D01*
X129254393Y-72430435D01*
X129406595Y-71985192D01*
X129587085Y-71619225D01*
X129790961Y-71350551D01*
X129919812Y-71249325D01*
X130207891Y-71111288D01*
X130591094Y-71000214D01*
X131057599Y-70918552D01*
X131595582Y-70868748D01*
X132193219Y-70853250D01*
X132496242Y-70857952D01*
X132809798Y-70876168D01*
X133102114Y-70913688D01*
X133417175Y-70976461D01*
X133798967Y-71070437D01*
X133835838Y-71075593D01*
X133907533Y-71047068D01*
X133985849Y-70948978D01*
X134089084Y-70761860D01*
X134091900Y-70756394D01*
X134257340Y-70500401D01*
X134519621Y-70183013D01*
X134877360Y-69805908D01*
X134925294Y-69757966D01*
X135253517Y-69441839D01*
X135548015Y-69187071D01*
X135843636Y-68967497D01*
X136175231Y-68756949D01*
X136577648Y-68529263D01*
X136637985Y-68496608D01*
X136853114Y-68388727D01*
X137024069Y-68327191D01*
X137195450Y-68299344D01*
X137411860Y-68292528D01*
X137491036Y-68294216D01*
X137796261Y-68320609D01*
X138167271Y-68373841D01*
X138569771Y-68447251D01*
X138969468Y-68534181D01*
X139332066Y-68627971D01*
X139623271Y-68721962D01*
X140304033Y-69021055D01*
X141092135Y-69482788D01*
X141155927Y-69525383D01*
X141331854Y-69640767D01*
X141459337Y-69721244D01*
X141514285Y-69751477D01*
X141522964Y-69744680D01*
X141526923Y-69722282D01*
X141813539Y-69722282D01*
X142699506Y-69703431D01*
X143205681Y-69702948D01*
X143795076Y-69726442D01*
X144100164Y-69753453D01*
X144326933Y-69773530D01*
X144625756Y-69808992D01*
X144943120Y-69845905D01*
X145220024Y-69877378D01*
X145418737Y-69899072D01*
X145516634Y-69910399D01*
X145952057Y-69979714D01*
X146469465Y-70086866D01*
X147047994Y-70227240D01*
X147666783Y-70396224D01*
X147690208Y-70402971D01*
X148026204Y-70501654D01*
X148364072Y-70603934D01*
X148665704Y-70698115D01*
X148892990Y-70772503D01*
X149330921Y-70922078D01*
X148805403Y-70391331D01*
X148530680Y-70121112D01*
X148041542Y-69672695D01*
X147548818Y-69259253D01*
X147063903Y-68888433D01*
X146598193Y-68567883D01*
X146163081Y-68305253D01*
X145769965Y-68108190D01*
X145430238Y-67984344D01*
X145155295Y-67941362D01*
X144786076Y-67973626D01*
X144291036Y-68097470D01*
X143768545Y-68306112D01*
X143236444Y-68590975D01*
X142712569Y-68943483D01*
X142214758Y-69355062D01*
X141813539Y-69722282D01*
X141526923Y-69722282D01*
X141535748Y-69672361D01*
X141571236Y-69580762D01*
X141694195Y-69431939D01*
X141889307Y-69250404D01*
X142140107Y-69048587D01*
X142430130Y-68838915D01*
X142742912Y-68633818D01*
X143061989Y-68445724D01*
X143370895Y-68287062D01*
X143458108Y-68248516D01*
X143742678Y-68142960D01*
X144075932Y-68040950D01*
X144431438Y-67948475D01*
X144782766Y-67871528D01*
X145103484Y-67816099D01*
X145367162Y-67788178D01*
X145547369Y-67793756D01*
X145558319Y-67795941D01*
X145753674Y-67858666D01*
X146017500Y-67973540D01*
X146324201Y-68127121D01*
X146648184Y-68305967D01*
X146963855Y-68496635D01*
X147245619Y-68685683D01*
X147345726Y-68758471D01*
X147870465Y-69169058D01*
X148400740Y-69627563D01*
X148899720Y-70100944D01*
X149330575Y-70556160D01*
X149653937Y-70922078D01*
X149809473Y-71098084D01*
G37*
D11*
X122330000Y-111805000D02*
X122330000Y-114545000D01*
X127570000Y-111805000D02*
X122330000Y-111805000D01*
X127570000Y-111805000D02*
X127570000Y-114545000D01*
X127570000Y-114545000D02*
X122330000Y-114545000D01*
X114880000Y-122330000D02*
X114880000Y-125070000D01*
X120120000Y-122330000D02*
X114880000Y-122330000D01*
X120120000Y-122330000D02*
X120120000Y-125070000D01*
X120120000Y-125070000D02*
X114880000Y-125070000D01*
%LPC*%
D13*
X117700000Y-98032500D03*
D14*
X117700000Y-105652500D03*
D15*
X136200000Y-83675000D03*
X136200000Y-86175000D03*
X147250000Y-89375000D03*
D14*
X157410000Y-89375000D03*
D15*
X166380000Y-126325000D03*
D14*
X156220000Y-126325000D03*
D16*
X131315000Y-127425000D03*
D17*
X133855000Y-127425000D03*
X136395000Y-127425000D03*
X138935000Y-127425000D03*
X141475000Y-127425000D03*
X144015000Y-127425000D03*
X146555000Y-127425000D03*
X149095000Y-127425000D03*
X136395000Y-74425000D03*
X138935000Y-74425000D03*
X141475000Y-74425000D03*
X144015000Y-74425000D03*
D15*
X146250000Y-86325000D03*
D14*
X156410000Y-86325000D03*
D15*
X138940000Y-131525000D03*
D14*
X149100000Y-131525000D03*
D18*
X136500000Y-80925000D03*
X136500000Y-88925000D03*
X136500000Y-77925000D03*
X136500000Y-91925000D03*
X114500000Y-77925000D03*
X114500000Y-91925000D03*
D19*
X163700000Y-134425000D03*
D13*
X121365000Y-75100000D03*
D14*
X128985000Y-75100000D03*
D20*
X151620000Y-118425000D03*
X149080000Y-118425000D03*
X146540000Y-118425000D03*
X144000000Y-118425000D03*
X154160000Y-118425000D03*
X156700000Y-118425000D03*
X154160000Y-95565000D03*
X151620000Y-95565000D03*
X149080000Y-95565000D03*
X146540000Y-95565000D03*
X141460000Y-118425000D03*
X159240000Y-118425000D03*
X156700000Y-95565000D03*
X159240000Y-95565000D03*
X144000000Y-95565000D03*
X141460000Y-95565000D03*
D15*
X154225000Y-80825000D03*
X154225000Y-83325000D03*
X141450000Y-83275000D03*
D14*
X151610000Y-83275000D03*
D21*
X158400000Y-129675000D03*
X158400000Y-136175000D03*
X153900000Y-129675000D03*
X153900000Y-136175000D03*
D15*
X122850000Y-125925000D03*
X125350000Y-125925000D03*
D19*
X163700000Y-67425000D03*
D15*
X139260000Y-136175000D03*
D14*
X129100000Y-136175000D03*
D15*
X131450000Y-123925000D03*
X133950000Y-123925000D03*
D19*
X116700000Y-134425000D03*
X116700000Y-67425000D03*
D21*
X122000000Y-136175000D03*
X122000000Y-129675000D03*
X126500000Y-136175000D03*
X126500000Y-129675000D03*
D15*
X117625000Y-112050000D03*
X120125000Y-112050000D03*
X158400000Y-120925000D03*
X160900000Y-120925000D03*
X118750000Y-120600000D03*
X116250000Y-120600000D03*
D22*
X116425000Y-117950000D03*
X116425000Y-115150000D03*
D23*
X143530000Y-66175000D03*
D24*
X138450000Y-66175000D03*
D15*
X127785000Y-109050000D03*
D14*
X117625000Y-109050000D03*
D25*
X118725000Y-117650000D03*
X118725000Y-117150000D03*
X118725000Y-116650000D03*
X118725000Y-116150000D03*
X118725000Y-115650000D03*
X121525000Y-115650000D03*
X121525000Y-116150000D03*
X121525000Y-116650000D03*
X121525000Y-117150000D03*
X121525000Y-117650000D03*
D26*
X120125000Y-116650000D03*
D27*
X117700000Y-102375000D03*
X117700000Y-101075000D03*
X121350000Y-71750000D03*
X121350000Y-73050000D03*
X114500000Y-74200000D03*
X114500000Y-72900000D03*
D15*
X126200000Y-113175000D03*
X123700000Y-113175000D03*
X118750000Y-123700000D03*
X116250000Y-123700000D03*
%LPD*%
M02*
