M48
; DRILL file {KiCad 8.99.0-3309-gecdc7ee08f-dirty} date 2024-12-18T14:43:20+0100
; FORMAT={-:-/ absolute / metric / decimal}
; #@! TF.CreationDate,2024-12-18T14:43:20+01:00
; #@! TF.GenerationSoftware,Kicad,Pcbnew,8.99.0-3309-gecdc7ee08f-dirty
; #@! TF.FileFunction,Plated,1,2,PTH
FMAT,2
METRIC
; #@! TA.AperFunction,Plated,PTH,ComponentDrill
T1C0.300
; #@! TA.AperFunction,Plated,PTH,ViaDrill
T2C0.600
; #@! TA.AperFunction,Plated,PTH,ComponentDrill
T3C0.800
; #@! TA.AperFunction,Plated,PTH,ComponentDrill
T4C0.900
; #@! TA.AperFunction,Plated,PTH,ComponentDrill
T5C1.000
; #@! TA.AperFunction,Plated,PTH,ComponentDrill
T6C1.100
; #@! TA.AperFunction,Plated,PTH,ComponentDrill
T7C1.300
; #@! TA.AperFunction,Plated,PTH,ComponentDrill
T8C1.500
%
G90
G05
T1
X119.55Y-116.65
X120.125Y-115.7
X120.125Y-117.6
X120.7Y-116.65
T2
X113.775Y-105.325
X113.975Y-102.675
X114.0Y-122.0
X114.275Y-108.35
X115.8Y-126.2
X119.325Y-94.3
X119.7Y-131.625
X120.725Y-113.7
X122.2Y-106.2
X123.95Y-90.95
X125.9Y-117.5
X126.0Y-121.2
X127.075Y-78.975
X127.1Y-96.125
X130.2Y-102.4
X130.225Y-119.4
X131.4Y-133.925
X133.25Y-129.375
X133.75Y-121.95
X133.85Y-91.925
X133.85Y-125.725
X134.55Y-129.6
X135.8Y-123.675
X136.0Y-129.6
X139.1Y-81.625
X139.5Y-90.275
X141.975Y-129.7
X144.45Y-99.775
X145.0Y-136.625
X145.5Y-131.525
X146.225Y-76.15
X150.15Y-68.7
X151.6Y-79.025
X156.15Y-91.425
X156.15Y-115.925
X156.55Y-103.7
X156.6Y-71.1
X156.7Y-98.0
X156.725Y-93.2
X156.775Y-110.15
X160.775Y-123.025
X161.725Y-118.625
X162.0Y-101.925
X162.1Y-129.375
X162.5Y-112.9
X163.0Y-78.925
X163.05Y-121.175
X166.325Y-86.725
X166.4Y-93.825
T3
X116.25Y-120.6
X116.25Y-123.7
X117.625Y-109.05
X117.625Y-112.05
X117.7Y-98.032
X117.7Y-105.652
X118.75Y-120.6
X118.75Y-123.7
X120.125Y-112.05
X121.365Y-75.1
X122.85Y-125.925
X123.7Y-113.175
X125.35Y-125.925
X126.2Y-113.175
X127.785Y-109.05
X128.985Y-75.1
X129.1Y-136.175
X131.45Y-123.925
X133.95Y-123.925
X136.2Y-83.675
X136.2Y-86.175
X138.94Y-131.525
X139.26Y-136.175
X141.45Y-83.275
X146.25Y-86.325
X147.25Y-89.375
X149.1Y-131.525
X151.61Y-83.275
X154.225Y-80.825
X154.225Y-83.325
X156.22Y-126.325
X156.41Y-86.325
X157.41Y-89.375
X158.4Y-120.925
X160.9Y-120.925
X166.38Y-126.325
T4
X141.46Y-95.565
X141.46Y-118.425
X144.0Y-95.565
X144.0Y-118.425
X146.54Y-95.565
X146.54Y-118.425
X149.08Y-95.565
X149.08Y-118.425
X151.62Y-95.565
X151.62Y-118.425
X154.16Y-95.565
X154.16Y-118.425
X156.7Y-95.565
X156.7Y-118.425
X159.24Y-95.565
X159.24Y-118.425
T5
X131.315Y-127.425
X133.855Y-127.425
X136.395Y-74.425
X136.395Y-127.425
X138.935Y-74.425
X138.935Y-127.425
X141.475Y-74.425
X141.475Y-127.425
X144.015Y-74.425
X144.015Y-127.425
X146.555Y-127.425
X149.095Y-127.425
T6
X122.0Y-129.675
X122.0Y-136.175
X126.5Y-129.675
X126.5Y-136.175
X153.9Y-129.675
X153.9Y-136.175
X158.4Y-129.675
X158.4Y-136.175
T7
X138.45Y-66.175
X143.53Y-66.175
T8
X114.5Y-77.925
X114.5Y-91.925
X136.5Y-77.925
X136.5Y-80.925
X136.5Y-88.925
X136.5Y-91.925
M30
